<?xml version="1.0" encoding="UTF-8" standalone="no"?>
<svg
   xmlns:dc="http://purl.org/dc/elements/1.1/"
   xmlns:cc="http://creativecommons.org/ns#"
   xmlns:rdf="http://www.w3.org/1999/02/22-rdf-syntax-ns#"
   xmlns:svg="http://www.w3.org/2000/svg"
   xmlns="http://www.w3.org/2000/svg"
   xmlns:xlink="http://www.w3.org/1999/xlink"
   xmlns:sodipodi="http://sodipodi.sourceforge.net/DTD/sodipodi-0.dtd"
   xmlns:inkscape="http://www.inkscape.org/namespaces/inkscape"
   version="1.1"
   id="svg2"
   xml:space="preserve"
   width="610"
   height="680"
   viewBox="0 0 610.00001 679.99999"
   sodipodi:docname="assustado.svg"
   inkscape:version="1.0.2 (e86c870879, 2021-01-15)"><metadata
     id="metadata8"><rdf:RDF><cc:Work
         rdf:about=""><dc:format>image/svg+xml</dc:format><dc:type
           rdf:resource="http://purl.org/dc/dcmitype/StillImage" /><dc:title /></cc:Work></rdf:RDF></metadata><defs
     id="defs6"><clipPath
       clipPathUnits="userSpaceOnUse"
       id="clipPath90"><path
         d="m 10357.5,14445 c -125.7,19.2 -431.21,55.4 -777.4,20 -393.47,-40.3 -726.02,-313.4 -807.88,-385.7 174.03,-138.1 401.27,-210.1 749.89,-188.7 403.82,24.7 666.29,271.9 835.39,554.4 z"
         id="path88" /></clipPath><linearGradient
       x1="0"
       y1="0"
       x2="1"
       y2="0"
       gradientUnits="userSpaceOnUse"
       gradientTransform="matrix(1585.33,0,0,-1585.33,8772.22,14183.4)"
       spreadMethod="pad"
       id="linearGradient100"><stop
         style="stop-opacity:1;stop-color:#ff4c8b"
         offset="0"
         id="stop92" /><stop
         style="stop-opacity:1;stop-color:#fa9999"
         offset="0.10531767"
         id="stop94" /><stop
         style="stop-opacity:1;stop-color:#fa9999"
         offset="0.302703"
         id="stop96" /><stop
         style="stop-opacity:1;stop-color:#ff3163"
         offset="1"
         id="stop98" /></linearGradient><clipPath
       clipPathUnits="userSpaceOnUse"
       id="clipPath164"><path
         d="m 3006.17,8311.2 c 0,0 187.54,370.1 768.62,369 446.02,-0.8 825.84,-256.1 829.79,-413.2 2.43,-96.3 -15.88,-193.3 -307.33,-152.4 -372.38,52.3 -619.75,310 -940.17,265.7 -320.42,-44.2 -350.91,-69.1 -350.91,-69.1 z"
         id="path162" /></clipPath><linearGradient
       x1="0"
       y1="0"
       x2="1"
       y2="0"
       gradientUnits="userSpaceOnUse"
       gradientTransform="matrix(1596.29,40.2385,40.2385,-1596.29,3004.8,8365.3)"
       spreadMethod="pad"
       id="linearGradient174"><stop
         style="stop-opacity:1;stop-color:#ff4c8b"
         offset="0"
         id="stop166" /><stop
         style="stop-opacity:1;stop-color:#fa9999"
         offset="0.10531767"
         id="stop168" /><stop
         style="stop-opacity:1;stop-color:#fa9999"
         offset="0.302703"
         id="stop170" /><stop
         style="stop-opacity:1;stop-color:#ff3163"
         offset="1"
         id="stop172" /></linearGradient><clipPath
       clipPathUnits="userSpaceOnUse"
       id="clipPath394"><path
         d="m 14894.8,2329.2 c -119.6,47.7 -218.1,95.6 -299.3,141.8 -57.9,-105.8 -118.3,-230.7 -164.8,-361.5 -128.2,-360.8 -150.1,-766.2 281.4,-936.1 419.6,-165.3 663.3,183.2 802.6,582 60.4,173 101.3,355.4 128.4,509.5 -243.6,-31.8 -514,-29.1 -748.3,64.3 z"
         id="path392" /></clipPath><linearGradient
       x1="0"
       y1="0"
       x2="1"
       y2="0"
       gradientUnits="userSpaceOnUse"
       gradientTransform="matrix(857.288,-2051.04,-2051.04,-857.288,14396.8,3351)"
       spreadMethod="pad"
       id="linearGradient404"><stop
         style="stop-opacity:1;stop-color:#ff4c8b"
         offset="0"
         id="stop396" /><stop
         style="stop-opacity:1;stop-color:#fa9999"
         offset="0.10531767"
         id="stop398" /><stop
         style="stop-opacity:1;stop-color:#fa9999"
         offset="0.302703"
         id="stop400" /><stop
         style="stop-opacity:1;stop-color:#ff3163"
         offset="1"
         id="stop402" /></linearGradient><clipPath
       clipPathUnits="userSpaceOnUse"
       id="clipPath506"><path
         d="m 9581.67,8331.8 c 194.84,-0.3 346.38,56.8 451.83,132.5 -104.31,84.9 -231.69,141.8 -365.41,157.8 -195.11,23.4 -397.67,-40.8 -547.87,-166.8 104.34,-70.8 255.04,-123.2 461.45,-123.5 z"
         id="path504" /></clipPath><linearGradient
       x1="0"
       y1="0"
       x2="1"
       y2="0"
       gradientUnits="userSpaceOnUse"
       gradientTransform="matrix(913.325,0,0,-913.325,9120.22,8479.3)"
       spreadMethod="pad"
       id="linearGradient516"><stop
         style="stop-opacity:1;stop-color:#ff4c8b"
         offset="0"
         id="stop508" /><stop
         style="stop-opacity:1;stop-color:#fa9999"
         offset="0.10531767"
         id="stop510" /><stop
         style="stop-opacity:1;stop-color:#fa9999"
         offset="0.302703"
         id="stop512" /><stop
         style="stop-opacity:1;stop-color:#ff3163"
         offset="1"
         id="stop514" /></linearGradient><clipPath
       clipPathUnits="userSpaceOnUse"
       id="clipPath90-3"><path
         d="m 10357.5,14445 c -125.7,19.2 -431.21,55.4 -777.4,20 -393.47,-40.3 -726.02,-313.4 -807.88,-385.7 174.03,-138.1 401.27,-210.1 749.89,-188.7 403.82,24.7 666.29,271.9 835.39,554.4 z"
         id="path88-6" /></clipPath><clipPath
       clipPathUnits="userSpaceOnUse"
       id="clipPath164-6"><path
         d="m 3006.17,8311.2 c 0,0 187.54,370.1 768.62,369 446.02,-0.8 825.84,-256.1 829.79,-413.2 2.43,-96.3 -15.88,-193.3 -307.33,-152.4 -372.38,52.3 -619.75,310 -940.17,265.7 -320.42,-44.2 -350.91,-69.1 -350.91,-69.1 z"
         id="path162-2" /></clipPath><clipPath
       clipPathUnits="userSpaceOnUse"
       id="clipPath394-0"><path
         d="m 14894.8,2329.2 c -119.6,47.7 -218.1,95.6 -299.3,141.8 -57.9,-105.8 -118.3,-230.7 -164.8,-361.5 -128.2,-360.8 -150.1,-766.2 281.4,-936.1 419.6,-165.3 663.3,183.2 802.6,582 60.4,173 101.3,355.4 128.4,509.5 -243.6,-31.8 -514,-29.1 -748.3,64.3 z"
         id="path392-9" /></clipPath><clipPath
       clipPathUnits="userSpaceOnUse"
       id="clipPath506-2"><path
         d="m 9581.67,8331.8 c 194.84,-0.3 346.38,56.8 451.83,132.5 -104.31,84.9 -231.69,141.8 -365.41,157.8 -195.11,23.4 -397.67,-40.8 -547.87,-166.8 104.34,-70.8 255.04,-123.2 461.45,-123.5 z"
         id="path504-6" /></clipPath><linearGradient
       inkscape:collect="always"
       xlink:href="#linearGradient174"
       id="linearGradient2937"
       gradientUnits="userSpaceOnUse"
       gradientTransform="matrix(1596.29,40.2385,40.2385,-1596.29,3004.8,8365.3)"
       x1="0"
       y1="0"
       x2="1"
       y2="0"
       spreadMethod="pad" /></defs><sodipodi:namedview
     pagecolor="#ffffff"
     bordercolor="#666666"
     borderopacity="1"
     objecttolerance="10"
     gridtolerance="10"
     guidetolerance="10"
     inkscape:pageopacity="0"
     inkscape:pageshadow="2"
     inkscape:window-width="1920"
     inkscape:window-height="1019"
     id="namedview4"
     showgrid="false"
     inkscape:zoom="0.11097157"
     inkscape:cx="188.74192"
     inkscape:cy="-545.20717"
     inkscape:window-x="0"
     inkscape:window-y="0"
     inkscape:window-maximized="1"
     inkscape:current-layer="g10"
     inkscape:document-rotation="0" /><g
     id="g10"
     inkscape:groupmode="layer"
     inkscape:label="ink_ext_XXXXXX"
     transform="matrix(1.3333333,0,0,-1.3333333,0,2666.6667)"><g
       id="g3410"
       transform="translate(2569.7565,1136.4428)"><path
         d="m -2453.8715,400.04046 c -14.524,34.37 60.1,75.88 116.169,77.29 56.068,1.42 129.099,-38.56 115.02,-72.61 -15.773,-38.16 -80.31,23.15 -135.222,14.9 -54.912,-8.25 -79.221,-59.2 -95.967,-19.58"
         style="fill:#e0313a;fill-opacity:1;fill-rule:nonzero;stroke:none;stroke-width:0.1"
         id="path156" /><g
         id="g158"
         transform="matrix(0.1,0,0,0.1,-2684.2395,-416.42954)"><g
           id="g160"
           clip-path="url(#clipPath164)"><path
             d="m 3006.17,8311.2 c 0,0 187.54,370.1 768.62,369 446.02,-0.8 825.84,-256.1 829.79,-413.2 2.43,-96.3 -15.88,-193.3 -307.33,-152.4 -372.38,52.3 -619.75,310 -940.17,265.7 -320.42,-44.2 -350.91,-69.1 -350.91,-69.1"
             style="fill:url(#linearGradient2937);fill-opacity:1;fill-rule:nonzero;stroke:none"
             id="path176" /></g></g><path
         d="m -2337.6125,473.72046 c -43.835,-1.1 -98.203,-26.99 -111.871,-53.26 -3.5,-6.73 -4.038,-13.07 -1.598,-18.84 2.91,-6.89 6.082,-10.9 9.695,-12.27 6.574,-2.5 15.813,3.23 27.511,10.48 14.275,8.84 32.041,19.85 55.55,23.38 25.406,3.81 52.294,-6.64 76.016,-15.87 30.581,-11.89 49.686,-18.3 56.821,-1.04 2.459,5.95 1.779,12.43 -2.022,19.25 -14.385,25.82 -67.892,49.23 -110.102,48.17 z m -99.891,-92.2 c -1.983,-0.05 -3.903,0.25 -5.773,0.96 -5.31,2.01 -9.688,7.24 -13.385,15.99 -3.39,8.02 -2.751,16.93 1.847,25.76 14.834,28.52 70.61,55.55 117.02,56.72 44.805,1.13 99.856,-23.42 115.5,-51.5 4.993,-8.96 5.829,-18.07 2.418,-26.32 -9.855,-23.84 -35.117,-14.02 -64.367,-2.64 -23.084,8.97 -49.245,19.15 -73.239,15.54 -22.388,-3.36 -39.602,-14.02 -53.435,-22.59 -10.325,-6.4 -18.927,-11.72 -26.586,-11.92"
         style="fill:#890e0f;fill-opacity:1;fill-rule:nonzero;stroke:none;stroke-width:0.1"
         id="path178" /><path
         d="m -2549.1865,620.17046 c 0,57.51 47.268,104.14 105.577,104.14 58.309,0 105.577,-46.63 105.577,-104.14 0,-57.51 -47.268,-104.13 -105.577,-104.13 -58.309,0 -105.577,46.62 -105.577,104.13"
         style="fill:#878787;fill-opacity:1;fill-rule:nonzero;stroke:none;stroke-width:0.1"
         id="path180" /><path
         d="m -2534.6075,677.78046 c 23.063,50.35 82.181,72.63 132.043,49.79 49.863,-22.84 71.589,-82.17 48.526,-132.51 -23.063,-50.34 -82.181,-72.63 -132.043,-49.79 -49.864,22.85 -71.589,82.17 -48.526,132.51"
         style="fill:#dddddd;fill-opacity:1;fill-rule:nonzero;stroke:none;stroke-width:0.1"
         id="path182" /><path
         d="m -2402.5645,727.57046 c -49.862,22.84 -108.98,0.56 -132.043,-49.79 -3.362,-7.33 -5.765,-14.86 -7.275,-22.44 5.273,-28.57 23.786,-54.12 52.025,-67.06 46.269,-21.19 101.125,-0.51 122.525,46.2 8.404,18.34 10.396,37.97 6.918,56.33 -9.882,15.57 -24.19,28.53 -42.15,36.76"
         style="fill:#ebebeb;fill-opacity:1;fill-rule:nonzero;stroke:none;stroke-width:0.1"
         id="path184" /><path
         d="m -2355.8385,669.14046 c 8.56,-23.38 7.534,-48.78 -2.888,-71.53 -10.196,-22.26 -28.284,-39.44 -50.934,-48.38 -22.571,-8.91 -47.237,-8.7 -69.456,0.6 -0.962,0.41 -1.892,0.81 -2.843,1.25 -22.485,10.3 -39.577,28.83 -48.127,52.18 0,0 43.099,-66.22 111.368,-43.77 66.69,21.93 62.88,109.65 62.88,109.65"
         style="fill:#c6c6c6;fill-opacity:1;fill-rule:nonzero;stroke:none;stroke-width:0.1"
         id="path186" /><path
         d="m -2510.9485,708.44046 c 21.784,21.53 53.674,24.59 71.227,6.83 17.553,-17.76 14.122,-49.61 -7.662,-71.14 -21.785,-21.53 -53.674,-24.59 -71.228,-6.83 -17.553,17.75 -14.123,49.61 7.663,71.14"
         style="fill:#2e7bab;fill-opacity:1;fill-rule:nonzero;stroke:none;stroke-width:0.1"
         id="path188" /><path
         d="m -2496.4135,701.42046 c 15.577,11.79 36.249,10.73 46.172,-2.38 9.923,-13.11 5.34,-33.29 -10.237,-45.09 -15.577,-11.79 -36.249,-10.72 -46.172,2.38 -9.923,13.11 -5.34,33.29 10.237,45.09"
         style="fill:#310003;fill-opacity:1;fill-rule:nonzero;stroke:none;stroke-width:0.1"
         id="path190" /><path
         d="m -2429.6995,675.56046 c 3.189,14.8 0.012,29.56 -10.022,39.71 -3.724,3.77 -8.093,6.6 -12.874,8.52 3.854,1.97 8.1,3 12.357,3 5.028,0 10.07,-1.43 14.505,-4.43 12.117,-8.19 15.091,-24.96 6.642,-37.46 -2.791,-4.13 -6.482,-7.28 -10.608,-9.34"
         style="fill:#f4f4f4;fill-opacity:1;fill-rule:nonzero;stroke:none;stroke-width:0.1"
         id="path192" /><path
         d="m -2441.8225,672.67046 c -1.595,0 -3.191,0.15 -4.769,0.44 2.912,9.05 1.9,18.6 -3.65,25.93 -3.897,5.15 -9.451,8.44 -15.703,9.82 0.753,1.96 1.742,3.88 2.974,5.7 2.739,4.05 6.343,7.16 10.375,9.23 4.781,-1.92 9.15,-4.75 12.874,-8.52 10.034,-10.15 13.211,-24.91 10.022,-39.71 -3.791,-1.9 -7.952,-2.89 -12.123,-2.89"
         style="fill:#8ab5d0;fill-opacity:1;fill-rule:nonzero;stroke:none;stroke-width:0.1"
         id="path194" /><path
         d="m -2446.5915,673.11046 c -3.397,0.63 -6.707,1.95 -9.735,3.99 -10.35,7 -14.029,20.25 -9.618,31.76 6.252,-1.38 11.806,-4.67 15.703,-9.82 5.55,-7.33 6.562,-16.88 3.65,-25.93"
         style="fill:#8b7072;fill-opacity:1;fill-rule:nonzero;stroke:none;stroke-width:0.1"
         id="path196" /><path
         d="m -2477.8105,618.73046 c -5.335,0 -10.013,2.81 -12.637,7.03 0.347,-0.01 0.697,-0.01 1.046,-0.01 8.709,0 17.847,2.32 26.429,6.87 -0.502,-7.76 -6.954,-13.89 -14.838,-13.89"
         style="fill:#f6f6f6;fill-opacity:1;fill-rule:nonzero;stroke:none;stroke-width:0.1"
         id="path198" /><path
         d="m -2489.4015,625.75046 c -0.349,0 -0.699,0 -1.046,0.01 -1.416,2.27 -2.233,4.96 -2.233,7.84 0,5.07 2.544,9.56 6.426,12.24 0.764,-0.05 1.535,-0.08 2.31,-0.08 3.697,0 7.503,0.6 11.252,1.8 5.691,-2.08 9.752,-7.55 9.752,-13.96 0,-0.33 -0.011,-0.65 -0.032,-0.98 -8.582,-4.55 -17.72,-6.87 -26.429,-6.87"
         style="fill:#9dc1d7;fill-opacity:1;fill-rule:nonzero;stroke:none;stroke-width:0.1"
         id="path200" /><path
         d="m -2483.9445,645.76046 c -0.775,0 -1.546,0.03 -2.31,0.08 2.398,1.66 5.307,2.63 8.444,2.63 1.798,0 3.522,-0.32 5.118,-0.91 -3.749,-1.2 -7.555,-1.8 -11.252,-1.8"
         style="fill:#9e8788;fill-opacity:1;fill-rule:nonzero;stroke:none;stroke-width:0.1"
         id="path202" /><path
         d="m -2343.9805,620.17046 c 0,57.51 47.268,104.14 105.577,104.14 58.308,0 105.577,-46.63 105.577,-104.14 0,-57.51 -47.269,-104.13 -105.577,-104.13 -58.309,0 -105.577,46.62 -105.577,104.13"
         style="fill:#878787;fill-opacity:1;fill-rule:nonzero;stroke:none;stroke-width:0.1"
         id="path204" /><path
         d="m -2329.4015,677.78046 c 23.063,50.35 82.181,72.63 132.044,49.79 49.862,-22.84 71.588,-82.17 48.525,-132.51 -23.063,-50.34 -82.181,-72.63 -132.044,-49.79 -49.862,22.85 -71.588,82.17 -48.525,132.51"
         style="fill:#dddddd;fill-opacity:1;fill-rule:nonzero;stroke:none;stroke-width:0.1"
         id="path206" /><path
         d="m -2197.3575,727.57046 c -49.863,22.84 -108.981,0.56 -132.044,-49.79 -3.362,-7.33 -5.765,-14.86 -7.275,-22.44 5.274,-28.57 23.786,-54.12 52.026,-67.06 46.268,-21.19 101.124,-0.51 122.524,46.2 8.404,18.34 10.396,37.97 6.918,56.33 -9.881,15.57 -24.189,28.53 -42.149,36.76"
         style="fill:#ebebeb;fill-opacity:1;fill-rule:nonzero;stroke:none;stroke-width:0.1"
         id="path208" /><path
         d="m -2150.6325,669.14046 c 8.56,-23.38 7.535,-48.78 -2.888,-71.53 -10.195,-22.26 -28.284,-39.44 -50.933,-48.38 -22.571,-8.91 -47.238,-8.7 -69.456,0.6 -0.963,0.41 -1.892,0.81 -2.843,1.25 -22.486,10.3 -39.578,28.83 -48.127,52.18 0,0 43.098,-66.22 111.368,-43.77 66.689,21.93 62.879,109.65 62.879,109.65"
         style="fill:#c6c6c6;fill-opacity:1;fill-rule:nonzero;stroke:none;stroke-width:0.1"
         id="path210" /><path
         d="m -2305.7435,708.44046 c 21.786,21.53 53.675,24.59 71.228,6.83 17.553,-17.76 14.123,-49.61 -7.662,-71.14 -21.785,-21.53 -53.675,-24.59 -71.227,-6.83 -17.553,17.75 -14.123,49.61 7.661,71.14"
         style="fill:#2e7bab;fill-opacity:1;fill-rule:nonzero;stroke:none;stroke-width:0.1"
         id="path212" /><path
         d="m -2291.2075,701.42046 c 15.578,11.79 36.25,10.73 46.172,-2.38 9.923,-13.11 5.34,-33.29 -10.237,-45.09 -15.577,-11.79 -36.249,-10.72 -46.172,2.38 -9.923,13.11 -5.339,33.29 10.237,45.09"
         style="fill:#310003;fill-opacity:1;fill-rule:nonzero;stroke:none;stroke-width:0.1"
         id="path214" /><path
         d="m -2224.4935,675.56046 c 3.189,14.8 0.012,29.56 -10.022,39.71 -3.724,3.77 -8.093,6.6 -12.874,8.52 3.854,1.97 8.1,3 12.358,3 5.028,0 10.07,-1.43 14.504,-4.43 12.116,-8.19 15.091,-24.96 6.643,-37.46 -2.792,-4.13 -6.483,-7.28 -10.609,-9.34"
         style="fill:#f4f4f4;fill-opacity:1;fill-rule:nonzero;stroke:none;stroke-width:0.1"
         id="path216" /><path
         d="m -2236.6165,672.67046 c -1.595,0 -3.19,0.15 -4.768,0.44 2.911,9.05 1.9,18.6 -3.651,25.93 -3.896,5.15 -9.451,8.44 -15.703,9.82 0.753,1.96 1.743,3.88 2.975,5.7 2.738,4.05 6.343,7.16 10.374,9.23 4.781,-1.92 9.15,-4.75 12.874,-8.52 10.034,-10.15 13.211,-24.91 10.022,-39.71 -3.791,-1.9 -7.952,-2.89 -12.123,-2.89"
         style="fill:#8ab5d0;fill-opacity:1;fill-rule:nonzero;stroke:none;stroke-width:0.1"
         id="path218" /><path
         d="m -2241.3845,673.11046 c -3.398,0.63 -6.709,1.95 -9.736,3.99 -10.349,7 -14.029,20.25 -9.618,31.76 6.252,-1.38 11.807,-4.67 15.703,-9.82 5.551,-7.33 6.562,-16.88 3.651,-25.93"
         style="fill:#8b7072;fill-opacity:1;fill-rule:nonzero;stroke:none;stroke-width:0.1"
         id="path220" /><path
         d="m -2272.6045,618.73046 c -5.334,0 -10.013,2.81 -12.637,7.03 0.348,-0.01 0.696,-0.01 1.046,-0.01 8.709,0 17.846,2.32 26.429,6.87 -0.502,-7.76 -6.953,-13.89 -14.838,-13.89"
         style="fill:#f6f6f6;fill-opacity:1;fill-rule:nonzero;stroke:none;stroke-width:0.1"
         id="path222" /><path
         d="m -2284.1955,625.75046 c -0.35,0 -0.698,0 -1.046,0.01 -1.416,2.27 -2.233,4.96 -2.233,7.84 0,5.07 2.544,9.56 6.426,12.24 0.764,-0.05 1.535,-0.08 2.31,-0.08 3.697,0 7.503,0.6 11.252,1.8 5.691,-2.08 9.752,-7.55 9.752,-13.96 0,-0.33 -0.011,-0.66 -0.032,-0.98 -8.583,-4.55 -17.72,-6.87 -26.429,-6.87"
         style="fill:#9dc1d7;fill-opacity:1;fill-rule:nonzero;stroke:none;stroke-width:0.1"
         id="path224" /><path
         d="m -2278.7385,645.76046 c -0.775,0 -1.546,0.03 -2.31,0.08 2.399,1.66 5.308,2.63 8.444,2.63 1.799,0 3.523,-0.32 5.118,-0.91 -3.749,-1.2 -7.555,-1.8 -11.252,-1.8"
         style="fill:#9e8788;fill-opacity:1;fill-rule:nonzero;stroke:none;stroke-width:0.1"
         id="path226" /><path
         d="m -2156.7165,756.39046 c -6.115,30.81 -61.49,73.18 -98.851,78.57 -37.36,5.39 -39.867,-24.99 -15.645,-28.72 24.222,-3.73 55.421,-10.35 77.167,-23.11 21.745,-12.76 37.329,-26.74 37.329,-26.74"
         style="fill:#5e2222;fill-opacity:1;fill-rule:nonzero;stroke:none;stroke-width:0.1"
         id="path228" /><path
         d="m -2514.4995,756.39046 c 6.115,30.81 61.491,73.18 98.851,78.57 37.36,5.39 39.867,-24.99 15.645,-28.72 -24.222,-3.73 -55.421,-10.35 -77.166,-23.11 -21.746,-12.76 -37.33,-26.74 -37.33,-26.74"
         style="fill:#5e2222;fill-opacity:1;fill-rule:nonzero;stroke:none;stroke-width:0.1"
         id="path230" /></g></g></svg>
