<?xml version="1.0" encoding="UTF-8" standalone="no"?>
<svg
   xmlns:dc="http://purl.org/dc/elements/1.1/"
   xmlns:cc="http://creativecommons.org/ns#"
   xmlns:rdf="http://www.w3.org/1999/02/22-rdf-syntax-ns#"
   xmlns:svg="http://www.w3.org/2000/svg"
   xmlns="http://www.w3.org/2000/svg"
   xmlns:sodipodi="http://sodipodi.sourceforge.net/DTD/sodipodi-0.dtd"
   xmlns:inkscape="http://www.inkscape.org/namespaces/inkscape"
   version="1.1"
   id="svg2"
   xml:space="preserve"
   width="610"
   height="680"
   viewBox="0 0 610.00001 679.99999"
   sodipodi:docname="atento.svg"
   inkscape:version="1.0.2 (e86c870879, 2021-01-15)"><metadata
     id="metadata8"><rdf:RDF><cc:Work
         rdf:about=""><dc:format>image/svg+xml</dc:format><dc:type
           rdf:resource="http://purl.org/dc/dcmitype/StillImage" /><dc:title /></cc:Work></rdf:RDF></metadata><defs
     id="defs6"><clipPath
       clipPathUnits="userSpaceOnUse"
       id="clipPath90"><path
         d="m 10357.5,14445 c -125.7,19.2 -431.21,55.4 -777.4,20 -393.47,-40.3 -726.02,-313.4 -807.88,-385.7 174.03,-138.1 401.27,-210.1 749.89,-188.7 403.82,24.7 666.29,271.9 835.39,554.4 z"
         id="path88" /></clipPath><linearGradient
       x1="0"
       y1="0"
       x2="1"
       y2="0"
       gradientUnits="userSpaceOnUse"
       gradientTransform="matrix(1585.33,0,0,-1585.33,8772.22,14183.4)"
       spreadMethod="pad"
       id="linearGradient100"><stop
         style="stop-opacity:1;stop-color:#ff4c8b"
         offset="0"
         id="stop92" /><stop
         style="stop-opacity:1;stop-color:#fa9999"
         offset="0.10531767"
         id="stop94" /><stop
         style="stop-opacity:1;stop-color:#fa9999"
         offset="0.302703"
         id="stop96" /><stop
         style="stop-opacity:1;stop-color:#ff3163"
         offset="1"
         id="stop98" /></linearGradient><clipPath
       clipPathUnits="userSpaceOnUse"
       id="clipPath164"><path
         d="m 3006.17,8311.2 c 0,0 187.54,370.1 768.62,369 446.02,-0.8 825.84,-256.1 829.79,-413.2 2.43,-96.3 -15.88,-193.3 -307.33,-152.4 -372.38,52.3 -619.75,310 -940.17,265.7 -320.42,-44.2 -350.91,-69.1 -350.91,-69.1 z"
         id="path162" /></clipPath><linearGradient
       x1="0"
       y1="0"
       x2="1"
       y2="0"
       gradientUnits="userSpaceOnUse"
       gradientTransform="matrix(1596.29,40.2385,40.2385,-1596.29,3004.8,8365.3)"
       spreadMethod="pad"
       id="linearGradient174"><stop
         style="stop-opacity:1;stop-color:#ff4c8b"
         offset="0"
         id="stop166" /><stop
         style="stop-opacity:1;stop-color:#fa9999"
         offset="0.10531767"
         id="stop168" /><stop
         style="stop-opacity:1;stop-color:#fa9999"
         offset="0.302703"
         id="stop170" /><stop
         style="stop-opacity:1;stop-color:#ff3163"
         offset="1"
         id="stop172" /></linearGradient><clipPath
       clipPathUnits="userSpaceOnUse"
       id="clipPath394"><path
         d="m 14894.8,2329.2 c -119.6,47.7 -218.1,95.6 -299.3,141.8 -57.9,-105.8 -118.3,-230.7 -164.8,-361.5 -128.2,-360.8 -150.1,-766.2 281.4,-936.1 419.6,-165.3 663.3,183.2 802.6,582 60.4,173 101.3,355.4 128.4,509.5 -243.6,-31.8 -514,-29.1 -748.3,64.3 z"
         id="path392" /></clipPath><linearGradient
       x1="0"
       y1="0"
       x2="1"
       y2="0"
       gradientUnits="userSpaceOnUse"
       gradientTransform="matrix(857.288,-2051.04,-2051.04,-857.288,14396.8,3351)"
       spreadMethod="pad"
       id="linearGradient404"><stop
         style="stop-opacity:1;stop-color:#ff4c8b"
         offset="0"
         id="stop396" /><stop
         style="stop-opacity:1;stop-color:#fa9999"
         offset="0.10531767"
         id="stop398" /><stop
         style="stop-opacity:1;stop-color:#fa9999"
         offset="0.302703"
         id="stop400" /><stop
         style="stop-opacity:1;stop-color:#ff3163"
         offset="1"
         id="stop402" /></linearGradient><clipPath
       clipPathUnits="userSpaceOnUse"
       id="clipPath506"><path
         d="m 9581.67,8331.8 c 194.84,-0.3 346.38,56.8 451.83,132.5 -104.31,84.9 -231.69,141.8 -365.41,157.8 -195.11,23.4 -397.67,-40.8 -547.87,-166.8 104.34,-70.8 255.04,-123.2 461.45,-123.5 z"
         id="path504" /></clipPath><linearGradient
       x1="0"
       y1="0"
       x2="1"
       y2="0"
       gradientUnits="userSpaceOnUse"
       gradientTransform="matrix(913.325,0,0,-913.325,9120.22,8479.3)"
       spreadMethod="pad"
       id="linearGradient516"><stop
         style="stop-opacity:1;stop-color:#ff4c8b"
         offset="0"
         id="stop508" /><stop
         style="stop-opacity:1;stop-color:#fa9999"
         offset="0.10531767"
         id="stop510" /><stop
         style="stop-opacity:1;stop-color:#fa9999"
         offset="0.302703"
         id="stop512" /><stop
         style="stop-opacity:1;stop-color:#ff3163"
         offset="1"
         id="stop514" /></linearGradient><clipPath
       clipPathUnits="userSpaceOnUse"
       id="clipPath90-3"><path
         d="m 10357.5,14445 c -125.7,19.2 -431.21,55.4 -777.4,20 -393.47,-40.3 -726.02,-313.4 -807.88,-385.7 174.03,-138.1 401.27,-210.1 749.89,-188.7 403.82,24.7 666.29,271.9 835.39,554.4 z"
         id="path88-6" /></clipPath><clipPath
       clipPathUnits="userSpaceOnUse"
       id="clipPath164-6"><path
         d="m 3006.17,8311.2 c 0,0 187.54,370.1 768.62,369 446.02,-0.8 825.84,-256.1 829.79,-413.2 2.43,-96.3 -15.88,-193.3 -307.33,-152.4 -372.38,52.3 -619.75,310 -940.17,265.7 -320.42,-44.2 -350.91,-69.1 -350.91,-69.1 z"
         id="path162-2" /></clipPath><clipPath
       clipPathUnits="userSpaceOnUse"
       id="clipPath394-0"><path
         d="m 14894.8,2329.2 c -119.6,47.7 -218.1,95.6 -299.3,141.8 -57.9,-105.8 -118.3,-230.7 -164.8,-361.5 -128.2,-360.8 -150.1,-766.2 281.4,-936.1 419.6,-165.3 663.3,183.2 802.6,582 60.4,173 101.3,355.4 128.4,509.5 -243.6,-31.8 -514,-29.1 -748.3,64.3 z"
         id="path392-9" /></clipPath><clipPath
       clipPathUnits="userSpaceOnUse"
       id="clipPath506-2"><path
         d="m 9581.67,8331.8 c 194.84,-0.3 346.38,56.8 451.83,132.5 -104.31,84.9 -231.69,141.8 -365.41,157.8 -195.11,23.4 -397.67,-40.8 -547.87,-166.8 104.34,-70.8 255.04,-123.2 461.45,-123.5 z"
         id="path504-6" /></clipPath></defs><sodipodi:namedview
     pagecolor="#ffffff"
     bordercolor="#666666"
     borderopacity="1"
     objecttolerance="10"
     gridtolerance="10"
     guidetolerance="10"
     inkscape:pageopacity="0"
     inkscape:pageshadow="2"
     inkscape:window-width="1920"
     inkscape:window-height="1019"
     id="namedview4"
     showgrid="false"
     inkscape:zoom="0.11097157"
     inkscape:cx="188.74192"
     inkscape:cy="-545.20717"
     inkscape:window-x="0"
     inkscape:window-y="0"
     inkscape:window-maximized="1"
     inkscape:current-layer="g10"
     inkscape:document-rotation="0" /><g
     id="g10"
     inkscape:groupmode="layer"
     inkscape:label="ink_ext_XXXXXX"
     transform="matrix(1.3333333,0,0,-1.3333333,0,2666.6667)"><g
       id="g3553"
       transform="translate(1955.1119,1776.3612)"><path
         d="m -1933.5685,0.22046 c 0,59.95 46.603,108.55 104.091,108.55 57.487,0 104.09,-48.6 104.09,-108.55 0,-59.95 -46.603,-108.55 -104.09,-108.55 -57.488,0 -104.091,48.6 -104.091,108.55"
         style="fill:#878787;fill-opacity:1;fill-rule:nonzero;stroke:none;stroke-width:0.1"
         id="path520" /><path
         d="m -1938.4375,14.27046 c 1.837,55.34 47.764,98.72 102.581,96.9 54.816,-1.82 97.763,-48.15 95.927,-103.5 -1.838,-55.34 -47.765,-98.73 -102.581,-96.91 -54.817,1.83 -97.765,48.16 -95.927,103.51"
         style="fill:#dddddd;fill-opacity:1;fill-rule:nonzero;stroke:none;stroke-width:0.1"
         id="path522" /><path
         d="m -1835.8565,111.17046 c -54.817,1.82 -100.744,-41.56 -102.581,-96.9 -0.268,-8.07 0.422,-15.95 1.955,-23.52 15.896,-24.32 42.837,-40.74 73.883,-41.77 50.865,-1.69 93.481,38.57 95.185,89.92 0.67,20.17 -5.071,39.05 -15.369,54.64 -15.126,10.55 -33.33,16.98 -53.073,17.63"
         style="fill:#ebebeb;fill-opacity:1;fill-rule:nonzero;stroke:none;stroke-width:0.1"
         id="path524" /><path
         d="m -1770.1935,75.31046 c 16.923,-18.26 25.785,-42.09 24.955,-67.1 -0.813,-24.46 -10.865,-47.29 -28.305,-64.29 -17.38,-16.93 -40.216,-26.26 -64.302,-26.26 -1.044,0 -2.059,0.02 -3.104,0.05 -24.72,0.82 -47.641,11.32 -64.542,29.55 0,0 65.324,-44.44 119.632,2.63 53.051,45.98 15.666,125.42 15.666,125.42"
         style="fill:#c6c6c6;fill-opacity:1;fill-rule:nonzero;stroke:none;stroke-width:0.1"
         id="path526" /><path
         d="m -1899.1765,32.32046 c 1.021,30.74 26.533,54.84 56.985,53.83 30.45,-1.01 54.308,-26.75 53.288,-57.49 -1.021,-30.75 -26.534,-54.85 -56.985,-53.84 -30.451,1.01 -54.309,26.75 -53.288,57.5"
         style="fill:#2e7bab;fill-opacity:1;fill-rule:nonzero;stroke:none;stroke-width:0.1"
         id="path528" /><path
         d="m -1879.0615,31.65046 c 0.648,19.53 16.853,34.83 36.195,34.19 19.342,-0.64 34.496,-16.99 33.848,-36.52 -0.649,-19.52 -16.854,-34.83 -36.195,-34.19 -19.342,0.64 -34.497,16.99 -33.848,36.52"
         style="fill:#310003;fill-opacity:1;fill-rule:nonzero;stroke:none;stroke-width:0.1"
         id="path530" /><path
         d="m -1898.7595,37.56046 c -8.322,5.98 -12.824,16.69 -10.623,27.66 2.614,13.03 13.817,22.07 26.251,22.07 1.68,0 3.38,-0.16 5.087,-0.5 4.352,-0.88 8.233,-2.81 11.445,-5.48 -17.108,-7.77 -29.678,-24.09 -32.16,-43.75"
         style="fill:#f4f4f4;fill-opacity:1;fill-rule:nonzero;stroke:none;stroke-width:0.1"
         id="path532" /><path
         d="m -1883.7045,32.72046 c -1.68,0 -3.38,0.16 -5.087,0.51 -3.705,0.74 -7.069,2.25 -9.968,4.33 2.482,19.66 15.052,35.98 32.16,43.75 5.301,-4.42 8.778,-10.87 9.542,-17.98 -12.067,-4.89 -20.888,-16.37 -21.923,-30.17 -1.544,-0.29 -3.124,-0.44 -4.724,-0.44"
         style="fill:#8ab5d0;fill-opacity:1;fill-rule:nonzero;stroke:none;stroke-width:0.1"
         id="path534" /><path
         d="m -1878.9805,33.16046 c 1.035,13.8 9.856,25.28 21.923,30.17 0.298,-2.77 0.184,-5.64 -0.396,-8.53 -2.278,-11.36 -11.076,-19.68 -21.527,-21.64"
         style="fill:#8b7072;fill-opacity:1;fill-rule:nonzero;stroke:none;stroke-width:0.1"
         id="path536" /><path
         d="m -1814.6085,-25.05954 c -3.68,0 -7.047,1.34 -9.644,3.56 9.188,3.57 17.219,9.56 23.294,17.22 0.785,-1.81 1.221,-3.81 1.221,-5.91 0,-8.21 -6.658,-14.87 -14.871,-14.87"
         style="fill:#f6f6f6;fill-opacity:1;fill-rule:nonzero;stroke:none;stroke-width:0.1"
         id="path538" /><path
         d="m -1824.2525,-21.49954 c -3.197,2.72 -5.225,6.78 -5.225,11.31 0,8.22 6.657,14.87 14.869,14.87 6.114,0 11.365,-3.68 13.65,-8.96 -6.075,-7.66 -14.106,-13.65 -23.294,-17.22"
         style="fill:#9dc1d7;fill-opacity:1;fill-rule:nonzero;stroke:none;stroke-width:0.1"
         id="path540" /><path
         d="m -1722.4135,0.22046 c 0,59.95 46.604,108.55 104.094,108.55 57.48,0 104.09,-48.6 104.09,-108.55 0,-59.95 -46.61,-108.55 -104.09,-108.55 -57.49,0 -104.094,48.6 -104.094,108.55"
         style="fill:#878787;fill-opacity:1;fill-rule:nonzero;stroke:none;stroke-width:0.1"
         id="path542" /><path
         d="m -1727.2835,14.27046 c 1.838,55.34 47.764,98.72 102.584,96.9 54.81,-1.82 97.76,-48.15 95.92,-103.5 -1.83,-55.34 -47.76,-98.73 -102.58,-96.91 -54.814,1.83 -97.761,48.16 -95.924,103.51"
         style="fill:#dddddd;fill-opacity:1;fill-rule:nonzero;stroke:none;stroke-width:0.1"
         id="path544" /><path
         d="m -1624.6995,111.17046 c -54.82,1.82 -100.746,-41.56 -102.584,-96.9 -0.268,-8.07 0.423,-15.95 1.956,-23.52 15.895,-24.32 42.838,-40.74 73.878,-41.77 50.87,-1.69 93.49,38.57 95.19,89.92 0.67,20.17 -5.07,39.05 -15.37,54.64 -15.13,10.55 -33.33,16.98 -53.07,17.63"
         style="fill:#ebebeb;fill-opacity:1;fill-rule:nonzero;stroke:none;stroke-width:0.1"
         id="path546" /><path
         d="m -1559.0395,75.31046 c 16.92,-18.26 25.79,-42.09 24.96,-67.1 -0.82,-24.46 -10.87,-47.29 -28.31,-64.29 -17.38,-16.93 -40.22,-26.26 -64.3,-26.26 -1.05,0 -2.06,0.02 -3.11,0.05 -24.72,0.82 -47.64,11.32 -64.538,29.55 0,0 65.328,-44.44 119.628,2.63 53.06,45.98 15.67,125.42 15.67,125.42"
         style="fill:#c6c6c6;fill-opacity:1;fill-rule:nonzero;stroke:none;stroke-width:0.1"
         id="path548" /><path
         d="m -1688.0225,32.32046 c 1.021,30.74 26.533,54.84 56.983,53.83 30.45,-1.01 54.31,-26.75 53.29,-57.49 -1.02,-30.75 -26.53,-54.85 -56.98,-53.84 -30.46,1.01 -54.314,26.75 -53.293,57.5"
         style="fill:#2e7bab;fill-opacity:1;fill-rule:nonzero;stroke:none;stroke-width:0.1"
         id="path550" /><path
         d="m -1667.9095,31.65046 c 0.65,19.53 16.86,34.83 36.2,34.19 19.34,-0.64 34.49,-16.99 33.85,-36.52 -0.65,-19.52 -16.86,-34.83 -36.2,-34.19 -19.34,0.64 -34.5,16.99 -33.85,36.52"
         style="fill:#310003;fill-opacity:1;fill-rule:nonzero;stroke:none;stroke-width:0.1"
         id="path552" /><path
         d="m -1687.6055,37.56046 c -8.322,5.98 -12.823,16.69 -10.623,27.66 2.615,13.03 13.817,22.07 26.249,22.07 1.68,0 3.38,-0.16 5.09,-0.5 4.35,-0.88 8.23,-2.8 11.44,-5.48 -17.1,-7.77 -29.674,-24.09 -32.156,-43.75"
         style="fill:#f4f4f4;fill-opacity:1;fill-rule:nonzero;stroke:none;stroke-width:0.1"
         id="path554" /><path
         d="m -1672.5495,32.72046 c -1.68,0 -3.38,0.16 -5.09,0.51 -3.7,0.74 -7.067,2.25 -9.966,4.33 2.482,19.66 15.056,35.98 32.156,43.75 5.31,-4.42 8.78,-10.87 9.55,-17.98 -12.07,-4.89 -20.89,-16.37 -21.93,-30.17 -1.54,-0.29 -3.12,-0.44 -4.72,-0.44"
         style="fill:#8ab5d0;fill-opacity:1;fill-rule:nonzero;stroke:none;stroke-width:0.1"
         id="path556" /><path
         d="m -1667.8295,33.16046 c 1.04,13.8 9.86,25.28 21.93,30.17 0.29,-2.77 0.18,-5.64 -0.4,-8.53 -2.28,-11.36 -11.08,-19.68 -21.53,-21.64"
         style="fill:#8b7072;fill-opacity:1;fill-rule:nonzero;stroke:none;stroke-width:0.1"
         id="path558" /><path
         d="m -1603.4495,-25.05954 c -3.68,0 -7.05,1.34 -9.65,3.56 9.19,3.57 17.22,9.56 23.3,17.22 0.78,-1.81 1.22,-3.81 1.22,-5.91 0,-8.21 -6.66,-14.87 -14.87,-14.87"
         style="fill:#f6f6f6;fill-opacity:1;fill-rule:nonzero;stroke:none;stroke-width:0.1"
         id="path560" /><path
         d="m -1613.0995,-21.49954 c -3.2,2.72 -5.22,6.78 -5.22,11.31 0,8.22 6.65,14.87 14.87,14.87 6.11,0 11.36,-3.68 13.65,-8.96 -6.08,-7.66 -14.11,-13.65 -23.3,-17.22"
         style="fill:#9dc1d7;fill-opacity:1;fill-rule:nonzero;stroke:none;stroke-width:0.1"
         id="path562" /><path
         d="m -1915.5245,173.82046 c 0,0 24.164,44.29 95.287,-8.41 45.535,-33.75 71.763,-17.85 71.763,-17.85 0,0 -7.948,-34.16 -38.661,-28.16 -30.713,6 -35.502,33.72 -71.906,49.76 -33.397,14.71 -56.483,4.66 -56.483,4.66"
         style="fill:#5e2222;fill-opacity:1;fill-rule:nonzero;stroke:none;stroke-width:0.1"
         id="path564" /><path
         d="m -1543.9695,173.82046 c 0,0 -36.95,49.34 -95.29,-8.41 -40.28,-39.87 -71.764,-17.85 -71.764,-17.85 0,0 7.947,-34.16 38.664,-28.16 30.71,6 35.5,33.72 71.9,49.76 33.4,14.71 56.49,4.66 56.49,4.66"
         style="fill:#5e2222;fill-opacity:1;fill-rule:nonzero;stroke:none;stroke-width:0.1"
         id="path566" /><path
         d="m -1830.3125,-195.65954 c 2.5,12.51 6.415,33.61 8.021,45.51 -5.37,-13.43 -12.852,-35.64 -17.866,-51.04 88.695,-32.89 184.278,-6.21 237.148,50.6 -72.06,-48.93 -153.797,-62.17 -227.303,-45.07"
         style="fill:#5e2222;fill-opacity:1;fill-rule:nonzero;stroke:none;stroke-width:0.1"
         id="path568" /><path
         d="m -1799.7955,-227.44954 c 8.191,-2.45 23.162,-8.17 38.404,-12.82 15.765,-4.83 30.258,-8.18 38.981,-10.94 -24.703,-12.48 -63.948,-0.3 -77.385,23.76"
         style="fill:#5e2222;fill-opacity:1;fill-rule:nonzero;stroke:none;stroke-width:0.1"
         id="path570" /></g></g></svg>
