<?xml version="1.0" encoding="UTF-8" standalone="no"?>
<svg
   xmlns:dc="http://purl.org/dc/elements/1.1/"
   xmlns:cc="http://creativecommons.org/ns#"
   xmlns:rdf="http://www.w3.org/1999/02/22-rdf-syntax-ns#"
   xmlns:svg="http://www.w3.org/2000/svg"
   xmlns="http://www.w3.org/2000/svg"
   xmlns:sodipodi="http://sodipodi.sourceforge.net/DTD/sodipodi-0.dtd"
   xmlns:inkscape="http://www.inkscape.org/namespaces/inkscape"
   version="1.1"
   id="svg2"
   xml:space="preserve"
   width="610"
   height="680"
   viewBox="0 0 610.00001 679.99999"
   sodipodi:docname="chateado.svg"
   inkscape:version="1.0.2 (e86c870879, 2021-01-15)"><metadata
     id="metadata8"><rdf:RDF><cc:Work
         rdf:about=""><dc:format>image/svg+xml</dc:format><dc:type
           rdf:resource="http://purl.org/dc/dcmitype/StillImage" /><dc:title /></cc:Work></rdf:RDF></metadata><defs
     id="defs6"><clipPath
       clipPathUnits="userSpaceOnUse"
       id="clipPath90"><path
         d="m 10357.5,14445 c -125.7,19.2 -431.21,55.4 -777.4,20 -393.47,-40.3 -726.02,-313.4 -807.88,-385.7 174.03,-138.1 401.27,-210.1 749.89,-188.7 403.82,24.7 666.29,271.9 835.39,554.4 z"
         id="path88" /></clipPath><linearGradient
       x1="0"
       y1="0"
       x2="1"
       y2="0"
       gradientUnits="userSpaceOnUse"
       gradientTransform="matrix(1585.33,0,0,-1585.33,8772.22,14183.4)"
       spreadMethod="pad"
       id="linearGradient100"><stop
         style="stop-opacity:1;stop-color:#ff4c8b"
         offset="0"
         id="stop92" /><stop
         style="stop-opacity:1;stop-color:#fa9999"
         offset="0.10531767"
         id="stop94" /><stop
         style="stop-opacity:1;stop-color:#fa9999"
         offset="0.302703"
         id="stop96" /><stop
         style="stop-opacity:1;stop-color:#ff3163"
         offset="1"
         id="stop98" /></linearGradient><clipPath
       clipPathUnits="userSpaceOnUse"
       id="clipPath164"><path
         d="m 3006.17,8311.2 c 0,0 187.54,370.1 768.62,369 446.02,-0.8 825.84,-256.1 829.79,-413.2 2.43,-96.3 -15.88,-193.3 -307.33,-152.4 -372.38,52.3 -619.75,310 -940.17,265.7 -320.42,-44.2 -350.91,-69.1 -350.91,-69.1 z"
         id="path162" /></clipPath><linearGradient
       x1="0"
       y1="0"
       x2="1"
       y2="0"
       gradientUnits="userSpaceOnUse"
       gradientTransform="matrix(1596.29,40.2385,40.2385,-1596.29,3004.8,8365.3)"
       spreadMethod="pad"
       id="linearGradient174"><stop
         style="stop-opacity:1;stop-color:#ff4c8b"
         offset="0"
         id="stop166" /><stop
         style="stop-opacity:1;stop-color:#fa9999"
         offset="0.10531767"
         id="stop168" /><stop
         style="stop-opacity:1;stop-color:#fa9999"
         offset="0.302703"
         id="stop170" /><stop
         style="stop-opacity:1;stop-color:#ff3163"
         offset="1"
         id="stop172" /></linearGradient><clipPath
       clipPathUnits="userSpaceOnUse"
       id="clipPath394"><path
         d="m 14894.8,2329.2 c -119.6,47.7 -218.1,95.6 -299.3,141.8 -57.9,-105.8 -118.3,-230.7 -164.8,-361.5 -128.2,-360.8 -150.1,-766.2 281.4,-936.1 419.6,-165.3 663.3,183.2 802.6,582 60.4,173 101.3,355.4 128.4,509.5 -243.6,-31.8 -514,-29.1 -748.3,64.3 z"
         id="path392" /></clipPath><linearGradient
       x1="0"
       y1="0"
       x2="1"
       y2="0"
       gradientUnits="userSpaceOnUse"
       gradientTransform="matrix(857.288,-2051.04,-2051.04,-857.288,14396.8,3351)"
       spreadMethod="pad"
       id="linearGradient404"><stop
         style="stop-opacity:1;stop-color:#ff4c8b"
         offset="0"
         id="stop396" /><stop
         style="stop-opacity:1;stop-color:#fa9999"
         offset="0.10531767"
         id="stop398" /><stop
         style="stop-opacity:1;stop-color:#fa9999"
         offset="0.302703"
         id="stop400" /><stop
         style="stop-opacity:1;stop-color:#ff3163"
         offset="1"
         id="stop402" /></linearGradient><clipPath
       clipPathUnits="userSpaceOnUse"
       id="clipPath506"><path
         d="m 9581.67,8331.8 c 194.84,-0.3 346.38,56.8 451.83,132.5 -104.31,84.9 -231.69,141.8 -365.41,157.8 -195.11,23.4 -397.67,-40.8 -547.87,-166.8 104.34,-70.8 255.04,-123.2 461.45,-123.5 z"
         id="path504" /></clipPath><linearGradient
       x1="0"
       y1="0"
       x2="1"
       y2="0"
       gradientUnits="userSpaceOnUse"
       gradientTransform="matrix(913.325,0,0,-913.325,9120.22,8479.3)"
       spreadMethod="pad"
       id="linearGradient516"><stop
         style="stop-opacity:1;stop-color:#ff4c8b"
         offset="0"
         id="stop508" /><stop
         style="stop-opacity:1;stop-color:#fa9999"
         offset="0.10531767"
         id="stop510" /><stop
         style="stop-opacity:1;stop-color:#fa9999"
         offset="0.302703"
         id="stop512" /><stop
         style="stop-opacity:1;stop-color:#ff3163"
         offset="1"
         id="stop514" /></linearGradient><clipPath
       clipPathUnits="userSpaceOnUse"
       id="clipPath90-3"><path
         d="m 10357.5,14445 c -125.7,19.2 -431.21,55.4 -777.4,20 -393.47,-40.3 -726.02,-313.4 -807.88,-385.7 174.03,-138.1 401.27,-210.1 749.89,-188.7 403.82,24.7 666.29,271.9 835.39,554.4 z"
         id="path88-6" /></clipPath><clipPath
       clipPathUnits="userSpaceOnUse"
       id="clipPath164-6"><path
         d="m 3006.17,8311.2 c 0,0 187.54,370.1 768.62,369 446.02,-0.8 825.84,-256.1 829.79,-413.2 2.43,-96.3 -15.88,-193.3 -307.33,-152.4 -372.38,52.3 -619.75,310 -940.17,265.7 -320.42,-44.2 -350.91,-69.1 -350.91,-69.1 z"
         id="path162-2" /></clipPath><clipPath
       clipPathUnits="userSpaceOnUse"
       id="clipPath394-0"><path
         d="m 14894.8,2329.2 c -119.6,47.7 -218.1,95.6 -299.3,141.8 -57.9,-105.8 -118.3,-230.7 -164.8,-361.5 -128.2,-360.8 -150.1,-766.2 281.4,-936.1 419.6,-165.3 663.3,183.2 802.6,582 60.4,173 101.3,355.4 128.4,509.5 -243.6,-31.8 -514,-29.1 -748.3,64.3 z"
         id="path392-9" /></clipPath><clipPath
       clipPathUnits="userSpaceOnUse"
       id="clipPath506-2"><path
         d="m 9581.67,8331.8 c 194.84,-0.3 346.38,56.8 451.83,132.5 -104.31,84.9 -231.69,141.8 -365.41,157.8 -195.11,23.4 -397.67,-40.8 -547.87,-166.8 104.34,-70.8 255.04,-123.2 461.45,-123.5 z"
         id="path504-6" /></clipPath></defs><sodipodi:namedview
     pagecolor="#ffffff"
     bordercolor="#666666"
     borderopacity="1"
     objecttolerance="10"
     gridtolerance="10"
     guidetolerance="10"
     inkscape:pageopacity="0"
     inkscape:pageshadow="2"
     inkscape:window-width="1920"
     inkscape:window-height="1019"
     id="namedview4"
     showgrid="false"
     inkscape:zoom="0.11097157"
     inkscape:cx="188.74192"
     inkscape:cy="-545.20717"
     inkscape:window-x="0"
     inkscape:window-y="0"
     inkscape:window-maximized="1"
     inkscape:current-layer="g10"
     inkscape:document-rotation="0" /><g
     id="g10"
     inkscape:groupmode="layer"
     inkscape:label="ink_ext_XXXXXX"
     transform="matrix(1.3333333,0,0,-1.3333333,0,2666.6667)"><g
       id="g3462"
       transform="translate(1391.305,1109.6985)"><path
         d="m -1356.8995,628.47046 c 0,61.59 43.85,111.52 97.95,111.52 54.09,0 97.94,-49.93 97.94,-111.52 0,-61.6 -43.85,-111.53 -97.94,-111.53 -54.1,0 -97.95,49.93 -97.95,111.53"
         style="fill:#878787;fill-opacity:1;fill-rule:nonzero;stroke:none;stroke-width:0.1"
         id="path410" /><path
         d="m -1357.7195,644.00046 c 1.83,55.34 47.76,98.73 102.58,96.91 54.81,-1.82 97.76,-48.16 95.92,-103.5 -1.83,-55.35 -47.76,-98.73 -102.58,-96.91 -54.81,1.82 -97.76,48.16 -95.92,103.5"
         style="fill:#dddddd;fill-opacity:1;fill-rule:nonzero;stroke:none;stroke-width:0.1"
         id="path412" /><path
         d="m -1191.0895,705.05046 c 16.92,-18.26 25.79,-42.09 24.95,-67.1 -0.81,-24.47 -10.86,-47.3 -28.3,-64.29 -17.38,-16.94 -40.22,-26.27 -64.3,-26.27 -1.05,0 -2.06,0.02 -3.11,0.05 -24.72,0.83 -47.64,11.32 -64.54,29.56 0,0 65.33,-44.45 119.63,2.62 53.05,45.98 15.67,125.43 15.67,125.43"
         style="fill:#c6c6c6;fill-opacity:1;fill-rule:nonzero;stroke:none;stroke-width:0.1"
         id="path414" /><path
         d="m -1255.1395,740.91046 c -54.82,1.82 -100.75,-41.57 -102.58,-96.91 -0.27,-8.07 0.42,-15.94 1.95,-23.52 15.9,-24.31 42.84,-40.74 73.88,-41.77 50.87,-1.68 93.49,38.58 95.19,89.93 0.67,20.16 -5.07,39.04 -15.37,54.63 -15.13,10.55 -33.33,16.98 -53.07,17.64"
         style="fill:#ebebeb;fill-opacity:1;fill-rule:nonzero;stroke:none;stroke-width:0.1"
         id="path416" /><path
         d="m -1314.6895,695.28046 c 0.69,20.81 25.93,36.85 56.38,35.84 30.45,-1.01 54.58,-18.69 53.89,-39.5 -0.69,-20.8 -25.94,-36.85 -56.39,-35.84 -30.45,1.02 -54.57,18.7 -53.88,39.5"
         style="fill:#2e7bab;fill-opacity:1;fill-rule:nonzero;stroke:none;stroke-width:0.1"
         id="path418" /><path
         d="m -1294.5795,694.62046 c 0.44,13.21 16.48,23.4 35.82,22.76 19.34,-0.64 34.66,-11.87 34.22,-25.09 -0.43,-13.21 -16.47,-23.41 -35.81,-22.76 -19.34,0.64 -34.67,11.87 -34.23,25.09"
         style="fill:#310003;fill-opacity:1;fill-rule:nonzero;stroke:none;stroke-width:0.1"
         id="path420" /><path
         d="m -1314.6395,696.35046 c -1.4,2.59 -2.13,5.41 -2.03,8.36 0.35,10.56 11.25,18.96 25.14,20.03 -13.29,-6.24 -22.23,-16.49 -23.11,-28.39"
         style="fill:#f4f4f4;fill-opacity:1;fill-rule:nonzero;stroke:none;stroke-width:0.1"
         id="path422" /><path
         d="m -1290.5095,682.78046 c -11.03,0.9 -20.21,6.31 -24.13,13.57 0.88,11.9 9.82,22.15 23.11,28.39 0.98,0.07 1.99,0.11 3,0.11 0.44,0 0.88,0 1.33,-0.02 8.51,-0.28 16.06,-3.24 21.19,-7.72 -15.95,-1.75 -28.19,-10.97 -28.57,-22.49 -0.14,-4.25 1.35,-8.29 4.07,-11.84"
         style="fill:#8ab5d0;fill-opacity:1;fill-rule:nonzero;stroke:none;stroke-width:0.1"
         id="path424" /><path
         d="m -1287.2795,682.65046 c -0.44,0 -0.88,0.01 -1.32,0.02 -0.65,0.02 -1.28,0.06 -1.91,0.11 -2.72,3.55 -4.21,7.59 -4.07,11.84 0.38,11.52 12.62,20.74 28.57,22.49 4.44,-3.88 7.05,-8.91 6.87,-14.31 -0.37,-11.32 -12.85,-20.15 -28.14,-20.15"
         style="fill:#8b7072;fill-opacity:1;fill-rule:nonzero;stroke:none;stroke-width:0.1"
         id="path426" /><path
         d="m -1165.0695,628.47046 c 0,61.59 43.85,111.52 97.94,111.52 54.09,0 97.94,-49.93 97.94,-111.52 0,-61.6 -43.85,-111.53 -97.94,-111.53 -54.09,0 -97.94,49.93 -97.94,111.53"
         style="fill:#878787;fill-opacity:1;fill-rule:nonzero;stroke:none;stroke-width:0.1"
         id="path428" /><path
         d="m -1165.8995,644.00046 c 1.84,55.34 47.76,98.73 102.58,96.91 54.82,-1.82 97.76,-48.16 95.93,-103.5 -1.84,-55.35 -47.77,-98.73 -102.58,-96.91 -54.82,1.82 -97.77,48.16 -95.93,103.5"
         style="fill:#dddddd;fill-opacity:1;fill-rule:nonzero;stroke:none;stroke-width:0.1"
         id="path430" /><path
         d="m -999.2695,705.05046 c 16.93,-18.26 25.79,-42.09 24.96,-67.1 -0.81,-24.47 -10.87,-47.3 -28.31,-64.29 -17.38,-16.94 -40.21,-26.27 -64.3,-26.27 -1.04,0 -2.06,0.02 -3.1,0.05 -24.72,0.83 -47.64,11.32 -64.54,29.56 0,0 65.32,-44.45 119.63,2.62 53.05,45.98 15.66,125.43 15.66,125.43"
         style="fill:#c6c6c6;fill-opacity:1;fill-rule:nonzero;stroke:none;stroke-width:0.1"
         id="path432" /><path
         d="m -1063.3195,740.91046 c -54.82,1.82 -100.74,-41.57 -102.58,-96.91 -0.27,-8.07 0.42,-15.94 1.96,-23.52 15.89,-24.31 42.83,-40.74 73.88,-41.77 50.86,-1.68 93.48,38.58 95.18,89.93 0.67,20.16 -5.07,39.04 -15.37,54.63 -15.12,10.55 -33.33,16.98 -53.07,17.64"
         style="fill:#ebebeb;fill-opacity:1;fill-rule:nonzero;stroke:none;stroke-width:0.1"
         id="path434" /><path
         d="m -1122.8695,695.28046 c 0.69,20.81 25.94,36.85 56.39,35.84 30.45,-1.01 54.57,-18.69 53.88,-39.5 -0.69,-20.8 -25.93,-36.85 -56.38,-35.84 -30.46,1.02 -54.58,18.7 -53.89,39.5"
         style="fill:#2e7bab;fill-opacity:1;fill-rule:nonzero;stroke:none;stroke-width:0.1"
         id="path436" /><path
         d="m -1102.7595,694.62046 c 0.44,13.21 16.48,23.4 35.82,22.76 19.34,-0.64 34.67,-11.87 34.23,-25.09 -0.44,-13.21 -16.48,-23.41 -35.82,-22.76 -19.34,0.64 -34.66,11.87 -34.23,25.09"
         style="fill:#310003;fill-opacity:1;fill-rule:nonzero;stroke:none;stroke-width:0.1"
         id="path438" /><path
         d="m -1122.8095,696.35046 c -1.4,2.59 -2.13,5.41 -2.04,8.36 0.35,10.56 11.25,18.96 25.14,20.03 -13.28,-6.24 -22.22,-16.49 -23.1,-28.39"
         style="fill:#f4f4f4;fill-opacity:1;fill-rule:nonzero;stroke:none;stroke-width:0.1"
         id="path440" /><path
         d="m -1098.6895,682.78046 c -11.03,0.9 -20.2,6.31 -24.12,13.57 0.88,11.9 9.82,22.15 23.1,28.39 0.99,0.07 1.99,0.11 3.01,0.11 0.44,0 0.88,0 1.32,-0.02 8.51,-0.28 16.07,-3.24 21.19,-7.72 -15.95,-1.75 -28.18,-10.97 -28.57,-22.49 -0.14,-4.25 1.35,-8.29 4.07,-11.84"
         style="fill:#8ab5d0;fill-opacity:1;fill-rule:nonzero;stroke:none;stroke-width:0.1"
         id="path442" /><path
         d="m -1095.4495,682.65046 c -0.44,0 -0.89,0.01 -1.33,0.02 -0.64,0.02 -1.28,0.06 -1.91,0.11 -2.72,3.55 -4.21,7.59 -4.07,11.84 0.39,11.52 12.62,20.74 28.57,22.49 4.44,-3.88 7.06,-8.91 6.88,-14.31 -0.38,-11.32 -12.86,-20.15 -28.14,-20.15"
         style="fill:#8b7072;fill-opacity:1;fill-rule:nonzero;stroke:none;stroke-width:0.1"
         id="path444" /><path
         d="m -1356.1495,812.47046 c 0,0 24.16,44.3 95.28,-8.41 45.54,-33.74 71.77,-17.84 71.77,-17.84 0,0 -7.95,-34.16 -38.66,-28.16 -30.72,6 -35.51,33.72 -71.91,49.75 -33.4,14.72 -56.48,4.66 -56.48,4.66"
         style="fill:#5e2222;fill-opacity:1;fill-rule:nonzero;stroke:none;stroke-width:0.1"
         id="path446" /><path
         d="m -998.9195,821.43046 c 0,0 -42,45.12 -93.85,-18.53 -35.8,-43.94 -69.45,-25.4 -69.45,-25.4 0,0 11.55,-33.11 41.44,-23.87 29.9,9.24 31.71,37.31 66.19,57.14 31.64,18.19 55.67,10.66 55.67,10.66"
         style="fill:#5e2222;fill-opacity:1;fill-rule:nonzero;stroke:none;stroke-width:0.1"
         id="path448" /><path
         d="m -1079.6795,454.50046 c -12.93,11.27 -33.79,44.68 -65.15,50.19 -49.46,6.75 -70.38,-14.73 -80.95,-26.1 -17.64,-18.88 -25.32,-31.73 -45.95,-38.05 -12.72,-3.94 -26.85,-4.21 -40.42,-1.15 18.56,-8.29 44.34,-7.96 62.26,3.43 10.05,5.79 21.14,18.42 31.98,28.87 1.96,1.89 24.35,28.66 71.02,21.37 12.58,-1.96 21.4,-7.63 33.33,-18.08 23.3,-20.65 29.7,-33.47 52.3,-35.5 14.06,-1.22 29.61,3.31 40.95,9.98 -19.58,-7.03 -43.47,-8.65 -59.37,5.04"
         style="fill:#3d1c39;fill-opacity:1;fill-rule:nonzero;stroke:none;stroke-width:0.1"
         id="path450" /></g></g></svg>
