<?xml version="1.0" encoding="UTF-8" standalone="no"?>
<svg
   xmlns:dc="http://purl.org/dc/elements/1.1/"
   xmlns:cc="http://creativecommons.org/ns#"
   xmlns:rdf="http://www.w3.org/1999/02/22-rdf-syntax-ns#"
   xmlns:svg="http://www.w3.org/2000/svg"
   xmlns="http://www.w3.org/2000/svg"
   xmlns:xlink="http://www.w3.org/1999/xlink"
   xmlns:sodipodi="http://sodipodi.sourceforge.net/DTD/sodipodi-0.dtd"
   xmlns:inkscape="http://www.inkscape.org/namespaces/inkscape"
   version="1.1"
   id="svg2"
   xml:space="preserve"
   width="610"
   height="680"
   viewBox="0 0 610.00001 679.99999"
   sodipodi:docname="doidinho.svg"
   inkscape:version="1.0.2 (e86c870879, 2021-01-15)"><metadata
     id="metadata8"><rdf:RDF><cc:Work
         rdf:about=""><dc:format>image/svg+xml</dc:format><dc:type
           rdf:resource="http://purl.org/dc/dcmitype/StillImage" /><dc:title /></cc:Work></rdf:RDF></metadata><defs
     id="defs6"><clipPath
       clipPathUnits="userSpaceOnUse"
       id="clipPath90"><path
         d="m 10357.5,14445 c -125.7,19.2 -431.21,55.4 -777.4,20 -393.47,-40.3 -726.02,-313.4 -807.88,-385.7 174.03,-138.1 401.27,-210.1 749.89,-188.7 403.82,24.7 666.29,271.9 835.39,554.4 z"
         id="path88" /></clipPath><linearGradient
       x1="0"
       y1="0"
       x2="1"
       y2="0"
       gradientUnits="userSpaceOnUse"
       gradientTransform="matrix(1585.33,0,0,-1585.33,8772.22,14183.4)"
       spreadMethod="pad"
       id="linearGradient100"><stop
         style="stop-opacity:1;stop-color:#ff4c8b"
         offset="0"
         id="stop92" /><stop
         style="stop-opacity:1;stop-color:#fa9999"
         offset="0.10531767"
         id="stop94" /><stop
         style="stop-opacity:1;stop-color:#fa9999"
         offset="0.302703"
         id="stop96" /><stop
         style="stop-opacity:1;stop-color:#ff3163"
         offset="1"
         id="stop98" /></linearGradient><clipPath
       clipPathUnits="userSpaceOnUse"
       id="clipPath164"><path
         d="m 3006.17,8311.2 c 0,0 187.54,370.1 768.62,369 446.02,-0.8 825.84,-256.1 829.79,-413.2 2.43,-96.3 -15.88,-193.3 -307.33,-152.4 -372.38,52.3 -619.75,310 -940.17,265.7 -320.42,-44.2 -350.91,-69.1 -350.91,-69.1 z"
         id="path162" /></clipPath><linearGradient
       x1="0"
       y1="0"
       x2="1"
       y2="0"
       gradientUnits="userSpaceOnUse"
       gradientTransform="matrix(1596.29,40.2385,40.2385,-1596.29,3004.8,8365.3)"
       spreadMethod="pad"
       id="linearGradient174"><stop
         style="stop-opacity:1;stop-color:#ff4c8b"
         offset="0"
         id="stop166" /><stop
         style="stop-opacity:1;stop-color:#fa9999"
         offset="0.10531767"
         id="stop168" /><stop
         style="stop-opacity:1;stop-color:#fa9999"
         offset="0.302703"
         id="stop170" /><stop
         style="stop-opacity:1;stop-color:#ff3163"
         offset="1"
         id="stop172" /></linearGradient><clipPath
       clipPathUnits="userSpaceOnUse"
       id="clipPath394"><path
         d="m 14894.8,2329.2 c -119.6,47.7 -218.1,95.6 -299.3,141.8 -57.9,-105.8 -118.3,-230.7 -164.8,-361.5 -128.2,-360.8 -150.1,-766.2 281.4,-936.1 419.6,-165.3 663.3,183.2 802.6,582 60.4,173 101.3,355.4 128.4,509.5 -243.6,-31.8 -514,-29.1 -748.3,64.3 z"
         id="path392" /></clipPath><linearGradient
       x1="0"
       y1="0"
       x2="1"
       y2="0"
       gradientUnits="userSpaceOnUse"
       gradientTransform="matrix(857.288,-2051.04,-2051.04,-857.288,14396.8,3351)"
       spreadMethod="pad"
       id="linearGradient404"><stop
         style="stop-opacity:1;stop-color:#ff4c8b"
         offset="0"
         id="stop396" /><stop
         style="stop-opacity:1;stop-color:#fa9999"
         offset="0.10531767"
         id="stop398" /><stop
         style="stop-opacity:1;stop-color:#fa9999"
         offset="0.302703"
         id="stop400" /><stop
         style="stop-opacity:1;stop-color:#ff3163"
         offset="1"
         id="stop402" /></linearGradient><clipPath
       clipPathUnits="userSpaceOnUse"
       id="clipPath506"><path
         d="m 9581.67,8331.8 c 194.84,-0.3 346.38,56.8 451.83,132.5 -104.31,84.9 -231.69,141.8 -365.41,157.8 -195.11,23.4 -397.67,-40.8 -547.87,-166.8 104.34,-70.8 255.04,-123.2 461.45,-123.5 z"
         id="path504" /></clipPath><linearGradient
       x1="0"
       y1="0"
       x2="1"
       y2="0"
       gradientUnits="userSpaceOnUse"
       gradientTransform="matrix(913.325,0,0,-913.325,9120.22,8479.3)"
       spreadMethod="pad"
       id="linearGradient516"><stop
         style="stop-opacity:1;stop-color:#ff4c8b"
         offset="0"
         id="stop508" /><stop
         style="stop-opacity:1;stop-color:#fa9999"
         offset="0.10531767"
         id="stop510" /><stop
         style="stop-opacity:1;stop-color:#fa9999"
         offset="0.302703"
         id="stop512" /><stop
         style="stop-opacity:1;stop-color:#ff3163"
         offset="1"
         id="stop514" /></linearGradient><clipPath
       clipPathUnits="userSpaceOnUse"
       id="clipPath90-3"><path
         d="m 10357.5,14445 c -125.7,19.2 -431.21,55.4 -777.4,20 -393.47,-40.3 -726.02,-313.4 -807.88,-385.7 174.03,-138.1 401.27,-210.1 749.89,-188.7 403.82,24.7 666.29,271.9 835.39,554.4 z"
         id="path88-6" /></clipPath><clipPath
       clipPathUnits="userSpaceOnUse"
       id="clipPath164-6"><path
         d="m 3006.17,8311.2 c 0,0 187.54,370.1 768.62,369 446.02,-0.8 825.84,-256.1 829.79,-413.2 2.43,-96.3 -15.88,-193.3 -307.33,-152.4 -372.38,52.3 -619.75,310 -940.17,265.7 -320.42,-44.2 -350.91,-69.1 -350.91,-69.1 z"
         id="path162-2" /></clipPath><clipPath
       clipPathUnits="userSpaceOnUse"
       id="clipPath394-0"><path
         d="m 14894.8,2329.2 c -119.6,47.7 -218.1,95.6 -299.3,141.8 -57.9,-105.8 -118.3,-230.7 -164.8,-361.5 -128.2,-360.8 -150.1,-766.2 281.4,-936.1 419.6,-165.3 663.3,183.2 802.6,582 60.4,173 101.3,355.4 128.4,509.5 -243.6,-31.8 -514,-29.1 -748.3,64.3 z"
         id="path392-9" /></clipPath><clipPath
       clipPathUnits="userSpaceOnUse"
       id="clipPath506-2"><path
         d="m 9581.67,8331.8 c 194.84,-0.3 346.38,56.8 451.83,132.5 -104.31,84.9 -231.69,141.8 -365.41,157.8 -195.11,23.4 -397.67,-40.8 -547.87,-166.8 104.34,-70.8 255.04,-123.2 461.45,-123.5 z"
         id="path504-6" /></clipPath><linearGradient
       inkscape:collect="always"
       xlink:href="#linearGradient404"
       id="linearGradient2939"
       gradientUnits="userSpaceOnUse"
       gradientTransform="matrix(857.288,-2051.04,-2051.04,-857.288,14396.8,3351)"
       x1="0"
       y1="0"
       x2="1"
       y2="0"
       spreadMethod="pad" /></defs><sodipodi:namedview
     pagecolor="#ffffff"
     bordercolor="#666666"
     borderopacity="1"
     objecttolerance="10"
     gridtolerance="10"
     guidetolerance="10"
     inkscape:pageopacity="0"
     inkscape:pageshadow="2"
     inkscape:window-width="1920"
     inkscape:window-height="1019"
     id="namedview4"
     showgrid="false"
     inkscape:zoom="0.11097157"
     inkscape:cx="188.74192"
     inkscape:cy="-545.20717"
     inkscape:window-x="0"
     inkscape:window-y="0"
     inkscape:window-maximized="1"
     inkscape:current-layer="g10"
     inkscape:document-rotation="0" /><g
     id="g10"
     inkscape:groupmode="layer"
     inkscape:label="ink_ext_XXXXXX"
     transform="matrix(1.3333333,0,0,-1.3333333,0,2666.6667)"><g
       id="g3585"
       transform="translate(1369.7445,1784.8655)"><path
         d="m -1347.6895,21.81046 c 0,59.13 46.6,107.07 104.09,107.07 57.49,0 104.09,-47.94 104.09,-107.07 0,-59.13 -46.6,-107.06 -104.09,-107.06 -57.49,0 -104.09,47.93 -104.09,107.06"
         style="fill:#878787;fill-opacity:1;fill-rule:nonzero;stroke:none;stroke-width:0.1"
         id="path336" /><path
         d="m -1341.9895,36.37046 c 1.84,55.35 47.77,98.73 102.58,96.91 54.82,-1.82 97.77,-48.15 95.93,-103.5 -1.84,-55.34 -47.76,-98.73 -102.58,-96.91 -54.82,1.82 -97.76,48.16 -95.93,103.5"
         style="fill:#dddddd;fill-opacity:1;fill-rule:nonzero;stroke:none;stroke-width:0.1"
         id="path338" /><path
         d="m -1175.3495,97.42046 c 16.92,-18.26 25.78,-42.09 24.95,-67.1 -0.81,-24.46 -10.86,-47.29 -28.3,-64.29 -17.38,-16.93 -40.22,-26.26 -64.31,-26.26 -1.04,0 -2.05,0.02 -3.1,0.05 -24.72,0.82 -47.64,11.32 -64.54,29.55 0,0 65.32,-44.44 119.63,2.63 53.05,45.98 15.67,125.42 15.67,125.42"
         style="fill:#c6c6c6;fill-opacity:1;fill-rule:nonzero;stroke:none;stroke-width:0.1"
         id="path340" /><path
         d="m -1239.4095,133.28046 c -54.81,1.82 -100.74,-41.56 -102.58,-96.91 -0.26,-8.06 0.43,-15.94 1.96,-23.51 15.89,-24.32 42.84,-40.74 73.88,-41.77 50.87,-1.69 93.48,38.57 95.19,89.92 0.67,20.17 -5.07,39.05 -15.37,54.64 -15.13,10.55 -33.33,16.98 -53.08,17.63"
         style="fill:#ebebeb;fill-opacity:1;fill-rule:nonzero;stroke:none;stroke-width:0.1"
         id="path342" /><path
         d="m -1263.2795,1.98046 c 0.91,27.4 23.65,48.88 50.78,47.98 27.14,-0.9 48.4,-23.84 47.49,-51.24 -0.91,-27.4 -23.64,-48.88 -50.78,-47.98 -27.14,0.91 -48.4,23.85 -47.49,51.24"
         style="fill:#2e7bab;fill-opacity:1;fill-rule:nonzero;stroke:none;stroke-width:0.1"
         id="path344" /><path
         d="m -1245.3495,1.39046 c 0.58,17.4 15.02,31.04 32.25,30.47 17.24,-0.57 30.75,-15.14 30.17,-32.55 -0.58,-17.4 -15.02,-31.04 -32.26,-30.47 -17.24,0.57 -30.74,15.15 -30.16,32.55"
         style="fill:#310003;fill-opacity:1;fill-rule:nonzero;stroke:none;stroke-width:0.1"
         id="path346" /><path
         d="m -1294.7395,37.21046 c -0.34,0 -0.67,0.01 -1,0.02 -16.5,0.55 -29.43,14.5 -28.88,31.15 0.54,16.32 13.82,29.19 29.88,29.19 0.33,0 0.66,-0.01 1,-0.02 16.5,-0.54 29.42,-14.49 28.87,-31.15 -0.54,-16.32 -13.82,-29.19 -29.87,-29.19"
         style="fill:#f4f4f4;fill-opacity:1;fill-rule:nonzero;stroke:none;stroke-width:0.1"
         id="path348" /><path
         d="m -1256.4595,25.61046 c -2.18,2.59 -3.5,5.94 -3.5,9.59 0,8.21 6.66,14.87 14.87,14.87 4.18,0 7.96,-1.73 10.66,-4.51 -9.18,-4.21 -16.89,-11.21 -22.03,-19.95"
         style="fill:#f6f6f6;fill-opacity:1;fill-rule:nonzero;stroke:none;stroke-width:0.1"
         id="path350" /><path
         d="m -1245.0895,20.33046 c -4.56,0 -8.64,2.05 -11.37,5.28 5.14,8.74 12.85,15.74 22.03,19.95 2.61,-2.68 4.21,-6.33 4.21,-10.36 0,-8.22 -6.65,-14.87 -14.87,-14.87"
         style="fill:#9dc1d7;fill-opacity:1;fill-rule:nonzero;stroke:none;stroke-width:0.1"
         id="path352" /><path
         d="m -1142.4795,21.81046 c 0,59.13 46.6,107.07 104.09,107.07 57.48,0 104.09,-47.94 104.09,-107.07 0,-59.13 -46.61,-107.06 -104.09,-107.06 -57.49,0 -104.09,47.93 -104.09,107.06"
         style="fill:#878787;fill-opacity:1;fill-rule:nonzero;stroke:none;stroke-width:0.1"
         id="path354" /><path
         d="m -1136.7795,36.37046 c 1.84,55.35 47.76,98.73 102.58,96.91 54.82,-1.82 97.76,-48.15 95.93,-103.5 -1.84,-55.34 -47.77,-98.73 -102.58,-96.91 -54.82,1.82 -97.77,48.16 -95.93,103.5"
         style="fill:#dddddd;fill-opacity:1;fill-rule:nonzero;stroke:none;stroke-width:0.1"
         id="path356" /><path
         d="m -970.1495,97.42046 c 16.93,-18.26 25.79,-42.09 24.96,-67.1 -0.81,-24.46 -10.87,-47.29 -28.31,-64.29 -17.38,-16.93 -40.21,-26.26 -64.3,-26.26 -1.04,0 -2.06,0.02 -3.1,0.05 -24.72,0.82 -47.64,11.32 -64.54,29.55 0,0 65.32,-44.44 119.63,2.63 53.05,45.98 15.66,125.42 15.66,125.42"
         style="fill:#c6c6c6;fill-opacity:1;fill-rule:nonzero;stroke:none;stroke-width:0.1"
         id="path358" /><path
         d="m -1034.1995,133.28046 c -54.82,1.82 -100.74,-41.56 -102.58,-96.91 -0.27,-8.06 0.42,-15.94 1.96,-23.51 15.89,-24.32 42.83,-40.74 73.88,-41.77 50.86,-1.69 93.48,38.57 95.18,89.92 0.67,20.17 -5.07,39.05 -15.37,54.64 -15.12,10.55 -33.33,16.98 -53.07,17.63"
         style="fill:#ebebeb;fill-opacity:1;fill-rule:nonzero;stroke:none;stroke-width:0.1"
         id="path360" /><path
         d="m -1111.3995,58.60046 c 1.02,30.74 26.53,54.84 56.98,53.83 30.45,-1.01 54.31,-26.75 53.29,-57.49 -1.02,-30.75 -26.53,-54.85 -56.98,-53.84 -30.46,1.01 -54.31,26.76 -53.29,57.5"
         style="fill:#2e7bab;fill-opacity:1;fill-rule:nonzero;stroke:none;stroke-width:0.1"
         id="path362" /><path
         d="m -1091.2895,57.93046 c 0.65,19.53 16.86,34.84 36.2,34.2 19.34,-0.65 34.49,-17 33.84,-36.52 -0.64,-19.53 -16.85,-34.84 -36.19,-34.2 -19.34,0.64 -34.5,16.99 -33.85,36.52"
         style="fill:#310003;fill-opacity:1;fill-rule:nonzero;stroke:none;stroke-width:0.1"
         id="path364" /><path
         d="m -1111.4295,55.75046 c -5.19,5.63 -8.26,13.26 -7.98,21.56 0.54,16.31 13.82,29.18 29.87,29.18 0.34,0 0.67,0 1,-0.02 2.03,-0.06 4.01,-0.33 5.91,-0.79 -16.59,-9.13 -28.09,-26.64 -28.77,-47.08 -0.03,-0.96 -0.04,-1.91 -0.03,-2.85"
         style="fill:#f4f4f4;fill-opacity:1;fill-rule:nonzero;stroke:none;stroke-width:0.1"
         id="path366" /><path
         d="m -1089.6995,46.14046 c -0.28,0 -0.56,0 -0.84,0.01 -8.28,0.28 -15.66,3.93 -20.89,9.6 -0.01,0.94 0,1.89 0.03,2.85 0.68,20.44 12.18,37.95 28.77,47.08 8.15,-1.94 14.97,-7.23 19.02,-14.32 -15.37,-3.32 -27.13,-16.86 -27.68,-33.43 -0.13,-4.11 0.43,-8.08 1.59,-11.79"
         style="fill:#8ab5d0;fill-opacity:1;fill-rule:nonzero;stroke:none;stroke-width:0.1"
         id="path368" /><path
         d="m -1089.5395,46.14046 c -0.05,0 -0.11,0 -0.16,0 -1.16,3.71 -1.72,7.68 -1.59,11.79 0.55,16.57 12.31,30.11 27.68,33.43 2.68,-4.71 4.14,-10.21 3.95,-16.04 -0.54,-16.32 -13.82,-29.18 -29.88,-29.18"
         style="fill:#8b7072;fill-opacity:1;fill-rule:nonzero;stroke:none;stroke-width:0.1"
         id="path370" /><path
         d="m -998.2395,-15.35954 c -2.97,0 -5.73,0.87 -8.05,2.36 7.98,5.45 15.08,12.13 21.02,19.79 1.21,-2.15 1.9,-4.64 1.9,-7.28 0,-8.21 -6.66,-14.87 -14.87,-14.87"
         style="fill:#efefef;fill-opacity:1;fill-rule:nonzero;stroke:none;stroke-width:0.1"
         id="path372" /><path
         d="m -1006.2895,-12.99954 c -4.1,2.64 -6.82,7.26 -6.82,12.51 0,8.21 6.65,14.87 14.87,14.87 5.56,0 10.42,-3.06 12.97,-7.59 -5.94,-7.66 -13.04,-14.34 -21.02,-19.79"
         style="fill:#f6f6f6;fill-opacity:1;fill-rule:nonzero;stroke:none;stroke-width:0.1"
         id="path374" /><path
         d="m -1104.3195,209.91046 c 0,0 41.82,29.01 85.44,2.46 43.62,-26.56 64.88,-97.24 64.88,-97.24 0,0 -40.07,55.93 -80.51,73.58 -40.44,17.66 -69.81,21.2 -69.81,21.2"
         style="fill:#5e2222;fill-opacity:1;fill-rule:nonzero;stroke:none;stroke-width:0.1"
         id="path376" /><path
         d="m -1177.1595,188.54046 c 0,0 -33.32,32.94 -77.08,15.77 -43.77,-17.16 -74.25,-77.88 -74.25,-77.88 0,0 45.2,44.36 84.67,53.95 39.47,9.6 66.66,8.16 66.66,8.16"
         style="fill:#5e2222;fill-opacity:1;fill-rule:nonzero;stroke:none;stroke-width:0.1"
         id="path378" /><path
         d="m -1281.7195,-136.80954 c 3.47,1.36 6.07,2.48 8.5,3.73 2.41,1.23 4.6,2.45 6.75,3.77 2.15,1.31 4.23,2.7 6.43,4.28 2.22,1.6 4.41,3.39 7.22,5.85 1.29,-3.56 0.6,-7.41 -1,-10.7 -1.63,-3.31 -4.28,-6.08 -7.43,-7.99 -3.14,-1.91 -6.82,-3.01 -10.5,-2.93 -3.66,0.09 -7.4,1.23 -9.97,3.99"
         style="fill:#60290d;fill-opacity:1;fill-rule:nonzero;stroke:none;stroke-width:0.1"
         id="path380" /><path
         d="m -995.8295,-132.52954 c -2.49,-2.84 -6.19,-4.09 -9.84,-4.29 -3.69,-0.19 -7.39,0.8 -10.59,2.61 -3.2,1.82 -5.94,4.51 -7.66,7.77 -1.7,3.24 -2.5,7.07 -1.32,10.67 2.88,-2.38 5.12,-4.11 7.39,-5.64 2.24,-1.51 4.36,-2.83 6.55,-4.09 2.19,-1.25 4.41,-2.4 6.86,-3.56 2.47,-1.17 5.1,-2.21 8.61,-3.47"
         style="fill:#60290d;fill-opacity:1;fill-rule:nonzero;stroke:none;stroke-width:0.1"
         id="path382" /><path
         d="m -1261.9295,-134.67954 c 0,0 -2.23,-100.03 88.14,-108.66 90.37,-8.63 124.22,72.1 124.22,72.1 0,0 -84.66,-36.4 -145.19,-12.27 -60.53,24.14 -67.17,48.83 -67.17,48.83"
         style="fill:#5e2222;fill-opacity:1;fill-rule:nonzero;stroke:none;stroke-width:0.1"
         id="path384" /><path
         d="m -1194.7595,-183.50954 c -11.96,4.77 -21.81,9.56 -29.93,14.18 -5.79,-10.58 -11.83,-23.07 -16.48,-36.15 12.87,-18.71 33.68,-34.64 67.38,-37.86 15.25,-1.46 28.88,-0.36 41.02,2.45 6.04,17.3 10.13,35.54 12.84,50.95 -24.36,-3.18 -51.4,-2.91 -74.83,6.43"
         style="fill:#5e2222;fill-opacity:1;fill-rule:nonzero;stroke:none;stroke-width:0.1"
         id="path386" /><g
         id="g388"
         transform="matrix(0.1,0,0,0.1,-2684.2395,-416.42954)"><g
           id="g390"
           clip-path="url(#clipPath394)"><path
             d="m 14894.8,2329.2 c -119.6,47.7 -218.1,95.6 -299.3,141.8 -57.9,-105.8 -118.3,-230.7 -164.8,-361.5 -128.2,-360.8 -150.1,-766.2 281.4,-936.1 419.6,-165.3 663.3,183.2 802.6,582 60.4,173 101.3,355.4 128.4,509.5 -243.6,-31.8 -514,-29.1 -748.3,64.3"
             style="fill:url(#linearGradient2939);fill-opacity:1;fill-rule:nonzero;stroke:none"
             id="path406" /></g></g><path
         d="m -1261.9295,-134.67954 c 0,0 29.5,-48.26 124.68,-46.84 95.17,1.42 123.14,54.97 123.14,54.97 0,0 -25.53,-69.01 -122.91,-70.46 -97.39,-1.46 -124.91,62.33 -124.91,62.33"
         style="fill:#5e2222;fill-opacity:1;fill-rule:nonzero;stroke:none;stroke-width:0.1"
         id="path408" /></g></g></svg>
