<?xml version="1.0" encoding="UTF-8" standalone="no"?>
<svg
   xmlns:dc="http://purl.org/dc/elements/1.1/"
   xmlns:cc="http://creativecommons.org/ns#"
   xmlns:rdf="http://www.w3.org/1999/02/22-rdf-syntax-ns#"
   xmlns:svg="http://www.w3.org/2000/svg"
   xmlns="http://www.w3.org/2000/svg"
   xmlns:sodipodi="http://sodipodi.sourceforge.net/DTD/sodipodi-0.dtd"
   xmlns:inkscape="http://www.inkscape.org/namespaces/inkscape"
   version="1.1"
   id="svg2"
   xml:space="preserve"
   width="610"
   height="680"
   viewBox="0 0 610.00001 679.99999"
   sodipodi:docname="medo.svg"
   inkscape:version="1.0.2 (e86c870879, 2021-01-15)"><metadata
     id="metadata8"><rdf:RDF><cc:Work
         rdf:about=""><dc:format>image/svg+xml</dc:format><dc:type
           rdf:resource="http://purl.org/dc/dcmitype/StillImage" /><dc:title /></cc:Work></rdf:RDF></metadata><defs
     id="defs6"><clipPath
       clipPathUnits="userSpaceOnUse"
       id="clipPath90"><path
         d="m 10357.5,14445 c -125.7,19.2 -431.21,55.4 -777.4,20 -393.47,-40.3 -726.02,-313.4 -807.88,-385.7 174.03,-138.1 401.27,-210.1 749.89,-188.7 403.82,24.7 666.29,271.9 835.39,554.4 z"
         id="path88" /></clipPath><linearGradient
       x1="0"
       y1="0"
       x2="1"
       y2="0"
       gradientUnits="userSpaceOnUse"
       gradientTransform="matrix(1585.33,0,0,-1585.33,8772.22,14183.4)"
       spreadMethod="pad"
       id="linearGradient100"><stop
         style="stop-opacity:1;stop-color:#ff4c8b"
         offset="0"
         id="stop92" /><stop
         style="stop-opacity:1;stop-color:#fa9999"
         offset="0.10531767"
         id="stop94" /><stop
         style="stop-opacity:1;stop-color:#fa9999"
         offset="0.302703"
         id="stop96" /><stop
         style="stop-opacity:1;stop-color:#ff3163"
         offset="1"
         id="stop98" /></linearGradient><clipPath
       clipPathUnits="userSpaceOnUse"
       id="clipPath164"><path
         d="m 3006.17,8311.2 c 0,0 187.54,370.1 768.62,369 446.02,-0.8 825.84,-256.1 829.79,-413.2 2.43,-96.3 -15.88,-193.3 -307.33,-152.4 -372.38,52.3 -619.75,310 -940.17,265.7 -320.42,-44.2 -350.91,-69.1 -350.91,-69.1 z"
         id="path162" /></clipPath><linearGradient
       x1="0"
       y1="0"
       x2="1"
       y2="0"
       gradientUnits="userSpaceOnUse"
       gradientTransform="matrix(1596.29,40.2385,40.2385,-1596.29,3004.8,8365.3)"
       spreadMethod="pad"
       id="linearGradient174"><stop
         style="stop-opacity:1;stop-color:#ff4c8b"
         offset="0"
         id="stop166" /><stop
         style="stop-opacity:1;stop-color:#fa9999"
         offset="0.10531767"
         id="stop168" /><stop
         style="stop-opacity:1;stop-color:#fa9999"
         offset="0.302703"
         id="stop170" /><stop
         style="stop-opacity:1;stop-color:#ff3163"
         offset="1"
         id="stop172" /></linearGradient><clipPath
       clipPathUnits="userSpaceOnUse"
       id="clipPath394"><path
         d="m 14894.8,2329.2 c -119.6,47.7 -218.1,95.6 -299.3,141.8 -57.9,-105.8 -118.3,-230.7 -164.8,-361.5 -128.2,-360.8 -150.1,-766.2 281.4,-936.1 419.6,-165.3 663.3,183.2 802.6,582 60.4,173 101.3,355.4 128.4,509.5 -243.6,-31.8 -514,-29.1 -748.3,64.3 z"
         id="path392" /></clipPath><linearGradient
       x1="0"
       y1="0"
       x2="1"
       y2="0"
       gradientUnits="userSpaceOnUse"
       gradientTransform="matrix(857.288,-2051.04,-2051.04,-857.288,14396.8,3351)"
       spreadMethod="pad"
       id="linearGradient404"><stop
         style="stop-opacity:1;stop-color:#ff4c8b"
         offset="0"
         id="stop396" /><stop
         style="stop-opacity:1;stop-color:#fa9999"
         offset="0.10531767"
         id="stop398" /><stop
         style="stop-opacity:1;stop-color:#fa9999"
         offset="0.302703"
         id="stop400" /><stop
         style="stop-opacity:1;stop-color:#ff3163"
         offset="1"
         id="stop402" /></linearGradient><clipPath
       clipPathUnits="userSpaceOnUse"
       id="clipPath506"><path
         d="m 9581.67,8331.8 c 194.84,-0.3 346.38,56.8 451.83,132.5 -104.31,84.9 -231.69,141.8 -365.41,157.8 -195.11,23.4 -397.67,-40.8 -547.87,-166.8 104.34,-70.8 255.04,-123.2 461.45,-123.5 z"
         id="path504" /></clipPath><linearGradient
       x1="0"
       y1="0"
       x2="1"
       y2="0"
       gradientUnits="userSpaceOnUse"
       gradientTransform="matrix(913.325,0,0,-913.325,9120.22,8479.3)"
       spreadMethod="pad"
       id="linearGradient516"><stop
         style="stop-opacity:1;stop-color:#ff4c8b"
         offset="0"
         id="stop508" /><stop
         style="stop-opacity:1;stop-color:#fa9999"
         offset="0.10531767"
         id="stop510" /><stop
         style="stop-opacity:1;stop-color:#fa9999"
         offset="0.302703"
         id="stop512" /><stop
         style="stop-opacity:1;stop-color:#ff3163"
         offset="1"
         id="stop514" /></linearGradient><clipPath
       clipPathUnits="userSpaceOnUse"
       id="clipPath90-3"><path
         d="m 10357.5,14445 c -125.7,19.2 -431.21,55.4 -777.4,20 -393.47,-40.3 -726.02,-313.4 -807.88,-385.7 174.03,-138.1 401.27,-210.1 749.89,-188.7 403.82,24.7 666.29,271.9 835.39,554.4 z"
         id="path88-6" /></clipPath><clipPath
       clipPathUnits="userSpaceOnUse"
       id="clipPath164-6"><path
         d="m 3006.17,8311.2 c 0,0 187.54,370.1 768.62,369 446.02,-0.8 825.84,-256.1 829.79,-413.2 2.43,-96.3 -15.88,-193.3 -307.33,-152.4 -372.38,52.3 -619.75,310 -940.17,265.7 -320.42,-44.2 -350.91,-69.1 -350.91,-69.1 z"
         id="path162-2" /></clipPath><clipPath
       clipPathUnits="userSpaceOnUse"
       id="clipPath394-0"><path
         d="m 14894.8,2329.2 c -119.6,47.7 -218.1,95.6 -299.3,141.8 -57.9,-105.8 -118.3,-230.7 -164.8,-361.5 -128.2,-360.8 -150.1,-766.2 281.4,-936.1 419.6,-165.3 663.3,183.2 802.6,582 60.4,173 101.3,355.4 128.4,509.5 -243.6,-31.8 -514,-29.1 -748.3,64.3 z"
         id="path392-9" /></clipPath><clipPath
       clipPathUnits="userSpaceOnUse"
       id="clipPath506-2"><path
         d="m 9581.67,8331.8 c 194.84,-0.3 346.38,56.8 451.83,132.5 -104.31,84.9 -231.69,141.8 -365.41,157.8 -195.11,23.4 -397.67,-40.8 -547.87,-166.8 104.34,-70.8 255.04,-123.2 461.45,-123.5 z"
         id="path504-6" /></clipPath></defs><sodipodi:namedview
     pagecolor="#ffffff"
     bordercolor="#666666"
     borderopacity="1"
     objecttolerance="10"
     gridtolerance="10"
     guidetolerance="10"
     inkscape:pageopacity="0"
     inkscape:pageshadow="2"
     inkscape:window-width="1920"
     inkscape:window-height="1019"
     id="namedview4"
     showgrid="false"
     inkscape:zoom="0.11097157"
     inkscape:cx="188.74192"
     inkscape:cy="-545.20717"
     inkscape:window-x="0"
     inkscape:window-y="0"
     inkscape:window-maximized="1"
     inkscape:current-layer="g10"
     inkscape:document-rotation="0" /><g
     id="g10"
     inkscape:groupmode="layer"
     inkscape:label="ink_ext_XXXXXX"
     transform="matrix(1.3333333,0,0,-1.3333333,0,2666.6667)"><g
       id="g3360"
       transform="translate(1391.3045,479.63052)"><path
         d="m -1365.5295,1255.9105 c 0,57.9 46.09,104.83 102.96,104.83 56.86,0 102.95,-46.93 102.95,-104.83 0,-57.9 -46.09,-104.84 -102.95,-104.84 -56.87,0 -102.96,46.94 -102.96,104.84"
         style="fill:#878787;fill-opacity:1;fill-rule:nonzero;stroke:none;stroke-width:0.1"
         id="path286" /><path
         d="m -1165.4995,1255.9105 c 0,57.9 46.1,104.83 102.96,104.83 56.86,0 102.96,-46.93 102.96,-104.83 0,-57.9 -46.1,-104.84 -102.96,-104.84 -56.86,0 -102.96,46.94 -102.96,104.84"
         style="fill:#878787;fill-opacity:1;fill-rule:nonzero;stroke:none;stroke-width:0.1"
         id="path288" /><path
         d="m -1363.2595,1272.7105 c 1.84,55.34 47.77,98.73 102.58,96.9 54.82,-1.81 97.77,-48.15 95.93,-103.49 -1.84,-55.35 -47.76,-98.73 -102.58,-96.91 -54.82,1.82 -97.77,48.16 -95.93,103.5"
         style="fill:#dddddd;fill-opacity:1;fill-rule:nonzero;stroke:none;stroke-width:0.1"
         id="path290" /><path
         d="m -1196.6195,1333.7605 c 16.92,-18.26 25.78,-42.09 24.95,-67.1 -0.81,-24.47 -10.86,-47.3 -28.3,-64.3 -17.38,-16.93 -40.22,-26.26 -64.31,-26.26 -1.04,0 -2.05,0.02 -3.1,0.06 -24.72,0.82 -47.64,11.31 -64.54,29.55 0,0 65.32,-44.45 119.63,2.62 53.05,45.98 15.67,125.43 15.67,125.43"
         style="fill:#c6c6c6;fill-opacity:1;fill-rule:nonzero;stroke:none;stroke-width:0.1"
         id="path292" /><path
         d="m -1260.6795,1369.6205 c -54.81,1.82 -100.74,-41.57 -102.58,-96.91 -0.27,-8.07 0.42,-15.94 1.96,-23.52 15.89,-24.31 42.83,-40.73 73.88,-41.77 50.87,-1.68 93.48,38.58 95.19,89.93 0.67,20.16 -5.08,39.04 -15.37,54.63 -15.13,10.55 -33.33,16.98 -53.08,17.64"
         style="fill:#ebebeb;fill-opacity:1;fill-rule:nonzero;stroke:none;stroke-width:0.1"
         id="path294" /><path
         d="m -1336.7095,1283.1605 c 1.02,30.75 26.53,54.85 56.98,53.84 30.45,-1.01 54.31,-26.75 53.29,-57.5 -1.02,-30.74 -26.53,-54.84 -56.99,-53.83 -30.45,1.01 -54.3,26.75 -53.28,57.49"
         style="fill:#2e7bab;fill-opacity:1;fill-rule:nonzero;stroke:none;stroke-width:0.1"
         id="path296" /><path
         d="m -1316.5995,1282.5005 c 0.65,19.52 16.85,34.83 36.2,34.19 19.34,-0.64 34.49,-16.99 33.84,-36.52 -0.64,-19.53 -16.85,-34.84 -36.19,-34.19 -19.34,0.64 -34.5,16.99 -33.85,36.52"
         style="fill:#310003;fill-opacity:1;fill-rule:nonzero;stroke:none;stroke-width:0.1"
         id="path298" /><path
         d="m -1329.0895,1309.6305 c -1.24,3.5 -1.86,7.28 -1.73,11.22 0.54,16.31 13.82,29.18 29.88,29.18 0.33,0 0.66,0 1,-0.02 9.94,-0.33 18.59,-5.52 23.77,-13.25 -1.18,0.12 -2.36,0.2 -3.56,0.24 -0.62,0.02 -1.23,0.03 -1.85,0.03 -20.11,0 -37.86,-10.95 -47.51,-27.4"
         style="fill:#f4f4f4;fill-opacity:1;fill-rule:nonzero;stroke:none;stroke-width:0.1"
         id="path300" /><path
         d="m -1314.6495,1293.0205 c -6.69,3.48 -11.88,9.43 -14.44,16.61 9.65,16.45 27.4,27.4 47.51,27.4 0.62,0 1.23,-0.01 1.85,-0.03 1.2,-0.04 2.38,-0.12 3.56,-0.24 3.41,-5.09 5.32,-11.28 5.1,-17.9 -0.04,-1.24 -0.15,-2.46 -0.34,-3.66 -2.85,0.87 -5.87,1.39 -8.99,1.49 -0.4,0.01 -0.79,0.02 -1.18,0.02 -15.19,0 -28.27,-9.83 -33.07,-23.69"
         style="fill:#8ab5d0;fill-opacity:1;fill-rule:nonzero;stroke:none;stroke-width:0.1"
         id="path302" /><path
         d="m -1300.9395,1289.6805 c -0.34,0 -0.67,0 -1.01,0.01 -4.58,0.15 -8.88,1.34 -12.7,3.33 4.8,13.86 17.88,23.69 33.07,23.69 0.39,0 0.78,-0.01 1.18,-0.02 3.12,-0.1 6.14,-0.62 8.99,-1.49 -2.24,-14.54 -14.7,-25.52 -29.53,-25.52"
         style="fill:#8b7072;fill-opacity:1;fill-rule:nonzero;stroke:none;stroke-width:0.1"
         id="path304" /><path
         d="m -1240.6295,1231.3705 c -3.85,0 -7.36,1.47 -10,3.87 8.24,5.65 14.9,13.5 19.14,22.74 3.49,-2.72 5.73,-6.97 5.73,-11.74 0,-8.21 -6.65,-14.87 -14.87,-14.87"
         style="fill:#f6f6f6;fill-opacity:1;fill-rule:nonzero;stroke:none;stroke-width:0.1"
         id="path306" /><path
         d="m -1250.6295,1235.2405 c -2.99,2.72 -4.87,6.64 -4.87,11 0,8.22 6.66,14.87 14.87,14.87 3.45,0 6.62,-1.17 9.14,-3.13 -4.24,-9.24 -10.9,-17.09 -19.14,-22.74"
         style="fill:#9dc1d7;fill-opacity:1;fill-rule:nonzero;stroke:none;stroke-width:0.1"
         id="path308" /><path
         d="m -1161.0295,1272.7105 c 1.84,55.34 47.77,98.73 102.59,96.9 54.81,-1.81 97.76,-48.15 95.92,-103.49 -1.84,-55.35 -47.76,-98.73 -102.58,-96.91 -54.82,1.82 -97.76,48.16 -95.93,103.5"
         style="fill:#dddddd;fill-opacity:1;fill-rule:nonzero;stroke:none;stroke-width:0.1"
         id="path310" /><path
         d="m -994.3895,1333.7605 c 16.92,-18.26 25.78,-42.09 24.95,-67.1 -0.81,-24.47 -10.86,-47.3 -28.3,-64.3 -17.38,-16.93 -40.22,-26.26 -64.3,-26.26 -1.05,0 -2.06,0.02 -3.11,0.06 -24.72,0.82 -47.64,11.31 -64.54,29.55 0,0 65.32,-44.45 119.63,2.62 53.05,45.98 15.67,125.43 15.67,125.43"
         style="fill:#c6c6c6;fill-opacity:1;fill-rule:nonzero;stroke:none;stroke-width:0.1"
         id="path312" /><path
         d="m -1058.4395,1369.6205 c -54.82,1.82 -100.75,-41.57 -102.59,-96.91 -0.26,-8.07 0.43,-15.94 1.96,-23.52 15.9,-24.31 42.84,-40.73 73.88,-41.77 50.87,-1.68 93.48,38.58 95.19,89.93 0.67,20.16 -5.07,39.04 -15.37,54.63 -15.13,10.55 -33.33,16.98 -53.07,17.64"
         style="fill:#ebebeb;fill-opacity:1;fill-rule:nonzero;stroke:none;stroke-width:0.1"
         id="path314" /><path
         d="m -1134.4795,1283.1605 c 1.02,30.75 26.53,54.85 56.98,53.84 30.45,-1.01 54.31,-26.75 53.29,-57.5 -1.02,-30.74 -26.53,-54.84 -56.98,-53.83 -30.45,1.01 -54.31,26.75 -53.29,57.49"
         style="fill:#2e7bab;fill-opacity:1;fill-rule:nonzero;stroke:none;stroke-width:0.1"
         id="path316" /><path
         d="m -1114.3695,1282.5005 c 0.65,19.52 16.86,34.83 36.2,34.19 19.34,-0.64 34.49,-16.99 33.85,-36.52 -0.65,-19.53 -16.86,-34.84 -36.2,-34.19 -19.34,0.64 -34.5,16.99 -33.85,36.52"
         style="fill:#310003;fill-opacity:1;fill-rule:nonzero;stroke:none;stroke-width:0.1"
         id="path318" /><path
         d="m -1126.8495,1309.6305 c -1.25,3.5 -1.87,7.28 -1.74,11.22 0.55,16.31 13.83,29.18 29.88,29.18 0.33,0 0.66,0 1,-0.02 9.94,-0.33 18.59,-5.52 23.77,-13.25 -1.18,0.12 -2.36,0.2 -3.56,0.24 -0.62,0.02 -1.23,0.03 -1.84,0.03 -20.12,0 -37.87,-10.95 -47.51,-27.4"
         style="fill:#f4f4f4;fill-opacity:1;fill-rule:nonzero;stroke:none;stroke-width:0.1"
         id="path320" /><path
         d="m -1112.4195,1293.0205 c -6.69,3.48 -11.87,9.43 -14.43,16.61 9.64,16.45 27.39,27.4 47.51,27.4 0.61,0 1.22,-0.01 1.84,-0.03 1.2,-0.04 2.38,-0.12 3.56,-0.24 3.42,-5.09 5.32,-11.28 5.1,-17.9 -0.04,-1.24 -0.15,-2.46 -0.34,-3.66 -2.85,0.87 -5.87,1.39 -8.99,1.49 -0.39,0.01 -0.78,0.02 -1.17,0.02 -15.2,0 -28.28,-9.83 -33.08,-23.69"
         style="fill:#8ab5d0;fill-opacity:1;fill-rule:nonzero;stroke:none;stroke-width:0.1"
         id="path322" /><path
         d="m -1098.7095,1289.6805 c -0.33,0 -0.67,0 -1,0.01 -4.58,0.15 -8.89,1.34 -12.71,3.33 4.8,13.86 17.88,23.69 33.08,23.69 0.39,0 0.78,-0.01 1.17,-0.02 3.12,-0.1 6.14,-0.62 8.99,-1.49 -2.23,-14.54 -14.7,-25.52 -29.53,-25.52"
         style="fill:#8b7072;fill-opacity:1;fill-rule:nonzero;stroke:none;stroke-width:0.1"
         id="path324" /><path
         d="m -1038.3895,1231.3705 c -3.86,0 -7.37,1.47 -10.01,3.87 8.24,5.65 14.9,13.5 19.14,22.74 3.49,-2.72 5.74,-6.97 5.74,-11.74 0,-8.21 -6.66,-14.87 -14.87,-14.87"
         style="fill:#f6f6f6;fill-opacity:1;fill-rule:nonzero;stroke:none;stroke-width:0.1"
         id="path326" /><path
         d="m -1048.3995,1235.2405 c -2.99,2.72 -4.86,6.64 -4.86,11 0,8.22 6.65,14.87 14.87,14.87 3.44,0 6.61,-1.17 9.13,-3.13 -4.24,-9.24 -10.9,-17.09 -19.14,-22.74"
         style="fill:#9dc1d7;fill-opacity:1;fill-rule:nonzero;stroke:none;stroke-width:0.1"
         id="path328" /><path
         d="m -1350.9595,1376.8205 c 0,0 33.97,54.9 78.76,56.85 44.79,1.95 39.25,29.41 39.25,29.41 0,0 23.7,19.29 32.67,-5.71 8.97,-25 -23.7,-47.49 -59.27,-48.21 -35.57,-0.71 -47.42,3.75 -91.41,-32.34"
         style="fill:#5e2222;fill-opacity:1;fill-rule:nonzero;stroke:none;stroke-width:0.1"
         id="path330" /><path
         d="m -993.5695,1381.2805 c 0,0 -33.97,54.9 -78.76,56.85 -44.79,1.95 -39.25,29.42 -39.25,29.42 0,0 -23.71,19.28 -32.68,-5.72 -8.96,-25 23.7,-47.49 59.27,-48.2 35.57,-0.72 47.43,3.74 91.42,-32.35"
         style="fill:#5e2222;fill-opacity:1;fill-rule:nonzero;stroke:none;stroke-width:0.1"
         id="path332" /><path
         d="m -1054.1795,1070.3805 c -9.79,3.53 -14.56,8.62 -20.5,16.16 -8.24,10.28 -15.78,19.46 -30.98,19.29 -26.14,-1.04 -44.88,-32.21 -69.05,-38.8 -14.61,-2.35 -21.16,5.87 -29.57,18.59 -7.14,10.74 -17.31,27.85 -37.5,25.51 -23.37,-3.63 -36.88,-33.13 -58.11,-42.9 -22.72,-9.82 -41.99,9.31 -54.18,30.66 10.37,-25.02 30.87,-45.53 56.46,-36.15 25.35,9.88 44.58,47.05 65.42,38.18 19.65,-7.08 20.77,-42.77 52.31,-44.81 28.96,-1.05 54.84,44.45 78.9,40.17 19.04,-4.6 20.63,-25.5 44.73,-32.4 28.85,-8.47 65.2,11.32 67.53,40.93 -5.63,-27.84 -40.25,-43.51 -65.46,-34.43"
         style="fill:#3d1c39;fill-opacity:1;fill-rule:nonzero;stroke:none;stroke-width:0.1"
         id="path334" /></g></g></svg>
