<?xml version="1.0" encoding="UTF-8" standalone="no"?>
<svg
   xmlns:dc="http://purl.org/dc/elements/1.1/"
   xmlns:cc="http://creativecommons.org/ns#"
   xmlns:rdf="http://www.w3.org/1999/02/22-rdf-syntax-ns#"
   xmlns:svg="http://www.w3.org/2000/svg"
   xmlns="http://www.w3.org/2000/svg"
   xmlns:sodipodi="http://sodipodi.sourceforge.net/DTD/sodipodi-0.dtd"
   xmlns:inkscape="http://www.inkscape.org/namespaces/inkscape"
   version="1.1"
   id="svg2"
   xml:space="preserve"
   width="610"
   height="680"
   viewBox="0 0 610.00001 679.99999"
   sodipodi:docname="piscando.svg"
   inkscape:version="1.0.2 (e86c870879, 2021-01-15)"><metadata
     id="metadata8"><rdf:RDF><cc:Work
         rdf:about=""><dc:format>image/svg+xml</dc:format><dc:type
           rdf:resource="http://purl.org/dc/dcmitype/StillImage" /><dc:title /></cc:Work></rdf:RDF></metadata><defs
     id="defs6"><clipPath
       clipPathUnits="userSpaceOnUse"
       id="clipPath90"><path
         d="m 10357.5,14445 c -125.7,19.2 -431.21,55.4 -777.4,20 -393.47,-40.3 -726.02,-313.4 -807.88,-385.7 174.03,-138.1 401.27,-210.1 749.89,-188.7 403.82,24.7 666.29,271.9 835.39,554.4 z"
         id="path88" /></clipPath><linearGradient
       x1="0"
       y1="0"
       x2="1"
       y2="0"
       gradientUnits="userSpaceOnUse"
       gradientTransform="matrix(1585.33,0,0,-1585.33,8772.22,14183.4)"
       spreadMethod="pad"
       id="linearGradient100"><stop
         style="stop-opacity:1;stop-color:#ff4c8b"
         offset="0"
         id="stop92" /><stop
         style="stop-opacity:1;stop-color:#fa9999"
         offset="0.10531767"
         id="stop94" /><stop
         style="stop-opacity:1;stop-color:#fa9999"
         offset="0.302703"
         id="stop96" /><stop
         style="stop-opacity:1;stop-color:#ff3163"
         offset="1"
         id="stop98" /></linearGradient><clipPath
       clipPathUnits="userSpaceOnUse"
       id="clipPath164"><path
         d="m 3006.17,8311.2 c 0,0 187.54,370.1 768.62,369 446.02,-0.8 825.84,-256.1 829.79,-413.2 2.43,-96.3 -15.88,-193.3 -307.33,-152.4 -372.38,52.3 -619.75,310 -940.17,265.7 -320.42,-44.2 -350.91,-69.1 -350.91,-69.1 z"
         id="path162" /></clipPath><linearGradient
       x1="0"
       y1="0"
       x2="1"
       y2="0"
       gradientUnits="userSpaceOnUse"
       gradientTransform="matrix(1596.29,40.2385,40.2385,-1596.29,3004.8,8365.3)"
       spreadMethod="pad"
       id="linearGradient174"><stop
         style="stop-opacity:1;stop-color:#ff4c8b"
         offset="0"
         id="stop166" /><stop
         style="stop-opacity:1;stop-color:#fa9999"
         offset="0.10531767"
         id="stop168" /><stop
         style="stop-opacity:1;stop-color:#fa9999"
         offset="0.302703"
         id="stop170" /><stop
         style="stop-opacity:1;stop-color:#ff3163"
         offset="1"
         id="stop172" /></linearGradient><clipPath
       clipPathUnits="userSpaceOnUse"
       id="clipPath394"><path
         d="m 14894.8,2329.2 c -119.6,47.7 -218.1,95.6 -299.3,141.8 -57.9,-105.8 -118.3,-230.7 -164.8,-361.5 -128.2,-360.8 -150.1,-766.2 281.4,-936.1 419.6,-165.3 663.3,183.2 802.6,582 60.4,173 101.3,355.4 128.4,509.5 -243.6,-31.8 -514,-29.1 -748.3,64.3 z"
         id="path392" /></clipPath><linearGradient
       x1="0"
       y1="0"
       x2="1"
       y2="0"
       gradientUnits="userSpaceOnUse"
       gradientTransform="matrix(857.288,-2051.04,-2051.04,-857.288,14396.8,3351)"
       spreadMethod="pad"
       id="linearGradient404"><stop
         style="stop-opacity:1;stop-color:#ff4c8b"
         offset="0"
         id="stop396" /><stop
         style="stop-opacity:1;stop-color:#fa9999"
         offset="0.10531767"
         id="stop398" /><stop
         style="stop-opacity:1;stop-color:#fa9999"
         offset="0.302703"
         id="stop400" /><stop
         style="stop-opacity:1;stop-color:#ff3163"
         offset="1"
         id="stop402" /></linearGradient><clipPath
       clipPathUnits="userSpaceOnUse"
       id="clipPath506"><path
         d="m 9581.67,8331.8 c 194.84,-0.3 346.38,56.8 451.83,132.5 -104.31,84.9 -231.69,141.8 -365.41,157.8 -195.11,23.4 -397.67,-40.8 -547.87,-166.8 104.34,-70.8 255.04,-123.2 461.45,-123.5 z"
         id="path504" /></clipPath><linearGradient
       x1="0"
       y1="0"
       x2="1"
       y2="0"
       gradientUnits="userSpaceOnUse"
       gradientTransform="matrix(913.325,0,0,-913.325,9120.22,8479.3)"
       spreadMethod="pad"
       id="linearGradient516"><stop
         style="stop-opacity:1;stop-color:#ff4c8b"
         offset="0"
         id="stop508" /><stop
         style="stop-opacity:1;stop-color:#fa9999"
         offset="0.10531767"
         id="stop510" /><stop
         style="stop-opacity:1;stop-color:#fa9999"
         offset="0.302703"
         id="stop512" /><stop
         style="stop-opacity:1;stop-color:#ff3163"
         offset="1"
         id="stop514" /></linearGradient><clipPath
       clipPathUnits="userSpaceOnUse"
       id="clipPath90-3"><path
         d="m 10357.5,14445 c -125.7,19.2 -431.21,55.4 -777.4,20 -393.47,-40.3 -726.02,-313.4 -807.88,-385.7 174.03,-138.1 401.27,-210.1 749.89,-188.7 403.82,24.7 666.29,271.9 835.39,554.4 z"
         id="path88-6" /></clipPath><clipPath
       clipPathUnits="userSpaceOnUse"
       id="clipPath164-6"><path
         d="m 3006.17,8311.2 c 0,0 187.54,370.1 768.62,369 446.02,-0.8 825.84,-256.1 829.79,-413.2 2.43,-96.3 -15.88,-193.3 -307.33,-152.4 -372.38,52.3 -619.75,310 -940.17,265.7 -320.42,-44.2 -350.91,-69.1 -350.91,-69.1 z"
         id="path162-2" /></clipPath><clipPath
       clipPathUnits="userSpaceOnUse"
       id="clipPath394-0"><path
         d="m 14894.8,2329.2 c -119.6,47.7 -218.1,95.6 -299.3,141.8 -57.9,-105.8 -118.3,-230.7 -164.8,-361.5 -128.2,-360.8 -150.1,-766.2 281.4,-936.1 419.6,-165.3 663.3,183.2 802.6,582 60.4,173 101.3,355.4 128.4,509.5 -243.6,-31.8 -514,-29.1 -748.3,64.3 z"
         id="path392-9" /></clipPath><clipPath
       clipPathUnits="userSpaceOnUse"
       id="clipPath506-2"><path
         d="m 9581.67,8331.8 c 194.84,-0.3 346.38,56.8 451.83,132.5 -104.31,84.9 -231.69,141.8 -365.41,157.8 -195.11,23.4 -397.67,-40.8 -547.87,-166.8 104.34,-70.8 255.04,-123.2 461.45,-123.5 z"
         id="path504-6" /></clipPath></defs><sodipodi:namedview
     pagecolor="#ffffff"
     bordercolor="#666666"
     borderopacity="1"
     objecttolerance="10"
     gridtolerance="10"
     guidetolerance="10"
     inkscape:pageopacity="0"
     inkscape:pageshadow="2"
     inkscape:window-width="1920"
     inkscape:window-height="1019"
     id="namedview4"
     showgrid="false"
     inkscape:zoom="0.11097157"
     inkscape:cx="188.74192"
     inkscape:cy="-545.20717"
     inkscape:window-x="0"
     inkscape:window-y="0"
     inkscape:window-maximized="1"
     inkscape:current-layer="g10"
     inkscape:document-rotation="0" /><g
     id="g10"
     inkscape:groupmode="layer"
     inkscape:label="ink_ext_XXXXXX"
     transform="matrix(1.3333333,0,0,-1.3333333,0,2666.6667)"><g
       id="g3377"
       transform="translate(801.40951,506.57273)"><path
         d="m -774.8395,1253.6805 c 0,59.13 46.61,107.06 104.09,107.06 57.49,0 104.09,-47.93 104.09,-107.06 0,-59.13 -46.6,-107.07 -104.09,-107.07 -57.48,0 -104.09,47.94 -104.09,107.07"
         style="fill:#878787;fill-opacity:1;fill-rule:nonzero;stroke:none;stroke-width:0.1"
         id="path572" /><path
         d="m -769.1295,1268.2405 c 1.83,55.34 47.76,98.73 102.58,96.91 54.81,-1.82 97.76,-48.16 95.92,-103.5 -1.83,-55.34 -47.76,-98.73 -102.58,-96.91 -54.81,1.82 -97.76,48.16 -95.92,103.5"
         style="fill:#dddddd;fill-opacity:1;fill-rule:nonzero;stroke:none;stroke-width:0.1"
         id="path574" /><path
         d="m -602.4995,1329.2905 c 16.92,-18.26 25.79,-42.09 24.95,-67.1 -0.81,-24.47 -10.86,-47.3 -28.3,-64.29 -17.38,-16.94 -40.22,-26.26 -64.3,-26.26 -1.05,0 -2.06,0.01 -3.11,0.05 -24.72,0.82 -47.64,11.31 -64.54,29.55 0,0 65.33,-44.44 119.63,2.62 53.05,45.98 15.67,125.43 15.67,125.43"
         style="fill:#c6c6c6;fill-opacity:1;fill-rule:nonzero;stroke:none;stroke-width:0.1"
         id="path576" /><path
         d="m -666.5495,1365.1505 c -54.82,1.82 -100.75,-41.57 -102.58,-96.91 -0.27,-8.07 0.42,-15.94 1.95,-23.52 15.9,-24.31 42.84,-40.73 73.88,-41.76 50.87,-1.69 93.49,38.57 95.19,89.92 0.67,20.16 -5.07,39.04 -15.37,54.63 -15.12,10.55 -33.33,16.98 -53.07,17.64"
         style="fill:#ebebeb;fill-opacity:1;fill-rule:nonzero;stroke:none;stroke-width:0.1"
         id="path578" /><path
         d="m -690.4295,1233.8505 c 0.91,27.39 23.65,48.87 50.79,47.97 27.13,-0.9 48.4,-23.84 47.49,-51.24 -0.91,-27.39 -23.65,-48.87 -50.79,-47.97 -27.13,0.9 -48.4,23.84 -47.49,51.24"
         style="fill:#2e7bab;fill-opacity:1;fill-rule:nonzero;stroke:none;stroke-width:0.1"
         id="path580" /><path
         d="m -672.4995,1233.2505 c 0.58,17.4 15.02,31.05 32.26,30.47 17.23,-0.57 30.74,-15.14 30.16,-32.54 -0.58,-17.4 -15.02,-31.05 -32.26,-30.47 -17.23,0.57 -30.74,15.14 -30.16,32.54"
         style="fill:#310003;fill-opacity:1;fill-rule:nonzero;stroke:none;stroke-width:0.1"
         id="path582" /><path
         d="m -721.8895,1269.0805 c -0.34,0 -0.67,0 -1,0.01 -16.5,0.55 -29.43,14.5 -28.88,31.16 0.55,16.32 13.83,29.18 29.88,29.18 0.33,0 0.67,0 1,-0.01 16.5,-0.55 29.43,-14.5 28.87,-31.16 -0.54,-16.32 -13.82,-29.18 -29.87,-29.18"
         style="fill:#f4f4f4;fill-opacity:1;fill-rule:nonzero;stroke:none;stroke-width:0.1"
         id="path584" /><path
         d="m -683.5995,1257.4805 c -2.19,2.58 -3.5,5.93 -3.5,9.58 0,8.21 6.65,14.87 14.87,14.87 4.18,0 7.96,-1.73 10.66,-4.5 -9.19,-4.22 -16.9,-11.21 -22.03,-19.95"
         style="fill:#f6f6f6;fill-opacity:1;fill-rule:nonzero;stroke:none;stroke-width:0.1"
         id="path586" /><path
         d="m -672.2295,1252.1905 c -4.56,0 -8.65,2.05 -11.37,5.29 5.13,8.74 12.84,15.73 22.03,19.95 2.6,-2.68 4.21,-6.34 4.21,-10.37 0,-8.21 -6.66,-14.87 -14.87,-14.87"
         style="fill:#9dc1d7;fill-opacity:1;fill-rule:nonzero;stroke:none;stroke-width:0.1"
         id="path588" /><path
         d="m -504.0795,1230.0705 c -8.34,-5.03 -6.51,-3.81 -13.82,-8.98 7.18,24.95 28.53,52.98 66.38,72.12 9.28,4.44 9.53,4.14 -0.46,1.11 -0.91,-0.26 -0.97,-0.31 -7.31,-2.74 -35.28,-14.42 -65.06,-45.05 -69.98,-81.14 l -1.49,-10.88 c 11.29,8.77 21.44,17.45 33.41,23.85 42.3,22.47 85.71,29.18 126.87,23.55 -42.84,13.4 -97.76,4.73 -133.6,-16.89"
         style="fill:#3d1c39;fill-opacity:1;fill-rule:nonzero;stroke:none;stroke-width:0.1"
         id="path590" /><path
         d="m -740.0595,1377.6605 c 0,0 -9.7,49.52 78.69,54.38 56.59,3.11 66.62,32.09 66.62,32.09 0,0 15.7,-31.36 -11.76,-46.36 -27.47,-14.99 -48.86,3.28 -87.11,-7.62 -35.1,-10.01 -46.44,-32.49 -46.44,-32.49"
         style="fill:#5e2222;fill-opacity:1;fill-rule:nonzero;stroke:none;stroke-width:0.1"
         id="path592" /><path
         d="m -385.0595,1376.3205 c 0,0 4.25,61.5 -77.65,55.86 -56.54,-3.9 -66,33.35 -66,33.35 0,0 -16.29,-31.07 10.89,-46.58 27.18,-15.51 48.9,2.36 86.95,-9.27 34.9,-10.67 45.81,-33.36 45.81,-33.36"
         style="fill:#5e2222;fill-opacity:1;fill-rule:nonzero;stroke:none;stroke-width:0.1"
         id="path594" /><path
         d="m -676.8995,1096.6505 c 0,0 181.82,-40.57 267.77,90.85 0,0 21.27,-129.66 -101.18,-168.3 -122.45,-38.64004 -166.59,77.45 -166.59,77.45"
         style="fill:#890e0f;fill-opacity:1;fill-rule:nonzero;stroke:none;stroke-width:0.1"
         id="path596" /><path
         d="m -525.0195,1063.3405 c 57.57,17.42 66.13,47.01 66.81,60.75 -74.03,-59.19 -183.55,-42.65 -183.55,-42.65 0,0 39.9,-41.34 116.74,-18.1"
         style="fill:#ffffff;fill-opacity:1;fill-rule:nonzero;stroke:none;stroke-width:0.1"
         id="path598" /><path
         d="m -510.2095,1289.4105 c -14.75,-33.04 -20.7,-47.43 -16.03,-83.84 -18.43,25.11 -9.18,64.73 16.03,83.84"
         style="fill:#3d1c39;fill-opacity:1;fill-rule:nonzero;stroke:none;stroke-width:0.1"
         id="path600" /></g></g></svg>
