<?xml version="1.0" encoding="UTF-8" standalone="no"?>
<svg
   xmlns:dc="http://purl.org/dc/elements/1.1/"
   xmlns:cc="http://creativecommons.org/ns#"
   xmlns:rdf="http://www.w3.org/1999/02/22-rdf-syntax-ns#"
   xmlns:svg="http://www.w3.org/2000/svg"
   xmlns="http://www.w3.org/2000/svg"
   xmlns:sodipodi="http://sodipodi.sourceforge.net/DTD/sodipodi-0.dtd"
   xmlns:inkscape="http://www.inkscape.org/namespaces/inkscape"
   version="1.1"
   id="svg2"
   xml:space="preserve"
   width="610"
   height="680"
   viewBox="0 0 610.00001 679.99999"
   sodipodi:docname="raiva.svg"
   inkscape:version="1.0.2 (e86c870879, 2021-01-15)"><metadata
     id="metadata8"><rdf:RDF><cc:Work
         rdf:about=""><dc:format>image/svg+xml</dc:format><dc:type
           rdf:resource="http://purl.org/dc/dcmitype/StillImage" /><dc:title /></cc:Work></rdf:RDF></metadata><defs
     id="defs6"><clipPath
       clipPathUnits="userSpaceOnUse"
       id="clipPath90"><path
         d="m 10357.5,14445 c -125.7,19.2 -431.21,55.4 -777.4,20 -393.47,-40.3 -726.02,-313.4 -807.88,-385.7 174.03,-138.1 401.27,-210.1 749.89,-188.7 403.82,24.7 666.29,271.9 835.39,554.4 z"
         id="path88" /></clipPath><linearGradient
       x1="0"
       y1="0"
       x2="1"
       y2="0"
       gradientUnits="userSpaceOnUse"
       gradientTransform="matrix(1585.33,0,0,-1585.33,8772.22,14183.4)"
       spreadMethod="pad"
       id="linearGradient100"><stop
         style="stop-opacity:1;stop-color:#ff4c8b"
         offset="0"
         id="stop92" /><stop
         style="stop-opacity:1;stop-color:#fa9999"
         offset="0.10531767"
         id="stop94" /><stop
         style="stop-opacity:1;stop-color:#fa9999"
         offset="0.302703"
         id="stop96" /><stop
         style="stop-opacity:1;stop-color:#ff3163"
         offset="1"
         id="stop98" /></linearGradient><clipPath
       clipPathUnits="userSpaceOnUse"
       id="clipPath164"><path
         d="m 3006.17,8311.2 c 0,0 187.54,370.1 768.62,369 446.02,-0.8 825.84,-256.1 829.79,-413.2 2.43,-96.3 -15.88,-193.3 -307.33,-152.4 -372.38,52.3 -619.75,310 -940.17,265.7 -320.42,-44.2 -350.91,-69.1 -350.91,-69.1 z"
         id="path162" /></clipPath><linearGradient
       x1="0"
       y1="0"
       x2="1"
       y2="0"
       gradientUnits="userSpaceOnUse"
       gradientTransform="matrix(1596.29,40.2385,40.2385,-1596.29,3004.8,8365.3)"
       spreadMethod="pad"
       id="linearGradient174"><stop
         style="stop-opacity:1;stop-color:#ff4c8b"
         offset="0"
         id="stop166" /><stop
         style="stop-opacity:1;stop-color:#fa9999"
         offset="0.10531767"
         id="stop168" /><stop
         style="stop-opacity:1;stop-color:#fa9999"
         offset="0.302703"
         id="stop170" /><stop
         style="stop-opacity:1;stop-color:#ff3163"
         offset="1"
         id="stop172" /></linearGradient><clipPath
       clipPathUnits="userSpaceOnUse"
       id="clipPath394"><path
         d="m 14894.8,2329.2 c -119.6,47.7 -218.1,95.6 -299.3,141.8 -57.9,-105.8 -118.3,-230.7 -164.8,-361.5 -128.2,-360.8 -150.1,-766.2 281.4,-936.1 419.6,-165.3 663.3,183.2 802.6,582 60.4,173 101.3,355.4 128.4,509.5 -243.6,-31.8 -514,-29.1 -748.3,64.3 z"
         id="path392" /></clipPath><linearGradient
       x1="0"
       y1="0"
       x2="1"
       y2="0"
       gradientUnits="userSpaceOnUse"
       gradientTransform="matrix(857.288,-2051.04,-2051.04,-857.288,14396.8,3351)"
       spreadMethod="pad"
       id="linearGradient404"><stop
         style="stop-opacity:1;stop-color:#ff4c8b"
         offset="0"
         id="stop396" /><stop
         style="stop-opacity:1;stop-color:#fa9999"
         offset="0.10531767"
         id="stop398" /><stop
         style="stop-opacity:1;stop-color:#fa9999"
         offset="0.302703"
         id="stop400" /><stop
         style="stop-opacity:1;stop-color:#ff3163"
         offset="1"
         id="stop402" /></linearGradient><clipPath
       clipPathUnits="userSpaceOnUse"
       id="clipPath506"><path
         d="m 9581.67,8331.8 c 194.84,-0.3 346.38,56.8 451.83,132.5 -104.31,84.9 -231.69,141.8 -365.41,157.8 -195.11,23.4 -397.67,-40.8 -547.87,-166.8 104.34,-70.8 255.04,-123.2 461.45,-123.5 z"
         id="path504" /></clipPath><linearGradient
       x1="0"
       y1="0"
       x2="1"
       y2="0"
       gradientUnits="userSpaceOnUse"
       gradientTransform="matrix(913.325,0,0,-913.325,9120.22,8479.3)"
       spreadMethod="pad"
       id="linearGradient516"><stop
         style="stop-opacity:1;stop-color:#ff4c8b"
         offset="0"
         id="stop508" /><stop
         style="stop-opacity:1;stop-color:#fa9999"
         offset="0.10531767"
         id="stop510" /><stop
         style="stop-opacity:1;stop-color:#fa9999"
         offset="0.302703"
         id="stop512" /><stop
         style="stop-opacity:1;stop-color:#ff3163"
         offset="1"
         id="stop514" /></linearGradient><clipPath
       clipPathUnits="userSpaceOnUse"
       id="clipPath90-3"><path
         d="m 10357.5,14445 c -125.7,19.2 -431.21,55.4 -777.4,20 -393.47,-40.3 -726.02,-313.4 -807.88,-385.7 174.03,-138.1 401.27,-210.1 749.89,-188.7 403.82,24.7 666.29,271.9 835.39,554.4 z"
         id="path88-6" /></clipPath><clipPath
       clipPathUnits="userSpaceOnUse"
       id="clipPath164-6"><path
         d="m 3006.17,8311.2 c 0,0 187.54,370.1 768.62,369 446.02,-0.8 825.84,-256.1 829.79,-413.2 2.43,-96.3 -15.88,-193.3 -307.33,-152.4 -372.38,52.3 -619.75,310 -940.17,265.7 -320.42,-44.2 -350.91,-69.1 -350.91,-69.1 z"
         id="path162-2" /></clipPath><clipPath
       clipPathUnits="userSpaceOnUse"
       id="clipPath394-0"><path
         d="m 14894.8,2329.2 c -119.6,47.7 -218.1,95.6 -299.3,141.8 -57.9,-105.8 -118.3,-230.7 -164.8,-361.5 -128.2,-360.8 -150.1,-766.2 281.4,-936.1 419.6,-165.3 663.3,183.2 802.6,582 60.4,173 101.3,355.4 128.4,509.5 -243.6,-31.8 -514,-29.1 -748.3,64.3 z"
         id="path392-9" /></clipPath><clipPath
       clipPathUnits="userSpaceOnUse"
       id="clipPath506-2"><path
         d="m 9581.67,8331.8 c 194.84,-0.3 346.38,56.8 451.83,132.5 -104.31,84.9 -231.69,141.8 -365.41,157.8 -195.11,23.4 -397.67,-40.8 -547.87,-166.8 104.34,-70.8 255.04,-123.2 461.45,-123.5 z"
         id="path504-6" /></clipPath></defs><sodipodi:namedview
     pagecolor="#ffffff"
     bordercolor="#666666"
     borderopacity="1"
     objecttolerance="10"
     gridtolerance="10"
     guidetolerance="10"
     inkscape:pageopacity="0"
     inkscape:pageshadow="2"
     inkscape:window-width="1920"
     inkscape:window-height="1019"
     id="namedview4"
     showgrid="false"
     inkscape:zoom="0.11097157"
     inkscape:cx="188.74192"
     inkscape:cy="-545.20717"
     inkscape:window-x="0"
     inkscape:window-y="0"
     inkscape:window-maximized="1"
     inkscape:current-layer="g10"
     inkscape:document-rotation="0" /><g
     id="g10"
     inkscape:groupmode="layer"
     inkscape:label="ink_ext_XXXXXX"
     transform="matrix(1.3333333,0,0,-1.3333333,0,2666.6667)"><g
       id="g3496"
       transform="translate(795.76451,1136.0912)"><path
         d="m -772.2195,638.06046 c 0,55.02 46.6,99.63 104.09,99.63 57.49,0 104.09,-44.61 104.09,-99.63 0,-55.03 -46.6,-99.63 -104.09,-99.63 -57.49,0 -104.09,44.6 -104.09,99.63"
         style="fill:#9b9a9a;fill-opacity:1;fill-rule:nonzero;stroke:none;stroke-width:0.1"
         id="path656" /><path
         d="m -766.5195,660.05046 c 1.84,55.35 47.77,98.73 102.58,96.91 54.82,-1.82 97.77,-48.15 95.93,-103.5 -1.84,-55.34 -47.76,-98.73 -102.58,-96.91 -54.82,1.82 -97.76,48.16 -95.93,103.5"
         style="fill:#dddddd;fill-opacity:1;fill-rule:nonzero;stroke:none;stroke-width:0.1"
         id="path658" /><path
         d="m -599.8795,721.10046 c 16.92,-18.26 25.78,-42.09 24.95,-67.1 -0.81,-24.46 -10.86,-47.29 -28.3,-64.29 -17.38,-16.93 -40.22,-26.26 -64.31,-26.26 -1.04,0 -2.05,0.02 -3.1,0.05 -24.72,0.82 -47.64,11.32 -64.54,29.55 0,0 65.32,-44.44 119.63,2.63 53.05,45.98 15.67,125.42 15.67,125.42"
         style="fill:#c6c6c6;fill-opacity:1;fill-rule:nonzero;stroke:none;stroke-width:0.1"
         id="path660" /><path
         d="m -663.9395,756.96046 c -54.81,1.82 -100.74,-41.56 -102.58,-96.91 -0.26,-8.06 0.43,-15.94 1.96,-23.51 15.89,-24.32 42.84,-40.74 73.88,-41.77 50.87,-1.69 93.48,38.57 95.19,89.93 0.67,20.16 -5.07,39.03 -15.37,54.63 -15.13,10.55 -33.33,16.98 -53.08,17.63"
         style="fill:#ebebeb;fill-opacity:1;fill-rule:nonzero;stroke:none;stroke-width:0.1"
         id="path662" /><path
         d="m -720.3195,628.75046 c 1.02,30.74 26.53,54.84 56.98,53.83 30.45,-1.01 54.31,-26.75 53.29,-57.49 -1.02,-30.75 -26.53,-54.85 -56.98,-53.84 -30.45,1.01 -54.31,26.75 -53.29,57.5"
         style="fill:#2e7bab;fill-opacity:1;fill-rule:nonzero;stroke:none;stroke-width:0.1"
         id="path664" /><path
         d="m -700.2095,628.08046 c 0.65,19.53 16.86,34.83 36.2,34.19 19.34,-0.64 34.49,-16.99 33.85,-36.52 -0.65,-19.52 -16.86,-34.83 -36.2,-34.19 -19.34,0.64 -34.49,16.99 -33.85,36.52"
         style="fill:#310003;fill-opacity:1;fill-rule:nonzero;stroke:none;stroke-width:0.1"
         id="path666" /><path
         d="m -711.8395,666.84046 c -0.33,0 -0.67,0.01 -1,0.02 -16.5,0.55 -29.43,14.49 -28.87,31.15 0.54,16.32 13.82,29.19 29.87,29.19 0.33,0 0.67,-0.01 1,-0.02 16.5,-0.55 29.43,-14.5 28.88,-31.15 -0.25,-7.4 -3.11,-14.08 -7.66,-19.18 -4.39,-2.2 -8.46,-4.97 -12.1,-8.23 -3.17,-1.15 -6.58,-1.78 -10.12,-1.78"
         style="fill:#f4f4f4;fill-opacity:1;fill-rule:nonzero;stroke:none;stroke-width:0.1"
         id="path668" /><path
         d="m -701.7195,668.62046 c 3.64,3.26 7.71,6.03 12.1,8.23 -3.27,-3.68 -7.42,-6.53 -12.1,-8.23"
         style="fill:#8ab5d0;fill-opacity:1;fill-rule:nonzero;stroke:none;stroke-width:0.1"
         id="path670" /><path
         d="m -627.9795,608.32046 c -2.34,0 -4.56,0.54 -6.53,1.5 2.6,4.74 4.15,10.15 4.35,15.93 0.13,4.12 -0.43,8.1 -1.6,11.83 1.21,0.31 2.47,0.48 3.78,0.48 8.21,0 14.87,-6.66 14.87,-14.87 0,-8.21 -6.66,-14.87 -14.87,-14.87"
         style="fill:#9dc1d7;fill-opacity:1;fill-rule:nonzero;stroke:none;stroke-width:0.1"
         id="path672" /><path
         d="m -634.5095,609.82046 c -4.94,2.42 -8.34,7.5 -8.34,13.37 0,6.91 4.71,12.71 11.09,14.39 1.17,-3.73 1.73,-7.71 1.6,-11.83 -0.2,-5.78 -1.75,-11.19 -4.35,-15.93"
         style="fill:#9e8788;fill-opacity:1;fill-rule:nonzero;stroke:none;stroke-width:0.1"
         id="path674" /><path
         d="m -568.4995,638.06046 c 0,55.02 46.6,99.63 104.09,99.63 57.49,0 104.09,-44.61 104.09,-99.63 0,-55.03 -46.6,-99.63 -104.09,-99.63 -57.49,0 -104.09,44.6 -104.09,99.63"
         style="fill:#9b9a9a;fill-opacity:1;fill-rule:nonzero;stroke:none;stroke-width:0.1"
         id="path676" /><path
         d="m -562.7995,660.05046 c 1.84,55.35 47.77,98.73 102.58,96.91 54.82,-1.82 97.77,-48.15 95.93,-103.5 -1.84,-55.34 -47.76,-98.73 -102.58,-96.91 -54.82,1.82 -97.77,48.16 -95.93,103.5"
         style="fill:#dddddd;fill-opacity:1;fill-rule:nonzero;stroke:none;stroke-width:0.1"
         id="path678" /><path
         d="m -396.1595,721.10046 c 16.92,-18.26 25.78,-42.09 24.95,-67.1 -0.81,-24.46 -10.86,-47.29 -28.3,-64.29 -17.38,-16.93 -40.22,-26.26 -64.31,-26.26 -1.04,0 -2.05,0.02 -3.1,0.05 -24.72,0.82 -47.64,11.32 -64.54,29.55 0,0 65.32,-44.44 119.63,2.63 53.05,45.98 15.67,125.42 15.67,125.42"
         style="fill:#c6c6c6;fill-opacity:1;fill-rule:nonzero;stroke:none;stroke-width:0.1"
         id="path680" /><path
         d="m -460.2195,756.96046 c -54.81,1.82 -100.74,-41.56 -102.58,-96.91 -0.27,-8.06 0.43,-15.94 1.96,-23.51 15.89,-24.32 42.83,-40.74 73.88,-41.77 50.87,-1.69 93.48,38.57 95.19,89.93 0.67,20.16 -5.08,39.03 -15.37,54.63 -15.13,10.55 -33.33,16.98 -53.08,17.63"
         style="fill:#ebebeb;fill-opacity:1;fill-rule:nonzero;stroke:none;stroke-width:0.1"
         id="path682" /><path
         d="m -516.5995,628.75046 c 1.02,30.74 26.53,54.84 56.98,53.83 30.45,-1.01 54.31,-26.75 53.29,-57.49 -1.02,-30.75 -26.53,-54.85 -56.98,-53.84 -30.45,1.01 -54.31,26.75 -53.29,57.5"
         style="fill:#2e7bab;fill-opacity:1;fill-rule:nonzero;stroke:none;stroke-width:0.1"
         id="path684" /><path
         d="m -496.4895,628.08046 c 0.65,19.53 16.86,34.83 36.2,34.19 19.34,-0.64 34.49,-16.99 33.85,-36.52 -0.65,-19.52 -16.86,-34.83 -36.2,-34.19 -19.34,0.64 -34.5,16.99 -33.85,36.52"
         style="fill:#310003;fill-opacity:1;fill-rule:nonzero;stroke:none;stroke-width:0.1"
         id="path686" /><path
         d="m -424.2595,608.32046 c -2.34,0 -4.56,0.54 -6.53,1.5 2.6,4.74 4.15,10.15 4.35,15.93 0.13,4.12 -0.43,8.1 -1.6,11.83 1.21,0.31 2.47,0.48 3.78,0.48 8.21,0 14.87,-6.66 14.87,-14.87 0,-8.21 -6.66,-14.87 -14.87,-14.87"
         style="fill:#9dc1d7;fill-opacity:1;fill-rule:nonzero;stroke:none;stroke-width:0.1"
         id="path688" /><path
         d="m -430.7895,609.82046 c -4.94,2.42 -8.34,7.5 -8.34,13.37 0,6.91 4.71,12.71 11.09,14.39 1.17,-3.73 1.73,-7.71 1.6,-11.83 -0.2,-5.78 -1.75,-11.19 -4.35,-15.93"
         style="fill:#9e8788;fill-opacity:1;fill-rule:nonzero;stroke:none;stroke-width:0.1"
         id="path690" /><path
         d="m -773.7095,669.29046 c 0,0 43.13,25.27 110.04,25.27 66.92,0 99.63,-31.22 99.63,-31.22 0,0 -11.9,104.09 -104.09,104.09 -92.19,0 -105.58,-98.14 -105.58,-98.14"
         style="fill:#b48ebc;fill-opacity:1;fill-rule:nonzero;stroke:none;stroke-width:0.1"
         id="path692" /><path
         d="m -564.0395,669.29046 c 0,0 -43.12,25.27 -110.04,25.27 -66.91,0 -99.63,-31.22 -99.63,-31.22 0,0 11.9,104.09 104.09,104.09 92.2,0 105.58,-98.14 105.58,-98.14"
         style="fill:#b48ebc;fill-opacity:1;fill-rule:nonzero;stroke:none;stroke-width:0.1"
         id="path694" /><path
         d="m -361.8095,669.29046 c 0,0 -43.12,25.27 -110.04,25.27 -66.91,0 -99.62,-31.22 -99.62,-31.22 0,0 11.89,104.09 104.09,104.09 92.19,0 105.57,-98.14 105.57,-98.14"
         style="fill:#b48ebc;fill-opacity:1;fill-rule:nonzero;stroke:none;stroke-width:0.1"
         id="path696" /><path
         d="m -599.1995,772.09046 c 0,0 0.88,45.98 -40.94,65.49 -41.81,19.52 -105.62,0.12 -105.62,0.12 0,0 62.13,-2.14 95.66,-23.72 33.52,-21.57 50.9,-41.89 50.9,-41.89"
         style="fill:#5e2222;fill-opacity:1;fill-rule:nonzero;stroke:none;stroke-width:0.1"
         id="path698" /><path
         d="m -526.4895,779.60046 c 0,0 4.16,45.8 47.86,60.62 43.7,14.83 105,-11.43 105,-11.43 0,0 -61.99,4.67 -97.68,-13.12 -35.68,-17.78 -55.18,-36.07 -55.18,-36.07"
         style="fill:#5e2222;fill-opacity:1;fill-rule:nonzero;stroke:none;stroke-width:0.1"
         id="path700" /><path
         d="m -715.6895,381.98046 c -46.81,28.08 -27.96,97.85 27.95,118.82 55.92,20.97 62.91,-27.96 118.82,-27.96 55.92,0 83.88,69.9 146.78,20.97 62.91,-48.93 20.97,-104.84 -20.97,-104.84 -41.93,0 -76.88,20.97 -132.8,20.97 -55.91,0 -104.84,-48.93 -139.78,-27.96"
         style="fill:#ffffff;fill-opacity:1;fill-rule:nonzero;stroke:none;stroke-width:0.1"
         id="path702" /><path
         d="m -390.5995,429.93046 c -158.28,29.31 -348.12,6.16 -350.02,5.92 l -0.74,5.9 c 1.91,0.24 192.63,23.51 351.84,-5.97 l -1.08,-5.85"
         style="fill:#878787;fill-opacity:1;fill-rule:nonzero;stroke:none;stroke-width:0.1"
         id="path704" /><path
         d="m -677.2095,382.79046 c -37.02,24.68 -14.39,114.92 -13.41,118.75 l 5.76,-1.48 c -0.22,-0.9 -22.58,-89.97 10.94,-112.32 l -3.29,-4.95"
         style="fill:#878787;fill-opacity:1;fill-rule:nonzero;stroke:none;stroke-width:0.1"
         id="path706" /><path
         d="m -624.1395,406.96046 c -30.64,30.64 -13.39,89.68 -12.64,92.17 l 5.7,-1.7 c -0.17,-0.58 -16.97,-58.14 11.15,-86.27 l -4.21,-4.2"
         style="fill:#878787;fill-opacity:1;fill-rule:nonzero;stroke:none;stroke-width:0.1"
         id="path708" /><path
         d="m -572.9495,409.61046 -5.91,0.65 6.99,62.91 5.91,-0.66 -6.99,-62.9"
         style="fill:#878787;fill-opacity:1;fill-rule:nonzero;stroke:none;stroke-width:0.1"
         id="path710" /><path
         d="m -506.3595,401.78046 -5.32,2.66 c 22.95,45.89 6,92.33 5.82,92.8 l 5.57,2.08 c 0.75,-1.99 18.02,-49.35 -6.07,-97.54"
         style="fill:#878787;fill-opacity:1;fill-rule:nonzero;stroke:none;stroke-width:0.1"
         id="path712" /><path
         d="m -459.0195,389.49046 -4.84,3.45 c 28.7,40.17 17.45,110.1 17.33,110.8 l 5.87,0.98 c 0.5,-2.97 11.75,-73.08 -18.36,-115.23"
         style="fill:#878787;fill-opacity:1;fill-rule:nonzero;stroke:none;stroke-width:0.1"
         id="path714" /><path
         d="m -773.7095,663.34046 c 6.8,6.03 14.4,11.13 22.26,15.78 7.89,4.64 16.17,8.64 24.73,12.04 17.14,6.76 35.51,10.92 54.23,11.74 18.71,0.86 37.68,-1.82 55.59,-7.66 8.94,-2.99 17.65,-6.64 25.96,-11.02 8.3,-4.41 16.28,-9.38 23.84,-14.88 l -9.76,-0.89 0.79,0.8 0.72,0.69 1.41,1.32 c 0.95,0.86 1.9,1.7 2.86,2.52 1.91,1.63 3.86,3.19 5.84,4.7 3.97,3.02 8.06,5.85 12.29,8.43 8.46,5.16 17.35,9.63 26.62,13.11 18.49,7.08 38.38,10.45 58.03,9.91 19.67,-0.5 38.98,-4.9 56.9,-12.04 8.96,-3.61 17.61,-7.84 25.87,-12.66 4.14,-2.41 8.18,-4.95 12.15,-7.58 l 5.86,-4.1 c 1.92,-1.4 3.82,-2.83 5.71,-4.26 -2.11,1.08 -4.22,2.18 -6.31,3.29 l -6.36,3.15 c -2.14,0.99 -4.25,2.05 -6.4,3.02 -2.16,0.95 -4.28,1.96 -6.47,2.84 -8.67,3.65 -17.46,6.88 -26.4,9.49 -17.87,5.16 -36.29,7.9 -54.53,7.26 -9.11,-0.24 -18.15,-1.43 -27.02,-3.29 -8.85,-1.91 -17.52,-4.61 -25.88,-8.06 -8.33,-3.49 -16.41,-7.61 -24.01,-12.48 -3.8,-2.44 -7.51,-5 -11.06,-7.74 -1.77,-1.37 -3.51,-2.78 -5.19,-4.23 -0.84,-0.73 -1.66,-1.46 -2.46,-2.2 l -1.17,-1.11 -0.56,-0.54 -0.46,-0.46 -4.58,-4.65 -5.18,3.76 c -7.05,5.11 -14.37,9.79 -22,13.89 -7.58,4.18 -15.52,7.67 -23.63,10.61 -8.12,2.93 -16.49,5.16 -24.99,6.73 -4.25,0.78 -8.54,1.41 -12.86,1.8 -4.31,0.43 -8.65,0.72 -13,0.78 -17.41,0.32 -34.96,-2.2 -52.03,-6.97 -17.06,-4.82 -33.76,-11.64 -49.35,-20.84"
         style="fill:#3d1c39;fill-opacity:1;fill-rule:nonzero;stroke:none;stroke-width:0.1"
         id="path716" /><path
         d="m -662.1495,500.81046 c -6.79,0 -14.5,-1.45 -23.75,-4.92 -27.95,-10.48 -48.38,-35.53 -50.82,-62.33 -1.8,-19.8 6.85,-36.96 23.72,-47.09 17.06,-10.23 39.24,-1.05 64.92,9.59 21.62,8.96 46.14,19.12 72.17,19.12 30.62,0 55.48,-6.25 77.42,-11.77 18.8,-4.73 36.57,-9.2 55.38,-9.2 19.62,0 39.2,13.95 45.55,32.45 7.23,21.07 -2.64,43.45 -27.8,63.01 -36.02,28.02 -58.93,14.47 -85.47,-1.22 -17.33,-10.25 -35.26,-20.85 -58.09,-20.85 -26.22,0 -42.41,10.21 -56.7,19.22 -11.95,7.53 -22.19,13.99 -36.53,13.99 z m -33.87,-129.28 c -7.83,0 -15.31,1.72 -22.37,5.95 -20.47,12.28 -30.95,33.07 -28.77,57.03 2.8,30.72 25.94,59.33 57.58,71.2 33.65,12.61 51.9,1.11 69.55,-10.02 13.72,-8.66 27.92,-17.61 51.11,-17.61 19.96,0 36.63,9.86 52.76,19.4 27.32,16.16 55.58,32.87 97.24,0.47 28.54,-22.2 39.94,-49.43 31.28,-74.69 -7.86,-22.91 -31.19,-39.53 -55.47,-39.53 -20.11,0 -38.49,4.62 -57.94,9.51 -22.39,5.63 -45.54,11.45 -74.86,11.45 -23.95,0 -46.42,-9.31 -68.16,-18.31 -18.25,-7.56 -35.83,-14.85 -51.95,-14.85"
         style="fill:#5e2222;fill-opacity:1;fill-rule:nonzero;stroke:none;stroke-width:0.1"
         id="path718" /></g></g></svg>
