<?xml version="1.0" encoding="UTF-8" standalone="no"?>
<svg
   xmlns:dc="http://purl.org/dc/elements/1.1/"
   xmlns:cc="http://creativecommons.org/ns#"
   xmlns:rdf="http://www.w3.org/1999/02/22-rdf-syntax-ns#"
   xmlns:svg="http://www.w3.org/2000/svg"
   xmlns="http://www.w3.org/2000/svg"
   xmlns:sodipodi="http://sodipodi.sourceforge.net/DTD/sodipodi-0.dtd"
   xmlns:inkscape="http://www.inkscape.org/namespaces/inkscape"
   version="1.1"
   id="svg2"
   xml:space="preserve"
   width="610"
   height="680"
   viewBox="0 0 610.00001 679.99999"
   sodipodi:docname="satisfeito.svg"
   inkscape:version="1.0.2 (e86c870879, 2021-01-15)"><metadata
     id="metadata8"><rdf:RDF><cc:Work
         rdf:about=""><dc:format>image/svg+xml</dc:format><dc:type
           rdf:resource="http://purl.org/dc/dcmitype/StillImage" /><dc:title /></cc:Work></rdf:RDF></metadata><defs
     id="defs6"><clipPath
       clipPathUnits="userSpaceOnUse"
       id="clipPath90"><path
         d="m 10357.5,14445 c -125.7,19.2 -431.21,55.4 -777.4,20 -393.47,-40.3 -726.02,-313.4 -807.88,-385.7 174.03,-138.1 401.27,-210.1 749.89,-188.7 403.82,24.7 666.29,271.9 835.39,554.4 z"
         id="path88" /></clipPath><linearGradient
       x1="0"
       y1="0"
       x2="1"
       y2="0"
       gradientUnits="userSpaceOnUse"
       gradientTransform="matrix(1585.33,0,0,-1585.33,8772.22,14183.4)"
       spreadMethod="pad"
       id="linearGradient100"><stop
         style="stop-opacity:1;stop-color:#ff4c8b"
         offset="0"
         id="stop92" /><stop
         style="stop-opacity:1;stop-color:#fa9999"
         offset="0.10531767"
         id="stop94" /><stop
         style="stop-opacity:1;stop-color:#fa9999"
         offset="0.302703"
         id="stop96" /><stop
         style="stop-opacity:1;stop-color:#ff3163"
         offset="1"
         id="stop98" /></linearGradient><clipPath
       clipPathUnits="userSpaceOnUse"
       id="clipPath164"><path
         d="m 3006.17,8311.2 c 0,0 187.54,370.1 768.62,369 446.02,-0.8 825.84,-256.1 829.79,-413.2 2.43,-96.3 -15.88,-193.3 -307.33,-152.4 -372.38,52.3 -619.75,310 -940.17,265.7 -320.42,-44.2 -350.91,-69.1 -350.91,-69.1 z"
         id="path162" /></clipPath><linearGradient
       x1="0"
       y1="0"
       x2="1"
       y2="0"
       gradientUnits="userSpaceOnUse"
       gradientTransform="matrix(1596.29,40.2385,40.2385,-1596.29,3004.8,8365.3)"
       spreadMethod="pad"
       id="linearGradient174"><stop
         style="stop-opacity:1;stop-color:#ff4c8b"
         offset="0"
         id="stop166" /><stop
         style="stop-opacity:1;stop-color:#fa9999"
         offset="0.10531767"
         id="stop168" /><stop
         style="stop-opacity:1;stop-color:#fa9999"
         offset="0.302703"
         id="stop170" /><stop
         style="stop-opacity:1;stop-color:#ff3163"
         offset="1"
         id="stop172" /></linearGradient><clipPath
       clipPathUnits="userSpaceOnUse"
       id="clipPath394"><path
         d="m 14894.8,2329.2 c -119.6,47.7 -218.1,95.6 -299.3,141.8 -57.9,-105.8 -118.3,-230.7 -164.8,-361.5 -128.2,-360.8 -150.1,-766.2 281.4,-936.1 419.6,-165.3 663.3,183.2 802.6,582 60.4,173 101.3,355.4 128.4,509.5 -243.6,-31.8 -514,-29.1 -748.3,64.3 z"
         id="path392" /></clipPath><linearGradient
       x1="0"
       y1="0"
       x2="1"
       y2="0"
       gradientUnits="userSpaceOnUse"
       gradientTransform="matrix(857.288,-2051.04,-2051.04,-857.288,14396.8,3351)"
       spreadMethod="pad"
       id="linearGradient404"><stop
         style="stop-opacity:1;stop-color:#ff4c8b"
         offset="0"
         id="stop396" /><stop
         style="stop-opacity:1;stop-color:#fa9999"
         offset="0.10531767"
         id="stop398" /><stop
         style="stop-opacity:1;stop-color:#fa9999"
         offset="0.302703"
         id="stop400" /><stop
         style="stop-opacity:1;stop-color:#ff3163"
         offset="1"
         id="stop402" /></linearGradient><clipPath
       clipPathUnits="userSpaceOnUse"
       id="clipPath506"><path
         d="m 9581.67,8331.8 c 194.84,-0.3 346.38,56.8 451.83,132.5 -104.31,84.9 -231.69,141.8 -365.41,157.8 -195.11,23.4 -397.67,-40.8 -547.87,-166.8 104.34,-70.8 255.04,-123.2 461.45,-123.5 z"
         id="path504" /></clipPath><linearGradient
       x1="0"
       y1="0"
       x2="1"
       y2="0"
       gradientUnits="userSpaceOnUse"
       gradientTransform="matrix(913.325,0,0,-913.325,9120.22,8479.3)"
       spreadMethod="pad"
       id="linearGradient516"><stop
         style="stop-opacity:1;stop-color:#ff4c8b"
         offset="0"
         id="stop508" /><stop
         style="stop-opacity:1;stop-color:#fa9999"
         offset="0.10531767"
         id="stop510" /><stop
         style="stop-opacity:1;stop-color:#fa9999"
         offset="0.302703"
         id="stop512" /><stop
         style="stop-opacity:1;stop-color:#ff3163"
         offset="1"
         id="stop514" /></linearGradient><clipPath
       clipPathUnits="userSpaceOnUse"
       id="clipPath90-3"><path
         d="m 10357.5,14445 c -125.7,19.2 -431.21,55.4 -777.4,20 -393.47,-40.3 -726.02,-313.4 -807.88,-385.7 174.03,-138.1 401.27,-210.1 749.89,-188.7 403.82,24.7 666.29,271.9 835.39,554.4 z"
         id="path88-6" /></clipPath><clipPath
       clipPathUnits="userSpaceOnUse"
       id="clipPath164-6"><path
         d="m 3006.17,8311.2 c 0,0 187.54,370.1 768.62,369 446.02,-0.8 825.84,-256.1 829.79,-413.2 2.43,-96.3 -15.88,-193.3 -307.33,-152.4 -372.38,52.3 -619.75,310 -940.17,265.7 -320.42,-44.2 -350.91,-69.1 -350.91,-69.1 z"
         id="path162-2" /></clipPath><clipPath
       clipPathUnits="userSpaceOnUse"
       id="clipPath394-0"><path
         d="m 14894.8,2329.2 c -119.6,47.7 -218.1,95.6 -299.3,141.8 -57.9,-105.8 -118.3,-230.7 -164.8,-361.5 -128.2,-360.8 -150.1,-766.2 281.4,-936.1 419.6,-165.3 663.3,183.2 802.6,582 60.4,173 101.3,355.4 128.4,509.5 -243.6,-31.8 -514,-29.1 -748.3,64.3 z"
         id="path392-9" /></clipPath><clipPath
       clipPathUnits="userSpaceOnUse"
       id="clipPath506-2"><path
         d="m 9581.67,8331.8 c 194.84,-0.3 346.38,56.8 451.83,132.5 -104.31,84.9 -231.69,141.8 -365.41,157.8 -195.11,23.4 -397.67,-40.8 -547.87,-166.8 104.34,-70.8 255.04,-123.2 461.45,-123.5 z"
         id="path504-6" /></clipPath></defs><sodipodi:namedview
     pagecolor="#ffffff"
     bordercolor="#666666"
     borderopacity="1"
     objecttolerance="10"
     gridtolerance="10"
     guidetolerance="10"
     inkscape:pageopacity="0"
     inkscape:pageshadow="2"
     inkscape:window-width="1920"
     inkscape:window-height="1019"
     id="namedview4"
     showgrid="false"
     inkscape:zoom="0.11097157"
     inkscape:cx="188.74192"
     inkscape:cy="-545.20717"
     inkscape:window-x="0"
     inkscape:window-y="0"
     inkscape:window-maximized="1"
     inkscape:current-layer="g10"
     inkscape:document-rotation="0" /><g
     id="g10"
     inkscape:groupmode="layer"
     inkscape:label="ink_ext_XXXXXX"
     transform="matrix(1.3333333,0,0,-1.3333333,0,2666.6667)"><g
       id="g3525"
       transform="translate(2564.8476,1748.0305)"><path
         d="m -2237.1075,-181.16954 c -6.155,-0.28 -12.07,1.77 -17.289,4.85 -5.21,3.14 -9.717,7.47 -13.176,12.5 -3.464,5.03 -5.878,10.8 -6.93,16.79 -1.002,5.98 -0.777,12.24 1.71,17.88 2.815,-5.44 5.109,-10.19 7.666,-14.71 2.506,-4.5 5.13,-8.73 7.934,-12.84 2.811,-4.11 5.81,-8.08 9.114,-12.04 3.29,-4.02 6.905,-7.86 10.971,-12.43"
         style="fill:#3d1c39;fill-opacity:1;fill-rule:nonzero;stroke:none;stroke-width:0.1"
         id="path232" /><path
         d="m -2403.2465,-163.46954 c 33.79,-22.34 67.761,-30.34 105.109,-18.66 11.295,3.01 30.173,13.03 40.403,18.78 -32.22,-40.43 -89.673,-50.44 -131.529,-15.32 -4.873,4.09 -10.576,9.91 -13.983,15.2"
         style="fill:#3d1c39;fill-opacity:1;fill-rule:nonzero;stroke:none;stroke-width:0.1"
         id="path234" /><path
         d="m -2429.7815,-176.44954 c 5.574,1.82 9.687,4.04 13.338,6.74 3.628,2.66 6.747,5.71 9.525,9.06 2.755,3.37 5.164,7.01 7.098,11.07 1.961,4.09 3.372,8.54 4.122,14.36 4.334,-4.08 6.03,-10.57 5.506,-16.66 -0.522,-6.16 -3.108,-12.06 -7.025,-16.79 -3.915,-4.72 -9.224,-8.37 -15.169,-10.04 -5.887,-1.65 -12.57,-1.21 -17.395,2.26"
         style="fill:#3d1c39;fill-opacity:1;fill-rule:nonzero;stroke:none;stroke-width:0.1"
         id="path236" /><path
         d="m -2527.3065,-0.51954 c 0,55.43 42.798,100.37 95.593,100.37 52.794,0 95.592,-44.94 95.592,-100.37 0,-55.44 -42.798,-100.37 -95.592,-100.37 -52.795,0 -95.593,44.93 -95.593,100.37"
         style="fill:#878787;fill-opacity:1;fill-rule:nonzero;stroke:none;stroke-width:0.1"
         id="path238" /><path
         d="m -2529.7535,17.24046 c 1.838,55.34 47.765,98.73 102.581,96.91 54.817,-1.82 97.764,-48.16 95.927,-103.5 -1.838,-55.34 -47.764,-98.73 -102.581,-96.91 -54.816,1.82 -97.764,48.16 -95.927,103.5"
         style="fill:#dddddd;fill-opacity:1;fill-rule:nonzero;stroke:none;stroke-width:0.1"
         id="path240" /><path
         d="m -2427.1725,114.15046 c -54.816,1.82 -100.743,-41.57 -102.581,-96.91 -0.267,-8.07 0.423,-15.94 1.956,-23.52 15.895,-24.31 42.837,-40.73 73.883,-41.76 50.864,-1.69 93.48,38.57 95.185,89.92 0.67,20.16 -5.072,39.04 -15.369,54.63 -15.127,10.55 -33.33,16.98 -53.074,17.64"
         style="fill:#ebebeb;fill-opacity:1;fill-rule:nonzero;stroke:none;stroke-width:0.1"
         id="path242" /><path
         d="m -2361.5085,78.29046 c 16.923,-18.26 25.785,-42.09 24.955,-67.1 -0.813,-24.47 -10.865,-47.3 -28.305,-64.29 -17.38,-16.94 -40.217,-26.26 -64.303,-26.26 -1.043,0 -2.058,0.01 -3.103,0.05 -24.72,0.82 -47.641,11.31 -64.543,29.55 0,0 65.325,-44.44 119.632,2.62 53.051,45.98 15.667,125.43 15.667,125.43"
         style="fill:#c6c6c6;fill-opacity:1;fill-rule:nonzero;stroke:none;stroke-width:0.1"
         id="path244" /><path
         d="m -2486.2305,60.75046 c 0.903,27.19 26.32,48.41 56.771,47.4 30.451,-1.01 54.404,-23.87 53.502,-51.06 -0.903,-27.18 -26.32,-48.4 -56.771,-47.39 -30.451,1.01 -54.405,23.87 -53.502,51.05"
         style="fill:#2e7bab;fill-opacity:1;fill-rule:nonzero;stroke:none;stroke-width:0.1"
         id="path246" /><path
         d="m -2466.1155,60.09046 c 0.573,17.26 16.718,30.74 36.06,30.1 19.341,-0.64 34.556,-15.16 33.983,-32.43 -0.574,-17.27 -16.718,-30.75 -36.06,-30.1 -19.342,0.64 -34.556,15.16 -33.983,32.43"
         style="fill:#310003;fill-opacity:1;fill-rule:nonzero;stroke:none;stroke-width:0.1"
         id="path248" /><path
         d="m -2480.8615,26.16046 c -1.679,0 -3.379,0.16 -5.085,0.5 -14.34,2.88 -23.559,17.2 -20.591,31.99 2.581,12.87 13.536,21.85 25.783,22.08 -3.293,-6.05 -5.238,-12.8 -5.476,-19.98 -0.421,-12.67 4.556,-24.4 13.073,-33.41 -2.464,-0.77 -5.056,-1.18 -7.704,-1.18"
         style="fill:#f4f4f4;fill-opacity:1;fill-rule:nonzero;stroke:none;stroke-width:0.1"
         id="path250" /><path
         d="m -2473.1575,27.34046 c -8.517,9.01 -13.494,20.74 -13.073,33.41 0.238,7.18 2.183,13.93 5.476,19.98 0.156,0 0.312,0 0.468,0 1.679,0 3.38,-0.16 5.086,-0.51 5.045,-1.01 9.455,-3.44 12.925,-6.8 -2.311,-4 -3.68,-8.52 -3.84,-13.33 -0.262,-7.9 2.774,-15.21 7.994,-20.9 -3.466,-5.71 -8.852,-9.92 -15.036,-11.85"
         style="fill:#8ab5d0;fill-opacity:1;fill-rule:nonzero;stroke:none;stroke-width:0.1"
         id="path252" /><path
         d="m -2458.1215,39.19046 c -5.22,5.69 -8.256,13 -7.994,20.9 0.16,4.81 1.529,9.33 3.84,13.33 6.393,-6.21 9.59,-15.6 7.667,-25.19 -0.662,-3.29 -1.872,-6.33 -3.513,-9.04"
         style="fill:#8b7072;fill-opacity:1;fill-rule:nonzero;stroke:none;stroke-width:0.1"
         id="path254" /><path
         d="m -2406.4345,-7.20954 c -8.212,0 -14.87,6.66 -14.87,14.87 0,0.94 0.087,1.86 0.254,2.75 8.705,1.37 16.715,4.58 23.494,9.18 3.637,-2.71 5.992,-7.05 5.992,-11.93 0,-8.21 -6.658,-14.87 -14.87,-14.87"
         style="fill:#f6f6f6;fill-opacity:1;fill-rule:nonzero;stroke:none;stroke-width:0.1"
         id="path256" /><path
         d="m -2421.0505,10.41046 c 1.29,6.9 7.343,12.12 14.616,12.12 3.328,0 6.401,-1.1 8.878,-2.94 -6.779,-4.6 -14.789,-7.81 -23.494,-9.18"
         style="fill:#9dc1d7;fill-opacity:1;fill-rule:nonzero;stroke:none;stroke-width:0.1"
         id="path258" /><path
         d="m -2332.5095,-0.51954 c 0,55.43 42.798,100.37 95.593,100.37 52.795,0 95.593,-44.94 95.593,-100.37 0,-55.44 -42.798,-100.37 -95.593,-100.37 -52.795,0 -95.593,44.93 -95.593,100.37"
         style="fill:#878787;fill-opacity:1;fill-rule:nonzero;stroke:none;stroke-width:0.1"
         id="path260" /><path
         d="m -2334.9555,17.24046 c 1.837,55.34 47.764,98.73 102.58,96.91 54.817,-1.82 97.765,-48.16 95.927,-103.5 -1.837,-55.34 -47.764,-98.73 -102.581,-96.91 -54.816,1.82 -97.764,48.16 -95.926,103.5"
         style="fill:#dddddd;fill-opacity:1;fill-rule:nonzero;stroke:none;stroke-width:0.1"
         id="path262" /><path
         d="m -2232.3755,114.15046 c -54.816,1.82 -100.743,-41.57 -102.58,-96.91 -0.268,-8.07 0.422,-15.94 1.956,-23.52 15.895,-24.31 42.836,-40.73 73.882,-41.76 50.864,-1.69 93.481,38.57 95.186,89.92 0.669,20.16 -5.072,39.04 -15.369,54.63 -15.127,10.55 -33.331,16.98 -53.075,17.64"
         style="fill:#ebebeb;fill-opacity:1;fill-rule:nonzero;stroke:none;stroke-width:0.1"
         id="path264" /><path
         d="m -2166.7115,78.29046 c 16.923,-18.26 25.785,-42.09 24.955,-67.1 -0.813,-24.47 -10.865,-47.3 -28.305,-64.29 -17.38,-16.94 -40.216,-26.26 -64.303,-26.26 -1.043,0 -2.058,0.01 -3.103,0.05 -24.72,0.82 -47.641,11.31 -64.542,29.55 0,0 65.324,-44.44 119.632,2.62 53.051,45.98 15.666,125.43 15.666,125.43"
         style="fill:#c6c6c6;fill-opacity:1;fill-rule:nonzero;stroke:none;stroke-width:0.1"
         id="path266" /><path
         d="m -2291.4335,60.75046 c 0.902,27.19 26.32,48.41 56.771,47.4 30.451,-1.01 54.405,-23.87 53.502,-51.06 -0.902,-27.18 -26.32,-48.4 -56.771,-47.39 -30.451,1.01 -54.405,23.87 -53.502,51.05"
         style="fill:#2e7bab;fill-opacity:1;fill-rule:nonzero;stroke:none;stroke-width:0.1"
         id="path268" /><path
         d="m -2271.3185,60.09046 c 0.574,17.26 16.718,30.74 36.06,30.1 19.342,-0.64 34.557,-15.16 33.983,-32.43 -0.573,-17.27 -16.718,-30.75 -36.06,-30.1 -19.342,0.64 -34.557,15.16 -33.983,32.43"
         style="fill:#310003;fill-opacity:1;fill-rule:nonzero;stroke:none;stroke-width:0.1"
         id="path270" /><path
         d="m -2286.0635,26.16046 c -1.679,0 -3.38,0.16 -5.086,0.5 -14.339,2.88 -23.559,17.2 -20.591,31.99 2.581,12.87 13.536,21.85 25.783,22.08 -3.293,-6.05 -5.238,-12.8 -5.476,-19.98 -0.421,-12.67 4.557,-24.4 13.074,-33.41 -2.465,-0.77 -5.057,-1.18 -7.704,-1.18"
         style="fill:#f4f4f4;fill-opacity:1;fill-rule:nonzero;stroke:none;stroke-width:0.1"
         id="path272" /><path
         d="m -2278.3595,27.34046 c -8.517,9.01 -13.495,20.74 -13.074,33.41 0.238,7.18 2.183,13.93 5.476,19.98 0.156,0 0.312,0 0.469,0 1.679,0 3.38,-0.16 5.085,-0.51 5.045,-1.01 9.456,-3.44 12.925,-6.8 -2.311,-4 -3.68,-8.52 -3.84,-13.33 -0.262,-7.9 2.774,-15.21 7.994,-20.9 -3.466,-5.71 -8.851,-9.92 -15.035,-11.85"
         style="fill:#8ab5d0;fill-opacity:1;fill-rule:nonzero;stroke:none;stroke-width:0.1"
         id="path274" /><path
         d="m -2263.3245,39.19046 c -5.22,5.69 -8.256,13 -7.994,20.9 0.16,4.81 1.529,9.33 3.84,13.33 6.394,-6.21 9.591,-15.6 7.667,-25.19 -0.661,-3.29 -1.872,-6.33 -3.513,-9.04"
         style="fill:#8b7072;fill-opacity:1;fill-rule:nonzero;stroke:none;stroke-width:0.1"
         id="path276" /><path
         d="m -2211.6375,-7.20954 c -8.212,0 -14.87,6.66 -14.87,14.87 0,0.94 0.087,1.86 0.254,2.75 8.705,1.37 16.715,4.58 23.495,9.18 3.636,-2.71 5.991,-7.05 5.991,-11.93 0,-8.21 -6.657,-14.87 -14.87,-14.87"
         style="fill:#f6f6f6;fill-opacity:1;fill-rule:nonzero;stroke:none;stroke-width:0.1"
         id="path278" /><path
         d="m -2226.2535,10.41046 c 1.29,6.9 7.344,12.12 14.616,12.12 3.329,0 6.401,-1.1 8.879,-2.94 -6.78,-4.6 -14.79,-7.81 -23.495,-9.18"
         style="fill:#9dc1d7;fill-opacity:1;fill-rule:nonzero;stroke:none;stroke-width:0.1"
         id="path280" /><path
         d="m -2375.2075,174.44046 c 0,0 -38.036,33.81 -84.525,12.68 -46.488,-21.14 -76.071,-88.76 -76.071,-88.76 0,0 46.488,50.72 88.75,63.4 42.262,12.68 71.846,12.68 71.846,12.68"
         style="fill:#5e2222;fill-opacity:1;fill-rule:nonzero;stroke:none;stroke-width:0.1"
         id="path282" /><path
         d="m -2303.8315,174.44046 c 0,0 38.036,33.81 84.524,12.68 46.489,-21.14 76.072,-88.76 76.072,-88.76 0,0 -46.488,50.72 -88.75,63.4 -42.263,12.68 -71.846,12.68 -71.846,12.68"
         style="fill:#5e2222;fill-opacity:1;fill-rule:nonzero;stroke:none;stroke-width:0.1"
         id="path284" /></g></g></svg>
