<?xml version="1.0" encoding="UTF-8" standalone="no"?>
<svg
   xmlns:dc="http://purl.org/dc/elements/1.1/"
   xmlns:cc="http://creativecommons.org/ns#"
   xmlns:rdf="http://www.w3.org/1999/02/22-rdf-syntax-ns#"
   xmlns:svg="http://www.w3.org/2000/svg"
   xmlns="http://www.w3.org/2000/svg"
   xmlns:xlink="http://www.w3.org/1999/xlink"
   xmlns:sodipodi="http://sodipodi.sourceforge.net/DTD/sodipodi-0.dtd"
   xmlns:inkscape="http://www.inkscape.org/namespaces/inkscape"
   version="1.1"
   id="svg2"
   xml:space="preserve"
   width="610"
   height="680"
   viewBox="0 0 610.00001 679.99999"
   sodipodi:docname="sem-jeito.svg"
   inkscape:version="1.0.2 (e86c870879, 2021-01-15)"><metadata
     id="metadata8"><rdf:RDF><cc:Work
         rdf:about=""><dc:format>image/svg+xml</dc:format><dc:type
           rdf:resource="http://purl.org/dc/dcmitype/StillImage" /><dc:title /></cc:Work></rdf:RDF></metadata><defs
     id="defs6"><clipPath
       clipPathUnits="userSpaceOnUse"
       id="clipPath90"><path
         d="m 10357.5,14445 c -125.7,19.2 -431.21,55.4 -777.4,20 -393.47,-40.3 -726.02,-313.4 -807.88,-385.7 174.03,-138.1 401.27,-210.1 749.89,-188.7 403.82,24.7 666.29,271.9 835.39,554.4 z"
         id="path88" /></clipPath><linearGradient
       x1="0"
       y1="0"
       x2="1"
       y2="0"
       gradientUnits="userSpaceOnUse"
       gradientTransform="matrix(1585.33,0,0,-1585.33,8772.22,14183.4)"
       spreadMethod="pad"
       id="linearGradient100"><stop
         style="stop-opacity:1;stop-color:#ff4c8b"
         offset="0"
         id="stop92" /><stop
         style="stop-opacity:1;stop-color:#fa9999"
         offset="0.10531767"
         id="stop94" /><stop
         style="stop-opacity:1;stop-color:#fa9999"
         offset="0.302703"
         id="stop96" /><stop
         style="stop-opacity:1;stop-color:#ff3163"
         offset="1"
         id="stop98" /></linearGradient><clipPath
       clipPathUnits="userSpaceOnUse"
       id="clipPath164"><path
         d="m 3006.17,8311.2 c 0,0 187.54,370.1 768.62,369 446.02,-0.8 825.84,-256.1 829.79,-413.2 2.43,-96.3 -15.88,-193.3 -307.33,-152.4 -372.38,52.3 -619.75,310 -940.17,265.7 -320.42,-44.2 -350.91,-69.1 -350.91,-69.1 z"
         id="path162" /></clipPath><linearGradient
       x1="0"
       y1="0"
       x2="1"
       y2="0"
       gradientUnits="userSpaceOnUse"
       gradientTransform="matrix(1596.29,40.2385,40.2385,-1596.29,3004.8,8365.3)"
       spreadMethod="pad"
       id="linearGradient174"><stop
         style="stop-opacity:1;stop-color:#ff4c8b"
         offset="0"
         id="stop166" /><stop
         style="stop-opacity:1;stop-color:#fa9999"
         offset="0.10531767"
         id="stop168" /><stop
         style="stop-opacity:1;stop-color:#fa9999"
         offset="0.302703"
         id="stop170" /><stop
         style="stop-opacity:1;stop-color:#ff3163"
         offset="1"
         id="stop172" /></linearGradient><clipPath
       clipPathUnits="userSpaceOnUse"
       id="clipPath394"><path
         d="m 14894.8,2329.2 c -119.6,47.7 -218.1,95.6 -299.3,141.8 -57.9,-105.8 -118.3,-230.7 -164.8,-361.5 -128.2,-360.8 -150.1,-766.2 281.4,-936.1 419.6,-165.3 663.3,183.2 802.6,582 60.4,173 101.3,355.4 128.4,509.5 -243.6,-31.8 -514,-29.1 -748.3,64.3 z"
         id="path392" /></clipPath><linearGradient
       x1="0"
       y1="0"
       x2="1"
       y2="0"
       gradientUnits="userSpaceOnUse"
       gradientTransform="matrix(857.288,-2051.04,-2051.04,-857.288,14396.8,3351)"
       spreadMethod="pad"
       id="linearGradient404"><stop
         style="stop-opacity:1;stop-color:#ff4c8b"
         offset="0"
         id="stop396" /><stop
         style="stop-opacity:1;stop-color:#fa9999"
         offset="0.10531767"
         id="stop398" /><stop
         style="stop-opacity:1;stop-color:#fa9999"
         offset="0.302703"
         id="stop400" /><stop
         style="stop-opacity:1;stop-color:#ff3163"
         offset="1"
         id="stop402" /></linearGradient><clipPath
       clipPathUnits="userSpaceOnUse"
       id="clipPath506"><path
         d="m 9581.67,8331.8 c 194.84,-0.3 346.38,56.8 451.83,132.5 -104.31,84.9 -231.69,141.8 -365.41,157.8 -195.11,23.4 -397.67,-40.8 -547.87,-166.8 104.34,-70.8 255.04,-123.2 461.45,-123.5 z"
         id="path504" /></clipPath><linearGradient
       x1="0"
       y1="0"
       x2="1"
       y2="0"
       gradientUnits="userSpaceOnUse"
       gradientTransform="matrix(913.325,0,0,-913.325,9120.22,8479.3)"
       spreadMethod="pad"
       id="linearGradient516"><stop
         style="stop-opacity:1;stop-color:#ff4c8b"
         offset="0"
         id="stop508" /><stop
         style="stop-opacity:1;stop-color:#fa9999"
         offset="0.10531767"
         id="stop510" /><stop
         style="stop-opacity:1;stop-color:#fa9999"
         offset="0.302703"
         id="stop512" /><stop
         style="stop-opacity:1;stop-color:#ff3163"
         offset="1"
         id="stop514" /></linearGradient><clipPath
       clipPathUnits="userSpaceOnUse"
       id="clipPath90-3"><path
         d="m 10357.5,14445 c -125.7,19.2 -431.21,55.4 -777.4,20 -393.47,-40.3 -726.02,-313.4 -807.88,-385.7 174.03,-138.1 401.27,-210.1 749.89,-188.7 403.82,24.7 666.29,271.9 835.39,554.4 z"
         id="path88-6" /></clipPath><clipPath
       clipPathUnits="userSpaceOnUse"
       id="clipPath164-6"><path
         d="m 3006.17,8311.2 c 0,0 187.54,370.1 768.62,369 446.02,-0.8 825.84,-256.1 829.79,-413.2 2.43,-96.3 -15.88,-193.3 -307.33,-152.4 -372.38,52.3 -619.75,310 -940.17,265.7 -320.42,-44.2 -350.91,-69.1 -350.91,-69.1 z"
         id="path162-2" /></clipPath><clipPath
       clipPathUnits="userSpaceOnUse"
       id="clipPath394-0"><path
         d="m 14894.8,2329.2 c -119.6,47.7 -218.1,95.6 -299.3,141.8 -57.9,-105.8 -118.3,-230.7 -164.8,-361.5 -128.2,-360.8 -150.1,-766.2 281.4,-936.1 419.6,-165.3 663.3,183.2 802.6,582 60.4,173 101.3,355.4 128.4,509.5 -243.6,-31.8 -514,-29.1 -748.3,64.3 z"
         id="path392-9" /></clipPath><clipPath
       clipPathUnits="userSpaceOnUse"
       id="clipPath506-2"><path
         d="m 9581.67,8331.8 c 194.84,-0.3 346.38,56.8 451.83,132.5 -104.31,84.9 -231.69,141.8 -365.41,157.8 -195.11,23.4 -397.67,-40.8 -547.87,-166.8 104.34,-70.8 255.04,-123.2 461.45,-123.5 z"
         id="path504-6" /></clipPath><linearGradient
       inkscape:collect="always"
       xlink:href="#linearGradient516"
       id="linearGradient2941"
       gradientUnits="userSpaceOnUse"
       gradientTransform="matrix(913.325,0,0,-913.325,9120.22,8479.3)"
       x1="0"
       y1="0"
       x2="1"
       y2="0"
       spreadMethod="pad" /></defs><sodipodi:namedview
     pagecolor="#ffffff"
     bordercolor="#666666"
     borderopacity="1"
     objecttolerance="10"
     gridtolerance="10"
     guidetolerance="10"
     inkscape:pageopacity="0"
     inkscape:pageshadow="2"
     inkscape:window-width="1920"
     inkscape:window-height="1019"
     id="namedview4"
     showgrid="false"
     inkscape:zoom="0.11097157"
     inkscape:cx="188.74192"
     inkscape:cy="-545.20717"
     inkscape:window-x="0"
     inkscape:window-y="0"
     inkscape:window-maximized="1"
     inkscape:current-layer="g10"
     inkscape:document-rotation="0" /><g
     id="g10"
     inkscape:groupmode="layer"
     inkscape:label="ink_ext_XXXXXX"
     transform="matrix(1.3333333,0,0,-1.3333333,0,2666.6667)"><g
       id="g3439"
       transform="translate(1951.1655,1124.591)"><path
         d="m -1727.4245,641.78046 c 0,56.25 43.725,101.86 97.675,101.86 53.94,0 97.67,-45.61 97.67,-101.86 0,-56.26 -43.73,-101.86 -97.67,-101.86 -53.95,0 -97.675,45.6 -97.675,101.86"
         style="fill:#878787;fill-opacity:1;fill-rule:nonzero;stroke:none;stroke-width:0.1"
         id="path452" /><path
         d="m -1724.1455,658.05046 c 1.838,55.34 47.766,98.73 102.586,96.91 54.81,-1.82 97.76,-48.16 95.92,-103.5 -1.84,-55.34 -47.76,-98.73 -102.58,-96.91 -54.82,1.82 -97.763,48.16 -95.926,103.5"
         style="fill:#dddddd;fill-opacity:1;fill-rule:nonzero;stroke:none;stroke-width:0.1"
         id="path454" /><path
         d="m -1557.5095,719.10046 c 16.92,-18.26 25.78,-42.09 24.95,-67.1 -0.81,-24.47 -10.86,-47.3 -28.3,-64.29 -17.38,-16.94 -40.22,-26.26 -64.31,-26.26 -1.04,0 -2.05,0.01 -3.1,0.05 -24.72,0.82 -47.64,11.31 -64.541,29.55 0,0 65.321,-44.44 119.631,2.62 53.05,45.98 15.67,125.43 15.67,125.43"
         style="fill:#c6c6c6;fill-opacity:1;fill-rule:nonzero;stroke:none;stroke-width:0.1"
         id="path456" /><path
         d="m -1621.5595,754.96046 c -54.82,1.82 -100.748,-41.57 -102.586,-96.91 -0.268,-8.07 0.423,-15.94 1.956,-23.52 15.895,-24.31 42.84,-40.73 73.88,-41.76 50.87,-1.69 93.48,38.57 95.19,89.92 0.67,20.16 -5.07,39.04 -15.37,54.63 -15.13,10.55 -33.33,16.98 -53.07,17.64"
         style="fill:#ebebeb;fill-opacity:1;fill-rule:nonzero;stroke:none;stroke-width:0.1"
         id="path458" /><path
         d="m -1670.2595,682.18046 c 1.02,30.74 26.53,54.84 56.99,53.83 30.45,-1.01 54.3,-26.75 53.28,-57.49 -1.02,-30.75 -26.53,-54.85 -56.98,-53.84 -30.45,1.01 -54.31,26.75 -53.29,57.5"
         style="fill:#2e7bab;fill-opacity:1;fill-rule:nonzero;stroke:none;stroke-width:0.1"
         id="path460" /><path
         d="m -1650.1395,681.51046 c 0.64,19.53 16.85,34.84 36.19,34.19 19.34,-0.64 34.5,-16.99 33.85,-36.52 -0.65,-19.52 -16.85,-34.83 -36.2,-34.19 -19.34,0.64 -34.49,16.99 -33.84,36.52"
         style="fill:#310003;fill-opacity:1;fill-rule:nonzero;stroke:none;stroke-width:0.1"
         id="path462" /><path
         d="m -1669.4695,664.84046 c -0.33,0 -0.66,0 -1,0.01 -16.499,0.55 -29.427,14.5 -28.874,31.16 0.542,16.31 13.822,29.18 29.874,29.18 0.34,0 0.67,0 1,-0.02 5.57,-0.18 10.73,-1.89 15.1,-4.71 -9.99,-9.71 -16.39,-23.2 -16.89,-38.28 -0.2,-6.02 0.55,-11.83 2.12,-17.32 -0.44,-0.01 -0.88,-0.02 -1.33,-0.02"
         style="fill:#f4f4f4;fill-opacity:1;fill-rule:nonzero;stroke:none;stroke-width:0.1"
         id="path464" /><path
         d="m -1668.1395,664.86046 c -1.57,5.49 -2.32,11.3 -2.12,17.32 0.5,15.08 6.9,28.57 16.89,38.28 5.83,-3.77 10.26,-9.51 12.39,-16.26 -5.44,-6 -8.87,-13.92 -9.16,-22.69 -0.1,-3.03 0.17,-5.98 0.79,-8.8 -5.02,-4.62 -11.59,-7.52 -18.79,-7.85"
         style="fill:#8ab5d0;fill-opacity:1;fill-rule:nonzero;stroke:none;stroke-width:0.1"
         id="path466" /><path
         d="m -1649.3495,672.71046 c -0.62,2.82 -0.89,5.77 -0.79,8.8 0.29,8.77 3.72,16.69 9.16,22.69 1.01,-3.2 1.51,-6.63 1.39,-10.18 -0.28,-8.47 -4,-16.02 -9.76,-21.31"
         style="fill:#8b7072;fill-opacity:1;fill-rule:nonzero;stroke:none;stroke-width:0.1"
         id="path468" /><path
         d="m -1823.9615,481.36046 c 18.274,32.78 48.164,-22.32 100.067,-22.39 51.905,-0.07 53.805,33.29 83.455,25.84 29.65,-7.46 -1.96,-76 -85.379,-75.89 -83.415,0.12 -107.435,55.77 -98.143,72.44"
         style="fill:#e0313a;fill-opacity:1;fill-rule:nonzero;stroke:none;stroke-width:0.1"
         id="path470" /><path
         d="m -1809.4465,487.31046 c -0.862,0 -1.68,-0.1 -2.453,-0.31 -3.006,-0.79 -5.677,-3.35 -8.166,-7.82 -2.393,-4.29 -1.923,-14.1 4.763,-25.5 7.089,-12.09 30.001,-40.21 89.49,-40.29 h 0.214 c 59.849,-0.01 89.079,35.26 91.429,54.18 0.61,4.89 -0.17,11.1 -7.36,12.91 -11.91,2.99 -18.2,-1.41 -27.73,-8.08 -11.4,-7.97 -25.572,-17.89 -54.462,-17.89 h -0.179 c -25.011,0.04 -44.833,12.01 -60.761,21.64 -9.819,5.93 -18.459,11.16 -24.785,11.16 z m 83.845,-82.85 h -0.223 c -64.095,0.09 -89.308,31.29 -97.174,44.71 -7.479,12.75 -9.386,26.24 -4.86,34.36 3.729,6.69 8.201,10.65 13.671,12.1 10.106,2.68 21.245,-4.05 34.141,-11.84 14.982,-9.06 33.627,-20.33 56.159,-20.36 26.234,-0.03 38.582,8.63 49.508,16.28 9.86,6.9 19.17,13.41 35.02,9.42 10.09,-2.53 15.47,-11.22 14.05,-22.66 -1.7,-13.62 -12.58,-29.2 -28.39,-40.65 -13.47,-9.75 -36.869,-21.36 -71.902,-21.36"
         style="fill:#890e0f;fill-opacity:1;fill-rule:nonzero;stroke:none;stroke-width:0.1"
         id="path472" /><path
         d="m -1837.7845,465.31046 c -6.85,7.75 -10.313,19.05 -8.44,29.35 3.322,18.42 22.409,25.42 34.578,18.31 3.208,-1.85 5.726,-4.87 6.511,-8.2 -8.821,8.41 -24.107,3.98 -29.616,-4.48 -6.526,-9.84 -5.14,-23.33 -3.033,-34.98"
         style="fill:#5e2222;fill-opacity:1;fill-rule:nonzero;stroke:none;stroke-width:0.1"
         id="path474" /><path
         d="m -1654.4295,502.05046 c 10.57,12.57 30.77,15.04 41.36,-2.05 8.18,-14.08 4.5,-29.89 -3.56,-44.11 0.19,10.07 2.05,21.36 -0.44,31 -4.94,19.21 -19.36,22.3 -37.36,15.16"
         style="fill:#5e2222;fill-opacity:1;fill-rule:nonzero;stroke:none;stroke-width:0.1"
         id="path476" /><path
         d="m -1919.2485,641.78046 c 0,56.25 43.73,101.86 97.674,101.86 53.944,0 97.674,-45.61 97.674,-101.86 0,-56.26 -43.73,-101.86 -97.674,-101.86 -53.944,0 -97.674,45.6 -97.674,101.86"
         style="fill:#878787;fill-opacity:1;fill-rule:nonzero;stroke:none;stroke-width:0.1"
         id="path478" /><path
         d="m -1915.9685,658.05046 c 1.837,55.34 47.765,98.73 102.581,96.91 54.816,-1.82 97.764,-48.16 95.926,-103.5 -1.837,-55.34 -47.764,-98.73 -102.58,-96.91 -54.817,1.82 -97.765,48.16 -95.927,103.5"
         style="fill:#dddddd;fill-opacity:1;fill-rule:nonzero;stroke:none;stroke-width:0.1"
         id="path480" /><path
         d="m -1749.3355,719.10046 c 16.923,-18.26 25.785,-42.09 24.955,-67.1 -0.812,-24.47 -10.864,-47.3 -28.305,-64.29 -17.38,-16.94 -40.216,-26.26 -64.302,-26.26 -1.044,0 -2.059,0.01 -3.104,0.05 -24.719,0.82 -47.641,11.31 -64.542,29.55 0,0 65.324,-44.44 119.632,2.62 53.051,45.98 15.666,125.43 15.666,125.43"
         style="fill:#c6c6c6;fill-opacity:1;fill-rule:nonzero;stroke:none;stroke-width:0.1"
         id="path482" /><path
         d="m -1813.3875,754.96046 c -54.816,1.82 -100.744,-41.57 -102.581,-96.91 -0.268,-8.07 0.422,-15.94 1.956,-23.52 15.895,-24.31 42.836,-40.73 73.882,-41.76 50.865,-1.69 93.481,38.57 95.186,89.92 0.669,20.16 -5.072,39.04 -15.369,54.63 -15.127,10.55 -33.331,16.98 -53.074,17.64"
         style="fill:#ebebeb;fill-opacity:1;fill-rule:nonzero;stroke:none;stroke-width:0.1"
         id="path484" /><path
         d="m -1862.0815,682.18046 c 1.02,30.74 26.534,54.84 56.984,53.83 30.452,-1.01 54.31,-26.75 53.289,-57.49 -1.021,-30.75 -26.534,-54.85 -56.985,-53.84 -30.451,1.01 -54.309,26.75 -53.288,57.5"
         style="fill:#2e7bab;fill-opacity:1;fill-rule:nonzero;stroke:none;stroke-width:0.1"
         id="path486" /><path
         d="m -1841.9665,681.51046 c 0.648,19.53 16.854,34.84 36.195,34.19 19.342,-0.64 34.496,-16.99 33.847,-36.52 -0.648,-19.52 -16.853,-34.83 -36.195,-34.19 -19.342,0.64 -34.495,16.99 -33.847,36.52"
         style="fill:#310003;fill-opacity:1;fill-rule:nonzero;stroke:none;stroke-width:0.1"
         id="path488" /><path
         d="m -1861.2925,664.84046 c -0.333,0 -0.664,0 -1,0.01 -16.5,0.55 -29.427,14.5 -28.874,31.16 0.542,16.31 13.822,29.18 29.876,29.18 0.333,0 0.666,0 1.001,-0.02 5.565,-0.18 10.724,-1.89 15.097,-4.71 -9.987,-9.71 -16.388,-23.2 -16.889,-38.28 -0.2,-6.02 0.551,-11.83 2.118,-17.32 -0.441,-0.01 -0.883,-0.02 -1.329,-0.02"
         style="fill:#f4f4f4;fill-opacity:1;fill-rule:nonzero;stroke:none;stroke-width:0.1"
         id="path490" /><path
         d="m -1859.9635,664.86046 c -1.567,5.49 -2.318,11.3 -2.118,17.32 0.501,15.08 6.902,28.57 16.889,38.28 5.827,-3.77 10.255,-9.51 12.388,-16.26 -5.441,-6 -8.871,-13.92 -9.162,-22.69 -0.1,-3.03 0.179,-5.98 0.794,-8.8 -5.021,-4.62 -11.593,-7.52 -18.791,-7.85"
         style="fill:#8ab5d0;fill-opacity:1;fill-rule:nonzero;stroke:none;stroke-width:0.1"
         id="path492" /><path
         d="m -1841.1725,672.71046 c -0.615,2.82 -0.894,5.77 -0.794,8.8 0.291,8.77 3.721,16.69 9.162,22.69 1.012,-3.2 1.507,-6.63 1.389,-10.18 -0.281,-8.47 -4,-16.02 -9.757,-21.31"
         style="fill:#8b7072;fill-opacity:1;fill-rule:nonzero;stroke:none;stroke-width:0.1"
         id="path494" /><path
         d="m -1673.2395,786.73046 c 0,0 25.04,29.35 62.15,18.33 37.11,-11.03 66.36,-58.72 66.36,-58.72 0,0 -40.18,33.24 -73.24,38.36 -33.05,5.11 -55.27,2.03 -55.27,2.03"
         style="fill:#5e2222;fill-opacity:1;fill-rule:nonzero;stroke:none;stroke-width:0.1"
         id="path496" /><path
         d="m -1743.2315,816.73046 c 0,0 -38.036,33.81 -84.525,12.68 -46.488,-21.13 -76.072,-88.75 -76.072,-88.75 0,0 46.489,50.72 88.751,63.4 42.262,12.67 71.846,12.67 71.846,12.67"
         style="fill:#5e2222;fill-opacity:1;fill-rule:nonzero;stroke:none;stroke-width:0.1"
         id="path498" /><g
         id="g500"
         transform="matrix(0.1,0,0,0.1,-2684.2395,-416.42954)"><g
           id="g502"
           clip-path="url(#clipPath506)"><path
             d="m 9581.67,8331.8 c 194.84,-0.3 346.38,56.8 451.83,132.5 -104.31,84.9 -231.69,141.8 -365.41,157.8 -195.11,23.4 -397.67,-40.8 -547.87,-166.8 104.34,-70.8 255.04,-123.2 461.45,-123.5"
             style="fill:url(#linearGradient2941);fill-opacity:1;fill-rule:nonzero;stroke:none"
             id="path518" /></g></g></g></g></svg>
