<?xml version="1.0" encoding="UTF-8" standalone="no"?>
<svg
   xmlns:dc="http://purl.org/dc/elements/1.1/"
   xmlns:cc="http://creativecommons.org/ns#"
   xmlns:rdf="http://www.w3.org/1999/02/22-rdf-syntax-ns#"
   xmlns:svg="http://www.w3.org/2000/svg"
   xmlns="http://www.w3.org/2000/svg"
   xmlns:sodipodi="http://sodipodi.sourceforge.net/DTD/sodipodi-0.dtd"
   xmlns:inkscape="http://www.inkscape.org/namespaces/inkscape"
   version="1.1"
   id="svg2"
   xml:space="preserve"
   width="610"
   height="680"
   viewBox="0 0 610.00001 679.99999"
   sodipodi:docname="sorriso.svg"
   inkscape:version="1.0.2 (e86c870879, 2021-01-15)"><metadata
     id="metadata8"><rdf:RDF><cc:Work
         rdf:about=""><dc:format>image/svg+xml</dc:format><dc:type
           rdf:resource="http://purl.org/dc/dcmitype/StillImage" /><dc:title /></cc:Work></rdf:RDF></metadata><defs
     id="defs6"><clipPath
       clipPathUnits="userSpaceOnUse"
       id="clipPath90"><path
         d="m 10357.5,14445 c -125.7,19.2 -431.21,55.4 -777.4,20 -393.47,-40.3 -726.02,-313.4 -807.88,-385.7 174.03,-138.1 401.27,-210.1 749.89,-188.7 403.82,24.7 666.29,271.9 835.39,554.4 z"
         id="path88" /></clipPath><linearGradient
       x1="0"
       y1="0"
       x2="1"
       y2="0"
       gradientUnits="userSpaceOnUse"
       gradientTransform="matrix(1585.33,0,0,-1585.33,8772.22,14183.4)"
       spreadMethod="pad"
       id="linearGradient100"><stop
         style="stop-opacity:1;stop-color:#ff4c8b"
         offset="0"
         id="stop92" /><stop
         style="stop-opacity:1;stop-color:#fa9999"
         offset="0.10531767"
         id="stop94" /><stop
         style="stop-opacity:1;stop-color:#fa9999"
         offset="0.302703"
         id="stop96" /><stop
         style="stop-opacity:1;stop-color:#ff3163"
         offset="1"
         id="stop98" /></linearGradient><clipPath
       clipPathUnits="userSpaceOnUse"
       id="clipPath164"><path
         d="m 3006.17,8311.2 c 0,0 187.54,370.1 768.62,369 446.02,-0.8 825.84,-256.1 829.79,-413.2 2.43,-96.3 -15.88,-193.3 -307.33,-152.4 -372.38,52.3 -619.75,310 -940.17,265.7 -320.42,-44.2 -350.91,-69.1 -350.91,-69.1 z"
         id="path162" /></clipPath><linearGradient
       x1="0"
       y1="0"
       x2="1"
       y2="0"
       gradientUnits="userSpaceOnUse"
       gradientTransform="matrix(1596.29,40.2385,40.2385,-1596.29,3004.8,8365.3)"
       spreadMethod="pad"
       id="linearGradient174"><stop
         style="stop-opacity:1;stop-color:#ff4c8b"
         offset="0"
         id="stop166" /><stop
         style="stop-opacity:1;stop-color:#fa9999"
         offset="0.10531767"
         id="stop168" /><stop
         style="stop-opacity:1;stop-color:#fa9999"
         offset="0.302703"
         id="stop170" /><stop
         style="stop-opacity:1;stop-color:#ff3163"
         offset="1"
         id="stop172" /></linearGradient><clipPath
       clipPathUnits="userSpaceOnUse"
       id="clipPath394"><path
         d="m 14894.8,2329.2 c -119.6,47.7 -218.1,95.6 -299.3,141.8 -57.9,-105.8 -118.3,-230.7 -164.8,-361.5 -128.2,-360.8 -150.1,-766.2 281.4,-936.1 419.6,-165.3 663.3,183.2 802.6,582 60.4,173 101.3,355.4 128.4,509.5 -243.6,-31.8 -514,-29.1 -748.3,64.3 z"
         id="path392" /></clipPath><linearGradient
       x1="0"
       y1="0"
       x2="1"
       y2="0"
       gradientUnits="userSpaceOnUse"
       gradientTransform="matrix(857.288,-2051.04,-2051.04,-857.288,14396.8,3351)"
       spreadMethod="pad"
       id="linearGradient404"><stop
         style="stop-opacity:1;stop-color:#ff4c8b"
         offset="0"
         id="stop396" /><stop
         style="stop-opacity:1;stop-color:#fa9999"
         offset="0.10531767"
         id="stop398" /><stop
         style="stop-opacity:1;stop-color:#fa9999"
         offset="0.302703"
         id="stop400" /><stop
         style="stop-opacity:1;stop-color:#ff3163"
         offset="1"
         id="stop402" /></linearGradient><clipPath
       clipPathUnits="userSpaceOnUse"
       id="clipPath506"><path
         d="m 9581.67,8331.8 c 194.84,-0.3 346.38,56.8 451.83,132.5 -104.31,84.9 -231.69,141.8 -365.41,157.8 -195.11,23.4 -397.67,-40.8 -547.87,-166.8 104.34,-70.8 255.04,-123.2 461.45,-123.5 z"
         id="path504" /></clipPath><linearGradient
       x1="0"
       y1="0"
       x2="1"
       y2="0"
       gradientUnits="userSpaceOnUse"
       gradientTransform="matrix(913.325,0,0,-913.325,9120.22,8479.3)"
       spreadMethod="pad"
       id="linearGradient516"><stop
         style="stop-opacity:1;stop-color:#ff4c8b"
         offset="0"
         id="stop508" /><stop
         style="stop-opacity:1;stop-color:#fa9999"
         offset="0.10531767"
         id="stop510" /><stop
         style="stop-opacity:1;stop-color:#fa9999"
         offset="0.302703"
         id="stop512" /><stop
         style="stop-opacity:1;stop-color:#ff3163"
         offset="1"
         id="stop514" /></linearGradient><clipPath
       clipPathUnits="userSpaceOnUse"
       id="clipPath90-3"><path
         d="m 10357.5,14445 c -125.7,19.2 -431.21,55.4 -777.4,20 -393.47,-40.3 -726.02,-313.4 -807.88,-385.7 174.03,-138.1 401.27,-210.1 749.89,-188.7 403.82,24.7 666.29,271.9 835.39,554.4 z"
         id="path88-6" /></clipPath><clipPath
       clipPathUnits="userSpaceOnUse"
       id="clipPath164-6"><path
         d="m 3006.17,8311.2 c 0,0 187.54,370.1 768.62,369 446.02,-0.8 825.84,-256.1 829.79,-413.2 2.43,-96.3 -15.88,-193.3 -307.33,-152.4 -372.38,52.3 -619.75,310 -940.17,265.7 -320.42,-44.2 -350.91,-69.1 -350.91,-69.1 z"
         id="path162-2" /></clipPath><clipPath
       clipPathUnits="userSpaceOnUse"
       id="clipPath394-0"><path
         d="m 14894.8,2329.2 c -119.6,47.7 -218.1,95.6 -299.3,141.8 -57.9,-105.8 -118.3,-230.7 -164.8,-361.5 -128.2,-360.8 -150.1,-766.2 281.4,-936.1 419.6,-165.3 663.3,183.2 802.6,582 60.4,173 101.3,355.4 128.4,509.5 -243.6,-31.8 -514,-29.1 -748.3,64.3 z"
         id="path392-9" /></clipPath><clipPath
       clipPathUnits="userSpaceOnUse"
       id="clipPath506-2"><path
         d="m 9581.67,8331.8 c 194.84,-0.3 346.38,56.8 451.83,132.5 -104.31,84.9 -231.69,141.8 -365.41,157.8 -195.11,23.4 -397.67,-40.8 -547.87,-166.8 104.34,-70.8 255.04,-123.2 461.45,-123.5 z"
         id="path504-6" /></clipPath></defs><sodipodi:namedview
     pagecolor="#ffffff"
     bordercolor="#666666"
     borderopacity="1"
     objecttolerance="10"
     gridtolerance="10"
     guidetolerance="10"
     inkscape:pageopacity="0"
     inkscape:pageshadow="2"
     inkscape:window-width="1920"
     inkscape:window-height="1019"
     id="namedview4"
     showgrid="false"
     inkscape:zoom="0.11097157"
     inkscape:cx="188.74192"
     inkscape:cy="-545.20717"
     inkscape:window-x="0"
     inkscape:window-y="0"
     inkscape:window-maximized="1"
     inkscape:current-layer="g10"
     inkscape:document-rotation="0" /><g
     id="g10"
     inkscape:groupmode="layer"
     inkscape:label="ink_ext_XXXXXX"
     transform="matrix(1.3333333,0,0,-1.3333333,0,2666.6667)"><g
       id="g3298"
       transform="translate(2586.114,517.38534)"><path
         d="m -2358.8505,1259.6305 c 0,59.13 46.602,107.06 104.09,107.06 57.487,0 104.09,-47.93 104.09,-107.06 0,-59.13 -46.603,-107.07 -104.09,-107.07 -57.488,0 -104.09,47.94 -104.09,107.07"
         style="fill:#9b9a9a;fill-opacity:1;fill-rule:nonzero;stroke:none;stroke-width:0.1"
         id="path16" /><path
         d="m -2353.1475,1274.1905 c 1.838,55.34 47.765,98.73 102.581,96.91 54.816,-1.82 97.764,-48.16 95.927,-103.5 -1.838,-55.35 -47.765,-98.73 -102.581,-96.91 -54.817,1.82 -97.764,48.16 -95.927,103.5"
         style="fill:#dddddd;fill-opacity:1;fill-rule:nonzero;stroke:none;stroke-width:0.1"
         id="path18" /><path
         d="m -2186.5145,1335.2405 c 16.923,-18.26 25.786,-42.09 24.955,-67.1 -0.812,-24.47 -10.864,-47.3 -28.304,-64.29 -17.38,-16.94 -40.217,-26.27 -64.303,-26.27 -1.043,0 -2.058,0.02 -3.103,0.05 -24.72,0.83 -47.641,11.32 -64.543,29.56 0,0 65.324,-44.45 119.632,2.62 53.051,45.98 15.666,125.43 15.666,125.43"
         style="fill:#c6c6c6;fill-opacity:1;fill-rule:nonzero;stroke:none;stroke-width:0.1"
         id="path20" /><path
         d="m -2250.5665,1371.1005 c -54.816,1.82 -100.743,-41.57 -102.581,-96.91 -0.268,-8.07 0.423,-15.94 1.956,-23.52 15.895,-24.31 42.837,-40.74 73.883,-41.77 50.864,-1.69 93.48,38.58 95.185,89.93 0.67,20.16 -5.072,39.04 -15.369,54.63 -15.127,10.55 -33.33,16.98 -53.074,17.64"
         style="fill:#ebebeb;fill-opacity:1;fill-rule:nonzero;stroke:none;stroke-width:0.1"
         id="path22" /><path
         d="m -2311.4135,1278.5705 c 1.021,30.74 26.534,54.84 56.985,53.83 30.451,-1.01 54.309,-26.75 53.289,-57.49 -1.021,-30.75 -26.534,-54.85 -56.985,-53.84 -30.451,1.01 -54.309,26.75 -53.289,57.5"
         style="fill:#2e7bab;fill-opacity:1;fill-rule:nonzero;stroke:none;stroke-width:0.1"
         id="path24" /><path
         d="m -2291.2975,1277.9005 c 0.647,19.53 16.853,34.84 36.195,34.19 19.342,-0.64 34.496,-16.99 33.848,-36.52 -0.649,-19.52 -16.854,-34.83 -36.196,-34.19 -19.342,0.64 -34.496,16.99 -33.847,36.52"
         style="fill:#310003;fill-opacity:1;fill-rule:nonzero;stroke:none;stroke-width:0.1"
         id="path26" /><path
         d="m -2311.0055,1283.7405 c -10.579,4.93 -17.755,15.9 -17.339,28.4 0.541,16.32 13.822,29.19 29.875,29.19 0.333,0 0.666,-0.01 1.001,-0.02 9.41,-0.31 17.656,-4.98 22.905,-12.02 -19.286,-6.86 -33.781,-24.26 -36.442,-45.55"
         style="fill:#f4f4f4;fill-opacity:1;fill-rule:nonzero;stroke:none;stroke-width:0.1"
         id="path28" /><path
         d="m -2298.4715,1280.9705 c -0.333,0 -0.665,0.01 -1,0.02 -4.119,0.14 -8.015,1.11 -11.534,2.75 2.661,21.29 17.156,38.69 36.442,45.55 3.955,-5.31 6.207,-11.97 5.97,-19.13 0,-0.1 -0.01,-0.21 -0.012,-0.31 -11.664,-4.44 -20.435,-14.99 -22.33,-27.91 -2.411,-0.63 -4.937,-0.97 -7.536,-0.97"
         style="fill:#8ab5d0;fill-opacity:1;fill-rule:nonzero;stroke:none;stroke-width:0.1"
         id="path30" /><path
         d="m -2290.9355,1281.9405 c 1.895,12.92 10.666,23.47 22.33,27.91 -0.584,-13.54 -9.94,-24.65 -22.33,-27.91"
         style="fill:#8b7072;fill-opacity:1;fill-rule:nonzero;stroke:none;stroke-width:0.1"
         id="path32" /><path
         d="m -2214.6115,1222.4505 c -2.962,0 -5.723,0.87 -8.041,2.36 7.976,5.45 15.071,12.14 21.011,19.79 1.21,-2.15 1.9,-4.64 1.9,-7.28 0,-8.21 -6.657,-14.87 -14.87,-14.87"
         style="fill:#efefef;fill-opacity:1;fill-rule:nonzero;stroke:none;stroke-width:0.1"
         id="path34" /><path
         d="m -2222.6525,1224.8105 c -1.834,1.18 -3.392,2.75 -4.554,4.6 8.192,5.15 14.975,12.41 19.568,21.05 2.516,-1.34 4.602,-3.38 5.997,-5.86 -5.94,-7.65 -13.035,-14.34 -21.011,-19.79"
         style="fill:#f6f6f6;fill-opacity:1;fill-rule:nonzero;stroke:none;stroke-width:0.1"
         id="path36" /><path
         d="m -2227.2065,1229.4105 c -1.441,2.29 -2.275,5 -2.275,7.91 0,8.21 6.658,14.87 14.87,14.87 2.52,0 4.893,-0.63 6.973,-1.73 -4.593,-8.64 -11.376,-15.9 -19.568,-21.05"
         style="fill:#9dc1d7;fill-opacity:1;fill-rule:nonzero;stroke:none;stroke-width:0.1"
         id="path38" /><path
         d="m -2564.0575,1259.6305 c 0,59.13 46.604,107.06 104.091,107.06 57.487,0 104.09,-47.93 104.09,-107.06 0,-59.13 -46.603,-107.07 -104.09,-107.07 -57.487,0 -104.091,47.94 -104.091,107.07"
         style="fill:#9b9a9a;fill-opacity:1;fill-rule:nonzero;stroke:none;stroke-width:0.1"
         id="path40" /><path
         d="m -2558.3535,1274.1905 c 1.837,55.34 47.765,98.73 102.581,96.91 54.816,-1.82 97.764,-48.16 95.927,-103.5 -1.838,-55.35 -47.765,-98.73 -102.581,-96.91 -54.816,1.82 -97.765,48.16 -95.927,103.5"
         style="fill:#dddddd;fill-opacity:1;fill-rule:nonzero;stroke:none;stroke-width:0.1"
         id="path42" /><path
         d="m -2391.7205,1335.2405 c 16.923,-18.26 25.786,-42.09 24.955,-67.1 -0.812,-24.47 -10.864,-47.3 -28.305,-64.29 -17.38,-16.94 -40.216,-26.27 -64.302,-26.27 -1.043,0 -2.059,0.02 -3.104,0.05 -24.719,0.83 -47.641,11.32 -64.542,29.56 0,0 65.324,-44.45 119.632,2.62 53.051,45.98 15.666,125.43 15.666,125.43"
         style="fill:#c6c6c6;fill-opacity:1;fill-rule:nonzero;stroke:none;stroke-width:0.1"
         id="path44" /><path
         d="m -2455.7725,1371.1005 c -54.816,1.82 -100.744,-41.57 -102.581,-96.91 -0.268,-8.07 0.422,-15.94 1.956,-23.52 15.895,-24.31 42.836,-40.74 73.882,-41.77 50.865,-1.69 93.481,38.58 95.186,89.93 0.669,20.16 -5.072,39.04 -15.369,54.63 -15.127,10.55 -33.33,16.98 -53.074,17.64"
         style="fill:#ebebeb;fill-opacity:1;fill-rule:nonzero;stroke:none;stroke-width:0.1"
         id="path46" /><path
         d="m -2516.6195,1278.5705 c 1.021,30.74 26.534,54.84 56.985,53.83 30.451,-1.01 54.309,-26.75 53.288,-57.49 -1.021,-30.75 -26.533,-54.85 -56.985,-53.84 -30.45,1.01 -54.309,26.75 -53.288,57.5"
         style="fill:#2e7bab;fill-opacity:1;fill-rule:nonzero;stroke:none;stroke-width:0.1"
         id="path48" /><path
         d="m -2496.5045,1277.9005 c 0.649,19.53 16.854,34.84 36.196,34.19 19.341,-0.64 34.496,-16.99 33.847,-36.52 -0.648,-19.52 -16.853,-34.83 -36.195,-34.19 -19.342,0.64 -34.496,16.99 -33.848,36.52"
         style="fill:#310003;fill-opacity:1;fill-rule:nonzero;stroke:none;stroke-width:0.1"
         id="path50" /><path
         d="m -2516.2115,1283.7405 c -10.579,4.93 -17.755,15.9 -17.34,28.4 0.542,16.32 13.822,29.19 29.876,29.19 0.333,0 0.666,-0.01 1.001,-0.02 9.409,-0.31 17.656,-4.98 22.905,-12.02 -19.286,-6.86 -33.781,-24.26 -36.442,-45.55"
         style="fill:#f4f4f4;fill-opacity:1;fill-rule:nonzero;stroke:none;stroke-width:0.1"
         id="path52" /><path
         d="m -2503.6775,1280.9705 c -0.333,0 -0.664,0.01 -1,0.02 -4.119,0.14 -8.014,1.11 -11.534,2.75 2.661,21.29 17.156,38.69 36.442,45.55 3.955,-5.31 6.207,-11.97 5.969,-19.13 0,-0.1 -0.01,-0.21 -0.012,-0.31 -11.663,-4.44 -20.434,-14.99 -22.33,-27.91 -2.41,-0.63 -4.936,-0.97 -7.535,-0.97"
         style="fill:#8ab5d0;fill-opacity:1;fill-rule:nonzero;stroke:none;stroke-width:0.1"
         id="path54" /><path
         d="m -2496.1425,1281.9405 c 1.896,12.92 10.667,23.47 22.33,27.91 -0.583,-13.54 -9.94,-24.65 -22.33,-27.91"
         style="fill:#8b7072;fill-opacity:1;fill-rule:nonzero;stroke:none;stroke-width:0.1"
         id="path56" /><path
         d="m -2419.8175,1222.4505 c -2.963,0 -5.723,0.87 -8.041,2.36 7.976,5.45 15.071,12.14 21.011,19.79 1.21,-2.15 1.9,-4.64 1.9,-7.28 0,-8.21 -6.658,-14.87 -14.87,-14.87"
         style="fill:#efefef;fill-opacity:1;fill-rule:nonzero;stroke:none;stroke-width:0.1"
         id="path58" /><path
         d="m -2427.8585,1224.8105 c -1.835,1.18 -3.392,2.75 -4.555,4.6 8.193,5.15 14.975,12.41 19.568,21.05 2.516,-1.34 4.603,-3.38 5.998,-5.86 -5.94,-7.65 -13.035,-14.34 -21.011,-19.79"
         style="fill:#f6f6f6;fill-opacity:1;fill-rule:nonzero;stroke:none;stroke-width:0.1"
         id="path60" /><path
         d="m -2432.4135,1229.4105 c -1.441,2.29 -2.274,5 -2.274,7.91 0,8.21 6.657,14.87 14.87,14.87 2.52,0 4.893,-0.63 6.972,-1.73 -4.593,-8.64 -11.375,-15.9 -19.568,-21.05"
         style="fill:#9dc1d7;fill-opacity:1;fill-rule:nonzero;stroke:none;stroke-width:0.1"
         id="path62" /><path
         d="m -2417.9615,1433.2105 c 0,0 -31.453,30.73 -75.81,15.25 -44.356,-15.47 -41.395,-65.82 -41.395,-65.82 0,0 23.091,61.41 117.205,50.57"
         style="fill:#5e2222;fill-opacity:1;fill-rule:nonzero;stroke:none;stroke-width:0.1"
         id="path64" /><path
         d="m -2503.0755,1116.5505 c 0,0 34.121,-57.8 147.066,-57.85 112.945,-0.05 147.119,62.97 147.119,62.97 0,0 -31.556,-81.41 -147.127,-81.36 -115.572,0.05 -147.058,76.24 -147.058,76.24"
         style="fill:#5e2222;fill-opacity:1;fill-rule:nonzero;stroke:none;stroke-width:0.1"
         id="path66" /><path
         d="m -2387.5445,1024.5605 c 0,0 7.312,-12.38 31.514,-12.39 24.203,-0.01 31.526,13.49 31.526,13.49 0,0 -6.765,-23.26 -31.53,-23.25 -24.766,0.01 -31.51,22.15 -31.51,22.15"
         style="fill:#5e2222;fill-opacity:1;fill-rule:nonzero;stroke:none;stroke-width:0.1"
         id="path68" /><path
         d="m -2524.9065,1113.3505 c 3.827,0.18 7.298,0.72 10.606,1.7 3.301,0.96 6.409,2.33 9.317,4.05 2.904,1.72 5.608,3.77 8.054,6.19 2.46,2.41 4.616,5.19 6.634,8.44 0.104,-3.85 -1.257,-7.73 -3.417,-11.03 -2.175,-3.32 -5.17,-6.11 -8.605,-8.13 -3.434,-2.02 -7.325,-3.28 -11.279,-3.58 -3.939,-0.28 -7.985,0.4 -11.31,2.36"
         style="fill:#60290d;fill-opacity:1;fill-rule:nonzero;stroke:none;stroke-width:0.1"
         id="path70" /><path
         d="m -2188.2685,1115.8105 c -3.326,-1.96 -7.373,-2.64 -11.312,-2.35 -3.953,0.3 -7.843,1.57 -11.275,3.59 -3.434,2.02 -6.426,4.81 -8.598,8.13 -2.158,3.31 -3.515,7.18 -3.407,11.04 2.015,-3.26 4.169,-6.03 6.627,-8.45 2.443,-2.42 5.145,-4.48 8.047,-6.2 2.907,-1.71 6.014,-3.09 9.314,-4.06 3.307,-0.98 6.778,-1.52 10.604,-1.7"
         style="fill:#60290d;fill-opacity:1;fill-rule:nonzero;stroke:none;stroke-width:0.1"
         id="path72" /><path
         d="m -2289.8525,1433.2105 c 0,0 31.453,30.73 75.81,15.25 44.356,-15.47 41.395,-65.82 41.395,-65.82 0,0 -23.09,61.41 -117.205,50.57"
         style="fill:#5e2222;fill-opacity:1;fill-rule:nonzero;stroke:none;stroke-width:0.1"
         id="path74" /></g></g></svg>
