<?xml version="1.0" encoding="UTF-8" standalone="no"?>
<svg
   xmlns:dc="http://purl.org/dc/elements/1.1/"
   xmlns:cc="http://creativecommons.org/ns#"
   xmlns:rdf="http://www.w3.org/1999/02/22-rdf-syntax-ns#"
   xmlns:svg="http://www.w3.org/2000/svg"
   xmlns="http://www.w3.org/2000/svg"
   xmlns:xlink="http://www.w3.org/1999/xlink"
   xmlns:sodipodi="http://sodipodi.sourceforge.net/DTD/sodipodi-0.dtd"
   xmlns:inkscape="http://www.inkscape.org/namespaces/inkscape"
   version="1.1"
   id="svg2"
   xml:space="preserve"
   width="610"
   height="680"
   viewBox="0 0 610.00001 679.99999"
   sodipodi:docname="sorriso-grande.svg"
   inkscape:version="1.0.2 (e86c870879, 2021-01-15)"><metadata
     id="metadata8"><rdf:RDF><cc:Work
         rdf:about=""><dc:format>image/svg+xml</dc:format><dc:type
           rdf:resource="http://purl.org/dc/dcmitype/StillImage" /><dc:title /></cc:Work></rdf:RDF></metadata><defs
     id="defs6"><clipPath
       clipPathUnits="userSpaceOnUse"
       id="clipPath90"><path
         d="m 10357.5,14445 c -125.7,19.2 -431.21,55.4 -777.4,20 -393.47,-40.3 -726.02,-313.4 -807.88,-385.7 174.03,-138.1 401.27,-210.1 749.89,-188.7 403.82,24.7 666.29,271.9 835.39,554.4 z"
         id="path88" /></clipPath><linearGradient
       x1="0"
       y1="0"
       x2="1"
       y2="0"
       gradientUnits="userSpaceOnUse"
       gradientTransform="matrix(1585.33,0,0,-1585.33,8772.22,14183.4)"
       spreadMethod="pad"
       id="linearGradient100"><stop
         style="stop-opacity:1;stop-color:#ff4c8b"
         offset="0"
         id="stop92" /><stop
         style="stop-opacity:1;stop-color:#fa9999"
         offset="0.10531767"
         id="stop94" /><stop
         style="stop-opacity:1;stop-color:#fa9999"
         offset="0.302703"
         id="stop96" /><stop
         style="stop-opacity:1;stop-color:#ff3163"
         offset="1"
         id="stop98" /></linearGradient><clipPath
       clipPathUnits="userSpaceOnUse"
       id="clipPath164"><path
         d="m 3006.17,8311.2 c 0,0 187.54,370.1 768.62,369 446.02,-0.8 825.84,-256.1 829.79,-413.2 2.43,-96.3 -15.88,-193.3 -307.33,-152.4 -372.38,52.3 -619.75,310 -940.17,265.7 -320.42,-44.2 -350.91,-69.1 -350.91,-69.1 z"
         id="path162" /></clipPath><linearGradient
       x1="0"
       y1="0"
       x2="1"
       y2="0"
       gradientUnits="userSpaceOnUse"
       gradientTransform="matrix(1596.29,40.2385,40.2385,-1596.29,3004.8,8365.3)"
       spreadMethod="pad"
       id="linearGradient174"><stop
         style="stop-opacity:1;stop-color:#ff4c8b"
         offset="0"
         id="stop166" /><stop
         style="stop-opacity:1;stop-color:#fa9999"
         offset="0.10531767"
         id="stop168" /><stop
         style="stop-opacity:1;stop-color:#fa9999"
         offset="0.302703"
         id="stop170" /><stop
         style="stop-opacity:1;stop-color:#ff3163"
         offset="1"
         id="stop172" /></linearGradient><clipPath
       clipPathUnits="userSpaceOnUse"
       id="clipPath394"><path
         d="m 14894.8,2329.2 c -119.6,47.7 -218.1,95.6 -299.3,141.8 -57.9,-105.8 -118.3,-230.7 -164.8,-361.5 -128.2,-360.8 -150.1,-766.2 281.4,-936.1 419.6,-165.3 663.3,183.2 802.6,582 60.4,173 101.3,355.4 128.4,509.5 -243.6,-31.8 -514,-29.1 -748.3,64.3 z"
         id="path392" /></clipPath><linearGradient
       x1="0"
       y1="0"
       x2="1"
       y2="0"
       gradientUnits="userSpaceOnUse"
       gradientTransform="matrix(857.288,-2051.04,-2051.04,-857.288,14396.8,3351)"
       spreadMethod="pad"
       id="linearGradient404"><stop
         style="stop-opacity:1;stop-color:#ff4c8b"
         offset="0"
         id="stop396" /><stop
         style="stop-opacity:1;stop-color:#fa9999"
         offset="0.10531767"
         id="stop398" /><stop
         style="stop-opacity:1;stop-color:#fa9999"
         offset="0.302703"
         id="stop400" /><stop
         style="stop-opacity:1;stop-color:#ff3163"
         offset="1"
         id="stop402" /></linearGradient><clipPath
       clipPathUnits="userSpaceOnUse"
       id="clipPath506"><path
         d="m 9581.67,8331.8 c 194.84,-0.3 346.38,56.8 451.83,132.5 -104.31,84.9 -231.69,141.8 -365.41,157.8 -195.11,23.4 -397.67,-40.8 -547.87,-166.8 104.34,-70.8 255.04,-123.2 461.45,-123.5 z"
         id="path504" /></clipPath><linearGradient
       x1="0"
       y1="0"
       x2="1"
       y2="0"
       gradientUnits="userSpaceOnUse"
       gradientTransform="matrix(913.325,0,0,-913.325,9120.22,8479.3)"
       spreadMethod="pad"
       id="linearGradient516"><stop
         style="stop-opacity:1;stop-color:#ff4c8b"
         offset="0"
         id="stop508" /><stop
         style="stop-opacity:1;stop-color:#fa9999"
         offset="0.10531767"
         id="stop510" /><stop
         style="stop-opacity:1;stop-color:#fa9999"
         offset="0.302703"
         id="stop512" /><stop
         style="stop-opacity:1;stop-color:#ff3163"
         offset="1"
         id="stop514" /></linearGradient><clipPath
       clipPathUnits="userSpaceOnUse"
       id="clipPath90-3"><path
         d="m 10357.5,14445 c -125.7,19.2 -431.21,55.4 -777.4,20 -393.47,-40.3 -726.02,-313.4 -807.88,-385.7 174.03,-138.1 401.27,-210.1 749.89,-188.7 403.82,24.7 666.29,271.9 835.39,554.4 z"
         id="path88-6" /></clipPath><clipPath
       clipPathUnits="userSpaceOnUse"
       id="clipPath164-6"><path
         d="m 3006.17,8311.2 c 0,0 187.54,370.1 768.62,369 446.02,-0.8 825.84,-256.1 829.79,-413.2 2.43,-96.3 -15.88,-193.3 -307.33,-152.4 -372.38,52.3 -619.75,310 -940.17,265.7 -320.42,-44.2 -350.91,-69.1 -350.91,-69.1 z"
         id="path162-2" /></clipPath><clipPath
       clipPathUnits="userSpaceOnUse"
       id="clipPath394-0"><path
         d="m 14894.8,2329.2 c -119.6,47.7 -218.1,95.6 -299.3,141.8 -57.9,-105.8 -118.3,-230.7 -164.8,-361.5 -128.2,-360.8 -150.1,-766.2 281.4,-936.1 419.6,-165.3 663.3,183.2 802.6,582 60.4,173 101.3,355.4 128.4,509.5 -243.6,-31.8 -514,-29.1 -748.3,64.3 z"
         id="path392-9" /></clipPath><clipPath
       clipPathUnits="userSpaceOnUse"
       id="clipPath506-2"><path
         d="m 9581.67,8331.8 c 194.84,-0.3 346.38,56.8 451.83,132.5 -104.31,84.9 -231.69,141.8 -365.41,157.8 -195.11,23.4 -397.67,-40.8 -547.87,-166.8 104.34,-70.8 255.04,-123.2 461.45,-123.5 z"
         id="path504-6" /></clipPath><linearGradient
       inkscape:collect="always"
       xlink:href="#linearGradient100"
       id="linearGradient2935"
       gradientUnits="userSpaceOnUse"
       gradientTransform="matrix(1585.33,0,0,-1585.33,8772.22,14183.4)"
       x1="0"
       y1="0"
       x2="1"
       y2="0"
       spreadMethod="pad" /></defs><sodipodi:namedview
     pagecolor="#ffffff"
     bordercolor="#666666"
     borderopacity="1"
     objecttolerance="10"
     gridtolerance="10"
     guidetolerance="10"
     inkscape:pageopacity="0"
     inkscape:pageshadow="2"
     inkscape:window-width="1818"
     inkscape:window-height="1018"
     id="namedview4"
     showgrid="false"
     inkscape:zoom="0.11097157"
     inkscape:cx="188.74192"
     inkscape:cy="-545.20717"
     inkscape:window-x="1749"
     inkscape:window-y="157"
     inkscape:window-maximized="0"
     inkscape:current-layer="g10"
     inkscape:document-rotation="0" /><g
     id="g10"
     inkscape:groupmode="layer"
     inkscape:label="ink_ext_XXXXXX"
     transform="matrix(1.3333333,0,0,-1.3333333,0,2666.6667)"><g
       id="g3333"
       transform="translate(1977.9094,524.3401)"><path
         d="m -1882.9995,1105.8805 c 0,0 29.238,-33.44 108.685,-47.54 102.465,-18.18 155.135,57.84 155.135,57.84 0,0 -14.66,-137.54004 -112.849,-143.55004 -94.107,-5.77 -99.81,56.45004 -150.971,133.25004"
         style="fill:#890e0f;fill-opacity:1;fill-rule:nonzero;stroke:none;stroke-width:0.1"
         id="path76" /><path
         d="m -1742.0955,1051.4405 c -6.294,-0.17 -12.874,-0.08 -19.76,0.3 -110.153,6.03 -129.602,63.96 -130.376,66.42 l 10.456,3.03 c 0.044,-0.13 4.527,-13.45 21.387,-27.28 15.707,-12.87 45.667,-28.84 99.186,-31.78 102.813,-5.64 134.973,55.63 135.283,56.25 l 9.84,-4.5 c -0.36,-0.71 -9.07,-17.61 -31.56,-33.72 -18.04,-12.93 -48.438,-27.53 -94.456,-28.72"
         style="fill:#5e2222;fill-opacity:1;fill-rule:nonzero;stroke:none;stroke-width:0.1"
         id="path78" /><path
         d="m -1641.2895,1126.0205 c 5.63,1.23 11.41,0.54 16.81,-1.03 5.41,-1.6 10.52,-4.26 14.9,-7.78 4.39,-3.49 8.17,-7.75 10.71,-12.62 1.39,-2.36 2.28,-4.97 3.06,-7.54 0.42,-1.27 0.58,-2.64 0.75,-3.98 0.15,-1.35 0.28,-2.68 0.26,-4.04 -2.24,1.84 -3.86,3.81 -5.74,5.58 -1.87,1.76 -3.47,3.6 -5.32,5.21 -3.43,3.41 -7.04,6.43 -10.7,9.38 -3.67,2.95 -7.53,5.72 -11.63,8.42 -4.1,2.75 -8.36,5.39 -13.1,8.4"
         style="fill:#5e2222;fill-opacity:1;fill-rule:nonzero;stroke:none;stroke-width:0.1"
         id="path80" /><path
         d="m -1904.7955,1103.5805 c -0.383,4.53 1.316,8.81 3.711,12.5 2.455,3.68 5.788,6.86 9.636,9.23 1.973,1.09 3.942,2.24 6.102,2.94 1.076,0.35 2.124,0.76 3.221,1.04 1.1,0.25 2.212,0.46 3.321,0.65 1.1,0.21 2.221,0.32 3.356,0.33 1.126,0.03 2.253,0.03 3.369,-0.01 1.119,-0.05 2.254,-0.26 3.373,-0.48 1.118,-0.23 2.223,-0.48 3.324,-0.88 -1.853,-1.5 -3.687,-2.53 -5.447,-3.61 -0.873,-0.57 -1.734,-1.1 -2.596,-1.59 -0.426,-0.25 -0.861,-0.47 -1.29,-0.7 -0.414,-0.27 -0.82,-0.54 -1.238,-0.78 -0.826,-0.5 -1.648,-0.98 -2.482,-1.41 -0.797,-0.5 -1.596,-0.97 -2.393,-1.44 -0.393,-0.25 -0.807,-0.45 -1.211,-0.67 l -1.153,-0.74 c -0.777,-0.47 -1.589,-0.9 -2.346,-1.39 -3.09,-1.9 -6.098,-3.86 -9.219,-5.98 -3.148,-2.12 -6.317,-4.33 -10.038,-7.01"
         style="fill:#5e2222;fill-opacity:1;fill-rule:nonzero;stroke:none;stroke-width:0.1"
         id="path82" /><g
         id="g84"
         transform="matrix(0.1,0,0,0.1,-2684.2395,-416.42954)"><g
           id="g86"
           clip-path="url(#clipPath90)"><path
             d="m 10357.5,14445 c -125.7,19.2 -431.21,55.4 -777.4,20 -393.47,-40.3 -726.02,-313.4 -807.88,-385.7 174.03,-138.1 401.27,-210.1 749.89,-188.7 403.82,24.7 666.29,271.9 835.39,554.4"
             style="fill:url(#linearGradient2935);fill-opacity:1;fill-rule:nonzero;stroke:none"
             id="path102" /></g></g><path
         d="m -1948.4385,1258.8805 c 0,58.72 45.604,106.32 101.86,106.32 56.256,0 101.86,-47.6 101.86,-106.32 0,-58.72 -45.604,-106.32 -101.86,-106.32 -56.256,0 -101.86,47.6 -101.86,106.32"
         style="fill:#878787;fill-opacity:1;fill-rule:nonzero;stroke:none;stroke-width:0.1"
         id="path104" /><path
         d="m -1949.8225,1274.1905 c 1.838,55.34 47.765,98.73 102.581,96.91 54.816,-1.82 97.764,-48.16 95.927,-103.5 -1.838,-55.35 -47.764,-98.73 -102.581,-96.91 -54.817,1.82 -97.764,48.16 -95.927,103.5"
         style="fill:#dddddd;fill-opacity:1;fill-rule:nonzero;stroke:none;stroke-width:0.1"
         id="path106" /><path
         d="m -1847.2415,1371.1005 c -54.816,1.82 -100.743,-41.57 -102.581,-96.91 -0.268,-8.07 0.422,-15.94 1.956,-23.52 15.895,-24.31 42.837,-40.74 73.882,-41.77 50.865,-1.69 93.481,38.58 95.186,89.93 0.67,20.16 -5.072,39.04 -15.369,54.63 -15.127,10.55 -33.33,16.98 -53.074,17.64"
         style="fill:#ebebeb;fill-opacity:1;fill-rule:nonzero;stroke:none;stroke-width:0.1"
         id="path108" /><path
         d="m -1932.3795,1285.7905 c 2.395,30.44 26.193,53.39 53.156,51.27 26.962,-2.12 46.878,-28.52 44.483,-58.95 -2.394,-30.44 -26.193,-53.39 -53.155,-51.27 -26.962,2.12 -46.879,28.51 -44.484,58.95"
         style="fill:#2e7bab;fill-opacity:1;fill-rule:nonzero;stroke:none;stroke-width:0.1"
         id="path110" /><path
         d="m -1911.1085,1283.2405 c 1.521,19.33 16.637,33.91 33.763,32.56 17.126,-1.35 29.776,-18.11 28.256,-37.44 -1.522,-19.34 -16.638,-33.92 -33.764,-32.57 -17.126,1.35 -29.776,18.11 -28.255,37.45"
         style="fill:#310003;fill-opacity:1;fill-rule:nonzero;stroke:none;stroke-width:0.1"
         id="path112" /><path
         d="m -1913.4415,1325.0905 c -0.141,2.36 0.017,4.79 0.506,7.22 2.614,13.03 13.817,22.08 26.252,22.08 1.679,0 3.38,-0.17 5.086,-0.51 11.234,-2.25 19.324,-11.53 20.876,-22.55 -5.581,3.19 -11.826,5.2 -18.502,5.73 -1.159,0.09 -2.31,0.14 -3.456,0.14 -11.468,0 -22.207,-4.51 -30.762,-12.11"
         style="fill:#f4f4f4;fill-opacity:1;fill-rule:nonzero;stroke:none;stroke-width:0.1"
         id="path114" /><path
         d="m -1902.4425,1304.7505 c -6.399,4.66 -10.509,12.12 -10.999,20.34 8.555,7.6 19.294,12.11 30.762,12.11 1.146,0 2.297,-0.05 3.456,-0.14 6.676,-0.53 12.921,-2.54 18.502,-5.73 0.429,-3.05 0.358,-6.23 -0.285,-9.44 -0.741,-3.69 -2.172,-7.06 -4.125,-10 -3.66,2.18 -7.788,3.56 -12.214,3.91 -0.735,0.06 -1.467,0.09 -2.194,0.09 -8.882,0 -17.073,-4.25 -22.903,-11.14"
         style="fill:#8ab5d0;fill-opacity:1;fill-rule:nonzero;stroke:none;stroke-width:0.1"
         id="path116" /><path
         d="m -1887.2585,1299.8105 c -1.679,0 -3.38,0.17 -5.086,0.51 -3.76,0.76 -7.169,2.3 -10.098,4.43 5.83,6.89 14.021,11.14 22.903,11.14 0.727,0 1.459,-0.03 2.194,-0.09 4.426,-0.35 8.554,-1.73 12.214,-3.91 -4.938,-7.43 -13.216,-12.08 -22.127,-12.08"
         style="fill:#8b7072;fill-opacity:1;fill-rule:nonzero;stroke:none;stroke-width:0.1"
         id="path118" /><path
         d="m -1781.5785,1335.2405 c 16.923,-18.26 25.786,-42.09 24.955,-67.1 -0.812,-24.47 -10.864,-47.3 -28.305,-64.29 -17.379,-16.94 -40.216,-26.27 -64.302,-26.27 -1.043,0 -2.058,0.02 -3.104,0.05 -24.719,0.83 -47.641,11.32 -64.542,29.56 0,0 65.324,-44.45 119.632,2.62 53.051,45.98 15.666,125.43 15.666,125.43"
         style="fill:#c6c6c6;fill-opacity:1;fill-rule:nonzero;stroke:none;stroke-width:0.1"
         id="path120" /><path
         d="m -1860.7055,1222.4505 c -4.84,0 -9.141,2.31 -11.856,5.89 9.544,2.68 18.112,8.51 24.684,16.51 1.298,-2.21 2.043,-4.78 2.043,-7.53 0,-8.21 -6.658,-14.87 -14.871,-14.87"
         style="fill:#f6f6f6;fill-opacity:1;fill-rule:nonzero;stroke:none;stroke-width:0.1"
         id="path122" /><path
         d="m -1872.5615,1228.3405 c -1.892,2.5 -3.014,5.61 -3.014,8.98 0,3.75 1.391,7.18 3.686,9.8 3.293,1.09 6.382,2.76 9.163,4.93 0.661,0.09 1.336,0.14 2.021,0.14 5.467,0 10.245,-2.95 12.828,-7.34 -6.572,-8 -15.14,-13.83 -24.684,-16.51"
         style="fill:#9dc1d7;fill-opacity:1;fill-rule:nonzero;stroke:none;stroke-width:0.1"
         id="path124" /><path
         d="m -1871.8895,1247.1205 c 2.306,2.63 5.526,4.44 9.163,4.93 -2.781,-2.17 -5.87,-3.84 -9.163,-4.93"
         style="fill:#9e8788;fill-opacity:1;fill-rule:nonzero;stroke:none;stroke-width:0.1"
         id="path126" /><path
         d="m -1752.1545,1258.8805 c 0,58.72 45.605,106.32 101.865,106.32 56.25,0 101.85,-47.6 101.85,-106.32 0,-58.72 -45.6,-106.32 -101.85,-106.32 -56.26,0 -101.865,47.6 -101.865,106.32"
         style="fill:#878787;fill-opacity:1;fill-rule:nonzero;stroke:none;stroke-width:0.1"
         id="path128" /><path
         d="m -1753.5385,1274.1905 c 1.838,55.34 47.765,98.73 102.579,96.91 54.82,-1.82 97.77,-48.16 95.93,-103.5 -1.84,-55.35 -47.77,-98.73 -102.58,-96.91 -54.818,1.82 -97.766,48.16 -95.929,103.5"
         style="fill:#dddddd;fill-opacity:1;fill-rule:nonzero;stroke:none;stroke-width:0.1"
         id="path130" /><path
         d="m -1650.9595,1371.1005 c -54.814,1.82 -100.741,-41.57 -102.579,-96.91 -0.267,-8.07 0.423,-15.94 1.956,-23.52 15.895,-24.31 42.837,-40.74 73.883,-41.77 50.86,-1.69 93.48,38.58 95.19,89.93 0.66,20.16 -5.08,39.04 -15.37,54.63 -15.13,10.55 -33.33,16.98 -53.08,17.64"
         style="fill:#ebebeb;fill-opacity:1;fill-rule:nonzero;stroke:none;stroke-width:0.1"
         id="path132" /><path
         d="m -1736.0945,1285.7905 c 2.394,30.44 26.193,53.39 53.155,51.27 26.96,-2.12 46.88,-28.52 44.48,-58.95 -2.39,-30.44 -26.19,-53.39 -53.152,-51.27 -26.962,2.12 -46.878,28.51 -44.483,58.95"
         style="fill:#2e7bab;fill-opacity:1;fill-rule:nonzero;stroke:none;stroke-width:0.1"
         id="path134" /><path
         d="m -1714.8245,1283.2405 c 1.521,19.33 16.637,33.91 33.765,32.56 17.12,-1.35 29.77,-18.11 28.25,-37.44 -1.52,-19.34 -16.63,-33.92 -33.759,-32.57 -17.127,1.35 -29.777,18.11 -28.256,37.45"
         style="fill:#310003;fill-opacity:1;fill-rule:nonzero;stroke:none;stroke-width:0.1"
         id="path136" /><path
         d="m -1717.1565,1325.0905 c -0.141,2.36 0.017,4.79 0.506,7.22 2.614,13.03 13.816,22.08 26.251,22.08 1.679,0 3.38,-0.17 5.086,-0.51 11.234,-2.25 19.324,-11.53 20.874,-22.55 -5.58,3.19 -11.82,5.2 -18.5,5.73 -1.16,0.09 -2.31,0.14 -3.455,0.14 -11.469,0 -22.208,-4.51 -30.762,-12.11"
         style="fill:#f4f4f4;fill-opacity:1;fill-rule:nonzero;stroke:none;stroke-width:0.1"
         id="path138" /><path
         d="m -1706.1575,1304.7505 c -6.399,4.66 -10.509,12.12 -10.999,20.34 8.554,7.6 19.293,12.11 30.762,12.11 1.145,0 2.295,-0.05 3.455,-0.14 6.68,-0.53 12.92,-2.54 18.5,-5.73 0.43,-3.05 0.36,-6.23 -0.28,-9.44 -0.74,-3.69 -2.17,-7.06 -4.13,-10 -3.66,2.18 -7.79,3.56 -12.21,3.91 -0.74,0.06 -1.47,0.09 -2.2,0.09 -8.877,0 -17.069,-4.25 -22.898,-11.14"
         style="fill:#8ab5d0;fill-opacity:1;fill-rule:nonzero;stroke:none;stroke-width:0.1"
         id="path140" /><path
         d="m -1690.9745,1299.8105 c -1.679,0 -3.38,0.17 -5.085,0.51 -3.761,0.76 -7.169,2.3 -10.098,4.43 5.829,6.89 14.021,11.14 22.898,11.14 0.73,0 1.46,-0.03 2.2,-0.09 4.42,-0.35 8.55,-1.73 12.21,-3.91 -4.94,-7.43 -13.21,-12.08 -22.125,-12.08"
         style="fill:#8b7072;fill-opacity:1;fill-rule:nonzero;stroke:none;stroke-width:0.1"
         id="path142" /><path
         d="m -1585.2895,1335.2405 c 16.92,-18.26 25.78,-42.09 24.95,-67.1 -0.81,-24.47 -10.86,-47.3 -28.3,-64.29 -17.38,-16.94 -40.22,-26.27 -64.31,-26.27 -1.04,0 -2.06,0.02 -3.1,0.05 -24.72,0.83 -47.641,11.32 -64.543,29.56 0,0 65.323,-44.45 119.633,2.62 53.05,45.98 15.67,125.43 15.67,125.43"
         style="fill:#c6c6c6;fill-opacity:1;fill-rule:nonzero;stroke:none;stroke-width:0.1"
         id="path144" /><path
         d="m -1664.4195,1222.4505 c -4.84,0 -9.14,2.31 -11.86,5.89 9.55,2.68 18.11,8.51 24.69,16.51 1.29,-2.21 2.04,-4.78 2.04,-7.53 0,-8.21 -6.66,-14.87 -14.87,-14.87"
         style="fill:#f6f6f6;fill-opacity:1;fill-rule:nonzero;stroke:none;stroke-width:0.1"
         id="path146" /><path
         d="m -1676.2795,1228.3405 c -1.89,2.5 -3.01,5.61 -3.01,8.98 0,3.75 1.39,7.18 3.68,9.8 3.3,1.09 6.39,2.76 9.17,4.93 0.66,0.09 1.33,0.14 2.02,0.14 5.47,0 10.24,-2.95 12.83,-7.34 -6.58,-8 -15.14,-13.83 -24.69,-16.51"
         style="fill:#9dc1d7;fill-opacity:1;fill-rule:nonzero;stroke:none;stroke-width:0.1"
         id="path148" /><path
         d="m -1675.6095,1247.1205 c 2.31,2.63 5.53,4.44 9.17,4.93 -2.78,-2.17 -5.87,-3.84 -9.17,-4.93"
         style="fill:#9e8788;fill-opacity:1;fill-rule:nonzero;stroke:none;stroke-width:0.1"
         id="path150" /><path
         d="m -1593.0195,1385.3005 c -6.12,30.81 -61.49,73.18 -98.855,78.57 -37.36,5.4 -39.868,-24.99 -15.645,-28.72 24.22,-3.73 55.42,-10.34 77.17,-23.1 21.74,-12.76 37.33,-26.75 37.33,-26.75"
         style="fill:#5e2222;fill-opacity:1;fill-rule:nonzero;stroke:none;stroke-width:0.1"
         id="path152" /><path
         d="m -1776.0435,1389.8505 c -6.116,30.81 -61.491,73.18 -98.851,78.57 -37.36,5.4 -39.868,-24.99 -15.646,-28.72 24.223,-3.73 55.422,-10.34 77.167,-23.1 21.746,-12.76 37.33,-26.75 37.33,-26.75"
         style="fill:#5e2222;fill-opacity:1;fill-rule:nonzero;stroke:none;stroke-width:0.1"
         id="path154" /></g></g></svg>
