<?xml version="1.0" encoding="UTF-8" standalone="no"?>
<svg
   xmlns:dc="http://purl.org/dc/elements/1.1/"
   xmlns:cc="http://creativecommons.org/ns#"
   xmlns:rdf="http://www.w3.org/1999/02/22-rdf-syntax-ns#"
   xmlns:svg="http://www.w3.org/2000/svg"
   xmlns="http://www.w3.org/2000/svg"
   xmlns:sodipodi="http://sodipodi.sourceforge.net/DTD/sodipodi-0.dtd"
   xmlns:inkscape="http://www.inkscape.org/namespaces/inkscape"
   version="1.1"
   id="svg2"
   xml:space="preserve"
   width="610"
   height="680"
   viewBox="0 0 610.00001 679.99999"
   sodipodi:docname="triste.svg"
   inkscape:version="1.0.2 (e86c870879, 2021-01-15)"><metadata
     id="metadata8"><rdf:RDF><cc:Work
         rdf:about=""><dc:format>image/svg+xml</dc:format><dc:type
           rdf:resource="http://purl.org/dc/dcmitype/StillImage" /><dc:title></dc:title></cc:Work></rdf:RDF></metadata><defs
     id="defs6"><clipPath
       clipPathUnits="userSpaceOnUse"
       id="clipPath90"><path
         d="m 10357.5,14445 c -125.7,19.2 -431.21,55.4 -777.4,20 -393.47,-40.3 -726.02,-313.4 -807.88,-385.7 174.03,-138.1 401.27,-210.1 749.89,-188.7 403.82,24.7 666.29,271.9 835.39,554.4 z"
         id="path88" /></clipPath><linearGradient
       x1="0"
       y1="0"
       x2="1"
       y2="0"
       gradientUnits="userSpaceOnUse"
       gradientTransform="matrix(1585.33,0,0,-1585.33,8772.22,14183.4)"
       spreadMethod="pad"
       id="linearGradient100"><stop
         style="stop-opacity:1;stop-color:#ff4c8b"
         offset="0"
         id="stop92" /><stop
         style="stop-opacity:1;stop-color:#fa9999"
         offset="0.10531767"
         id="stop94" /><stop
         style="stop-opacity:1;stop-color:#fa9999"
         offset="0.302703"
         id="stop96" /><stop
         style="stop-opacity:1;stop-color:#ff3163"
         offset="1"
         id="stop98" /></linearGradient><clipPath
       clipPathUnits="userSpaceOnUse"
       id="clipPath164"><path
         d="m 3006.17,8311.2 c 0,0 187.54,370.1 768.62,369 446.02,-0.8 825.84,-256.1 829.79,-413.2 2.43,-96.3 -15.88,-193.3 -307.33,-152.4 -372.38,52.3 -619.75,310 -940.17,265.7 -320.42,-44.2 -350.91,-69.1 -350.91,-69.1 z"
         id="path162" /></clipPath><linearGradient
       x1="0"
       y1="0"
       x2="1"
       y2="0"
       gradientUnits="userSpaceOnUse"
       gradientTransform="matrix(1596.29,40.2385,40.2385,-1596.29,3004.8,8365.3)"
       spreadMethod="pad"
       id="linearGradient174"><stop
         style="stop-opacity:1;stop-color:#ff4c8b"
         offset="0"
         id="stop166" /><stop
         style="stop-opacity:1;stop-color:#fa9999"
         offset="0.10531767"
         id="stop168" /><stop
         style="stop-opacity:1;stop-color:#fa9999"
         offset="0.302703"
         id="stop170" /><stop
         style="stop-opacity:1;stop-color:#ff3163"
         offset="1"
         id="stop172" /></linearGradient><clipPath
       clipPathUnits="userSpaceOnUse"
       id="clipPath394"><path
         d="m 14894.8,2329.2 c -119.6,47.7 -218.1,95.6 -299.3,141.8 -57.9,-105.8 -118.3,-230.7 -164.8,-361.5 -128.2,-360.8 -150.1,-766.2 281.4,-936.1 419.6,-165.3 663.3,183.2 802.6,582 60.4,173 101.3,355.4 128.4,509.5 -243.6,-31.8 -514,-29.1 -748.3,64.3 z"
         id="path392" /></clipPath><linearGradient
       x1="0"
       y1="0"
       x2="1"
       y2="0"
       gradientUnits="userSpaceOnUse"
       gradientTransform="matrix(857.288,-2051.04,-2051.04,-857.288,14396.8,3351)"
       spreadMethod="pad"
       id="linearGradient404"><stop
         style="stop-opacity:1;stop-color:#ff4c8b"
         offset="0"
         id="stop396" /><stop
         style="stop-opacity:1;stop-color:#fa9999"
         offset="0.10531767"
         id="stop398" /><stop
         style="stop-opacity:1;stop-color:#fa9999"
         offset="0.302703"
         id="stop400" /><stop
         style="stop-opacity:1;stop-color:#ff3163"
         offset="1"
         id="stop402" /></linearGradient><clipPath
       clipPathUnits="userSpaceOnUse"
       id="clipPath506"><path
         d="m 9581.67,8331.8 c 194.84,-0.3 346.38,56.8 451.83,132.5 -104.31,84.9 -231.69,141.8 -365.41,157.8 -195.11,23.4 -397.67,-40.8 -547.87,-166.8 104.34,-70.8 255.04,-123.2 461.45,-123.5 z"
         id="path504" /></clipPath><linearGradient
       x1="0"
       y1="0"
       x2="1"
       y2="0"
       gradientUnits="userSpaceOnUse"
       gradientTransform="matrix(913.325,0,0,-913.325,9120.22,8479.3)"
       spreadMethod="pad"
       id="linearGradient516"><stop
         style="stop-opacity:1;stop-color:#ff4c8b"
         offset="0"
         id="stop508" /><stop
         style="stop-opacity:1;stop-color:#fa9999"
         offset="0.10531767"
         id="stop510" /><stop
         style="stop-opacity:1;stop-color:#fa9999"
         offset="0.302703"
         id="stop512" /><stop
         style="stop-opacity:1;stop-color:#ff3163"
         offset="1"
         id="stop514" /></linearGradient><clipPath
       clipPathUnits="userSpaceOnUse"
       id="clipPath90-3"><path
         d="m 10357.5,14445 c -125.7,19.2 -431.21,55.4 -777.4,20 -393.47,-40.3 -726.02,-313.4 -807.88,-385.7 174.03,-138.1 401.27,-210.1 749.89,-188.7 403.82,24.7 666.29,271.9 835.39,554.4 z"
         id="path88-6" /></clipPath><clipPath
       clipPathUnits="userSpaceOnUse"
       id="clipPath164-6"><path
         d="m 3006.17,8311.2 c 0,0 187.54,370.1 768.62,369 446.02,-0.8 825.84,-256.1 829.79,-413.2 2.43,-96.3 -15.88,-193.3 -307.33,-152.4 -372.38,52.3 -619.75,310 -940.17,265.7 -320.42,-44.2 -350.91,-69.1 -350.91,-69.1 z"
         id="path162-2" /></clipPath><clipPath
       clipPathUnits="userSpaceOnUse"
       id="clipPath394-0"><path
         d="m 14894.8,2329.2 c -119.6,47.7 -218.1,95.6 -299.3,141.8 -57.9,-105.8 -118.3,-230.7 -164.8,-361.5 -128.2,-360.8 -150.1,-766.2 281.4,-936.1 419.6,-165.3 663.3,183.2 802.6,582 60.4,173 101.3,355.4 128.4,509.5 -243.6,-31.8 -514,-29.1 -748.3,64.3 z"
         id="path392-9" /></clipPath><clipPath
       clipPathUnits="userSpaceOnUse"
       id="clipPath506-2"><path
         d="m 9581.67,8331.8 c 194.84,-0.3 346.38,56.8 451.83,132.5 -104.31,84.9 -231.69,141.8 -365.41,157.8 -195.11,23.4 -397.67,-40.8 -547.87,-166.8 104.34,-70.8 255.04,-123.2 461.45,-123.5 z"
         id="path504-6" /></clipPath></defs><sodipodi:namedview
     pagecolor="#ffffff"
     bordercolor="#666666"
     borderopacity="1"
     objecttolerance="10"
     gridtolerance="10"
     guidetolerance="10"
     inkscape:pageopacity="0"
     inkscape:pageshadow="2"
     inkscape:window-width="918"
     inkscape:window-height="480"
     id="namedview4"
     showgrid="false"
     inkscape:zoom="0.11097157"
     inkscape:cx="188.74192"
     inkscape:cy="-545.20717"
     inkscape:window-x="2234"
     inkscape:window-y="290"
     inkscape:window-maximized="0"
     inkscape:current-layer="g10" /><g
     id="g10"
     inkscape:groupmode="layer"
     inkscape:label="ink_ext_XXXXXX"
     transform="matrix(1.3333333,0,0,-1.3333333,0,2666.6667)"><g
       id="g3614"
       transform="translate(794.27451,1743.5302)"><path
         d="m -772.2195,1.71046 c 0,55.02 46.6,99.63 104.09,99.63 57.49,0 104.09,-44.61 104.09,-99.63 0,-55.02 -46.6,-99.63 -104.09,-99.63 -57.49,0 -104.09,44.61 -104.09,99.63"
         style="fill:#9b9a9a;fill-opacity:1;fill-rule:nonzero;stroke:none;stroke-width:0.1"
         id="path602" /><path
         d="m -766.5195,23.71046 c 1.84,55.34 47.77,98.72 102.58,96.9 54.82,-1.82 97.77,-48.15 95.93,-103.5 -1.84,-55.34 -47.76,-98.72 -102.58,-96.9 -54.82,1.82 -97.76,48.15 -95.93,103.5"
         style="fill:#dddddd;fill-opacity:1;fill-rule:nonzero;stroke:none;stroke-width:0.1"
         id="path604" /><path
         d="m -599.8795,84.75046 c 16.92,-18.25 25.78,-42.08 24.95,-67.1 -0.81,-24.46 -10.86,-47.29 -28.3,-64.29 -17.38,-16.93 -40.22,-26.26 -64.31,-26.26 -1.04,0 -2.05,0.02 -3.1,0.05 -24.72,0.82 -47.64,11.32 -64.54,29.55 0,0 65.32,-44.44 119.63,2.63 53.05,45.98 15.67,125.42 15.67,125.42"
         style="fill:#c6c6c6;fill-opacity:1;fill-rule:nonzero;stroke:none;stroke-width:0.1"
         id="path606" /><path
         d="m -663.9395,120.61046 c -54.81,1.82 -100.74,-41.56 -102.58,-96.9 -0.26,-8.07 0.43,-15.94 1.96,-23.52 15.89,-24.31 42.84,-40.74 73.88,-41.77 50.87,-1.69 93.48,38.57 95.19,89.93 0.67,20.16 -5.07,39.04 -15.37,54.63 -15.13,10.55 -33.33,16.98 -53.08,17.63"
         style="fill:#ebebeb;fill-opacity:1;fill-rule:nonzero;stroke:none;stroke-width:0.1"
         id="path608" /><path
         d="m -720.3195,-7.59954 c 1.02,30.74 26.53,54.84 56.98,53.83 30.45,-1.01 54.31,-26.75 53.29,-57.49 -1.02,-30.75 -26.53,-54.85 -56.98,-53.84 -30.45,1.01 -54.31,26.76 -53.29,57.5"
         style="fill:#2e7bab;fill-opacity:1;fill-rule:nonzero;stroke:none;stroke-width:0.1"
         id="path610" /><path
         d="m -700.2095,-8.26954 c 0.65,19.53 16.86,34.84 36.2,34.19 19.34,-0.64 34.49,-16.99 33.85,-36.52 -0.65,-19.52 -16.86,-34.83 -36.2,-34.19 -19.34,0.64 -34.49,16.99 -33.85,36.52"
         style="fill:#310003;fill-opacity:1;fill-rule:nonzero;stroke:none;stroke-width:0.1"
         id="path612" /><path
         d="m -627.9795,-28.02954 c -2.34,0 -4.56,0.54 -6.53,1.51 2.6,4.73 4.15,10.14 4.35,15.92 0.13,4.13 -0.43,8.11 -1.6,11.83 1.21,0.31 2.47,0.48 3.78,0.48 8.21,0 14.87,-6.66 14.87,-14.87 0,-8.21 -6.66,-14.87 -14.87,-14.87"
         style="fill:#9dc1d7;fill-opacity:1;fill-rule:nonzero;stroke:none;stroke-width:0.1"
         id="path614" /><path
         d="m -634.5095,-26.51954 c -4.94,2.41 -8.34,7.49 -8.34,13.36 0,6.91 4.71,12.72 11.09,14.39 1.17,-3.72 1.73,-7.7 1.6,-11.83 -0.2,-5.78 -1.75,-11.19 -4.35,-15.92"
         style="fill:#9e8788;fill-opacity:1;fill-rule:nonzero;stroke:none;stroke-width:0.1"
         id="path616" /><path
         d="m -781.1395,16.58046 c 0,0 142.75,-13.38 200.74,62.45 0,0 -35.77,76.07 -124.9,44.61 -75.84,-26.76 -75.84,-107.06 -75.84,-107.06"
         style="fill:#b48ebc;fill-opacity:1;fill-rule:nonzero;stroke:none;stroke-width:0.1"
         id="path618" /><path
         d="m -358.8295,1.71046 c 0,55.02 -46.61,99.63 -104.09,99.63 -57.49,0 -104.09,-44.61 -104.09,-99.63 0,-55.02 46.6,-99.63 104.09,-99.63 57.48,0 104.09,44.61 104.09,99.63"
         style="fill:#9b9a9a;fill-opacity:1;fill-rule:nonzero;stroke:none;stroke-width:0.1"
         id="path620" /><path
         d="m -364.5395,23.71046 c -1.83,55.34 -47.76,98.72 -102.58,96.9 -54.81,-1.82 -97.76,-48.15 -95.92,-103.5 1.83,-55.34 47.76,-98.72 102.58,-96.9 54.81,1.82 97.76,48.15 95.92,103.5"
         style="fill:#dddddd;fill-opacity:1;fill-rule:nonzero;stroke:none;stroke-width:0.1"
         id="path622" /><path
         d="m -398.5795,84.75046 c 16.93,-18.25 25.79,-42.08 24.96,-67.1 -0.81,-24.46 -10.86,-47.29 -28.31,-64.29 -17.37,-16.93 -40.21,-26.26 -64.3,-26.26 -1.04,0 -2.06,0.02 -3.1,0.05 -24.72,0.82 -47.64,11.32 -64.54,29.55 0,0 65.32,-44.44 119.63,2.63 53.05,45.98 15.66,125.42 15.66,125.42"
         style="fill:#c6c6c6;fill-opacity:1;fill-rule:nonzero;stroke:none;stroke-width:0.1"
         id="path624" /><path
         d="m -467.1195,120.61046 c 54.82,1.82 100.75,-41.56 102.58,-96.9 0.27,-8.07 -0.42,-15.94 -1.95,-23.52 -15.9,-24.31 -42.84,-40.74 -73.89,-41.77 -50.86,-1.69 -93.48,38.57 -95.18,89.93 -0.67,20.16 5.07,39.04 15.37,54.63 15.13,10.55 33.33,16.98 53.07,17.63"
         style="fill:#ebebeb;fill-opacity:1;fill-rule:nonzero;stroke:none;stroke-width:0.1"
         id="path626" /><path
         d="m -410.7295,-7.59954 c -1.02,30.74 -26.54,54.84 -56.99,53.83 -30.45,-1.01 -54.31,-26.75 -53.28,-57.49 1.02,-30.75 26.53,-54.85 56.98,-53.84 30.45,1.01 54.31,26.76 53.29,57.5"
         style="fill:#2e7bab;fill-opacity:1;fill-rule:nonzero;stroke:none;stroke-width:0.1"
         id="path628" /><path
         d="m -430.8495,-8.26954 c -0.65,19.53 -16.85,34.84 -36.19,34.19 -19.34,-0.64 -34.5,-16.99 -33.85,-36.52 0.65,-19.52 16.85,-34.83 36.2,-34.19 19.34,0.64 34.49,16.99 33.84,36.52"
         style="fill:#310003;fill-opacity:1;fill-rule:nonzero;stroke:none;stroke-width:0.1"
         id="path630" /><path
         d="m -413.3495,-26.55954 c 1.9,5.96 2.84,12.34 2.62,18.96 -0.08,2.26 -0.29,4.49 -0.62,6.68 3.88,-2.69 6.42,-7.17 6.42,-12.24 0,-5.9 -3.44,-11 -8.42,-13.4"
         style="fill:#f6f6f6;fill-opacity:1;fill-rule:nonzero;stroke:none;stroke-width:0.1"
         id="path632" /><path
         d="m -419.7995,-28.02954 c -5.47,0 -10.25,2.95 -12.83,7.35 1.29,3.89 1.93,8.07 1.78,12.41 -0.05,1.55 -0.2,3.07 -0.44,4.55 2.73,3.32 6.86,5.43 11.49,5.43 3.14,0 6.05,-0.97 8.45,-2.63 0.33,-2.19 0.54,-4.42 0.62,-6.68 0.22,-6.62 -0.72,-13 -2.62,-18.96 -1.95,-0.94 -4.14,-1.47 -6.45,-1.47"
         style="fill:#9dc1d7;fill-opacity:1;fill-rule:nonzero;stroke:none;stroke-width:0.1"
         id="path634" /><path
         d="m -432.6295,-20.67954 c -1.3,2.2 -2.04,4.77 -2.04,7.52 0,3.59 1.27,6.88 3.38,9.44 0.24,-1.48 0.39,-3 0.44,-4.55 0.15,-4.34 -0.49,-8.52 -1.78,-12.41"
         style="fill:#9e8788;fill-opacity:1;fill-rule:nonzero;stroke:none;stroke-width:0.1"
         id="path636" /><path
         d="m -349.9095,16.58046 c 0,0 -142.75,-13.38 -200.75,62.45 0,0 35.77,76.07 124.91,44.61 75.84,-26.76 75.84,-107.06 75.84,-107.06"
         style="fill:#b48ebc;fill-opacity:1;fill-rule:nonzero;stroke:none;stroke-width:0.1"
         id="path638" /><path
         d="m -384.2095,145.32046 c -6.12,30.8 -61.49,73.18 -98.85,78.57 -37.36,5.39 -39.87,-24.99 -15.65,-28.72 24.23,-3.73 55.42,-10.35 77.17,-23.11 21.75,-12.76 37.33,-26.74 37.33,-26.74"
         style="fill:#5e2222;fill-opacity:1;fill-rule:nonzero;stroke:none;stroke-width:0.1"
         id="path640" /><path
         d="m -741.9895,145.32046 c 6.11,30.8 61.49,73.18 98.85,78.57 37.36,5.39 39.87,-24.99 15.64,-28.72 -24.22,-3.73 -55.42,-10.35 -77.16,-23.11 -21.75,-12.76 -37.33,-26.74 -37.33,-26.74"
         style="fill:#5e2222;fill-opacity:1;fill-rule:nonzero;stroke:none;stroke-width:0.1"
         id="path642" /><path
         d="m -663.6695,-188.70954 c 0,0 23.79,75.83 95.17,75.83 71.38,0 95.17,-75.83 95.17,-75.83 0,0 -89.22,22.3 -190.34,0"
         style="fill:#e0313a;fill-opacity:1;fill-rule:nonzero;stroke:none;stroke-width:0.1"
         id="path644" /><path
         d="m -568.4995,-117.33954 c -28.07,0 -51.85,-12.11 -70.67,-35.99 -8.72,-11.07 -14.33,-22.27 -17.38,-29.33 80.18,15.93 152.32,4.69 176.08,0.03 -3.05,7.07 -8.65,18.25 -17.37,29.3 -18.82,23.88 -42.59,35.99 -70.66,35.99 z m 101.8,-77.63 -7.71,1.93 c -0.89,0.22 -89.45,21.77 -188.3,-0.03 l -7.52,-1.66 2.3,7.35 c 0.26,0.81 6.37,19.96 21.57,39.34 20.33,25.92 47.25,39.62 77.86,39.62 30.6,0 57.53,-13.7 77.86,-39.62 15.2,-19.38 21.31,-38.53 21.56,-39.34 l 2.38,-7.59"
         style="fill:#890e0f;fill-opacity:1;fill-rule:nonzero;stroke:none;stroke-width:0.1"
         id="path646" /><path
         d="m -568.2195,-118.68954 c -21.88,0 -38.42,-8.51 -50.61,-19.29 10.16,-6.14 39.97,-18.05 104.12,-2.68 -12.42,12.02 -29.84,21.97 -53.51,21.97"
         style="fill:#ffffff;fill-opacity:1;fill-rule:nonzero;stroke:none;stroke-width:0.1"
         id="path648" /><path
         d="m -616.1595,-221.36954 c 1.35,4.29 3.81,8.23 6.84,11.7 3.06,3.46 6.76,6.4 10.8,8.76 8.12,4.71 17.57,7.06 26.96,7.04 9.4,-0.01 18.85,-2.41 26.94,-7.15 4.04,-2.38 7.72,-5.34 10.76,-8.82 3.02,-3.49 5.46,-7.44 6.78,-11.75 -7.28,5.2 -14.42,8.73 -21.88,10.98 -7.42,2.27 -15.02,3.31 -22.63,3.36 -7.61,0 -15.22,-1 -22.65,-3.23 -7.48,-2.22 -14.63,-5.72 -21.92,-10.89"
         style="fill:#5e2222;fill-opacity:1;fill-rule:nonzero;stroke:none;stroke-width:0.1"
         id="path650" /><path
         d="m -781.1395,16.58046 c 9.28,-0.45 18.4,-0.51 27.48,-0.25 9.07,0.25 18.06,0.79 26.98,1.72 17.83,1.82 35.32,5.19 52.3,10.13 4.21,1.33 8.46,2.57 12.59,4.14 l 3.14,1.08 c 1.05,0.35 2.06,0.8 3.09,1.2 l 6.17,2.44 c 8.15,3.44 16.13,7.29 23.97,11.53 15.66,8.57 30.35,19.03 45.02,30.46 -5.07,-7.77 -10.83,-15.19 -17.41,-21.87 -6.44,-6.85 -13.75,-12.85 -21.36,-18.47 l -5.86,-4.01 c -1.94,-1.37 -4.03,-2.48 -6.05,-3.72 -4.02,-2.54 -8.31,-4.58 -12.52,-6.78 -2.14,-1.04 -4.33,-1.95 -6.5,-2.93 -1.09,-0.47 -2.16,-0.99 -3.27,-1.41 l -3.32,-1.29 c -4.42,-1.76 -8.96,-3.16 -13.48,-4.63 -18.24,-5.29 -37.22,-7.84 -56.03,-7.51 -9.41,0.18 -18.79,1.05 -28.01,2.67 -4.6,0.8 -9.17,1.81 -13.68,3.03 -4.51,1.21 -8.96,2.64 -13.25,4.47"
         style="fill:#3d1c39;fill-opacity:1;fill-rule:nonzero;stroke:none;stroke-width:0.1"
         id="path652" /><path
         d="m -550.6595,79.03046 c 15.37,-10.29 30.81,-19.7 46.65,-28.17 15.82,-8.45 32.02,-15.89 48.71,-21.71 8.32,-2.98 16.79,-5.49 25.37,-7.51 4.27,-1.16 8.62,-1.84 12.93,-2.8 l 6.54,-1.04 c 2.18,-0.43 4.38,-0.62 6.57,-0.89 17.61,-2.35 35.5,-1.95 53.98,-0.33 -2.11,-0.95 -4.26,-1.79 -6.42,-2.7 l -3.25,-1.28 c -1.1,-0.38 -2.22,-0.7 -3.33,-1.06 -2.22,-0.7 -4.46,-1.35 -6.71,-2.02 l -6.86,-1.53 c -1.15,-0.24 -2.3,-0.5 -3.46,-0.7 l -3.48,-0.52 c -2.33,-0.32 -4.67,-0.68 -7.01,-0.9 -4.69,-0.35 -9.42,-0.74 -14.15,-0.64 -4.74,-0.1 -9.45,0.31 -14.18,0.62 -4.7,0.54 -9.42,1.07 -14.07,1.98 -4.68,0.76 -9.25,1.98 -13.86,3.07 -4.54,1.33 -9.09,2.62 -13.53,4.23 -17.84,6.23 -34.6,15.11 -49.91,25.81 -7.64,5.38 -14.93,11.22 -21.77,17.53 -3.39,3.18 -6.72,6.42 -9.86,9.85 -3.15,3.41 -6.18,6.95 -8.9,10.71"
         style="fill:#3d1c39;fill-opacity:1;fill-rule:nonzero;stroke:none;stroke-width:0.1"
         id="path654" /></g></g></svg>
