<?xml version="1.0" encoding="UTF-8" standalone="no"?>
<svg
   xmlns:dc="http://purl.org/dc/elements/1.1/"
   xmlns:cc="http://creativecommons.org/ns#"
   xmlns:rdf="http://www.w3.org/1999/02/22-rdf-syntax-ns#"
   xmlns:svg="http://www.w3.org/2000/svg"
   xmlns="http://www.w3.org/2000/svg"
   xmlns:xlink="http://www.w3.org/1999/xlink"
   xmlns:sodipodi="http://sodipodi.sourceforge.net/DTD/sodipodi-0.dtd"
   xmlns:inkscape="http://www.inkscape.org/namespaces/inkscape"
   height="32"
   width="32"
   version="1.1"
   id="svg33"
   sodipodi:docname="changecasetoupper.svg"
   inkscape:version="1.0.2 (e86c870879, 2021-01-15)">
  <metadata
     id="metadata39">
    <rdf:RDF>
      <cc:Work
         rdf:about="">
        <dc:format>image/svg+xml</dc:format>
        <dc:type
           rdf:resource="http://purl.org/dc/dcmitype/StillImage" />
      </cc:Work>
    </rdf:RDF>
  </metadata>
  <defs
     id="defs37">
    <radialGradient
       id="c-3"
       cx="8.0588007"
       cy="3.1395071"
       fx="8.0588007"
       fy="3.1395071"
       gradientTransform="matrix(-1.2068693,0.08329,-0.08350821,-1.1295836,27.20885,9.406808)"
       gradientUnits="userSpaceOnUse"
       r="9.1369753"
       xlink:href="#e" />
    <radialGradient
       id="e"
       cx="12.203738"
       cy="3.0507691"
       gradientTransform="matrix(-1.2093986,-0.03510001,0.0466282,-1.4997965,26.820669,11.523175)"
       gradientUnits="userSpaceOnUse"
       r="9.1369753">
      <stop
         offset="0"
         stop-color="#737373"
         id="stop18-6" />
      <stop
         offset=".26238"
         stop-color="#636363"
         id="stop20" />
      <stop
         offset=".704952"
         stop-color="#4b4b4b"
         id="stop22" />
      <stop
         offset="1"
         stop-color="#3f3f3f"
         id="stop24" />
    </radialGradient>
    <radialGradient
       inkscape:collect="always"
       xlink:href="#e"
       id="radialGradient887"
       gradientUnits="userSpaceOnUse"
       gradientTransform="matrix(-1.0700311,-0.03214203,0.0412549,-1.3734044,25.737637,12.393431)"
       cx="12.203738"
       cy="3.0507691"
       r="9.1369753" />
  </defs>
  <sodipodi:namedview
     pagecolor="#ffffff"
     bordercolor="#666666"
     borderopacity="1"
     objecttolerance="10"
     gridtolerance="10"
     guidetolerance="10"
     inkscape:pageopacity="0"
     inkscape:pageshadow="2"
     inkscape:window-width="1920"
     inkscape:window-height="1019"
     id="namedview35"
     showgrid="false"
     inkscape:zoom="26.15625"
     inkscape:cx="16"
     inkscape:cy="15.768987"
     inkscape:window-x="0"
     inkscape:window-y="0"
     inkscape:window-maximized="1"
     inkscape:current-layer="svg33" />
  <linearGradient
     id="a"
     gradientTransform="matrix(1 0 0 -1 -8 4.5)"
     gradientUnits="userSpaceOnUse"
     x1="18.123238"
     x2="18.49824"
     y1=".160527"
     y2="5.035539">
    <stop
       offset="0"
       stop-color="#ffa154"
       id="stop2" />
    <stop
       offset="1"
       stop-color="#f37329"
       id="stop4" />
  </linearGradient>
  <linearGradient
     id="b"
     gradientUnits="userSpaceOnUse"
     x1="18.49824"
     x2="18.388361"
     y1="1.66053"
     y2="5.999405">
    <stop
       offset="0"
       stop-color="#fff6ee"
       id="stop7" />
    <stop
       offset="1"
       stop-color="#fff6ee"
       stop-opacity="0"
       id="stop9" />
  </linearGradient>
  <linearGradient
     id="c"
     gradientTransform="matrix(1.0030849,0,0,1.0381896,-0.463607,-0.418095)"
     gradientUnits="userSpaceOnUse"
     x1="9.156"
     x2="9.156"
     y1="3.932"
     y2="19.659">
    <stop
       offset="0"
       stop-color="#737373"
       id="stop12" />
    <stop
       offset=".262"
       stop-color="#636363"
       id="stop14" />
    <stop
       offset=".705"
       stop-color="#4b4b4b"
       id="stop16" />
    <stop
       offset="1"
       stop-color="#3f3f3f"
       id="stop18" />
  </linearGradient>
  <g
     stroke-linejoin="round"
     transform="matrix(1.4853623,0,0,1.4853623,-0.22820733,-5.1439915)"
     id="g31">
    <path
       d="m 18.309602,12.643344 c 0.857011,0 1.527903,0.347185 2.012677,1.041556 0.484773,0.689892 0.727159,1.637372 0.727159,2.842444 0,1.240909 -0.251043,2.201828 -0.753131,2.882759 -0.497757,0.680933 -1.177306,1.021399 -2.038644,1.021399 -0.852683,0 -1.521411,-0.320307 -2.006184,-0.960921 h -0.136343 l -0.331118,0.826526 h -1.572824 l -0.0086,-10.7905707 h 2.040284 l 0.0086,2.7672227 c 9.9e-4,0.309104 -0.02597,0.804125 -0.0779,1.485057 h 0.0779 c 0.463132,-0.743649 1.149173,-1.115472 2.058123,-1.115472 z m -0.636266,1.639611 c -0.489101,0 -0.846187,0.156793 -1.071263,0.470381 -0.225073,0.309106 -0.341938,0.822045 -0.350594,1.538816 v 0.221751 c 0,0.806367 0.114701,1.384263 0.344103,1.733689 0.23373,0.349425 0.601638,0.524138 1.103725,0.524138 0.406864,0 0.729325,-0.192632 0.967384,-0.577897 0.242387,-0.389744 0.36358,-0.9542 0.36358,-1.693369 0,-0.73917 -0.121193,-1.292428 -0.36358,-1.659771 -0.242387,-0.371826 -0.573505,-0.557738 -0.993355,-0.557738 z"
       fill="url(#c)"
       id="path31"
       style="fill:url(#radialGradient887);stroke:#000000;stroke-width:0.675086;stroke-linecap:round;stroke-linejoin:round;stroke-opacity:0.431373" />
    <path
       d="M 9.5752817,20.410576 8.7126285,17.482881 H 4.3813079 L 3.520661,20.410576 H 0.80330397 L 4.9982051,8.0592343 H 8.0796819 L 12.290633,20.410576 Z M 8.1107776,15.295416 C 7.3149969,12.641803 6.8656149,11.141273 6.7626314,10.793826 6.6649982,10.445686 6.5947819,10.170912 6.5519836,9.9695032 6.3727658,10.687238 5.8601894,12.462542 5.0142544,15.295416 Z"
       fill="url(#c)"
       stroke="#000000"
       stroke-opacity="0.49"
       stroke-width="0.765365"
       id="path21"
       sodipodi:nodetypes="cccccccccccccc"
       style="fill:url(#c)" />
    <path
       d="M 6.5,12.53125 0.90625,29 H 1.2460938 L 6.5,13.53125 h 4.109375 L 15.880859,29 h 0.341797 L 10.609375,12.53125 Z m 0.3164062,9.648438 c -0.1119292,0.376675 -0.1725243,0.590114 -0.2949218,1 h 4.1289066 c -0.176756,-0.589409 -0.147708,-0.495924 -0.298829,-1 z"
       fill="#ffffff"
       opacity="0.2"
       transform="matrix(0.75000188,0,0,0.75000188,0.123193,-1.339477)"
       id="path29"
       sodipodi:nodetypes="cccccccccccccc" />
  </g>
</svg>
