<?xml version="1.0" encoding="UTF-8" standalone="no"?>
<svg
   xmlns:dc="http://purl.org/dc/elements/1.1/"
   xmlns:cc="http://creativecommons.org/ns#"
   xmlns:rdf="http://www.w3.org/1999/02/22-rdf-syntax-ns#"
   xmlns:svg="http://www.w3.org/2000/svg"
   xmlns="http://www.w3.org/2000/svg"
   xmlns:xlink="http://www.w3.org/1999/xlink"
   xmlns:sodipodi="http://sodipodi.sourceforge.net/DTD/sodipodi-0.dtd"
   xmlns:inkscape="http://www.inkscape.org/namespaces/inkscape"
   height="32"
   width="32"
   version="1.1"
   id="svg125"
   sodipodi:docname="config-recurso-title.svg"
   inkscape:version="1.0.2 (e86c870879, 2021-01-15)">
  <metadata
     id="metadata131">
    <rdf:RDF>
      <cc:Work
         rdf:about="">
        <dc:format>image/svg+xml</dc:format>
        <dc:type
           rdf:resource="http://purl.org/dc/dcmitype/StillImage" />
        <dc:title></dc:title>
      </cc:Work>
    </rdf:RDF>
  </metadata>
  <defs
     id="defs129">
    <linearGradient
       inkscape:collect="always"
       xlink:href="#b"
       id="linearGradient960"
       gradientUnits="userSpaceOnUse"
       gradientTransform="matrix(0.80385161,0.14170238,-0.08623193,0.48892922,0.01565066,-2.6566277)"
       x1="25.132"
       y1=".985"
       x2="25.132"
       y2="47.013" />
    <linearGradient
       inkscape:collect="always"
       xlink:href="#c"
       id="linearGradient962"
       gradientUnits="userSpaceOnUse"
       gradientTransform="matrix(0.7350524,0.12957451,-0.10279108,0.58281848,1.9314689,-3.8695428)"
       x1="24"
       y1="5.564"
       x2="24"
       y2="43" />
    <linearGradient
       inkscape:collect="always"
       xlink:href="#d"
       id="linearGradient964"
       gradientUnits="userSpaceOnUse"
       gradientTransform="matrix(0.16040644,0.02827633,-0.02822695,0.16004491,37.907589,11.814776)"
       x1="-96.557"
       y1="110.925"
       x2="-96.557"
       y2="39.992" />
    <linearGradient
       inkscape:collect="always"
       xlink:href="#e"
       id="linearGradient966"
       gradientUnits="userSpaceOnUse"
       gradientTransform="matrix(0.16040644,0.02827633,-0.02822695,0.16004491,37.907589,11.814776)"
       x1="-107.456"
       y1="-37.385"
       x2="-107.456"
       y2="38.561" />
    <linearGradient
       inkscape:collect="always"
       xlink:href="#f"
       id="linearGradient968"
       gradientUnits="userSpaceOnUse"
       gradientTransform="matrix(0.10195876,0.02620975,-0.02569366,0.09578826,31.930696,15.027351)"
       x1="-211.289"
       y1="88.75"
       x2="-208.497"
       y2="75.191" />
    <linearGradient
       inkscape:collect="always"
       xlink:href="#g"
       id="linearGradient970"
       gradientUnits="userSpaceOnUse"
       gradientTransform="matrix(0.10207342,0.01799343,-0.01793329,0.10168055,27.748094,12.057867)"
       x1="-184.924"
       y1="113.979"
       x2="-175.253"
       y2="88.801" />
    <linearGradient
       inkscape:collect="always"
       xlink:href="#h"
       id="linearGradient972"
       gradientUnits="userSpaceOnUse"
       gradientTransform="matrix(0.67073602,0.11823686,-0.08406241,0.47662817,48.911794,4.8413431)"
       x1="-51.786"
       y1="50.786"
       x2="-51.786"
       y2="2.906" />
    <linearGradient
       inkscape:collect="always"
       xlink:href="#b"
       id="linearGradient974"
       gradientUnits="userSpaceOnUse"
       gradientTransform="matrix(0.85714,0,0,0.52148,-3.57,1.684)"
       x1="25.132"
       y1=".985"
       x2="25.132"
       y2="47.013" />
    <linearGradient
       inkscape:collect="always"
       xlink:href="#c"
       id="linearGradient976"
       gradientUnits="userSpaceOnUse"
       gradientTransform="matrix(0.78378,0,0,0.62162,-1.81,0.08)"
       x1="24"
       y1="5.564"
       x2="24"
       y2="43" />
    <linearGradient
       inkscape:collect="always"
       xlink:href="#d"
       id="linearGradient978"
       gradientUnits="userSpaceOnUse"
       gradientTransform="matrix(0.17104,0,0,0.1707,38.255,9.744)"
       x1="-96.557"
       y1="110.925"
       x2="-96.557"
       y2="39.992" />
    <linearGradient
       inkscape:collect="always"
       xlink:href="#e"
       id="linearGradient980"
       gradientUnits="userSpaceOnUse"
       gradientTransform="matrix(0.17104,0,0,0.1707,38.255,9.744)"
       x1="-107.456"
       y1="-37.385"
       x2="-107.456"
       y2="38.561" />
    <linearGradient
       inkscape:collect="always"
       xlink:href="#f"
       id="linearGradient982"
       gradientUnits="userSpaceOnUse"
       gradientTransform="matrix(0.11022,0.00852,-0.0091,0.10377,32.66,14.157)"
       x1="-211.289"
       y1="88.75"
       x2="-208.497"
       y2="75.191" />
    <linearGradient
       inkscape:collect="always"
       xlink:href="#g"
       id="linearGradient984"
       gradientUnits="userSpaceOnUse"
       gradientTransform="matrix(0.10884,0,0,0.10845,27.793,11.848)"
       x1="-184.924"
       y1="113.979"
       x2="-175.253"
       y2="88.801" />
    <linearGradient
       inkscape:collect="always"
       xlink:href="#h"
       id="linearGradient986"
       gradientUnits="userSpaceOnUse"
       gradientTransform="matrix(0.7152,0,0,0.50836,48.363,0.524)"
       x1="-51.786"
       y1="50.786"
       x2="-51.786"
       y2="2.906" />
  </defs>
  <sodipodi:namedview
     pagecolor="#ffffff"
     bordercolor="#666666"
     borderopacity="1"
     objecttolerance="10"
     gridtolerance="10"
     guidetolerance="10"
     inkscape:pageopacity="0"
     inkscape:pageshadow="2"
     inkscape:window-width="1920"
     inkscape:window-height="1019"
     id="namedview127"
     showgrid="false"
     inkscape:zoom="13.078125"
     inkscape:cx="25.250774"
     inkscape:cy="22.852909"
     inkscape:window-x="0"
     inkscape:window-y="0"
     inkscape:window-maximized="1"
     inkscape:current-layer="svg125" />
  <linearGradient
     id="a">
    <stop
       offset="0"
       id="stop2" />
    <stop
       offset="1"
       stop-opacity="0"
       id="stop4" />
  </linearGradient>
  <linearGradient
     id="i"
     gradientTransform="matrix(0.0845,0,0,0.01235,-6.54,38.47)"
     gradientUnits="userSpaceOnUse"
     x1="302.857"
     x2="302.857"
     y1="366.648"
     y2="609.505">
    <stop
       offset="0"
       stop-opacity="0"
       id="stop7" />
    <stop
       offset=".5"
       id="stop9" />
    <stop
       offset="1"
       stop-opacity="0"
       id="stop11" />
  </linearGradient>
  <radialGradient
     id="j"
     cx="605.714"
     cy="486.648"
     gradientTransform="matrix(-0.02892,0,0,0.01235,21.027,38.47)"
     gradientUnits="userSpaceOnUse"
     r="117.143"
     xlink:href="#a" />
  <radialGradient
     id="k"
     cx="605.714"
     cy="486.648"
     gradientTransform="matrix(0.02892,0,0,0.01235,23.973,38.47)"
     gradientUnits="userSpaceOnUse"
     r="117.143"
     xlink:href="#a" />
  <linearGradient
     id="h"
     gradientTransform="matrix(.7152 0 0 .50836 47.363 .524)"
     gradientUnits="userSpaceOnUse"
     x1="-51.786"
     x2="-51.786"
     y1="50.786"
     y2="2.906">
    <stop
       offset="0"
       stop-opacity=".318"
       id="stop16" />
    <stop
       offset="1"
       stop-opacity=".24"
       id="stop18" />
  </linearGradient>
  <linearGradient
     id="c"
     gradientTransform="matrix(.78378 0 0 .62162 -2.81 .08)"
     gradientUnits="userSpaceOnUse"
     x1="24"
     x2="24"
     y1="5.564"
     y2="43">
    <stop
       offset="0"
       stop-color="#fff"
       id="stop21" />
    <stop
       offset=".036"
       stop-color="#fff"
       stop-opacity=".235"
       id="stop23" />
    <stop
       offset=".951"
       stop-color="#fff"
       stop-opacity=".157"
       id="stop25" />
    <stop
       offset="1"
       stop-color="#fff"
       stop-opacity=".392"
       id="stop27" />
  </linearGradient>
  <linearGradient
     id="b"
     gradientTransform="matrix(.85714 0 0 .52148 -4.57 1.684)"
     gradientUnits="userSpaceOnUse"
     x1="25.132"
     x2="25.132"
     y1=".985"
     y2="47.013">
    <stop
       offset="0"
       stop-color="#f4f4f4"
       id="stop30" />
    <stop
       offset="1"
       stop-color="#dbdbdb"
       id="stop32" />
  </linearGradient>
  <linearGradient
     id="g"
     gradientTransform="matrix(.10884 0 0 .10845 26.793 11.848)"
     gradientUnits="userSpaceOnUse"
     x1="-184.924"
     x2="-175.253"
     y1="113.979"
     y2="88.801">
    <stop
       offset="0"
       stop-color="#7a0f01"
       id="stop35" />
    <stop
       offset="1"
       stop-color="#d31807"
       id="stop37" />
  </linearGradient>
  <linearGradient
     id="f"
     gradientTransform="matrix(.11022 .00852 -.0091 .10377 31.66 14.157)"
     gradientUnits="userSpaceOnUse"
     x1="-211.289"
     x2="-208.497"
     y1="88.75"
     y2="75.191">
    <stop
       offset="0"
       stop-color="#ec4502"
       id="stop40" />
    <stop
       offset="1"
       stop-color="#fe7617"
       id="stop42" />
  </linearGradient>
  <linearGradient
     id="e"
     gradientTransform="matrix(.17104 0 0 .1707 37.255 9.744)"
     gradientUnits="userSpaceOnUse"
     x1="-107.456"
     x2="-107.456"
     y1="-37.385"
     y2="38.561">
    <stop
       offset="0"
       stop-color="#0b85e9"
       id="stop45" />
    <stop
       offset="1"
       stop-color="#69d1ef"
       id="stop47" />
  </linearGradient>
  <linearGradient
     id="d"
     gradientTransform="matrix(.17104 0 0 .1707 37.255 9.744)"
     gradientUnits="userSpaceOnUse"
     x1="-96.557"
     x2="-96.557"
     y1="110.925"
     y2="39.992">
    <stop
       offset="0"
       stop-color="#e89c42"
       id="stop50" />
    <stop
       offset="1"
       stop-color="#faca67"
       id="stop52" />
  </linearGradient>
  <path
     d="M 4.69103,1.37322 30.949939,6.0040552 27.31235,26.62894 1.05311,21.99998 Z"
     fill="url(#b)"
     id="path55"
     style="fill:url(#linearGradient960);stroke-width:0.95217" />
  <path
     d="M 26.926115,26.07749 1.604705,21.61385 5.077265,1.92467 30.398675,6.38831 Z"
     fill="none"
     stroke="url(#c)"
     stroke-linecap="round"
     stroke-linejoin="round"
     stroke-width="0.999779"
     id="path57"
     style="stroke:url(#linearGradient962)" />
  <path
     d="m 5.4635,2.47612 -3.3072,18.7516 24.38358,4.29832 3.3072,-18.7516 z"
     fill="url(#d)"
     id="path59"
     style="fill:url(#linearGradient964);stroke-width:0.95217" />
  <path
     d="m 7.938,14.913 c -0.1,-0.026 -0.217,-0.038 -0.34,-0.02 -0.476,0.07 -0.58,0.358 -0.645,0.493 -0.066,0.135 -0.093,0.244 -0.12,0.36 -0.055,0.23 -0.088,0.477 -0.12,0.724 -0.026,0.203 -0.05,0.383 -0.073,0.54 -0.162,0.01 -0.34,0.017 -0.545,0.024 -0.256,0.01 -0.515,0.018 -0.76,0.05 -0.12,0.014 -0.235,0.03 -0.386,0.085 -0.078,0.024 -0.165,0.056 -0.276,0.142 -0.11,0.085 -0.256,0.256 -0.29,0.488 -0.068,0.454 0.19,0.64 0.308,0.743 0.117,0.103 0.216,0.162 0.325,0.224 0.217,0.124 0.46,0.237 0.7,0.346 0.198,0.09 0.37,0.174 0.523,0.247 -0.037,0.148 -0.083,0.31 -0.135,0.496 -0.065,0.234 -0.13,0.467 -0.17,0.696 -0.02,0.114 -0.036,0.223 -0.026,0.377 0.003,0.075 0.013,0.163 0.066,0.29 0.054,0.13 0.18,0.317 0.404,0.424 0.437,0.21 0.7,0.04 0.837,-0.03 0.138,-0.073 0.228,-0.146 0.322,-0.223 0.186,-0.153 0.37,-0.334 0.55,-0.513 0.146,-0.147 0.277,-0.278 0.396,-0.39 0.138,0.082 0.29,0.177 0.46,0.284 0.217,0.136 0.436,0.274 0.655,0.384 0.11,0.055 0.213,0.105 0.37,0.146 0.08,0.022 0.174,0.044 0.317,0.038 0.144,-0.007 0.37,-0.06 0.54,-0.226 0.337,-0.323 0.245,-0.618 0.213,-0.765 -0.03,-0.147 -0.077,-0.25 -0.127,-0.36 -0.1,-0.22 -0.233,-0.44 -0.36,-0.66 -0.106,-0.182 -0.197,-0.342 -0.277,-0.485 0.124,-0.097 0.262,-0.202 0.42,-0.32 0.2,-0.15 0.4,-0.3 0.573,-0.462 0.085,-0.08 0.17,-0.158 0.255,-0.286 0.044,-0.063 0.093,-0.14 0.128,-0.27 0.035,-0.132 0.046,-0.353 -0.07,-0.563 -0.23,-0.406 -0.55,-0.416 -0.708,-0.436 -0.157,-0.02 -0.276,-0.013 -0.4,-0.003 -0.25,0.02 -0.515,0.06 -0.774,0.103 -0.213,0.035 -0.4,0.066 -0.57,0.09 l -0.2,-0.483 C 8.836,15.982 8.742,15.754 8.631,15.545 8.575,15.44 8.525,15.343 8.421,15.222 8.369,15.162 8.305,15.092 8.183,15.017 8.123,14.98 8.035,14.941 7.935,14.915 Z m 0.896,1.8 0.028,0.012 -0.038,0.003 c -0.012,0 -0.02,-0.015 0.01,-0.014 z m 0.406,0.215 c 0.03,0.034 0.026,0.046 0.02,0.037 z m -2.31,0.05 c 0.032,-0.008 0.032,0.01 0.022,0.01 -0.005,0.002 -0.034,0.004 -0.045,0.005 0.004,0 0.02,-0.015 0.024,-0.016 z m -0.335,0.287 -0.006,0.037 c -0.006,0.013 -0.016,0 0.004,-0.037 z m 3.542,1.31 c -0.005,-0.01 0.01,-0.007 0.018,0.034 -0.004,-0.01 -0.017,-0.03 -0.018,-0.035 z m -0.065,0.432 c -0.024,0.037 -0.04,0.038 -0.032,0.03 z m -3.766,0.06 -0.008,0.042 c -0.003,-0.046 0.01,-0.055 0.008,-0.045 z m 0.18,0.413 0.032,0.018 c 0.01,0.007 0,0.012 -0.033,-0.018 z m 2.225,0.806 c 0.013,-0.008 0.01,0.008 -0.03,0.027 z m -0.495,0.048 0.042,0.024 C 8.212,20.346 8.206,20.33 8.216,20.334 Z"
     opacity="0.05"
     id="path61" />
  <path
     d="m 5.32,3.293 -1.835,10.4 c 0.52,0.24 1.205,0.482 2.046,0.63 2.147,0.378 1.967,-0.395 3.814,-0.07 1.847,0.326 2.727,1.693 5.224,2.133 3.092,0.545 4.136,-1.223 6.582,-0.792 1.91,0.337 1.87,1.4 3.973,1.77 1.42,0.25 1.988,-0.212 2.93,-0.41 l 1.65,-9.363 z"
     opacity="0.07"
     id="path63" />
  <path
     d="m 5.4635,2.47612 -1.6876642,9.568941 c 0.3325683,0.230703 0.7643789,0.463433 1.2595531,0.550722 1.1319608,0.199541 2.4005987,-0.518419 4.2903262,-0.185299 1.8897279,0.333119 3.1081389,1.731177 5.4902279,2.15109 2.383963,0.420243 3.213089,-1.14471 6.251659,-0.609073 3.038569,0.535636 2.567327,1.535303 4.469247,1.870572 1.311086,0.231118 1.950398,-0.126015 2.76395,-0.281322 L 29.84708,6.77444 Z"
     fill="url(#e)"
     id="path65"
     style="fill:url(#linearGradient966);stroke-width:0.95217" />
  <g
     fill="#ffffff"
     id="g73"
     transform="translate(0,-2)">
    <path
       d="m 21.316,14.543 c -1.596,-0.28 -2.68,-0.008 -3.576,0.267 -0.896,0.275 -1.58,0.534 -2.674,0.34 C 13.942,14.953 13.102,14.53 12.268,14.088 11.434,13.648 10.605,13.182 9.574,13 8.561,12.822 7.704,12.916 6.997,13.03 6.29,13.145 5.737,13.265 5.285,13.185 4.875,13.113 4.501,12.903 4.2,12.695 A 0.428,0.427 8.932 0 0 4.027,12.621 l -0.32,1.813 c 0.537,0.24 1.222,0.47 2.05,0.617 1.118,0.197 1.724,0.093 2.187,-0.014 0.463,-0.107 0.755,-0.21 1.624,-0.056 0.833,0.147 1.456,0.535 2.227,0.977 0.77,0.442 1.682,0.924 2.996,1.155 1.635,0.288 2.79,-0.04 3.75,-0.365 0.966,-0.323 1.72,-0.623 2.835,-0.427 0.878,0.155 1.247,0.45 1.743,0.806 0.496,0.357 1.11,0.766 2.23,0.964 1.427,0.25 2.146,-0.167 2.922,-0.37 l 0.28,-1.588 a 0.428,0.427 8.932 0 0 -0.158,0 c -0.892,0.17 -1.394,0.496 -2.606,0.282 -0.874,-0.154 -1.11,-0.41 -1.633,-0.787 -0.523,-0.375 -1.27,-0.808 -2.837,-1.084 z"
       opacity="0.1"
       id="path67" />
    <path
       d="m 21.183,15.297 c -3.04,-0.535 -3.867,1.03 -6.25,0.61 -2.383,-0.42 -3.602,-1.82 -5.492,-2.152 -1.89,-0.333 -3.156,0.384 -4.287,0.184 -0.496,-0.09 -0.928,-0.32 -1.26,-0.55 l -0.17,0.952 c 0.52,0.24 1.206,0.483 2.047,0.63 2.143,0.38 1.964,-0.393 3.81,-0.068 1.848,0.326 2.728,1.692 5.225,2.133 3.092,0.545 4.135,-1.224 6.582,-0.793 1.91,0.337 1.87,1.4 3.973,1.77 1.42,0.25 1.988,-0.21 2.93,-0.41 l 0.126,-0.72 c -0.813,0.156 -1.453,0.514 -2.764,0.283 -1.902,-0.335 -1.43,-1.335 -4.47,-1.87 z"
       opacity="0.3"
       id="path69" />
    <path
       d="m 21.067,15.953 c -3.038,-0.535 -3.867,1.03 -6.25,0.61 -2.383,-0.42 -3.602,-1.82 -5.492,-2.152 -1.89,-0.332 -3.157,0.386 -4.29,0.186 C 4.54,14.51 4.108,14.277 3.775,14.047 L 3.61,15 c 0.52,0.24 1.204,0.482 2.045,0.63 2.145,0.38 1.966,-0.394 3.812,-0.07 1.847,0.327 2.727,1.694 5.224,2.134 3.09,0.545 4.136,-1.224 6.58,-0.793 1.913,0.34 1.873,1.4 3.976,1.77 1.42,0.25 1.988,-0.21 2.93,-0.41 l 0.126,-0.717 c -0.813,0.155 -1.453,0.513 -2.763,0.282 -1.904,-0.335 -1.433,-1.335 -4.47,-1.87 z"
       id="path71" />
  </g>
  <path
     d="m 7.732,15.603 c -0.262,0.04 -0.286,1.87 -0.478,2.04 -0.186,0.165 -2.084,0.03 -2.12,0.27 -0.037,0.25 1.803,0.87 1.92,1.1 0.112,0.22 -0.573,1.884 -0.342,1.994 0.24,0.115 1.4,-1.33 1.663,-1.36 0.255,-0.03 1.73,1.128 1.91,0.957 0.184,-0.178 -0.938,-1.69 -0.89,-1.938 0.044,-0.238 1.64,-1.184 1.52,-1.4 -0.127,-0.226 -1.98,0.283 -2.214,0.16 -0.225,-0.12 -0.713,-1.86 -0.967,-1.823 z"
     opacity="0.15"
     id="path75" />
  <path
     d="m 7.8500822,14.932608 c 0.2532023,-0.03754 0.7433196,1.706801 0.9701753,1.824129 0.2354072,0.12367 2.0852945,-0.386455 2.2109375,-0.161293 0.12167,0.214794 -1.47445,1.161177 -1.5195956,1.400702 -0.046469,0.247025 1.0750346,1.761408 0.8898716,1.939515 -0.1754,0.172094 -1.6534396,-0.987512 -1.9096774,-0.960177 -0.2617537,0.0312 -1.4208943,1.477071 -1.6588929,1.362612 C 6.6009708,20.227607 7.2849433,18.564562 7.1720989,18.34359 7.054785,18.115063 5.2176987,17.494437 5.2538511,17.245593 5.2894531,17.005353 7.1874816,17.137889 7.374412,16.971695 7.5638796,16.802081 7.5860677,14.97114 7.8500822,14.932608 Z"
     fill="url(#f)"
     id="path77"
     style="fill:url(#linearGradient968);stroke-width:0.95217" />
  <path
     d="m 7.866,14.932 -0.082,0.054 c 0,0.002 -0.003,0.002 -0.003,0.003 -0.2,0.31 -0.233,1.825 -0.407,1.98 -0.007,0.007 -0.017,0.015 -0.03,0.02 l 0.05,0.05 c 1.09,0.543 0.507,-2.03 0.49,-2.103 L 7.869,14.93 Z"
     fill="#9d0f06"
     opacity="0.5"
     id="path79" />
  <path
     d="m 5.6257775,17.269586 c -0.2272856,-0.03813 -0.3585251,-0.05063 -0.3585251,-0.05063 l -0.00959,0.05438 c 0.088799,0.264103 1.7984488,0.850664 1.9112932,1.071636 0.1130098,0.220034 -0.5700249,1.883245 -0.338095,1.993734 0.2389364,0.114625 1.3954289,-1.332684 1.6613757,-1.360241 0.2528172,-0.02987 1.7114367,1.113743 1.9048227,0.960288 l -0.0023,-0.0033 C 9.3268044,18.051543 6.6069674,17.435783 5.6254468,17.271462 Z"
     fill="url(#g)"
     opacity="0.75"
     id="path81"
     style="fill:url(#linearGradient970);stroke-width:0.95217" />
  <path
     d="m 26.153645,24.97459 -23.44575,-4.133 3.14184,-17.81402 23.44575,4.133 z"
     fill="none"
     opacity="0.2"
     stroke="#000000"
     stroke-linecap="round"
     stroke-width="0.999779"
     id="path83" />
  <path
     d="M 4.304795,0.82177 31.501534,5.6179252 27.698585,27.18039 0.501515,22.38611 Z"
     fill="none"
     stroke="url(#h)"
     stroke-linejoin="round"
     stroke-width="0.999779"
     id="path85"
     style="stroke:url(#linearGradient972)" />
  <g
     opacity="0.4"
     id="g93"
     transform="translate(0,-2)">
    <path
       d="m 3.6,43 h 37.74 v 3 H 3.6 Z"
       fill="url(#i)"
       transform="matrix(0.66666,0,0,1.33333,0,-30.333)"
       id="path87"
       style="fill:url(#i)" />
    <path
       d="m 3.6,43 v 3 C 2.11,46.006 0,45.328 0,44.5 0,43.672 1.662,43 3.6,43 Z"
       fill="url(#j)"
       transform="matrix(0.66666,0,0,1.33333,0,-30.333)"
       id="path89"
       style="fill:url(#j)" />
    <path
       d="m 41.4,43 v 3 C 42.89,46.006 45,45.328 45,44.5 45,43.672 43.338,43 41.4,43 Z"
       fill="url(#k)"
       transform="matrix(0.66666,0,0,1.33333,0,-30.333)"
       id="path91"
       style="fill:url(#k)" />
  </g>
  <path
     d="M 2,5 30,5.002 V 27 H 2 Z"
     fill="url(#b)"
     id="path95"
     style="fill:url(#linearGradient974)" />
  <path
     d="m 29.5,26.5 h -27 v -21 h 27 z"
     fill="none"
     stroke="url(#c)"
     stroke-linecap="round"
     stroke-linejoin="round"
     id="path97"
     style="stroke:url(#linearGradient976)" />
  <path
     d="M 3,6 V 26 H 29 V 6 Z"
     fill="url(#d)"
     id="path99"
     style="fill:url(#linearGradient978)" />
  <path
     d="m 7.827,18.414 c -0.11,-0.008 -0.23,0 -0.354,0.04 -0.48,0.16 -0.535,0.477 -0.578,0.63 -0.043,0.15 -0.052,0.268 -0.06,0.393 -0.013,0.248 -0.002,0.51 0.01,0.77 0.01,0.215 0.018,0.406 0.022,0.574 -0.165,0.04 -0.348,0.08 -0.558,0.125 -0.266,0.056 -0.533,0.112 -0.778,0.188 -0.123,0.04 -0.24,0.077 -0.385,0.16 -0.074,0.04 -0.158,0.09 -0.257,0.2 -0.098,0.107 -0.218,0.31 -0.21,0.557 0.012,0.48 0.313,0.625 0.454,0.71 0.14,0.085 0.253,0.128 0.376,0.173 0.247,0.09 0.52,0.16 0.788,0.23 0.22,0.058 0.414,0.112 0.586,0.16 -0.013,0.16 -0.03,0.337 -0.05,0.538 -0.026,0.256 -0.05,0.51 -0.05,0.75 0.002,0.124 0.004,0.24 0.043,0.397 0.02,0.08 0.044,0.17 0.123,0.29 0.08,0.123 0.244,0.296 0.495,0.366 0.49,0.136 0.73,-0.086 0.86,-0.185 0.13,-0.1 0.208,-0.19 0.29,-0.288 0.168,-0.195 0.323,-0.416 0.476,-0.634 0.13,-0.18 0.24,-0.338 0.34,-0.476 0.16,0.06 0.334,0.13 0.53,0.21 0.25,0.1 0.5,0.203 0.747,0.277 0.124,0.037 0.24,0.07 0.41,0.084 0.084,0.01 0.186,0.015 0.334,-0.02 0.148,-0.03 0.37,-0.13 0.52,-0.33 0.29,-0.396 0.14,-0.684 0.08,-0.83 -0.06,-0.146 -0.128,-0.244 -0.2,-0.35 -0.144,-0.207 -0.32,-0.413 -0.494,-0.62 -0.142,-0.165 -0.264,-0.314 -0.373,-0.45 l 0.376,-0.406 c 0.177,-0.19 0.356,-0.383 0.507,-0.58 0.076,-0.1 0.147,-0.196 0.214,-0.344 0.035,-0.075 0.07,-0.162 0.083,-0.305 0.013,-0.142 -0.016,-0.373 -0.175,-0.568 -0.31,-0.38 -0.645,-0.332 -0.81,-0.324 -0.168,0.01 -0.29,0.037 -0.416,0.07 -0.255,0.064 -0.52,0.154 -0.78,0.246 -0.215,0.073 -0.404,0.14 -0.572,0.195 C 9.301,19.901 9.205,19.747 9.095,19.574 8.957,19.354 8.818,19.136 8.665,18.94 8.588,18.84 8.518,18.75 8.389,18.643 8.325,18.591 8.246,18.53 8.106,18.473 8.036,18.448 7.939,18.423 7.83,18.413 Z m 1.256,1.7 c 0.003,0 0.025,0.006 0.03,0.005 -0.01,0 -0.034,0.007 -0.04,0.01 -0.01,0 -0.02,-0.013 0.01,-0.017 z m 0.458,0.146 c 0.04,0.03 0.038,0.044 0.03,0.035 z m -2.376,0.473 c 0.03,-0.014 0.033,0.004 0.023,0.008 -0.005,0.004 -0.034,0.01 -0.046,0.015 0.006,-0.003 0.02,-0.02 0.024,-0.02 z m -0.295,0.36 v 0.038 c -0.003,0.016 -0.015,0.005 0,-0.037 z m 3.9,0.708 c -0.007,-0.01 0.01,-0.007 0.025,0.034 L 10.77,21.803 Z m 0.012,0.46 c -0.017,0.043 -0.033,0.047 -0.027,0.037 l 0.028,-0.037 z M 6.9,23.01 v 0.046 c -0.013,-0.045 0,-0.057 0,-0.046 z m 0.26,0.396 c 0.008,0.003 0.032,0.01 0.037,0.013 0.013,0.005 0.002,0.012 -0.037,-0.013 z m 2.45,0.427 c 0.008,-0.01 0.01,0.008 -0.03,0.035 0.008,-0.008 0.025,-0.03 0.03,-0.034 z m -0.506,0.14 0.047,0.02 c -0.05,-0.005 -0.06,-0.02 -0.047,-0.018 z"
     opacity="0.05"
     id="path101" />
  <path
     d="m 3,6.87 v 11.092 c 0.58,0.154 1.334,0.28 2.23,0.28 2.287,0 1.96,-0.766 3.93,-0.766 1.97,0 3.13,1.253 5.79,1.253 3.298,0 4.055,-2.02 6.664,-2.02 2.037,0 2.19,1.104 4.43,1.104 1.516,0 2.02,-0.58 2.956,-0.96 V 6.872 Z"
     opacity="0.07"
     id="path103" />
  <path
     d="m 3,6 v 10.206 c 0.386,0.178 0.875,0.34 1.403,0.34 1.207,0 2.388,-0.974 4.403,-0.974 2.015,0 3.53,1.224 6.07,1.224 2.542,0 3.114,-1.77 6.354,-1.77 3.24,0 2.935,1.12 4.963,1.12 1.398,0 1.994,-0.486 2.807,-0.795 V 6 Z"
     fill="url(#e)"
     id="path105"
     style="fill:url(#linearGradient980)" />
  <path
     d="m 21.23,13.523 c -1.702,0 -2.773,0.48 -3.65,0.928 -0.876,0.45 -1.537,0.843 -2.703,0.843 -1.198,0 -2.145,-0.286 -3.087,-0.59 C 10.847,14.4 9.904,14.07 8.806,14.07 c -1.08,0 -1.95,0.253 -2.66,0.5 -0.71,0.25 -1.26,0.472 -1.743,0.472 -0.436,0 -0.862,-0.148 -1.21,-0.31 A 0.45,0.45 0 0 0 3,14.688 v 1.93 c 0.598,0.15 1.35,0.267 2.23,0.267 1.194,0 1.802,-0.218 2.26,-0.413 0.46,-0.194 0.744,-0.353 1.67,-0.353 0.89,0 1.604,0.287 2.482,0.604 0.878,0.316 1.907,0.648 3.31,0.648 1.74,0 2.873,-0.55 3.81,-1.06 0.938,-0.512 1.664,-0.96 2.852,-0.96 0.937,0 1.372,0.238 1.95,0.517 0.577,0.277 1.286,0.59 2.48,0.59 1.523,0 2.19,-0.565 2.956,-0.916 V 13.85 a 0.45,0.45 0 0 0 -0.163,0.03 c -0.89,0.337 -1.35,0.765 -2.644,0.765 -0.93,0 -1.222,-0.223 -1.832,-0.516 -0.607,-0.294 -1.46,-0.605 -3.13,-0.605 z"
     fill="#ffffff"
     opacity="0.1"
     id="path107" />
  <path
     d="m 21.23,14.327 c -3.24,0 -3.812,1.77 -6.353,1.77 -2.54,0 -4.056,-1.224 -6.07,-1.224 -2.016,0 -3.197,0.973 -4.404,0.973 -0.528,0 -1.017,-0.162 -1.403,-0.34 v 1.018 c 0.58,0.154 1.334,0.28 2.23,0.28 2.287,0 1.96,-0.767 3.93,-0.767 1.97,0 3.13,1.253 5.79,1.253 3.298,0 4.055,-2.02 6.664,-2.02 2.037,0 2.19,1.106 4.43,1.106 1.516,0 2.02,-0.58 2.956,-0.958 v -0.766 c -0.813,0.31 -1.41,0.796 -2.807,0.796 -2.028,0 -1.724,-1.12 -4.963,-1.12 z"
     fill="#ffffff"
     opacity="0.3"
     id="path109" />
  <path
     d="m 21.23,15.027 c -3.24,0 -3.812,1.77 -6.353,1.77 -2.54,0 -4.056,-1.225 -6.07,-1.225 -2.016,0 -3.197,0.973 -4.404,0.973 -0.528,0 -1.017,-0.16 -1.403,-0.34 v 1.02 c 0.58,0.153 1.334,0.28 2.23,0.28 2.287,0 1.96,-0.768 3.93,-0.768 1.97,0 3.13,1.253 5.79,1.253 3.298,0 4.055,-2.02 6.664,-2.02 2.037,0 2.19,1.106 4.43,1.106 1.516,0 2.02,-0.58 2.956,-0.958 v -0.767 c -0.813,0.31 -1.41,0.798 -2.807,0.798 -2.028,0 -1.724,-1.12 -4.963,-1.12 z"
     fill="#fff"
     id="path111" />
  <path
     d="m 7.74,19.165 c -0.264,0.088 0.045,1.985 -0.123,2.197 -0.16,0.205 -2.15,0.412 -2.142,0.667 0.007,0.262 2.023,0.57 2.185,0.784 0.157,0.208 -0.248,2.054 0.01,2.126 0.27,0.076 1.205,-1.63 1.472,-1.71 0.26,-0.076 1.996,0.853 2.15,0.643 0.158,-0.218 -1.278,-1.578 -1.275,-1.842 0.003,-0.253 1.48,-1.523 1.317,-1.725 -0.17,-0.21 -1.993,0.654 -2.26,0.57 C 8.818,20.795 7.996,19.08 7.74,19.165 Z"
     opacity="0.15"
     id="path113" />
  <path
     d="m 7.74,18.45 c 0.255,-0.085 1.08,1.63 1.336,1.71 0.266,0.085 2.086,-0.78 2.257,-0.57 0.165,0.2 -1.313,1.47 -1.316,1.726 -0.003,0.264 1.433,1.626 1.274,1.844 -0.15,0.21 -1.89,-0.72 -2.15,-0.645 -0.265,0.08 -1.2,1.787 -1.467,1.712 C 7.414,24.155 7.818,22.31 7.661,22.102 7.498,21.887 5.485,21.58 5.477,21.316 5.47,21.061 7.457,20.852 7.62,20.646 7.785,20.436 7.474,18.538 7.74,18.45 Z"
     fill="url(#f)"
     id="path115"
     style="fill:url(#linearGradient982)" />
  <path
     d="m 7.757,18.447 -0.075,0.07 c 0,0.002 -0.003,0.003 -0.003,0.004 -0.15,0.36 0.09,1.935 -0.063,2.127 -0.007,0.008 -0.016,0.02 -0.028,0.027 l 0.06,0.04 c 1.227,0.364 0.154,-2.19 0.123,-2.263 -0.006,0 -0.01,-0.003 -0.017,-0.002 z"
     fill="#9d0f06"
     opacity="0.5"
     id="path117" />
  <path
     d="m 5.866,21.273 c -0.242,0.002 -0.38,0.013 -0.38,0.013 v 0.058 c 0.14,0.257 2.015,0.552 2.172,0.76 0.157,0.207 -0.246,2.052 0.014,2.124 0.268,0.075 1.2,-1.633 1.47,-1.71 0.256,-0.077 1.973,0.84 2.145,0.646 L 11.284,23.161 C 9.836,21.407 6.911,21.266 5.866,21.275 Z"
     fill="url(#g)"
     opacity="0.75"
     id="path119"
     style="fill:url(#linearGradient984)" />
  <path
     d="m 28.5,25.5 h -25 v -19 h 25 z"
     fill="none"
     opacity="0.2"
     stroke="#000000"
     stroke-linecap="round"
     id="path121" />
  <path
     d="m 1.5,4.5 29,0.002 V 27.5 h -29 z"
     fill="none"
     stroke="url(#h)"
     stroke-linejoin="round"
     id="path123"
     style="stroke:url(#linearGradient986)" />
  <rect
     style="fill:#000000;fill-opacity:0.907969;stroke:none;stroke-width:1.267;stroke-linecap:round;stroke-linejoin:round;stop-color:#000000"
     id="rect988"
     width="25.997755"
     height="9.5850086"
     x="5.632462"
     y="22.034056"
     ry="0.224714" />
  <text
     xml:space="preserve"
     style="font-style:normal;font-weight:normal;font-size:9.42811px;line-height:1.25;font-family:sans-serif;fill:#ffffff;fill-opacity:1;stroke:none;stroke-width:0.235703"
     x="6.1924949"
     y="30.263124"
     id="text992"><tspan
       sodipodi:role="line"
       id="tspan990"
       x="6.1924949"
       y="30.263124"
       style="fill:#ffffff;stroke-width:0.235703">TITLE</tspan></text>
</svg>
