<?xml version="1.0" standalone="no"?>
<!DOCTYPE svg PUBLIC "-//W3C//DTD SVG 20010904//EN"
 "http://www.w3.org/TR/2001/REC-SVG-20010904/DTD/svg10.dtd">
<svg version="1.0" xmlns="http://www.w3.org/2000/svg"
 width="1280.000000pt" height="772.000000pt" viewBox="0 0 1280.000000 772.000000"
 preserveAspectRatio="xMidYMid meet">
<metadata>
Created by potrace 1.15, written by Peter Selinger 2001-2017
</metadata>
<g transform="translate(0.000000,772.000000) scale(0.100000,-0.100000)"
fill="#000000" stroke="none">
<path d="M6332 7681 c-285 -206 -480 -526 -537 -881 -8 -52 -15 -112 -15 -132
l0 -37 -305 -3 c-233 -2 -307 -6 -317 -16 -10 -10 -14 -105 -16 -435 l-3 -421
56 61 c203 224 491 246 699 54 114 -107 207 -303 232 -493 6 -40 10 -48 23
-42 104 43 161 57 246 57 88 1 112 -5 230 -59 6 -2 18 37 28 90 35 181 90 296
193 406 205 217 521 214 727 -8 26 -29 50 -52 52 -52 10 0 5 756 -6 793 -19
68 -23 69 -338 65 l-280 -3 -7 55 c-42 360 -163 629 -384 851 -79 79 -209 190
-222 189 -2 0 -27 -18 -56 -39z"/>
<path d="M3225 7437 c-179 -183 -294 -403 -351 -667 -9 -41 -19 -147 -23 -235
l-6 -160 -255 -31 c-327 -40 -338 -42 -350 -65 -8 -13 4 -133 40 -424 27 -223
50 -409 50 -413 0 -4 17 18 37 48 117 175 307 269 484 241 129 -21 266 -112
354 -236 54 -75 117 -206 141 -292 9 -35 21 -63 26 -63 5 0 28 11 51 24 111
64 263 85 372 52 28 -9 55 -16 61 -16 7 0 13 38 17 103 7 126 27 208 78 314
68 144 192 254 324 288 170 44 353 -3 478 -123 27 -26 37 -32 37 -19 0 64 -93
758 -105 784 -24 54 -23 54 -403 5 l-212 -28 -10 40 c-26 105 -95 299 -135
379 -76 153 -178 284 -300 389 -83 71 -271 198 -294 198 -9 0 -56 -42 -106
-93z"/>
<path d="M9385 7488 c-154 -92 -283 -207 -391 -350 -115 -153 -216 -377 -245
-545 -10 -54 -14 -63 -33 -63 -11 0 -129 14 -261 30 -288 36 -331 37 -344 11
-9 -17 -30 -170 -81 -596 -11 -93 -22 -185 -26 -204 l-6 -34 53 47 c183 165
416 194 601 75 153 -98 258 -317 275 -569 l6 -96 71 19 c52 13 96 17 163 15
84 -4 98 -7 178 -47 48 -23 88 -41 89 -39 1 1 10 32 20 68 40 152 156 335 264
413 229 169 529 122 700 -110 26 -35 48 -60 49 -55 8 31 86 700 87 749 2 100
10 96 -321 135 l-283 33 0 81 c0 408 -124 719 -403 1012 -33 34 -67 62 -76 62
-9 0 -47 -19 -86 -42z"/>
<path d="M337 5993 c184 -401 402 -875 485 -1055 114 -249 155 -328 168 -328
10 0 37 7 61 16 24 9 76 18 114 20 39 2 71 4 71 4 1 0 -8 30 -18 68 -29 99
-36 306 -14 406 35 153 126 286 242 348 57 31 159 58 219 58 63 0 173 -27 242
-59 34 -17 63 -28 63 -26 0 9 -331 690 -347 714 -14 21 -20 23 -72 18 -44 -4
-102 -27 -278 -111 -122 -58 -227 -107 -234 -108 -7 -2 -30 28 -50 65 -132
238 -358 453 -604 574 -128 64 -304 123 -363 123 -17 0 30 -108 315 -727z"/>
<path d="M12685 6686 c-372 -98 -706 -361 -885 -699 -14 -26 -29 -47 -33 -47
-5 0 -108 48 -230 106 -122 58 -246 111 -275 117 -48 10 -54 9 -73 -10 -21
-20 -362 -713 -356 -720 2 -2 33 10 68 26 311 140 617 -12 695 -345 21 -93 15
-308 -13 -411 l-19 -73 55 0 c31 0 87 -8 124 -19 50 -14 70 -15 81 -7 8 6 77
148 154 316 77 168 280 611 452 985 172 374 325 708 341 743 18 39 24 62 16
62 -7 -1 -52 -12 -102 -24z"/>
<path d="M6239 5095 c-168 -23 -328 -87 -406 -163 -129 -126 -81 -273 122
-373 399 -196 1076 -67 1103 210 15 160 -189 292 -513 330 -112 14 -183 13
-306 -4z"/>
<path d="M8830 4965 c-133 -27 -245 -83 -295 -150 -37 -48 -45 -125 -19 -181
50 -107 227 -217 434 -269 143 -36 364 -45 495 -20 217 40 345 136 345 256 0
156 -227 310 -538 364 -103 18 -332 18 -422 0z"/>
<path d="M3575 4956 c-337 -64 -555 -210 -555 -372 0 -143 164 -242 439 -264
208 -17 428 23 606 109 339 165 322 420 -35 516 -87 23 -357 30 -455 11z"/>
<path d="M1631 4529 c-75 -13 -246 -71 -323 -110 -336 -168 -539 -450 -436
-606 52 -79 177 -114 334 -94 375 46 783 338 829 592 8 43 -8 107 -35 142 -38
49 -118 78 -222 82 -51 2 -117 0 -147 -6z"/>
<path d="M5674 4519 c-3 -5 -40 -30 -82 -54 -250 -147 -556 -188 -847 -114
-44 12 -135 47 -202 80 l-122 60 -118 -74 c-438 -275 -694 -307 -1203 -149
l-125 39 -45 -31 c-218 -153 -364 -192 -685 -183 l-180 5 -75 -90 c-41 -49
-104 -114 -140 -144 -79 -66 -213 -133 -338 -170 l-92 -28 6 -35 c4 -20 19
-64 35 -97 58 -124 196 -218 396 -271 133 -35 428 -44 603 -19 423 62 798 231
1020 462 102 106 143 164 186 261 l31 73 47 -58 c139 -174 407 -292 751 -332
116 -13 404 -13 536 0 531 54 1056 243 1290 467 l58 55 75 -67 c541 -491 1667
-634 2321 -296 70 35 110 66 179 134 49 48 90 87 91 87 1 0 7 -19 14 -42 19
-64 77 -165 137 -239 287 -352 971 -577 1529 -504 283 37 489 153 564 317 50
108 52 100 -42 131 -97 31 -248 103 -314 148 -62 43 -173 149 -222 213 l-41
53 -57 -8 c-336 -46 -563 2 -813 171 l-56 38 -64 -25 c-105 -40 -279 -81 -392
-93 -243 -26 -495 40 -823 216 l-140 75 -140 -55 c-215 -83 -294 -101 -455
-101 -110 0 -150 4 -215 23 -103 29 -217 74 -328 129 l-88 44 -72 -40 c-385
-212 -794 -211 -1249 2 -54 25 -100 41 -104 36z"/>
<path d="M10897 4515 c-147 -41 -201 -160 -134 -297 62 -126 232 -270 431
-364 278 -130 583 -146 699 -36 69 65 76 142 22 249 -96 193 -393 383 -700
448 -85 18 -253 18 -318 0z"/>
<path d="M6350 3893 c-59 -71 -184 -180 -265 -231 -63 -39 -179 -92 -267 -122
-38 -12 -68 -24 -68 -26 0 -2 287 -4 638 -4 l637 1 -92 33 c-108 40 -183 81
-266 148 -58 46 -200 195 -234 246 -8 12 -18 22 -22 22 -3 0 -31 -30 -61 -67z"/>
<path d="M8955 3749 c-163 -142 -297 -211 -519 -269 -44 -11 -89 -20 -100 -20
-70 0 60 -19 590 -85 329 -41 613 -78 629 -80 19 -4 1 9 -50 36 -171 88 -277
186 -400 373 -38 58 -72 106 -75 106 -3 0 -36 -28 -75 -61z"/>
<path d="M3704 3702 c-115 -170 -251 -290 -438 -388 -55 -30 -95 -54 -87 -54
8 0 170 20 360 45 190 25 465 61 610 81 237 31 314 44 255 44 -42 0 -192 44
-262 76 -90 41 -180 104 -293 206 l-86 77 -59 -87z"/>
<path d="M11390 3308 c-206 -136 -318 -174 -538 -185 -73 -3 -129 -9 -125 -13
4 -4 55 -19 113 -35 128 -34 337 -104 405 -134 l50 -22 28 33 c48 57 87 115
106 160 18 42 75 258 69 263 -2 1 -50 -29 -108 -67z"/>
<path d="M1381 3229 c40 -155 68 -212 153 -313 l24 -28 103 40 c121 46 258 91
379 122 47 13 89 27 94 31 6 5 -33 9 -90 9 -158 0 -304 30 -409 83 -22 11 -92
53 -156 93 -64 41 -119 74 -122 74 -3 0 8 -50 24 -111z"/>
<path d="M5580 3300 c-140 -10 -399 -28 -574 -39 -176 -12 -321 -23 -322 -24
-2 -2 29 -36 68 -77 369 -389 389 -713 68 -1114 -39 -48 -70 -88 -70 -89 0 -1
111 5 248 14 136 9 410 27 610 39 199 13 362 26 362 29 0 3 -15 16 -33 28 -93
64 -214 210 -258 310 -45 103 -53 145 -53 273 -1 103 3 138 23 200 46 147 121
273 236 398 l67 72 -59 -1 c-32 -1 -173 -10 -313 -19z"/>
<path d="M7007 3277 c99 -126 160 -216 197 -292 68 -137 81 -190 80 -330 0
-137 -16 -198 -86 -318 -47 -80 -172 -233 -228 -277 -22 -18 -40 -35 -40 -39
0 -5 37 -9 83 -10 45 -1 294 -10 552 -21 259 -11 497 -20 529 -20 l59 0 -64
68 c-105 108 -159 199 -200 332 -29 94 -31 242 -5 340 45 175 167 357 329 491
32 27 54 49 50 49 -4 0 -287 11 -628 25 -341 14 -626 25 -633 25 -10 0 -9 -6
5 -23z"/>
<path d="M6302 3275 c-30 -7 -92 -32 -140 -55 -167 -83 -296 -250 -337 -435
-23 -102 -17 -254 14 -345 87 -256 317 -432 585 -447 118 -6 214 14 326 68
112 55 238 179 288 283 54 112 76 213 70 331 -9 173 -69 305 -194 431 -56 55
-92 81 -165 117 -52 25 -118 50 -147 56 -70 15 -234 12 -300 -4z"/>
<path d="M8600 3193 c-118 -20 -246 -89 -341 -184 -63 -62 -85 -93 -122 -170
-54 -111 -67 -169 -67 -289 0 -120 13 -178 67 -289 74 -154 205 -269 374 -328
100 -34 238 -42 343 -19 246 55 450 260 501 501 72 343 -147 690 -485 769 -60
14 -209 19 -270 9z"/>
<path d="M4051 3169 c-175 -45 -330 -175 -411 -344 -50 -106 -65 -170 -64
-290 0 -180 62 -325 194 -456 254 -252 658 -252 910 1 129 128 192 280 193
460 0 186 -61 330 -197 465 -90 89 -185 143 -298 170 -89 21 -236 18 -327 -6z"/>
<path d="M9350 3137 c0 -2 24 -53 54 -113 150 -302 162 -540 39 -776 -44 -84
-171 -235 -257 -308 -36 -30 -66 -57 -66 -61 0 -3 241 -46 535 -95 294 -49
535 -88 535 -87 0 1 -21 34 -46 73 -93 144 -135 277 -136 435 -1 55 4 127 11
160 43 200 168 393 348 536 35 28 62 53 60 55 -2 2 -233 42 -513 89 -280 47
-521 88 -536 91 -16 3 -28 4 -28 1z"/>
<path d="M3195 3050 c-225 -43 -465 -88 -533 -100 l-123 -23 79 -74 c196 -179
303 -373 318 -576 12 -153 -28 -309 -128 -505 l-58 -114 28 6 c15 3 176 33
357 66 182 34 408 76 503 94 l172 32 -79 63 c-134 105 -223 229 -278 386 -25
74 -27 92 -28 235 0 101 5 173 14 205 27 102 74 216 122 296 27 45 48 83 47
84 -2 1 -187 -33 -413 -75z"/>
<path d="M10630 2854 c-150 -32 -318 -148 -405 -280 -157 -236 -133 -576 55
-786 130 -145 295 -219 489 -219 121 0 172 12 290 68 327 156 455 556 284 886
-55 107 -173 222 -283 275 -139 69 -285 88 -430 56z"/>
<path d="M2024 2845 c-226 -49 -416 -220 -485 -435 -27 -83 -36 -247 -19 -333
7 -34 32 -104 57 -156 37 -77 59 -108 122 -170 131 -131 280 -193 465 -192
412 2 716 380 631 786 -8 39 -33 108 -56 155 -83 169 -260 307 -444 345 -85
18 -189 18 -271 0z"/>
<path d="M5725 1764 c-1899 -67 -3304 -302 -3808 -638 -93 -61 -130 -99 -158
-161 -37 -80 -20 -152 53 -231 500 -543 3501 -869 6248 -679 1679 117 2879
410 3050 745 32 62 25 144 -16 202 -122 174 -546 348 -1164 476 -626 131
-1356 215 -2325 268 -258 14 -1618 27 -1880 18z"/>
</g>
</svg>
