<?xml version="1.0" encoding="UTF-8" standalone="no"?>
<svg
   xmlns:dc="http://purl.org/dc/elements/1.1/"
   xmlns:cc="http://creativecommons.org/ns#"
   xmlns:rdf="http://www.w3.org/1999/02/22-rdf-syntax-ns#"
   xmlns:svg="http://www.w3.org/2000/svg"
   xmlns="http://www.w3.org/2000/svg"
   xmlns:xlink="http://www.w3.org/1999/xlink"
   xmlns:sodipodi="http://sodipodi.sourceforge.net/DTD/sodipodi-0.dtd"
   xmlns:inkscape="http://www.inkscape.org/namespaces/inkscape"
   height="32"
   viewBox="0 0 32 32"
   width="32"
   version="1.1"
   id="svg75"
   sodipodi:docname="hangingindentremove.svg"
   inkscape:version="1.0.2 (e86c870879, 2021-01-15)">
  <metadata
     id="metadata81">
    <rdf:RDF>
      <cc:Work
         rdf:about="">
        <dc:format>image/svg+xml</dc:format>
        <dc:type
           rdf:resource="http://purl.org/dc/dcmitype/StillImage" />
      </cc:Work>
    </rdf:RDF>
  </metadata>
  <defs
     id="defs79" />
  <sodipodi:namedview
     pagecolor="#ffffff"
     bordercolor="#666666"
     borderopacity="1"
     objecttolerance="10"
     gridtolerance="10"
     guidetolerance="10"
     inkscape:pageopacity="0"
     inkscape:pageshadow="2"
     inkscape:window-width="1920"
     inkscape:window-height="1019"
     id="namedview77"
     showgrid="false"
     inkscape:zoom="26.15625"
     inkscape:cx="16"
     inkscape:cy="16"
     inkscape:window-x="0"
     inkscape:window-y="0"
     inkscape:window-maximized="1"
     inkscape:current-layer="svg75" />
  <linearGradient
     id="a"
     gradientUnits="userSpaceOnUse"
     x1="10"
     x2="10"
     y1="-8"
     y2="5">
    <stop
       offset="0"
       stop-color="#ffa154"
       id="stop2" />
    <stop
       offset="1"
       stop-color="#f37329"
       id="stop4" />
  </linearGradient>
  <linearGradient
     id="b"
     gradientTransform="matrix(0,-0.59098524,0.65103773,0,-25.921644,17.536343)"
     gradientUnits="userSpaceOnUse"
     x1="38.910011"
     x2="24.596796"
     y1="60.471832"
     y2="60.55201">
    <stop
       offset="0"
       stop-color="#fff"
       id="stop7" />
    <stop
       offset=".46985772"
       stop-color="#fff"
       stop-opacity=".235294"
       id="stop9" />
    <stop
       offset=".68658012"
       stop-color="#fff"
       stop-opacity=".156863"
       id="stop11" />
    <stop
       offset="1"
       stop-color="#fff"
       stop-opacity=".392157"
       id="stop13" />
  </linearGradient>
  <linearGradient
     id="c"
     gradientUnits="userSpaceOnUse"
     x1="12"
     x2="12"
     xlink:href="#d"
     y1="25"
     y2="3" />
  <linearGradient
     id="d">
    <stop
       offset="0"
       stop-color="#555"
       id="stop17" />
    <stop
       offset="1"
       stop-color="#666"
       id="stop19" />
  </linearGradient>
  <linearGradient
     id="e"
     gradientUnits="userSpaceOnUse"
     x1="12"
     x2="12"
     xlink:href="#d"
     y1="31"
     y2="9" />
  <linearGradient
     id="f"
     gradientUnits="userSpaceOnUse"
     x1="12"
     x2="12"
     xlink:href="#d"
     y1="37"
     y2="15" />
  <radialGradient
     id="g"
     cx="24.837126"
     cy="36.421127"
     gradientTransform="matrix(-0.35132358,0,0,-0.1598281,15.904596,12.593033)"
     gradientUnits="userSpaceOnUse"
     r="15.644737">
    <stop
       offset="0"
       id="stop24" />
    <stop
       offset="1"
       stop-opacity="0"
       id="stop26" />
  </radialGradient>
  <path
     d="m19.5 17.5v3h11v-3z"
     fill="url(#e)"
     id="path29" />
  <path
     d="m19.5 17.5v3h11v-3z"
     fill="none"
     opacity=".61"
     stroke="#000"
     stroke-linejoin="round"
     id="path31" />
  <path
     d="m20 18v2h1v-1h9v-1z"
     fill="#fff"
     opacity=".2"
     id="path33" />
  <path
     d="m19.5 11.5v3h11v-3z"
     fill="url(#c)"
     id="path35" />
  <path
     d="m19.5 11.5v3h11v-3z"
     fill="none"
     opacity=".61"
     stroke="#000"
     stroke-linejoin="round"
     id="path37" />
  <path
     d="m20 12v2h1v-1h9v-1z"
     fill="#fff"
     opacity=".2"
     id="path39" />
  <path
     d="m19.5 23.5v3h8v-3z"
     fill="url(#f)"
     id="path41" />
  <path
     d="m19.5 23.5v3h8v-3z"
     fill="none"
     opacity=".61"
     stroke="#000"
     stroke-linejoin="round"
     id="path43" />
  <path
     d="m20 24v2h1v-1h6v-1z"
     fill="#fff"
     opacity=".2"
     id="path45" />
  <g
     transform="translate(0 16)"
     id="g73">
    <g
       fill="#fbfbfb"
       transform="translate(0 1)"
       id="g53">
      <path
         d="m19-9h11v1h-11z"
         opacity=".4"
         id="path47" />
      <path
         d="m19-12h3v1h-3z"
         opacity=".4"
         id="path49" />
      <path
         d="m3.031296-9h11.709195v1h-11.709195z"
         opacity=".4"
         id="path51" />
    </g>
    <g
       fill="#4d4d4d"
       id="g61">
      <path
         d="m19-9h11v1h-11z"
         opacity=".4"
         id="path55" />
      <path
         d="m19-12h3v1h-3z"
         opacity=".4"
         id="path57" />
      <path
         d="m3.031296-9h11.709195v1h-11.709195z"
         opacity=".4"
         id="path59" />
    </g>
    <g
       transform="matrix(-1.4192929,0,0,1.33333,20.562268,-5.500391)"
       id="g71">
      <path
         d="M 1.6832829,5.7683193 C 1.6813054,2.4334625 12.178861,3.1709546 12.180838,6.5058114 12.178862,9.8388689 1.6813064,9.1013774 1.6832829,5.7683193 Z"
         fill="url(#g)"
         fill-rule="evenodd"
         opacity="0.2"
         id="path63"
         style="fill:url(#g)" />
      <g
         transform="matrix(0.7045762,0,0,0.75000188,-1.01025,4.875305)"
         id="g69">
        <path
           d="M 11.755859,-7.5 A 0.24916896,0.24916896 0 0 0 11.5,-7.25 V -3.5 H 3.75 A 0.24916896,0.24916896 0 0 0 3.5,-3.25 v 3.5 A 0.24916896,0.24916896 0 0 0 3.75,0.5 h 7.75 v 3.75 a 0.24916896,0.24916896 0 0 0 0.416016,0.1875 l 6.5,-5.75 a 0.24916896,0.24916896 0 0 0 0,-0.375 l -6.5,-5.75 A 0.24916896,0.24916896 0 0 0 11.755859,-7.5 Z"
           fill="url(#a)"
           stroke="#a62100"
           stroke-linecap="round"
           stroke-linejoin="round"
           stroke-opacity="0.501961"
           id="path65"
           style="fill:url(#a)" />
        <path
           d="M 12.5,2.5789456 17.099437,-1.5 12.5,-5.5859375 12.494549,-2.500555 4.5,-2.5 4.482655,-0.48330874 12.5,-0.5 Z"
           display="block"
           fill="none"
           opacity="0.5"
           stroke="url(#b)"
           id="path67"
           style="stroke:url(#b)" />
      </g>
    </g>
  </g>
</svg>
