<?xml version="1.0" encoding="UTF-8" standalone="no"?>
<svg
   xmlns:dc="http://purl.org/dc/elements/1.1/"
   xmlns:cc="http://creativecommons.org/ns#"
   xmlns:rdf="http://www.w3.org/1999/02/22-rdf-syntax-ns#"
   xmlns:svg="http://www.w3.org/2000/svg"
   xmlns="http://www.w3.org/2000/svg"
   xmlns:xlink="http://www.w3.org/1999/xlink"
   xmlns:sodipodi="http://sodipodi.sourceforge.net/DTD/sodipodi-0.dtd"
   xmlns:inkscape="http://www.inkscape.org/namespaces/inkscape"
   height="32"
   viewBox="0 0 8.4666665 8.4666669"
   width="32"
   version="1.1"
   id="svg155"
   sodipodi:docname="inserttableColumn.svg"
   inkscape:version="1.0.2 (e86c870879, 2021-01-15)">
  <metadata
     id="metadata161">
    <rdf:RDF>
      <cc:Work
         rdf:about="">
        <dc:format>image/svg+xml</dc:format>
        <dc:type
           rdf:resource="http://purl.org/dc/dcmitype/StillImage" />
      </cc:Work>
    </rdf:RDF>
  </metadata>
  <defs
     id="defs159" />
  <sodipodi:namedview
     pagecolor="#ffffff"
     bordercolor="#666666"
     borderopacity="1"
     objecttolerance="10"
     gridtolerance="10"
     guidetolerance="10"
     inkscape:pageopacity="0"
     inkscape:pageshadow="2"
     inkscape:window-width="1920"
     inkscape:window-height="1019"
     id="namedview157"
     showgrid="false"
     inkscape:zoom="6.5390625"
     inkscape:cx="-5.8179457"
     inkscape:cy="8.7623373"
     inkscape:window-x="0"
     inkscape:window-y="0"
     inkscape:window-maximized="1"
     inkscape:current-layer="svg155" />
  <radialGradient
     id="a"
     cx="65.324997"
     cy="48.709"
     gradientTransform="matrix(0,0.68598,-0.74626,0,60.288,-27.737)"
     gradientUnits="userSpaceOnUse"
     r="31">
    <stop
       offset="0"
       stop-color="#d1ff82"
       id="stop2" />
    <stop
       offset=".262"
       stop-color="#9bdb4d"
       id="stop4" />
    <stop
       offset=".661"
       stop-color="#68b723"
       id="stop6" />
    <stop
       offset="1"
       stop-color="#3a9104"
       id="stop8" />
  </radialGradient>
  <linearGradient
     id="b"
     gradientTransform="matrix(0.4227,0,0,0.38513,14.545,15.083)"
     gradientUnits="userSpaceOnUse"
     x1="24.139"
     x2="24.139"
     xlink:href="#c"
     y1="10.171"
     y2="36.136002" />
  <linearGradient
     id="c">
    <stop
       offset="0"
       stop-color="#fff"
       id="stop12" />
    <stop
       offset="0"
       stop-color="#fff"
       stop-opacity=".235"
       id="stop14" />
    <stop
       offset="1"
       stop-color="#fff"
       stop-opacity=".157"
       id="stop16" />
    <stop
       offset="1"
       stop-color="#fff"
       stop-opacity=".392"
       id="stop18" />
  </linearGradient>
  <linearGradient
     id="d"
     xlink:href="#c" />
  <linearGradient
     id="e"
     gradientTransform="matrix(0.38833,0,0,0.41842,15.3,14.318)"
     gradientUnits="userSpaceOnUse"
     x1="24.139"
     x2="24.139"
     xlink:href="#c"
     y1="20.749001"
     y2="25.528" />
  <linearGradient
     id="f"
     gradientTransform="matrix(-.26458333 0 0 .26458333 3.704167 3.439583)"
     gradientUnits="userSpaceOnUse"
     x1="3"
     x2="3"
     xlink:href="#q"
     y1="2"
     y2="5.000003" />
  <linearGradient
     id="g"
     gradientTransform="matrix(-.26458332 0 0 .26458332 7.408334 .26458)"
     gradientUnits="userSpaceOnUse"
     x1="3"
     x2="3"
     xlink:href="#q"
     y1="2"
     y2="5.000003" />
  <linearGradient
     id="h"
     gradientTransform="matrix(-.26458332 0 0 .26458332 5.55625 .26458)"
     gradientUnits="userSpaceOnUse"
     x1="3"
     x2="3"
     xlink:href="#q"
     y1="2"
     y2="5.000003" />
  <linearGradient
     id="i"
     gradientTransform="matrix(-.26458332 0 0 .26458332 3.704167 .26458)"
     gradientUnits="userSpaceOnUse"
     x1="3"
     x2="3"
     xlink:href="#q"
     y1="2"
     y2="5.000003" />
  <linearGradient
     id="j"
     gradientUnits="userSpaceOnUse"
     x1="15.5"
     x2="15.5"
     y1="1.5"
     y2="7.5">
    <stop
       offset="0"
       stop-color="#d4d4d4"
       id="stop27" />
    <stop
       offset="1"
       stop-color="#abacae"
       id="stop29" />
  </linearGradient>
  <linearGradient
     id="k"
     gradientTransform="matrix(.26458332 0 0 .26458332 1.058332 .26458)"
     gradientUnits="userSpaceOnUse"
     x1="3"
     x2="3"
     xlink:href="#q"
     y1="2"
     y2="5.000003" />
  <linearGradient
     id="l"
     gradientTransform="matrix(.13229166 0 0 .06614583 -1.322965 1.058285)"
     gradientUnits="userSpaceOnUse"
     x1="41.000362"
     x2="41.000362"
     xlink:href="#m"
     y1="16.000725"
     y2="20.000727" />
  <linearGradient
     id="m">
    <stop
       offset="0"
       id="stop34" />
    <stop
       offset="1"
       stop-opacity="0"
       id="stop36" />
  </linearGradient>
  <linearGradient
     id="n"
     gradientTransform="matrix(.04576928 0 0 .00823529 -.542324 25.980548)"
     gradientUnits="userSpaceOnUse"
     x1="302.85715"
     x2="302.85715"
     y1="366.64789"
     y2="609.50507">
    <stop
       offset="0"
       stop-opacity="0"
       id="stop39" />
    <stop
       offset=".5"
       id="stop41" />
    <stop
       offset="1"
       stop-opacity="0"
       id="stop43" />
  </linearGradient>
  <radialGradient
     id="o"
     cx="605.71429"
     cy="486.64789"
     gradientTransform="matrix(-.01566318 0 0 .00823529 14.439577 25.98059)"
     gradientUnits="userSpaceOnUse"
     r="117.14286"
     xlink:href="#m" />
  <radialGradient
     id="p"
     cx="605.71429"
     cy="486.64789"
     gradientTransform="matrix(.01566318 0 0 .00823529 21.560423 25.98059)"
     gradientUnits="userSpaceOnUse"
     r="117.14286"
     xlink:href="#m" />
  <linearGradient
     id="q"
     gradientTransform="matrix(-.26458333 0 0 .26458333 3.704167 3.439583)"
     gradientUnits="userSpaceOnUse"
     x1="3"
     x2="3"
     xlink:href="#c"
     y1="2"
     y2="5.000003" />
  <linearGradient
     id="r"
     gradientTransform="matrix(-.26458333 0 0 .26458333 3.704167 1.85208)"
     gradientUnits="userSpaceOnUse"
     x1="3"
     x2="3"
     xlink:href="#q"
     y1="2"
     y2="5.000003" />
  <linearGradient
     id="s"
     gradientTransform="matrix(-.26458333 0 0 .26458333 3.704167 .26458)"
     gradientUnits="userSpaceOnUse"
     x1="3"
     x2="3"
     xlink:href="#q"
     y1="2"
     y2="5.000003" />
  <linearGradient
     id="t"
     gradientTransform="matrix(-.26458333 0 0 .26458333 3.704167 5.02708)"
     gradientUnits="userSpaceOnUse"
     x1="3"
     x2="3"
     xlink:href="#q"
     y1="2"
     y2="5.000003" />
  <linearGradient
     id="u"
     gradientTransform="matrix(-.26458333 0 0 .26458333 3.704167 6.61458)"
     gradientUnits="userSpaceOnUse"
     x1="3"
     x2="3.000001"
     xlink:href="#q"
     y1="2"
     y2="4.000013" />
  <linearGradient
     id="v"
     gradientTransform="matrix(-.26458333 0 0 .26458333 5.55625 3.439583)"
     gradientUnits="userSpaceOnUse"
     x1="3"
     x2="3"
     xlink:href="#q"
     y1="2"
     y2="5.000003" />
  <linearGradient
     id="w"
     gradientTransform="matrix(-.26458333 0 0 .26458333 5.55625 1.85208)"
     gradientUnits="userSpaceOnUse"
     x1="3"
     x2="3"
     xlink:href="#q"
     y1="2"
     y2="5.000003" />
  <linearGradient
     id="x"
     gradientTransform="matrix(-.26458333 0 0 .26458333 5.55625 .26458)"
     gradientUnits="userSpaceOnUse"
     x1="3"
     x2="3"
     xlink:href="#q"
     y1="2"
     y2="5.000003" />
  <linearGradient
     id="y"
     gradientTransform="matrix(-.26458333 0 0 .26458333 5.55625 5.02708)"
     gradientUnits="userSpaceOnUse"
     x1="3"
     x2="3"
     xlink:href="#q"
     y1="2"
     y2="5.000003" />
  <linearGradient
     id="z"
     gradientTransform="matrix(-.26458333 0 0 .26458333 5.55625 6.61458)"
     gradientUnits="userSpaceOnUse"
     x1="3"
     x2="3.000001"
     xlink:href="#q"
     y1="2"
     y2="4.000013" />
  <linearGradient
     id="A"
     gradientTransform="matrix(-.26458333 0 0 .26458333 7.408334 3.439583)"
     gradientUnits="userSpaceOnUse"
     x1="3"
     x2="3"
     xlink:href="#q"
     y1="2"
     y2="5.000003" />
  <linearGradient
     id="B"
     gradientTransform="matrix(-.26458333 0 0 .26458333 7.408334 1.85208)"
     gradientUnits="userSpaceOnUse"
     x1="3"
     x2="3"
     xlink:href="#q"
     y1="2"
     y2="5.000003" />
  <linearGradient
     id="C"
     gradientTransform="matrix(-.26458333 0 0 .26458333 7.408334 .26458)"
     gradientUnits="userSpaceOnUse"
     x1="3"
     x2="3"
     xlink:href="#q"
     y1="2"
     y2="5.000003" />
  <linearGradient
     id="D"
     gradientTransform="matrix(-.26458333 0 0 .26458333 7.408334 5.02708)"
     gradientUnits="userSpaceOnUse"
     x1="3"
     x2="3"
     xlink:href="#q"
     y1="2"
     y2="5.000003" />
  <linearGradient
     id="E"
     gradientTransform="matrix(-.26458333 0 0 .26458333 7.408334 6.61458)"
     gradientUnits="userSpaceOnUse"
     x1="3"
     x2="3.000001"
     xlink:href="#q"
     y1="2"
     y2="4.000013" />
  <linearGradient
     id="F"
     gradientTransform="matrix(-.26458333 0 0 .26458333 1.852084 3.439583)"
     gradientUnits="userSpaceOnUse"
     x1="3"
     x2="3"
     xlink:href="#q"
     y1="2"
     y2="5.000003" />
  <linearGradient
     id="G"
     gradientTransform="matrix(-.26458333 0 0 .26458333 1.852084 1.85208)"
     gradientUnits="userSpaceOnUse"
     x1="3"
     x2="3"
     xlink:href="#q"
     y1="2"
     y2="5.000003" />
  <linearGradient
     id="H"
     gradientTransform="matrix(-.26458333 0 0 .26458333 1.852084 .26458)"
     gradientUnits="userSpaceOnUse"
     x1="3"
     x2="3"
     xlink:href="#q"
     y1="2"
     y2="5.000003" />
  <linearGradient
     id="I"
     gradientTransform="matrix(-.26458333 0 0 .26458333 1.852084 5.02708)"
     gradientUnits="userSpaceOnUse"
     x1="3"
     x2="3"
     xlink:href="#q"
     y1="2"
     y2="5.000003" />
  <linearGradient
     id="J"
     gradientTransform="matrix(-.26458333 0 0 .26458333 1.852084 6.61458)"
     gradientUnits="userSpaceOnUse"
     x1="3"
     x2="3.000001"
     xlink:href="#q"
     y1="2"
     y2="4.000013" />
  <linearGradient
     id="K"
     gradientTransform="matrix(.1573294 0 0 .1586627 -8.008007 -.016355)"
     gradientUnits="userSpaceOnUse"
     x1="24.833029"
     x2="24.833029"
     y1="2.604455"
     y2="51.798176">
    <stop
       offset="0"
       stop-color="#fafafa"
       id="stop68" />
    <stop
       offset="1"
       stop-color="#e2e1de"
       id="stop70" />
  </linearGradient>
  <g
     transform="matrix(.26458333 0 0 .26458333 -.529167 .264583)"
     id="g79">
    <path
       d="m5.0000001 29h26.0000009v2h-26.0000009z"
       fill="url(#n)"
       opacity=".15"
       id="path73" />
    <path
       d="m5.0000001 29.000111v1.99989c-.806615.0038-1.950002-.448074-1.950002-1.000074s.900121-.999816 1.950002-.999816z"
       fill="url(#o)"
       opacity=".15"
       id="path75" />
    <path
       d="m31.000001 29.000111v1.99989c.806614.0038 1.950002-.448074 1.950002-1.000074s-.900122-.999816-1.950002-.999816z"
       fill="url(#p)"
       opacity=".15"
       id="path77" />
  </g>
  <rect
     fill="url(#K)"
     height="7.672933"
     rx=".396875"
     ry=".396891"
     stroke-width="1.3333"
     transform="scale(-1 1)"
     width="7.14375"
     x="-7.805209"
     y=".396859"
     id="rect81" />
  <path
     d="m3.9980469 1c-1.1064402 0-1.9980469.8919999-1.9980469 2v26c0 1.108.8916067 2 1.9980469 2h24.0039061c1.10644 0 1.998047-.892 1.998047-2v-26c0-1.1080001-.891607-2-1.998047-2zm.5019531 1h3.4882812v5h-4.9882812v-3.5c0-.8310001.6690009-1.5 1.5-1.5zm4.4960938 0h5.9960942v5h-5.992188v.9707031h-.0039062zm7.0039062 0h5.998047v5h-5.998047zm7.005859 0h4.494141c.830999 0 1.5.6689999 1.5 1.5v3.5h-5.994141zm-14.005859 6h5.998047l.001953 5.001953h-5.9980469zm7.005859 0h5.996094l-.001953 5h-6zm7.003907 0h5.990234v5h-6zm-20.009766.0019531h4.9921875l.0019531 4.9999999h-4.9882812zm0 5.9980469 4.9941406.033203-.0019531 4.933594h-4.9882813v.033203h-.0039062zm6.0019531 0h5.9980469v5h-6zm6.9980469 0h6v5h-6zm7 0h6v5h-5.994141zm-14 6h6v5l-6-.007812zm7 0h6v5h-6zm13 0v4.996094h-5.996094v1.007812h5.996094v2.496094c0 .207749-.04148.404407-.117188.583984v.001954c-.227485.537838-.760176.914062-1.382812.914062h-4.5l.003906-9.992188zm-26 .001953h4.9921875v4.990235l-4.9921875.009765zm0 5.998047h5v4h-3.5c-.8309991 0-1.5-.669-1.5-1.5zm6 0h6v4h-6zm7 0 6 .007812-.007812 3.992188h-5.992188z"
     opacity=".3"
     transform="scale(.26458333)"
     id="path83" />
  <g
     fill="none"
     stroke-width=".264583"
     id="g125">
    <path
       d="m3.8364584 3.8364616h-1.3229165l-.0000002 1.0583307h1.3229167z"
       stroke="url(#f)"
       id="path85" />
    <path
       d="m3.8364583 2.2489583h-1.3229165l-.0000002 1.0583307h1.3229167z"
       stroke="url(#r)"
       id="path87" />
    <path
       d="m3.8364583.66145834h-1.3229165l-.0000002 1.05833066h1.3229167z"
       stroke="url(#s)"
       id="path89" />
    <path
       d="m3.8364583 5.4239584h-1.3229165l-.0000002 1.0583307h1.3229167z"
       stroke="url(#t)"
       id="path91" />
    <path
       d="m3.8364583 7.0114584h-1.3229165l-.0000002.79375h1.3229167z"
       stroke="url(#u)"
       id="path93" />
    <path
       d="m5.6885416 3.8364616h-1.3229165l-.0000002 1.0583307h1.3229167z"
       stroke="url(#v)"
       id="path95" />
    <path
       d="m5.6885415 2.2489583h-1.3229165l-.0000002 1.0583307h1.3229167z"
       stroke="url(#w)"
       id="path97" />
    <path
       d="m5.6885415.66145834h-1.3229165l-.0000002 1.05833066h1.3229167z"
       stroke="url(#x)"
       id="path99" />
    <path
       d="m5.6885415 5.4239584h-1.3229165l-.0000002 1.0583307h1.3229167z"
       stroke="url(#y)"
       id="path101" />
    <path
       d="m5.6885415 7.0114584h-1.3229165l-.0000002.79375h1.3229167z"
       stroke="url(#z)"
       id="path103" />
    <path
       d="m7.540625 3.8364616h-1.3229165l-.0000002 1.0583307h1.3229167z"
       stroke="url(#A)"
       id="path105" />
    <path
       d="m7.5406249 2.2489583h-1.3229165l-.0000002 1.0583307h1.3229167z"
       stroke="url(#B)"
       id="path107" />
    <path
       d="m7.5406249.66145834h-1.3229165l-.0000002 1.05833066h1.3229167z"
       stroke="url(#C)"
       id="path109" />
    <path
       d="m7.5406249 5.4239584h-1.3229165l-.0000002 1.0583307h1.3229167z"
       stroke="url(#D)"
       id="path111" />
    <path
       d="m7.5406249 7.0114584h-1.3229165l-.0000002.79375h1.3229167z"
       stroke="url(#E)"
       id="path113" />
    <path
       d="m1.9843751 3.8364616h-1.05833333l-.0000002 1.0583307h1.05833353z"
       stroke="url(#F)"
       id="path115" />
    <path
       d="m1.984375 2.2489583h-1.05833333l-.0000002 1.0583307h1.05833353z"
       stroke="url(#G)"
       id="path117" />
    <path
       d="m1.984375.66145834h-1.05833333l-.0000002 1.05833066h1.05833353z"
       stroke="url(#H)"
       id="path119" />
    <path
       d="m1.984375 5.4239584h-1.05833333l-.0000002 1.0583307h1.05833353z"
       stroke="url(#I)"
       id="path121" />
    <path
       d="m1.984375 7.0114584h-1.05833333l-.0000002.79375h1.05833353z"
       stroke="url(#J)"
       id="path123" />
  </g>
  <path
     d="m4 1.5c-.831 0-1.5.6689665-1.5 1.5v4.5h27v-4.5c0-.8310335-.669-1.5-1.5-1.5z"
     fill="url(#j)"
     stroke-width="5.039244"
     transform="scale(.26458333)"
     id="path127" />
  <path
     d="m3.9980469 1c-1.1064402 0-1.9980469.8919999-1.9980469 2v5h7 5.998047 1.007812 5.996094 1.007813 5.990234 1v-5c0-1.1080001-.891607-2-1.998047-2zm.5019531 1h3.4882812v5h-4.9882812v-3.5c0-.8310001.6690009-1.5 1.5-1.5zm4.4960938 0h5.9960942v5h-5.992188v.9707031h-.0039062zm7.0039062 0h5.998047v5h-5.998047zm7.005859 0h4.494141c.830999 0 1.5.6689999 1.5 1.5v3.5h-5.994141z"
     fill="#555761"
     fill-opacity=".501961"
     transform="scale(.26458333)"
     id="path129" />
  <g
     stroke-width=".264583"
     id="g143">
    <g
       fill="none"
       id="g139">
      <path
         d="m3.8364583.66145843h-1.3229165l-.0000002 1.05833057h1.3229167z"
         opacity=".8"
         stroke="url(#i)"
         id="path131" />
      <path
         d="m5.6885414.66145843h-1.3229164l-.0000003 1.05833057h1.3229167z"
         opacity=".8"
         stroke="url(#h)"
         id="path133" />
      <path
         d="m7.540625.92604167c0-.13229167-.1116211-.26458333-.2645833-.26458333l-1.0583333.00000009-.0000003 1.05833057h1.3229167z"
         opacity=".8"
         stroke="url(#g)"
         id="path135" />
      <path
         d="m.92604113.92604167c0-.13229167.11162107-.26458333.26458327-.26458333h.7937506l.0000003 1.05833056-1.05833397.0000001z"
         opacity=".8"
         stroke="url(#k)"
         id="path137" />
    </g>
    <path
       d="m.52916667 2.1166667 7.40828523-.0000482v.2645833l-7.40828523.0000482z"
       fill="url(#l)"
       opacity=".15"
       id="path141" />
  </g>
  <g
     transform="matrix(0.2018506,0,0,0.2018506,1.6760699,1.9651934)"
     id="g153">
    <path
       d="m 21.5,21.5 v -4 h 5 v 4 h 4 l 0.007,5 H 26.5 v 4.007 h -5 V 26.5 h -4 v -5 z"
       fill="url(#a)"
       stroke="#206b00"
       stroke-linecap="round"
       stroke-linejoin="round"
       stroke-opacity="0.501961"
       id="path145"
       style="fill:url(#a)" />
    <g
       fill="none"
       id="g151">
      <path
         d="M 22.5,23.003 V 18.5 h 3 v 4.497 m 0,2.003 v 4.5 h -3 V 25"
         opacity="0.5"
         stroke="url(#b)"
         id="path147"
         style="stroke:url(#b)" />
      <path
         d="m 26,22.512 3.5,-0.01 v 2.987 l -3.5,0.01 m -4,0 -3.5,-0.01 V 22.5 l 3.5,0.012"
         opacity="0.5"
         stroke="url(#e)"
         id="path149"
         style="stroke:url(#e)" />
    </g>
  </g>
  <rect
     style="fill:#00ff00;stroke-width:0.0398409;stop-color:#000000;fill-opacity:0.69546133"
     id="rect986"
     width="7.0242233"
     height="1.8016585"
     x="0.79374999"
     y="3.4641962" />
  <path
     style="fill:#008000;stroke:#ffffff;stroke-width:0.00990077px;stroke-linecap:butt;stroke-linejoin:miter;stroke-opacity:1"
     d="M 3.6058555,1.7660665 2.5135418,2.2489583 2.9800406,3.3485625 3.1827855,2.825412 C 4.02071,2.89203 4.4595388,4.306797 2.3443415,4.3508649 3.9925481,5.0987793 5.3564892,3.0343758 3.3843234,2.3044698 Z"
     id="path1002"
     sodipodi:nodetypes="ccccccc" />
</svg>
