<?xml version="1.0" encoding="UTF-8" standalone="no"?>
<svg
   xmlns:dc="http://purl.org/dc/elements/1.1/"
   xmlns:cc="http://creativecommons.org/ns#"
   xmlns:rdf="http://www.w3.org/1999/02/22-rdf-syntax-ns#"
   xmlns:svg="http://www.w3.org/2000/svg"
   xmlns="http://www.w3.org/2000/svg"
   xmlns:xlink="http://www.w3.org/1999/xlink"
   xmlns:sodipodi="http://sodipodi.sourceforge.net/DTD/sodipodi-0.dtd"
   xmlns:inkscape="http://www.inkscape.org/namespaces/inkscape"
   height="32"
   viewBox="0 0 8.4666665 8.4666669"
   width="32"
   version="1.1"
   id="svg155"
   sodipodi:docname="print.svg"
   inkscape:version="1.0.2 (e86c870879, 2021-01-15)">
  <metadata
     id="metadata161">
    <rdf:RDF>
      <cc:Work
         rdf:about="">
        <dc:format>image/svg+xml</dc:format>
        <dc:type
           rdf:resource="http://purl.org/dc/dcmitype/StillImage" />
        <dc:title />
      </cc:Work>
    </rdf:RDF>
  </metadata>
  <defs
     id="defs159">
    <linearGradient
       id="linearGradient1536"
       gradientTransform="matrix(0.04576928,0,0,0.00823529,-0.542324,25.980548)"
       gradientUnits="userSpaceOnUse"
       x1="302.85715"
       x2="302.85715"
       y1="366.64789"
       y2="609.50507">
      <stop
         offset="0"
         stop-opacity="0"
         id="stop39-3" />
      <stop
         offset=".5"
         id="stop41-6" />
      <stop
         offset="1"
         stop-opacity="0"
         id="stop43-7" />
    </linearGradient>
    <radialGradient
       id="o-5"
       cx="605.71429"
       cy="486.64789"
       gradientTransform="matrix(-0.01566318,0,0,0.00823529,14.439577,25.98059)"
       gradientUnits="userSpaceOnUse"
       r="117.14286"
       xlink:href="#m" />
    <linearGradient
       id="linearGradient1541">
      <stop
         offset="0"
         id="stop34-3" />
      <stop
         offset="1"
         stop-opacity="0"
         id="stop36-5" />
    </linearGradient>
    <radialGradient
       id="p-6"
       cx="605.71429"
       cy="486.64789"
       gradientTransform="matrix(0.01566318,0,0,0.00823529,21.560423,25.98059)"
       gradientUnits="userSpaceOnUse"
       r="117.14286"
       xlink:href="#m" />
    <linearGradient
       id="linearGradient1546"
       gradientTransform="matrix(0.1573294,0,0,0.1586627,-8.008007,-0.016355)"
       gradientUnits="userSpaceOnUse"
       x1="24.833029"
       x2="24.833029"
       y1="2.604455"
       y2="51.798176">
      <stop
         offset="0"
         stop-color="#fafafa"
         id="stop68-2" />
      <stop
         offset="1"
         stop-color="#e2e1de"
         id="stop70-9" />
    </linearGradient>
    <linearGradient
       id="linearGradient1548"
       gradientTransform="matrix(-0.26458333,0,0,0.26458333,3.704167,3.439583)"
       gradientUnits="userSpaceOnUse"
       x1="3"
       x2="3"
       xlink:href="#c"
       y1="2"
       y2="5.0000029" />
    <linearGradient
       id="linearGradient1554">
      <stop
         offset="0"
         stop-color="#fff"
         id="stop12-1" />
      <stop
         offset="0"
         stop-color="#fff"
         stop-opacity=".235"
         id="stop14-2" />
      <stop
         offset="1"
         stop-color="#fff"
         stop-opacity=".157"
         id="stop16-7" />
      <stop
         offset="1"
         stop-color="#fff"
         stop-opacity=".392"
         id="stop18-0" />
    </linearGradient>
    <linearGradient
       id="linearGradient1556"
       gradientTransform="matrix(-0.26458333,0,0,0.26458333,3.704167,1.85208)"
       gradientUnits="userSpaceOnUse"
       x1="3"
       x2="3"
       xlink:href="#c"
       y1="2"
       y2="5.0000029" />
    <linearGradient
       id="linearGradient1558"
       gradientTransform="matrix(-0.26458333,0,0,0.26458333,3.704167,0.26458)"
       gradientUnits="userSpaceOnUse"
       x1="3"
       x2="3"
       xlink:href="#c"
       y1="2"
       y2="5.0000029" />
    <linearGradient
       id="linearGradient1560"
       gradientTransform="matrix(-0.26458333,0,0,0.26458333,3.704167,5.02708)"
       gradientUnits="userSpaceOnUse"
       x1="3"
       x2="3"
       xlink:href="#c"
       y1="2"
       y2="5.0000029" />
    <linearGradient
       id="linearGradient1562"
       gradientTransform="matrix(-0.26458333,0,0,0.26458333,3.704167,6.61458)"
       gradientUnits="userSpaceOnUse"
       x1="3"
       x2="3.000001"
       xlink:href="#c"
       y1="2"
       y2="4.0000129" />
    <linearGradient
       id="linearGradient1564"
       gradientTransform="matrix(-0.26458333,0,0,0.26458333,5.55625,3.439583)"
       gradientUnits="userSpaceOnUse"
       x1="3"
       x2="3"
       xlink:href="#c"
       y1="2"
       y2="5.0000029" />
    <linearGradient
       id="linearGradient1566"
       gradientTransform="matrix(-0.26458333,0,0,0.26458333,5.55625,1.85208)"
       gradientUnits="userSpaceOnUse"
       x1="3"
       x2="3"
       xlink:href="#c"
       y1="2"
       y2="5.0000029" />
    <linearGradient
       id="linearGradient1568"
       gradientTransform="matrix(-0.26458333,0,0,0.26458333,5.55625,0.26458)"
       gradientUnits="userSpaceOnUse"
       x1="3"
       x2="3"
       xlink:href="#c"
       y1="2"
       y2="5.0000029" />
    <linearGradient
       id="linearGradient1570"
       gradientTransform="matrix(-0.26458333,0,0,0.26458333,5.55625,5.02708)"
       gradientUnits="userSpaceOnUse"
       x1="3"
       x2="3"
       xlink:href="#c"
       y1="2"
       y2="5.0000029" />
    <linearGradient
       id="linearGradient1572"
       gradientTransform="matrix(-0.26458333,0,0,0.26458333,5.55625,6.61458)"
       gradientUnits="userSpaceOnUse"
       x1="3"
       x2="3.000001"
       xlink:href="#c"
       y1="2"
       y2="4.0000129" />
    <linearGradient
       id="linearGradient1574"
       gradientTransform="matrix(-0.26458333,0,0,0.26458333,7.408334,3.439583)"
       gradientUnits="userSpaceOnUse"
       x1="3"
       x2="3"
       xlink:href="#c"
       y1="2"
       y2="5.0000029" />
    <linearGradient
       id="linearGradient1576"
       gradientTransform="matrix(-0.26458333,0,0,0.26458333,7.408334,1.85208)"
       gradientUnits="userSpaceOnUse"
       x1="3"
       x2="3"
       xlink:href="#c"
       y1="2"
       y2="5.0000029" />
    <linearGradient
       id="linearGradient1578"
       gradientTransform="matrix(-0.26458333,0,0,0.26458333,7.408334,0.26458)"
       gradientUnits="userSpaceOnUse"
       x1="3"
       x2="3"
       xlink:href="#c"
       y1="2"
       y2="5.0000029" />
    <linearGradient
       id="linearGradient1580"
       gradientTransform="matrix(-0.26458333,0,0,0.26458333,7.408334,5.02708)"
       gradientUnits="userSpaceOnUse"
       x1="3"
       x2="3"
       xlink:href="#c"
       y1="2"
       y2="5.0000029" />
    <linearGradient
       id="linearGradient1582"
       gradientTransform="matrix(-0.26458333,0,0,0.26458333,7.408334,6.61458)"
       gradientUnits="userSpaceOnUse"
       x1="3"
       x2="3.000001"
       xlink:href="#c"
       y1="2"
       y2="4.0000129" />
    <linearGradient
       id="linearGradient1584"
       gradientTransform="matrix(-0.26458333,0,0,0.26458333,1.852084,3.439583)"
       gradientUnits="userSpaceOnUse"
       x1="3"
       x2="3"
       xlink:href="#c"
       y1="2"
       y2="5.0000029" />
    <linearGradient
       id="linearGradient1586"
       gradientTransform="matrix(-0.26458333,0,0,0.26458333,1.852084,1.85208)"
       gradientUnits="userSpaceOnUse"
       x1="3"
       x2="3"
       xlink:href="#c"
       y1="2"
       y2="5.0000029" />
    <linearGradient
       id="linearGradient1588"
       gradientTransform="matrix(-0.26458333,0,0,0.26458333,1.852084,0.26458)"
       gradientUnits="userSpaceOnUse"
       x1="3"
       x2="3"
       xlink:href="#c"
       y1="2"
       y2="5.0000029" />
    <linearGradient
       id="linearGradient1590"
       gradientTransform="matrix(-0.26458333,0,0,0.26458333,1.852084,5.02708)"
       gradientUnits="userSpaceOnUse"
       x1="3"
       x2="3"
       xlink:href="#c"
       y1="2"
       y2="5.0000029" />
    <linearGradient
       id="linearGradient1592"
       gradientTransform="matrix(-0.26458333,0,0,0.26458333,1.852084,6.61458)"
       gradientUnits="userSpaceOnUse"
       x1="3"
       x2="3.000001"
       xlink:href="#c"
       y1="2"
       y2="4.0000129" />
    <linearGradient
       id="linearGradient1596"
       gradientUnits="userSpaceOnUse"
       x1="15.5"
       x2="15.5"
       y1="1.5"
       y2="7.5">
      <stop
         offset="0"
         stop-color="#d4d4d4"
         id="stop27-9" />
      <stop
         offset="1"
         stop-color="#abacae"
         id="stop29-3" />
    </linearGradient>
    <linearGradient
       id="linearGradient1598"
       gradientTransform="matrix(-0.26458332,0,0,0.26458332,3.704167,0.26458)"
       gradientUnits="userSpaceOnUse"
       x1="3"
       x2="3"
       xlink:href="#c"
       y1="2"
       y2="5.0000029" />
    <linearGradient
       id="linearGradient1600"
       gradientTransform="matrix(-0.26458332,0,0,0.26458332,5.55625,0.26458)"
       gradientUnits="userSpaceOnUse"
       x1="3"
       x2="3"
       xlink:href="#c"
       y1="2"
       y2="5.0000029" />
    <linearGradient
       id="linearGradient1602"
       gradientTransform="matrix(-0.26458332,0,0,0.26458332,7.408334,0.26458)"
       gradientUnits="userSpaceOnUse"
       x1="3"
       x2="3"
       xlink:href="#c"
       y1="2"
       y2="5.0000029" />
    <linearGradient
       id="linearGradient1604"
       gradientTransform="matrix(0.26458332,0,0,0.26458332,1.058332,0.26458)"
       gradientUnits="userSpaceOnUse"
       x1="3"
       x2="3"
       xlink:href="#c"
       y1="2"
       y2="5.0000029" />
    <linearGradient
       id="linearGradient1606"
       gradientTransform="matrix(0.13229166,0,0,0.06614583,-1.322965,1.058285)"
       gradientUnits="userSpaceOnUse"
       x1="41.000362"
       x2="41.000362"
       xlink:href="#m"
       y1="16.000725"
       y2="20.000727" />
    <marker
       style="overflow:visible"
       id="TriangleOutL"
       refX="0"
       refY="0"
       orient="auto"
       inkscape:stockid="TriangleOutL"
       inkscape:isstock="true">
      <path
         transform="scale(0.8)"
         style="fill:#000000;fill-opacity:1;fill-rule:evenodd;stroke:#000000;stroke-width:1pt;stroke-opacity:1"
         d="M 5.77,0 -2.88,5 V -5 Z"
         id="path1147" />
    </marker>
  </defs>
  <sodipodi:namedview
     pagecolor="#ffffff"
     bordercolor="#666666"
     borderopacity="1"
     objecttolerance="10"
     gridtolerance="10"
     guidetolerance="10"
     inkscape:pageopacity="0"
     inkscape:pageshadow="2"
     inkscape:window-width="1745"
     inkscape:window-height="1018"
     id="namedview157"
     showgrid="false"
     inkscape:zoom="13.078125"
     inkscape:cx="24.014052"
     inkscape:cy="21.784436"
     inkscape:window-x="48"
     inkscape:window-y="25"
     inkscape:window-maximized="0"
     inkscape:current-layer="svg155"
     inkscape:document-rotation="0" />
  <radialGradient
     id="a"
     cx="65.324997"
     cy="48.709"
     gradientTransform="matrix(0,0.68598,-0.74626,0,60.288,-27.737)"
     gradientUnits="userSpaceOnUse"
     r="31">
    <stop
       offset="0"
       stop-color="#d1ff82"
       id="stop2" />
    <stop
       offset=".262"
       stop-color="#9bdb4d"
       id="stop4" />
    <stop
       offset=".661"
       stop-color="#68b723"
       id="stop6" />
    <stop
       offset="1"
       stop-color="#3a9104"
       id="stop8" />
  </radialGradient>
  <linearGradient
     id="b"
     gradientTransform="matrix(0.4227,0,0,0.38513,14.545,15.083)"
     gradientUnits="userSpaceOnUse"
     x1="24.139"
     x2="24.139"
     xlink:href="#c"
     y1="10.171"
     y2="36.136002" />
  <linearGradient
     id="c">
    <stop
       offset="0"
       stop-color="#fff"
       id="stop12" />
    <stop
       offset="0"
       stop-color="#fff"
       stop-opacity=".235"
       id="stop14" />
    <stop
       offset="1"
       stop-color="#fff"
       stop-opacity=".157"
       id="stop16" />
    <stop
       offset="1"
       stop-color="#fff"
       stop-opacity=".392"
       id="stop18" />
  </linearGradient>
  <linearGradient
     id="d"
     xlink:href="#c" />
  <linearGradient
     id="e"
     gradientTransform="matrix(0.38833,0,0,0.41842,15.3,14.318)"
     gradientUnits="userSpaceOnUse"
     x1="24.139"
     x2="24.139"
     xlink:href="#c"
     y1="20.749001"
     y2="25.528" />
  <linearGradient
     id="f"
     gradientTransform="matrix(-.26458333 0 0 .26458333 3.704167 3.439583)"
     gradientUnits="userSpaceOnUse"
     x1="3"
     x2="3"
     xlink:href="#q"
     y1="2"
     y2="5.000003" />
  <linearGradient
     id="g"
     gradientTransform="matrix(-.26458332 0 0 .26458332 7.408334 .26458)"
     gradientUnits="userSpaceOnUse"
     x1="3"
     x2="3"
     xlink:href="#q"
     y1="2"
     y2="5.000003" />
  <linearGradient
     id="h"
     gradientTransform="matrix(-.26458332 0 0 .26458332 5.55625 .26458)"
     gradientUnits="userSpaceOnUse"
     x1="3"
     x2="3"
     xlink:href="#q"
     y1="2"
     y2="5.000003" />
  <linearGradient
     id="i"
     gradientTransform="matrix(-.26458332 0 0 .26458332 3.704167 .26458)"
     gradientUnits="userSpaceOnUse"
     x1="3"
     x2="3"
     xlink:href="#q"
     y1="2"
     y2="5.000003" />
  <linearGradient
     id="j"
     gradientUnits="userSpaceOnUse"
     x1="15.5"
     x2="15.5"
     y1="1.5"
     y2="7.5">
    <stop
       offset="0"
       stop-color="#d4d4d4"
       id="stop27" />
    <stop
       offset="1"
       stop-color="#abacae"
       id="stop29" />
  </linearGradient>
  <linearGradient
     id="k"
     gradientTransform="matrix(.26458332 0 0 .26458332 1.058332 .26458)"
     gradientUnits="userSpaceOnUse"
     x1="3"
     x2="3"
     xlink:href="#q"
     y1="2"
     y2="5.000003" />
  <linearGradient
     id="l"
     gradientTransform="matrix(.13229166 0 0 .06614583 -1.322965 1.058285)"
     gradientUnits="userSpaceOnUse"
     x1="41.000362"
     x2="41.000362"
     xlink:href="#m"
     y1="16.000725"
     y2="20.000727" />
  <linearGradient
     id="m">
    <stop
       offset="0"
       id="stop34" />
    <stop
       offset="1"
       stop-opacity="0"
       id="stop36" />
  </linearGradient>
  <linearGradient
     id="n"
     gradientTransform="matrix(.04576928 0 0 .00823529 -.542324 25.980548)"
     gradientUnits="userSpaceOnUse"
     x1="302.85715"
     x2="302.85715"
     y1="366.64789"
     y2="609.50507">
    <stop
       offset="0"
       stop-opacity="0"
       id="stop39" />
    <stop
       offset=".5"
       id="stop41" />
    <stop
       offset="1"
       stop-opacity="0"
       id="stop43" />
  </linearGradient>
  <radialGradient
     id="o"
     cx="605.71429"
     cy="486.64789"
     gradientTransform="matrix(-.01566318 0 0 .00823529 14.439577 25.98059)"
     gradientUnits="userSpaceOnUse"
     r="117.14286"
     xlink:href="#m" />
  <radialGradient
     id="p"
     cx="605.71429"
     cy="486.64789"
     gradientTransform="matrix(.01566318 0 0 .00823529 21.560423 25.98059)"
     gradientUnits="userSpaceOnUse"
     r="117.14286"
     xlink:href="#m" />
  <linearGradient
     id="q"
     gradientTransform="matrix(-.26458333 0 0 .26458333 3.704167 3.439583)"
     gradientUnits="userSpaceOnUse"
     x1="3"
     x2="3"
     xlink:href="#c"
     y1="2"
     y2="5.000003" />
  <linearGradient
     id="r"
     gradientTransform="matrix(-.26458333 0 0 .26458333 3.704167 1.85208)"
     gradientUnits="userSpaceOnUse"
     x1="3"
     x2="3"
     xlink:href="#q"
     y1="2"
     y2="5.000003" />
  <linearGradient
     id="s"
     gradientTransform="matrix(-.26458333 0 0 .26458333 3.704167 .26458)"
     gradientUnits="userSpaceOnUse"
     x1="3"
     x2="3"
     xlink:href="#q"
     y1="2"
     y2="5.000003" />
  <linearGradient
     id="t"
     gradientTransform="matrix(-.26458333 0 0 .26458333 3.704167 5.02708)"
     gradientUnits="userSpaceOnUse"
     x1="3"
     x2="3"
     xlink:href="#q"
     y1="2"
     y2="5.000003" />
  <linearGradient
     id="u"
     gradientTransform="matrix(-.26458333 0 0 .26458333 3.704167 6.61458)"
     gradientUnits="userSpaceOnUse"
     x1="3"
     x2="3.000001"
     xlink:href="#q"
     y1="2"
     y2="4.000013" />
  <linearGradient
     id="v"
     gradientTransform="matrix(-.26458333 0 0 .26458333 5.55625 3.439583)"
     gradientUnits="userSpaceOnUse"
     x1="3"
     x2="3"
     xlink:href="#q"
     y1="2"
     y2="5.000003" />
  <linearGradient
     id="w"
     gradientTransform="matrix(-.26458333 0 0 .26458333 5.55625 1.85208)"
     gradientUnits="userSpaceOnUse"
     x1="3"
     x2="3"
     xlink:href="#q"
     y1="2"
     y2="5.000003" />
  <linearGradient
     id="x"
     gradientTransform="matrix(-.26458333 0 0 .26458333 5.55625 .26458)"
     gradientUnits="userSpaceOnUse"
     x1="3"
     x2="3"
     xlink:href="#q"
     y1="2"
     y2="5.000003" />
  <linearGradient
     id="y"
     gradientTransform="matrix(-.26458333 0 0 .26458333 5.55625 5.02708)"
     gradientUnits="userSpaceOnUse"
     x1="3"
     x2="3"
     xlink:href="#q"
     y1="2"
     y2="5.000003" />
  <linearGradient
     id="z"
     gradientTransform="matrix(-.26458333 0 0 .26458333 5.55625 6.61458)"
     gradientUnits="userSpaceOnUse"
     x1="3"
     x2="3.000001"
     xlink:href="#q"
     y1="2"
     y2="4.000013" />
  <linearGradient
     id="A"
     gradientTransform="matrix(-.26458333 0 0 .26458333 7.408334 3.439583)"
     gradientUnits="userSpaceOnUse"
     x1="3"
     x2="3"
     xlink:href="#q"
     y1="2"
     y2="5.000003" />
  <linearGradient
     id="B"
     gradientTransform="matrix(-.26458333 0 0 .26458333 7.408334 1.85208)"
     gradientUnits="userSpaceOnUse"
     x1="3"
     x2="3"
     xlink:href="#q"
     y1="2"
     y2="5.000003" />
  <linearGradient
     id="C"
     gradientTransform="matrix(-.26458333 0 0 .26458333 7.408334 .26458)"
     gradientUnits="userSpaceOnUse"
     x1="3"
     x2="3"
     xlink:href="#q"
     y1="2"
     y2="5.000003" />
  <linearGradient
     id="D"
     gradientTransform="matrix(-.26458333 0 0 .26458333 7.408334 5.02708)"
     gradientUnits="userSpaceOnUse"
     x1="3"
     x2="3"
     xlink:href="#q"
     y1="2"
     y2="5.000003" />
  <linearGradient
     id="E"
     gradientTransform="matrix(-.26458333 0 0 .26458333 7.408334 6.61458)"
     gradientUnits="userSpaceOnUse"
     x1="3"
     x2="3.000001"
     xlink:href="#q"
     y1="2"
     y2="4.000013" />
  <linearGradient
     id="F"
     gradientTransform="matrix(-.26458333 0 0 .26458333 1.852084 3.439583)"
     gradientUnits="userSpaceOnUse"
     x1="3"
     x2="3"
     xlink:href="#q"
     y1="2"
     y2="5.000003" />
  <linearGradient
     id="G"
     gradientTransform="matrix(-.26458333 0 0 .26458333 1.852084 1.85208)"
     gradientUnits="userSpaceOnUse"
     x1="3"
     x2="3"
     xlink:href="#q"
     y1="2"
     y2="5.000003" />
  <linearGradient
     id="H"
     gradientTransform="matrix(-.26458333 0 0 .26458333 1.852084 .26458)"
     gradientUnits="userSpaceOnUse"
     x1="3"
     x2="3"
     xlink:href="#q"
     y1="2"
     y2="5.000003" />
  <linearGradient
     id="I"
     gradientTransform="matrix(-.26458333 0 0 .26458333 1.852084 5.02708)"
     gradientUnits="userSpaceOnUse"
     x1="3"
     x2="3"
     xlink:href="#q"
     y1="2"
     y2="5.000003" />
  <linearGradient
     id="J"
     gradientTransform="matrix(-.26458333 0 0 .26458333 1.852084 6.61458)"
     gradientUnits="userSpaceOnUse"
     x1="3"
     x2="3.000001"
     xlink:href="#q"
     y1="2"
     y2="4.000013" />
  <linearGradient
     id="K"
     gradientTransform="matrix(.1573294 0 0 .1586627 -8.008007 -.016355)"
     gradientUnits="userSpaceOnUse"
     x1="24.833029"
     x2="24.833029"
     y1="2.604455"
     y2="51.798176">
    <stop
       offset="0"
       stop-color="#fafafa"
       id="stop68" />
    <stop
       offset="1"
       stop-color="#e2e1de"
       id="stop70" />
  </linearGradient>
  <g
     id="g1055"
     transform="matrix(1.0522841,0,0,1.0522841,1.6361405,-0.87598387)">
    <path
       d="M 5.484608,3.747636 H 4.9106795 V 3.1737076 c 0,-0.1474863 -0.1194572,-0.2669435 -0.2669435,-0.2669435 H 4.3767926 V 3.747636 H 0.55950069 V 2.9067641 H 0.29255723 c -0.14748628,0 -0.2669435,0.1194572 -0.2669435,0.2669435 V 3.747636 h -0.57392848 c -0.14748628,0 -0.2669435,0.1194573 -0.2669435,0.2669435 v 1.6194127 1.1301053 c 0,0.1474862 0.11945722,0.2669434 0.2669435,0.2669434 H 5.484608 c 0.1474863,0 0.2669435,-0.1194572 0.2669435,-0.2669434 V 5.6339922 4.0145795 c 0,-0.1474862 -0.1194572,-0.2669435 -0.2669435,-0.2669435 z"
       style="fill:#4dbbeb;stroke-width:0.0133472"
       id="path2" />
    <path
       d="m 5.177623,3.747636 v 0.8008305 c 0,0.1474863 -0.1194572,0.2669435 -0.2669435,0.2669435 H 0.02561373 c -0.14748628,0 -0.26694351,-0.1194572 -0.26694351,-0.2669435 V 3.747636 H 0.02561373 0.55950069 4.3767926 4.9106795 Z"
       style="fill:#57555c;stroke-width:0.0133472"
       id="path4" />
    <g
       id="g10"
       transform="matrix(0.01334718,0,0,0.01334718,-0.94873001,1.4385749)">
      <polygon
         points="399,379 399,419 399,502 113,502 113,419 113,379 "
         style="fill:#c0e3f0"
         id="polygon6" />
      <polygon
         points="399,173 399,110 399,10 193,10 113,90 113,110 113,173 "
         style="fill:#c0e3f0"
         id="polygon8" />
    </g>
    <polygon
       points="113,90 193,10 193,90 "
       style="fill:#feb756"
       id="polygon12"
       transform="matrix(0.01334718,0,0,0.01334718,-0.94873001,1.4385749)" />
    <path
       d="m 3.0420752,4.4149947 c 0.073676,0 0.1334717,-0.059795 0.1334717,-0.1334717 0,-0.073676 -0.059795,-0.1334717 -0.1334717,-0.1334717 -0.073677,0 -0.1334718,0.059795 -0.1334718,0.1334717 0,0.073676 0.059795,0.1334717 0.1334718,0.1334717 z"
       id="path14"
       style="stroke-width:0.0133472" />
    <path
       d="M 5.484608,3.6141643 H 5.177623 5.0441512 V 3.1737076 c 0,-0.220789 -0.1796262,-0.4004153 -0.4004152,-0.4004153 H 4.5102643 V 1.5720466 c 0,-0.073703 -0.059769,-0.1334717 -0.1334717,-0.1334717 H 1.6272747 c -0.00447,0 -0.00892,2.27e-4 -0.013321,6.683e-4 -0.00323,3.178e-4 -0.00639,8.809e-4 -0.00956,0.00143 -0.00112,2.018e-4 -0.00227,2.926e-4 -0.00339,5.215e-4 -0.00382,7.594e-4 -0.00755,0.00175 -0.011252,0.00283 -4.54e-4,1.311e-4 -9.077e-4,2.118e-4 -0.00136,3.481e-4 -0.00375,0.00115 -0.00742,0.0025 -0.011025,0.00395 -4.136e-4,1.614e-4 -8.409e-4,2.825e-4 -0.00124,4.54e-4 -0.0034,0.00141 -0.00669,0.00302 -0.00994,0.0047 -6.278e-4,3.229e-4 -0.00127,5.721e-4 -0.00188,9.063e-4 -0.00292,0.00156 -0.00571,0.00331 -0.0085,0.00509 -9.078e-4,5.721e-4 -0.00186,0.00107 -0.00274,0.00167 -0.00248,0.00167 -0.00485,0.00351 -0.00721,0.00534 -0.00109,8.404e-4 -0.00223,0.00159 -0.0033,0.00247 -0.00244,0.00201 -0.00474,0.00418 -0.00702,0.00637 -8.541e-4,8.151e-4 -0.00177,0.00153 -0.00262,0.00236 L 0.46514908,2.5454477 c -8.4042e-4,8.409e-4 -0.001549,0.00176 -0.002364,0.00262 -0.002177,0.0023 -0.004349,0.00458 -0.006366,0.00702 -8.6573e-4,0.00105 -0.001615,0.00219 -0.00244,0.00327 -0.001843,0.00238 -0.003686,0.00474 -0.005366,0.00725 -5.721e-4,8.678e-4 -0.001053,0.00179 -0.001615,0.00267 -0.001787,0.0028 -0.003549,0.00563 -0.005126,0.00857 -3.3293e-4,6.141e-4 -5.8728e-4,0.00127 -9.0624e-4,0.00188 -0.001681,0.00324 -0.003286,0.00654 -0.004698,0.00994 -1.7152e-4,4.137e-4 -2.9257e-4,8.41e-4 -4.5402e-4,0.00124 -0.001453,0.0036 -0.002805,0.00727 -0.003949,0.011025 -1.3117e-4,4.389e-4 -2.1187e-4,9.077e-4 -3.4806e-4,0.00135 -0.001083,0.00371 -0.002071,0.00745 -0.00283,0.011278 -2.1188e-4,0.00105 -3.0772e-4,0.00214 -4.9438e-4,0.0032 -5.6197e-4,0.00322 -0.001119,0.00645 -0.001453,0.00974 -4.7925e-4,0.0044 -7.0879e-4,0.00885 -7.0879e-4,0.01332 V 2.7732974 H 0.2925585 c -0.22078896,0 -0.40041521,0.1796263 -0.40041521,0.4004152 v 0.4404568 h -0.1334718 -0.30698497 c -0.22078896,0 -0.40041526,0.1796262 -0.40041526,0.4004152 v 2.7495179 c 0,0.2207889 0.1796263,0.4004152 0.40041526,0.4004152 h 0.97434373 v 0.9743438 c 0,0.073703 0.0597686,0.1334716 0.1334717,0.1334716 H 4.3767938 c 0.073703,0 0.1334718,-0.059768 0.1334718,-0.1334716 V 7.1645127 h 0.9743437 c 0.2207889,0 0.4004152,-0.1796263 0.4004152,-0.4004152 v -2.749518 c 0,-0.2207889 -0.1796263,-0.4004152 -0.4004152,-0.4004152 z M -0.10785798,3.8811078 H 5.0441512 v 0.6673587 c 0,0.073596 -0.059875,0.1334718 -0.1334717,0.1334718 H 0.02561373 c -0.07359627,0 -0.13347171,-0.059875 -0.13347171,-0.1334718 z M 4.643736,3.0402359 c 0.073596,0 0.1334718,0.059875 0.1334718,0.1334717 V 3.6141643 H 4.5102643 V 3.0402359 Z M 4.2433208,3.6141643 H 0.69297249 V 2.7732923 H 1.6272747 c 0.073703,0 0.1334717,-0.059769 0.1334717,-0.1334717 V 1.7055184 H 4.2433208 Z M 0.88174155,2.5063488 1.4938029,1.8942875 V 2.5063488 Z M 0.15908548,3.1737076 c 0,-0.073596 0.0598754,-0.1334717 0.13347175,-0.1334717 h 0.13347175 v 0.5739284 h -0.2669435 z m -0.70740023,0.7074002 h 0.17351327 v 0.6673587 c 0,0.220789 0.1796263,0.4004153 0.40041521,0.4004153 H 4.9106795 c 0.220789,0 0.4004152,-0.1796263 0.4004152,-0.4004153 V 3.8811078 H 5.484608 c 0.073596,0 0.1334717,0.059875 0.1334717,0.1334717 v 1.485941 h -6.2998662 v -1.485941 c 0,-0.073596 0.0598754,-0.1334717 0.13347175,-0.1334717 z M 4.2433208,8.0053844 H 0.69297249 V 6.6306257 H 4.2433208 Z M 5.484608,6.8975692 H 4.5102643 V 6.6306257 H 4.643736 c 0.073703,0 0.1334718,-0.059769 0.1334718,-0.1334717 0,-0.073703 -0.059769,-0.1334718 -0.1334718,-0.1334718 H 0.29255723 c -0.0737031,0 -0.13347175,0.059769 -0.13347175,0.1334718 0,0.073703 0.0597687,0.1334717 0.13347175,0.1334717 h 0.13347175 v 0.2669435 h -0.97434373 c -0.0735964,0 -0.13347175,-0.059876 -0.13347175,-0.1334717 V 5.7674639 h 6.2998662 v 0.9966336 c 0,0.073596 -0.059875,0.1334717 -0.1334717,0.1334717 z"
       id="path16"
       style="stroke-width:0.0133472" />
    <path
       d="M 3.5759621,7.1645127 H 1.3603312 c -0.073703,0 -0.1334718,0.059769 -0.1334718,0.1334717 0,0.073703 0.059769,0.1334717 0.1334718,0.1334717 h 2.2156309 c 0.073703,0 0.1334717,-0.059769 0.1334717,-0.1334717 0,-0.073703 -0.059769,-0.1334717 -0.1334717,-0.1334717 z"
       id="path18"
       style="stroke-width:0.0133472" />
    <path
       d="m 3.5759621,4.4149947 h 0.8008305 c 0.073703,0 0.1334717,-0.059769 0.1334717,-0.1334717 0,-0.073703 -0.059769,-0.1334717 -0.1334717,-0.1334717 H 3.5759621 c -0.073703,0 -0.1334717,0.059769 -0.1334717,0.1334717 0,0.073703 0.059769,0.1334717 0.1334717,0.1334717 z"
       id="path20"
       style="stroke-width:0.0133472" />
    <g
       id="g22"
       transform="matrix(0.01334718,0,0,0.01334718,-0.94873001,1.4385749)" />
    <g
       id="g24"
       transform="matrix(0.01334718,0,0,0.01334718,-0.94873001,1.4385749)" />
    <g
       id="g26"
       transform="matrix(0.01334718,0,0,0.01334718,-0.94873001,1.4385749)" />
    <g
       id="g28"
       transform="matrix(0.01334718,0,0,0.01334718,-0.94873001,1.4385749)" />
    <g
       id="g30"
       transform="matrix(0.01334718,0,0,0.01334718,-0.94873001,1.4385749)" />
    <g
       id="g32"
       transform="matrix(0.01334718,0,0,0.01334718,-0.94873001,1.4385749)" />
    <g
       id="g34"
       transform="matrix(0.01334718,0,0,0.01334718,-0.94873001,1.4385749)" />
    <g
       id="g36"
       transform="matrix(0.01334718,0,0,0.01334718,-0.94873001,1.4385749)" />
    <g
       id="g38"
       transform="matrix(0.01334718,0,0,0.01334718,-0.94873001,1.4385749)" />
    <g
       id="g40"
       transform="matrix(0.01334718,0,0,0.01334718,-0.94873001,1.4385749)" />
    <g
       id="g42"
       transform="matrix(0.01334718,0,0,0.01334718,-0.94873001,1.4385749)" />
    <g
       id="g44"
       transform="matrix(0.01334718,0,0,0.01334718,-0.94873001,1.4385749)" />
    <g
       id="g46"
       transform="matrix(0.01334718,0,0,0.01334718,-0.94873001,1.4385749)" />
    <g
       id="g48"
       transform="matrix(0.01334718,0,0,0.01334718,-0.94873001,1.4385749)" />
    <g
       id="g50"
       transform="matrix(0.01334718,0,0,0.01334718,-0.94873001,1.4385749)" />
  </g>
</svg>
