<?xml version="1.0" standalone="no"?>
<!DOCTYPE svg PUBLIC "-//W3C//DTD SVG 20010904//EN"
 "http://www.w3.org/TR/2001/REC-SVG-20010904/DTD/svg10.dtd">
<svg version="1.0" xmlns="http://www.w3.org/2000/svg"
 width="1280.000000pt" height="905.000000pt" viewBox="0 0 1280.000000 905.000000"
 preserveAspectRatio="xMidYMid meet">
<metadata>
Created by potrace 1.15, written by Peter Selinger 2001-2017
</metadata>
<g transform="translate(0.000000,905.000000) scale(0.100000,-0.100000)"
fill="#000000" stroke="none">
<path d="M4810 8379 c-275 -40 -503 -264 -550 -539 -8 -46 -10 -519 -8 -1635
l3 -1570 27 -76 c83 -233 266 -396 500 -443 68 -14 238 -16 1367 -16 l1290 0
3 -346 c2 -190 1 -350 -2 -354 -3 -5 -19 -12 -35 -15 -48 -12 -92 -43 -117
-83 -26 -42 -114 -142 -137 -156 -8 -5 -78 -13 -156 -17 -278 -16 -452 -98
-633 -298 -106 -117 -143 -134 -299 -139 l-123 -4 0 141 0 141 -145 0 -145 0
0 105 0 105 -2322 -2 -2323 -3 -3 -976 c-2 -813 0 -978 12 -988 10 -8 619 -10
2322 -9 l2309 3 3 127 3 128 144 0 145 0 0 145 0 145 128 0 c182 0 275 -26
400 -112 23 -16 71 -43 107 -59 128 -60 140 -62 525 -68 l355 -6 3 -432 2
-433 140 0 139 0 -6 435 c-6 422 -6 435 13 441 38 14 86 57 100 90 37 88 -4
191 -88 223 -50 19 -31 31 47 31 92 0 133 16 171 66 25 32 29 46 29 100 0 68
-15 98 -69 138 -22 17 -46 22 -117 24 -49 2 -89 8 -89 13 0 5 48 9 108 9 83 0
116 5 148 19 108 49 121 212 23 282 -31 22 -46 24 -156 27 -68 2 -123 8 -123
13 0 5 52 9 115 9 128 0 164 10 206 56 53 58 59 132 18 200 -36 60 -60 68
-209 74 l-135 5 -3 602 -2 603 1382 2 c1313 3 1386 4 1438 22 185 61 334 184
408 336 78 159 73 20 70 1811 l-3 1604 -22 58 c-42 109 -87 181 -163 257 -81
82 -182 142 -295 176 -57 18 -184 19 -2865 20 -1543 1 -2830 -2 -2860 -7z"/>
</g>
</svg>
