<?xml version="1.0" standalone="no"?>
<!DOCTYPE svg PUBLIC "-//W3C//DTD SVG 20010904//EN"
 "http://www.w3.org/TR/2001/REC-SVG-20010904/DTD/svg10.dtd">
<svg version="1.0" xmlns="http://www.w3.org/2000/svg"
 width="1280.000000pt" height="1221.000000pt" viewBox="0 0 1280.000000 1221.000000"
 preserveAspectRatio="xMidYMid meet">
<metadata>
Created by potrace 1.15, written by Peter Selinger 2001-2017
</metadata>
<g transform="translate(0.000000,1221.000000) scale(0.100000,-0.100000)"
fill="#000000" stroke="none">
<path d="M6322 12198 c-47 -16 -122 -85 -143 -133 -20 -43 -25 -138 -10 -178
9 -22 -13 -46 -282 -308 l-291 -284 -2435 -5 -2436 -5 -75 -22 c-314 -92 -525
-300 -622 -615 l-23 -73 -3 -4885 c-2 -3610 0 -4904 8 -4958 33 -209 142 -401
308 -538 71 -59 228 -141 327 -171 57 -17 308 -18 5720 -21 5131 -2 5667 -1
5740 13 150 30 302 108 417 214 119 110 212 265 254 426 18 68 19 225 19 4995
l0 4925 -28 90 c-102 324 -358 553 -683 610 -75 13 -398 15 -2483 16 l-2396 0
-288 283 -287 283 11 50 c24 104 -21 210 -113 266 -53 33 -148 44 -206 25z
m164 -152 c29 -29 34 -41 34 -79 0 -109 -124 -162 -200 -85 -78 78 -25 197 89
198 36 0 49 -6 77 -34z m-181 -307 c57 -25 150 -23 204 4 l34 17 86 -79 c47
-44 156 -150 241 -235 l155 -156 -625 0 -625 1 239 234 c131 129 240 235 241
235 1 0 24 -9 50 -21z"/>
</g>
</svg>
