<?xml version="1.0" standalone="no"?>
<!DOCTYPE svg PUBLIC "-//W3C//DTD SVG 20010904//EN"
 "http://www.w3.org/TR/2001/REC-SVG-20010904/DTD/svg10.dtd">
<svg version="1.0" xmlns="http://www.w3.org/2000/svg"
 width="1278.000000pt" height="1280.000000pt" viewBox="0 0 1278.000000 1280.000000"
 preserveAspectRatio="xMidYMid meet">
<metadata>
Created by potrace 1.15, written by Peter Selinger 2001-2017
</metadata>
<g transform="translate(0.000000,1280.000000) scale(0.100000,-0.100000)"
fill="#000000" stroke="none">
<path d="M2915 12790 c-660 -59 -1260 -304 -1768 -722 -113 -93 -357 -341
-450 -458 -89 -110 -240 -337 -311 -466 -265 -483 -401 -1054 -383 -1614 23
-709 264 -1356 711 -1912 174 -216 448 -466 688 -626 1413 -945 3299 -625
4318 733 284 379 489 842 574 1297 45 241 51 311 51 603 0 292 -6 362 -51 603
-137 737 -546 1407 -1153 1890 -444 354 -978 578 -1566 657 -138 19 -526 28
-660 15z m510 -325 c939 -124 1743 -663 2212 -1482 550 -959 511 -2176 -99
-3097 -196 -295 -478 -593 -724 -765 -65 -45 -46 -27 46 46 621 490 1019 1224
1101 2027 17 174 7 564 -20 731 -100 621 -369 1163 -795 1604 -528 545 -1218
860 -1974 901 -731 39 -1431 -187 -2012 -649 -193 -153 -449 -429 -578 -623
-25 -38 -47 -68 -49 -68 -6 0 3 14 68 110 178 261 459 547 719 732 392 279
847 461 1315 528 233 33 565 35 790 5z m-230 -336 c1102 -114 2036 -890 2358
-1959 82 -272 112 -485 111 -800 0 -201 -5 -271 -23 -389 -77 -503 -274 -955
-584 -1341 -69 -86 -278 -302 -352 -363 -27 -23 16 23 96 103 165 165 245 261
364 440 192 287 328 609 399 949 75 353 76 777 5 1126 -87 422 -288 845 -559
1180 -82 103 -302 323 -405 405 -272 221 -633 410 -960 504 -298 85 -504 110
-845 103 -265 -5 -374 -19 -605 -76 -628 -156 -1205 -552 -1577 -1083 -109
-155 -118 -158 -16 -5 239 357 575 664 963 880 312 174 690 291 1051 327 212
20 373 20 579 -1z m-120 -325 c571 -66 1091 -321 1510 -739 487 -486 755
-1131 755 -1820 0 -621 -219 -1209 -629 -1686 -416 -484 -999 -795 -1641 -874
-161 -20 -459 -20 -620 0 -756 93 -1419 508 -1854 1160 -78 117 -210 378 -261
519 -43 117 -97 324 -119 456 -173 1036 303 2077 1198 2625 501 307 1064 428
1661 359z m-2555 -1024 c-6 -11 -13 -20 -16 -20 -2 0 0 9 6 20 6 11 13 20 16
20 2 0 0 -9 -6 -20z"/>
<path d="M1627 10852 c-3 -75 -15 -213 -27 -307 -30 -231 -25 -414 13 -531 28
-86 82 -176 154 -260 l44 -52 -73 20 c-104 28 -245 34 -338 14 -97 -20 -233
-88 -337 -168 -254 -196 -315 -240 -382 -276 l-73 -40 81 -43 c45 -23 165
-105 267 -181 311 -231 405 -276 601 -285 102 -5 198 4 252 25 9 3 -15 -27
-52 -68 -84 -91 -141 -184 -174 -287 -36 -110 -36 -274 0 -511 18 -112 27
-214 27 -288 l0 -115 43 29 c57 40 177 99 327 162 267 111 382 180 483 289 67
72 116 158 150 260 l25 74 12 -44 c48 -188 130 -322 253 -415 79 -59 174 -107
364 -183 165 -65 256 -109 319 -152 l41 -28 1 122 c0 67 11 199 23 292 28 214
31 422 6 515 -33 124 -95 234 -186 334 -25 27 -30 37 -16 31 50 -20 197 -45
271 -45 165 0 314 61 497 204 201 158 282 216 349 251 37 20 68 38 68 40 0 3
-24 17 -52 31 -68 34 -145 86 -288 194 -238 179 -335 234 -478 271 -91 23
-219 25 -317 4 -38 -8 -72 -15 -73 -15 -2 0 22 26 53 58 31 31 75 83 97 115
120 175 141 324 92 657 -14 96 -28 233 -31 303 -3 70 -9 126 -12 125 -3 -2
-38 -22 -77 -46 -40 -24 -170 -86 -290 -138 -264 -114 -355 -167 -448 -260
-83 -82 -135 -167 -172 -278 l-27 -79 -24 83 c-37 128 -96 233 -178 316 -90
91 -170 137 -403 231 -186 75 -260 109 -338 157 l-41 25 -6 -137z m493 -652
c6 -11 8 -20 6 -20 -3 0 -10 9 -16 20 -6 11 -8 20 -6 20 3 0 10 -9 16 -20z
m1069 -62 c-87 -173 -279 -495 -403 -678 -86 -127 -87 -129 -46 -100 71 50
225 209 297 304 82 110 97 127 69 81 -52 -84 -119 -168 -210 -263 -56 -58 -92
-100 -80 -94 38 20 187 133 264 200 71 62 72 63 25 13 -51 -53 -72 -70 -250
-200 -55 -41 -104 -78 -110 -83 -5 -6 54 22 132 61 134 67 288 122 337 120 11
0 -22 -13 -74 -28 -52 -15 -126 -42 -165 -59 -81 -36 -188 -93 -183 -97 2 -2
37 7 77 20 41 14 115 33 166 44 94 21 315 46 336 39 7 -2 -43 -10 -111 -17
-131 -13 -333 -59 -403 -92 -36 -16 -38 -18 -12 -14 167 28 352 38 470 27 88
-9 86 -9 -75 -11 -154 -1 -371 -25 -455 -49 l-30 -9 30 -6 c64 -13 323 -30
595 -37 270 -8 264 -8 -100 -4 -212 3 -417 8 -457 12 -40 4 -69 4 -64 -1 16
-16 210 -77 311 -97 58 -12 148 -25 200 -30 l95 -9 -110 5 c-109 4 -300 38
-382 68 -57 20 -54 12 5 -18 66 -35 45 -32 -35 4 -36 17 -68 28 -70 26 -3 -2
44 -37 104 -77 132 -88 197 -142 254 -211 37 -44 29 -39 -47 32 -83 79 -181
152 -279 210 -30 18 -15 -1 65 -81 98 -97 210 -234 254 -311 27 -46 17 -36
-54 62 -65 88 -206 239 -274 293 -36 29 -34 24 29 -58 37 -49 87 -119 110
-155 52 -82 138 -240 133 -245 -2 -2 -29 42 -61 98 -74 131 -175 272 -254 356
l-63 66 44 -95 c91 -199 240 -482 346 -655 23 -38 44 -73 47 -77 2 -5 2 -8 -1
-8 -6 0 -89 133 -171 275 -32 55 -109 199 -171 320 -66 128 -114 210 -114 196
0 -41 51 -251 81 -333 16 -44 44 -113 63 -154 42 -90 38 -98 -5 -12 -43 86
-95 223 -124 326 l-24 87 -2 -50 c-2 -43 -3 -39 -12 35 -12 108 -22 85 -31
-75 -7 -113 -37 -272 -58 -305 -7 -11 -8 -8 -3 10 31 133 46 224 51 330 4 69
4 123 2 120 -3 -3 -13 -43 -22 -88 -24 -119 -69 -249 -131 -379 -30 -62 -56
-113 -59 -113 -3 0 15 42 39 93 24 50 58 134 75 185 32 95 74 271 67 279 -2 2
-14 -24 -27 -58 -50 -139 -218 -440 -277 -499 -8 -8 13 28 47 80 102 155 260
504 247 543 -8 24 -347 -505 -472 -737 -26 -47 -49 -86 -52 -86 -19 0 269 493
418 717 50 74 84 131 76 126 -9 -4 -51 -39 -95 -76 -90 -77 -192 -192 -269
-304 -57 -82 -79 -108 -45 -53 60 100 157 223 237 306 49 51 83 89 75 84 -40
-22 -188 -133 -253 -190 l-72 -63 55 57 c30 31 115 100 188 153 73 53 135 100
138 104 4 7 -126 -52 -242 -110 -47 -23 -179 -61 -209 -60 -11 0 16 11 60 23
44 13 105 33 135 46 66 26 232 111 227 116 -1 2 -36 -8 -77 -22 -107 -36 -300
-72 -415 -78 l-100 -5 85 9 c123 14 277 46 386 81 53 17 94 32 92 33 -1 2 -41
-3 -88 -10 -47 -7 -157 -15 -245 -18 -151 -4 -154 -4 -50 5 144 12 336 37 405
53 l55 13 -45 6 c-89 12 -360 29 -605 36 l-250 8 231 1 c209 2 525 -10 629
-23 l40 -5 -27 15 c-84 46 -333 108 -503 124 -59 5 -74 9 -43 10 100 3 325
-37 473 -84 11 -3 -5 7 -35 24 -72 40 -62 39 38 -4 45 -19 82 -33 82 -31 0 1
-57 42 -127 89 -81 55 -157 116 -208 168 l-80 82 90 -82 c77 -71 284 -221 304
-221 4 0 -47 55 -114 123 -110 111 -182 200 -229 282 -17 30 -17 30 1 5 103
-140 204 -253 297 -334 68 -58 66 -53 -20 59 -69 90 -153 224 -208 332 -53
107 -44 103 15 -6 83 -154 234 -367 314 -441 23 -21 25 -22 19 -5 -32 92 -276
558 -409 781 -15 25 -15 26 0 9 49 -59 274 -459 381 -678 31 -64 59 -116 61
-114 2 2 -6 53 -18 113 -21 112 -76 284 -123 387 -14 32 -22 56 -17 53 23 -14
151 -356 151 -404 0 -9 5 -24 10 -32 7 -10 9 9 5 60 -4 67 -3 64 10 -29 8 -57
16 -105 18 -108 3 -2 8 49 12 114 9 156 20 227 50 315 26 77 26 74 -6 -67 -20
-85 -41 -335 -28 -335 3 0 11 30 18 67 19 103 68 247 126 371 30 61 56 112 59
112 4 0 -9 -31 -28 -69 -63 -123 -162 -448 -143 -467 2 -2 14 24 27 58 43 118
208 423 240 443 5 3 -14 -31 -42 -77 -69 -111 -149 -279 -192 -406 -20 -57
-36 -107 -36 -110 0 -9 55 68 160 223 97 145 242 384 315 518 48 88 73 122 34
45z m-600 -473 c0 -25 -8 -1 -19 65 -11 58 -19 110 -19 115 2 27 38 -145 38
-180z m-442 -205 c34 -10 84 -31 110 -45 55 -30 46 -27 -92 26 -109 42 -116
50 -18 19z m-609 -187 c-10 -2 -26 -2 -35 0 -10 3 -2 5 17 5 19 0 27 -2 18 -5z
m380 -100 c-15 -2 -42 -2 -60 0 -18 2 -6 4 27 4 33 0 48 -2 33 -4z m1085 -92
c36 -16 91 -37 121 -47 31 -10 54 -19 51 -22 -7 -7 -135 38 -194 68 -73 38
-61 38 22 1z m-310 -381 l7 -45 -15 50 c-8 28 -17 84 -20 125 l-5 75 14 -80
c7 -44 16 -100 19 -125z m457 -420 c6 -11 8 -20 6 -20 -3 0 -10 9 -16 20 -6
11 -8 20 -6 20 3 0 10 -9 16 -20z"/>
<path d="M2576 9299 c-33 -26 -37 -88 -6 -119 13 -13 33 -20 59 -20 73 0 108
84 56 135 -30 31 -73 32 -109 4z"/>
<path d="M9345 12790 c-1381 -114 -2538 -1117 -2839 -2464 -93 -413 -101 -884
-21 -1306 191 -1009 891 -1885 1838 -2300 1086 -475 2332 -314 3258 421 128
102 345 312 451 439 317 376 541 818 657 1291 66 271 86 452 85 764 -1 335
-27 538 -110 839 -213 775 -722 1443 -1428 1876 -88 53 -316 168 -426 213
-444 184 -980 267 -1465 227z m360 -310 c227 -19 397 -50 607 -111 1002 -288
1788 -1102 2048 -2119 70 -273 95 -503 87 -809 -8 -321 -47 -556 -142 -850
-189 -586 -594 -1137 -1095 -1493 -68 -48 -37 -19 80 73 505 399 868 966 1026
1604 62 253 77 385 78 690 1 276 -6 357 -45 565 -89 469 -298 923 -599 1300
-111 138 -339 364 -472 468 -296 229 -645 413 -974 510 -854 254 -1773 119
-2499 -368 -296 -199 -566 -459 -765 -738 -83 -117 -92 -128 -84 -112 4 8 33
53 65 100 355 522 907 942 1498 1140 390 130 801 182 1186 150z m-220 -340
c411 -26 744 -117 1108 -302 730 -370 1272 -1077 1441 -1877 74 -348 81 -729
20 -1071 -109 -609 -428 -1177 -891 -1585 -50 -45 -30 -22 58 66 287 286 503
611 644 973 247 632 247 1360 0 1992 -373 954 -1233 1621 -2245 1739 -144 17
-482 20 -615 5 -796 -90 -1494 -499 -1954 -1145 -71 -99 -96 -129 -63 -75 137
226 400 516 627 693 452 351 968 548 1538 587 166 11 160 11 332 0z m-90 -326
c343 -20 739 -139 1050 -316 942 -534 1450 -1566 1295 -2631 -154 -1053 -957
-1912 -2000 -2141 -326 -72 -731 -75 -1055 -10 -380 76 -736 235 -1040 464
-124 93 -338 300 -447 432 -252 303 -417 628 -511 1005 -59 235 -72 346 -72
628 0 260 7 337 50 540 240 1129 1216 1968 2369 2035 128 7 158 7 361 -6z
m-2435 -1014 c-6 -11 -13 -20 -16 -20 -2 0 0 9 6 20 6 11 13 20 16 20 2 0 0
-9 -6 -20z"/>
<path d="M8901 10941 c-88 -154 -161 -282 -161 -284 0 -2 30 3 68 12 95 21
421 21 517 -1 39 -9 72 -14 73 -13 6 6 -319 565 -328 565 -4 0 -80 -126 -169
-279z"/>
<path d="M8070 10630 l0 -332 51 46 c105 94 271 192 429 251 41 16 78 31 82
34 5 5 -183 117 -504 299 l-58 33 0 -331z"/>
<path d="M9783 10797 c-155 -89 -282 -165 -283 -168 0 -3 26 -13 58 -23 126
-40 344 -166 470 -273 l42 -36 0 332 c0 182 -1 331 -2 331 -2 0 -130 -74 -285
-163z"/>
<path d="M8849 10465 c-265 -50 -480 -164 -670 -354 -248 -248 -369 -540 -369
-891 0 -213 44 -395 141 -580 307 -587 1016 -836 1624 -570 309 136 566 412
679 728 91 256 95 563 10 819 -119 356 -394 645 -743 783 -135 53 -238 71
-421 76 -125 2 -197 -1 -251 -11z"/>
<path d="M7344 10213 c7 -18 215 -382 284 -497 l35 -59 27 74 c55 151 161 332
255 437 25 27 45 53 45 56 0 3 -147 6 -326 6 -306 0 -326 -1 -320 -17z"/>
<path d="M10198 10158 c107 -132 185 -267 243 -421 l33 -87 39 67 c22 38 97
168 168 291 l128 222 -335 0 -335 0 59 -72z"/>
<path d="M10500 9552 c0 -4 7 -45 16 -92 21 -113 21 -357 0 -470 -9 -47 -16
-88 -16 -92 0 -6 546 306 564 322 4 5 -34 33 -85 63 -299 174 -479 275 -479
269z"/>
<path d="M7351 9392 c-150 -86 -273 -162 -272 -167 2 -11 543 -326 549 -320 2
2 -4 52 -13 112 -20 125 -16 365 8 471 7 34 11 62 8 62 -3 0 -129 -71 -280
-158z"/>
<path d="M10446 8722 c-58 -157 -166 -341 -267 -456 l-41 -46 337 0 337 0 -20
33 c-11 17 -86 147 -167 287 -81 140 -148 256 -149 257 -1 1 -15 -33 -30 -75z"/>
<path d="M7648 8769 c-48 -76 -308 -532 -308 -540 0 -5 139 -9 325 -9 l325 0
-73 93 c-107 137 -169 248 -227 406 -27 74 -27 74 -42 50z"/>
<path d="M10015 8103 c-109 -96 -323 -219 -452 -260 -29 -9 -52 -20 -51 -25 2
-4 127 -79 278 -167 l275 -159 3 164 c1 90 1 238 0 328 l-3 164 -50 -45z"/>
<path d="M8070 7814 l0 -326 23 14 c12 8 138 81 280 163 142 81 255 150 252
153 -3 3 -42 19 -87 36 -119 45 -247 118 -365 207 l-103 79 0 -326z"/>
<path d="M8751 7769 c9 -13 82 -140 164 -282 81 -142 152 -256 157 -255 8 3
328 551 323 556 -1 1 -44 -5 -96 -14 -150 -27 -368 -21 -533 12 -29 6 -30 6
-15 -17z"/>
<path d="M2945 6343 c-485 -33 -1023 -207 -1428 -461 -235 -148 -376 -259
-566 -445 -184 -182 -299 -321 -434 -527 -499 -763 -644 -1699 -401 -2584 320
-1162 1286 -2048 2476 -2270 237 -44 312 -51 588 -50 274 0 389 11 614 55 824
163 1554 650 2021 1349 282 422 444 859 517 1390 17 128 17 623 0 750 -33 242
-76 431 -142 629 -437 1305 -1666 2184 -3035 2169 -88 -1 -182 -3 -210 -5z
m485 -328 c1208 -159 2195 -1029 2501 -2205 66 -253 91 -463 91 -750 -1 -688
-223 -1317 -657 -1860 -135 -170 -405 -428 -552 -528 l-48 -34 40 34 c22 18
71 59 110 91 38 32 123 111 188 175 488 481 786 1111 857 1806 18 173 8 563
-19 731 -83 520 -293 997 -617 1405 -94 118 -360 381 -474 470 -458 354 -958
556 -1530 621 -150 17 -489 15 -645 -4 -497 -61 -950 -233 -1353 -514 -227
-158 -468 -387 -633 -601 -128 -166 -133 -171 -91 -107 117 178 352 437 542
597 471 396 1044 632 1665 688 141 12 477 4 625 -15z m-362 -325 c696 -48
1300 -319 1788 -805 430 -428 700 -971 791 -1590 27 -184 24 -572 -6 -764 -90
-586 -344 -1104 -744 -1517 -66 -69 -147 -148 -181 -177 -33 -29 5 13 85 93
80 80 176 183 213 230 227 284 410 637 505 975 73 258 101 471 101 760 0 458
-95 854 -300 1252 -634 1228 -2051 1794 -3365 1343 -142 -49 -402 -173 -535
-255 -301 -187 -601 -470 -802 -757 -108 -154 -118 -158 -17 -7 450 674 1203
1128 2004 1208 207 21 286 23 463 11z m117 -349 c261 -47 478 -117 710 -230
795 -389 1332 -1152 1430 -2033 124 -1108 -488 -2176 -1510 -2636 -195 -88
-447 -162 -670 -197 -136 -22 -479 -31 -630 -16 -263 26 -576 108 -815 216
-615 277 -1129 829 -1365 1469 -43 116 -97 323 -119 456 -122 731 77 1479 548
2060 82 102 272 291 376 374 324 259 709 439 1114 521 190 38 263 44 546 41
218 -3 286 -7 385 -25z m-2665 -1011 c-6 -11 -13 -20 -16 -20 -2 0 0 9 6 20 6
11 13 20 16 20 2 0 0 -9 -6 -20z"/>
<path d="M3318 4614 c-31 -16 -53 -53 -74 -125 -17 -57 -51 -86 -82 -70 -11 6
-36 33 -56 61 -31 43 -41 50 -70 50 -54 0 -87 -37 -161 -180 -74 -144 -107
-180 -162 -180 -29 0 -45 10 -102 65 -77 74 -101 80 -152 38 -54 -46 -61 -78
-70 -298 -4 -110 -12 -216 -18 -236 -14 -47 -45 -85 -82 -105 -43 -22 -80 -7
-172 70 -42 35 -91 69 -108 76 -27 11 -34 11 -57 -7 -42 -31 -63 -103 -57
-192 6 -70 18 -122 99 -424 41 -153 53 -246 37 -304 l-12 -43 -62 49 c-82 64
-163 109 -212 116 -80 13 -125 -62 -125 -209 0 -134 46 -292 146 -505 30 -62
51 -117 48 -122 -9 -16 -54 -10 -143 20 -123 40 -141 44 -172 31 -15 -7 -35
-27 -44 -47 -29 -61 -9 -118 95 -273 76 -114 100 -162 106 -218 5 -41 0 -58
-42 -142 -32 -65 -47 -108 -47 -135 0 -54 44 -144 99 -200 45 -47 151 -105
192 -105 12 0 22 -3 22 -6 0 -3 -45 -90 -100 -193 -94 -176 -113 -221 -91
-221 10 0 36 46 152 265 l63 120 10 -34 c5 -18 24 -49 41 -67 29 -31 38 -34
87 -34 41 0 70 8 116 30 70 36 162 117 162 145 0 10 -16 47 -36 83 -19 36 -34
74 -32 86 3 19 9 21 83 21 44 0 139 -11 210 -24 252 -45 390 -7 484 136 58 87
36 128 -124 232 -104 68 -205 154 -205 177 0 24 34 33 166 44 304 26 438 67
547 168 90 85 131 187 90 224 -10 9 -54 35 -99 57 -84 43 -124 73 -124 94 0
21 37 69 78 101 21 17 108 69 192 116 240 133 299 203 300 353 0 74 -2 81 -29
105 -16 15 -51 36 -77 46 -69 27 -95 53 -87 85 9 38 39 94 101 190 30 47 71
120 91 161 30 63 36 86 36 142 0 80 -7 89 -86 112 -31 9 -63 23 -70 32 -19 23
-15 86 8 131 11 21 39 73 62 116 66 125 55 171 -43 187 -94 15 -104 31 -115
188 -12 156 -50 194 -128 127 -49 -42 -80 -46 -88 -10 -3 14 -7 36 -10 50 -4
21 -11 25 -38 25 -17 -1 -44 -7 -59 -16z"/>
<path d="M9330 6340 c-915 -86 -1726 -538 -2270 -1265 -358 -478 -570 -1037
-621 -1634 -14 -173 -6 -527 15 -683 125 -889 591 -1660 1316 -2175 880 -624
2032 -756 3034 -347 712 292 1294 832 1639 1523 215 430 318 838 334 1326 25
771 -241 1538 -740 2130 -104 123 -308 324 -434 425 -198 160 -360 264 -583
376 -323 160 -644 259 -1010 309 -137 19 -543 28 -680 15z m376 -310 c680 -55
1294 -323 1791 -782 541 -500 870 -1168 944 -1912 17 -170 6 -533 -20 -706
-87 -565 -320 -1073 -692 -1505 -136 -158 -337 -345 -484 -450 -57 -41 -23 -9
69 65 490 394 846 958 1002 1585 62 253 77 385 78 690 1 276 -6 357 -45 565
-122 644 -468 1249 -958 1673 -687 597 -1580 844 -2471 686 -480 -86 -927
-288 -1320 -597 -142 -111 -401 -377 -505 -518 -129 -173 -142 -188 -87 -104
166 254 420 523 677 717 575 435 1306 650 2021 593z m-36 -356 c606 -74 1178
-353 1614 -790 438 -437 707 -987 792 -1616 21 -152 23 -487 5 -643 -61 -521
-256 -996 -578 -1410 -84 -107 -236 -269 -336 -357 -45 -39 -23 -14 58 67 476
476 754 1062 816 1719 15 160 7 490 -16 636 -114 738 -488 1371 -1073 1812
-272 206 -611 372 -932 457 -772 206 -1581 76 -2237 -358 -317 -209 -530 -420
-796 -791 -33 -46 -4 4 43 75 376 559 977 980 1630 1139 342 83 663 102 1010
60z m-160 -319 c567 -70 1098 -331 1505 -740 931 -935 1007 -2413 178 -3440
-374 -464 -909 -789 -1488 -904 -194 -39 -319 -51 -524 -51 -675 0 -1292 251
-1775 720 -434 422 -682 900 -773 1490 -23 145 -25 567 -5 705 86 570 319
1050 707 1454 403 420 977 704 1555 770 131 15 485 12 620 -4z m-2550 -1005
c-6 -11 -13 -20 -16 -20 -2 0 0 9 6 20 6 11 13 20 16 20 2 0 0 -9 -6 -20z
m4130 -3554 c0 -2 -8 -10 -17 -17 -16 -13 -17 -12 -4 4 13 16 21 21 21 13z"/>
<path d="M8035 4586 c-61 -27 -91 -91 -102 -211 -7 -84 6 -133 49 -187 l29
-38 -34 0 c-79 0 -175 -59 -212 -131 -38 -72 -30 -170 18 -250 29 -48 32 -59
25 -102 -3 -27 -9 -52 -13 -55 -3 -4 -43 1 -87 10 -45 10 -83 16 -85 15 -1 -2
20 -36 47 -76 28 -40 50 -76 50 -79 0 -4 -20 -21 -43 -38 -35 -26 -49 -30 -84
-27 -100 11 -224 -62 -258 -152 -21 -54 -17 -144 8 -194 9 -19 17 -35 17 -35
0 -1 -35 -1 -77 -1 -84 0 -121 -14 -164 -60 -13 -14 -49 -39 -80 -55 -33 -17
-60 -39 -67 -55 -32 -69 3 -161 67 -180 18 -5 58 -31 87 -57 61 -53 96 -63
184 -55 l58 5 -24 -42 c-32 -55 -33 -149 -3 -208 43 -85 133 -138 236 -138 52
0 70 -5 102 -27 22 -16 40 -33 41 -39 0 -6 -32 -49 -72 -94 -40 -46 -65 -81
-55 -77 31 12 196 41 202 35 3 -3 8 -27 11 -55 5 -41 3 -54 -19 -86 -33 -49
-52 -131 -43 -191 16 -103 122 -196 223 -196 l44 0 -25 -33 c-38 -50 -56 -101
-56 -159 1 -61 21 -162 39 -196 18 -33 70 -62 114 -62 46 0 147 33 205 67 45
25 102 102 102 135 0 10 5 18 10 18 6 0 10 -4 10 -10 0 -20 76 -94 115 -111
113 -52 258 4 320 124 22 42 35 55 64 64 20 6 37 11 38 9 1 -1 22 -53 46 -115
l44 -113 37 78 c21 44 45 96 53 117 11 26 20 36 30 33 8 -4 26 -9 39 -12 15
-4 30 -19 38 -39 22 -51 86 -116 141 -141 109 -52 226 -17 296 86 l26 39 12
-41 c17 -56 82 -123 139 -144 26 -9 69 -25 96 -36 95 -38 167 6 201 123 34
120 19 228 -41 290 l-25 26 62 6 c73 6 127 39 173 105 52 74 48 192 -10 284
-21 33 -23 44 -16 90 l7 53 35 -3 c19 -2 61 -10 94 -18 32 -8 60 -14 61 -12 2
2 -23 39 -56 83 l-58 80 37 32 c33 29 44 32 98 33 220 1 335 194 227 380 -2 4
26 4 61 2 80 -5 122 8 178 57 23 21 61 47 84 59 22 11 46 27 53 35 22 27 30
75 19 114 -11 41 -60 93 -88 93 -9 0 -42 22 -73 49 -62 55 -110 69 -193 57
l-44 -6 22 43 c26 51 29 144 6 197 -37 86 -126 142 -236 146 -58 2 -79 8 -102
26 l-30 23 80 93 c44 52 80 96 80 99 0 5 -61 1 -201 -13 l-57 -6 -7 41 c-5 32
-3 46 14 70 119 167 15 398 -180 401 l-36 0 25 50 c21 42 25 69 29 163 5 128
-7 165 -66 204 -55 37 -111 31 -219 -21 -94 -46 -132 -84 -147 -149 l-7 -27
-29 42 c-37 56 -82 86 -152 100 -48 10 -64 9 -110 -5 -67 -21 -137 -81 -165
-141 -15 -31 -30 -47 -53 -55 -18 -6 -35 -11 -39 -11 -3 0 -26 47 -50 105
l-43 106 -25 -43 c-13 -24 -38 -71 -54 -106 -25 -56 -31 -62 -51 -56 -54 17
-65 24 -71 49 -9 36 -81 112 -131 138 -62 33 -156 30 -218 -6 -27 -16 -60 -46
-75 -67 -15 -22 -29 -39 -32 -40 -4 0 -12 16 -19 37 -7 20 -31 55 -53 79 -32
34 -55 48 -116 68 -104 34 -141 39 -177 22z m175 -169 c34 -17 50 -53 50 -114
0 -50 2 -54 38 -78 66 -43 149 -67 254 -73 l98 -5 16 39 c28 66 0 144 -51 144
-13 0 -28 -6 -34 -14 -10 -11 -8 -18 9 -34 21 -19 21 -19 1 -25 -25 -6 -61 19
-61 43 0 32 11 50 41 65 38 20 68 19 107 -5 39 -24 58 -65 67 -141 12 -98 33
-129 88 -129 30 0 40 21 23 45 -10 14 -16 15 -34 6 -18 -10 -22 -9 -22 3 0 21
38 45 61 39 45 -12 68 -105 32 -134 -27 -23 -111 -16 -177 14 -32 15 -60 27
-62 27 -13 0 31 -62 66 -94 23 -21 40 -40 37 -42 -13 -13 -67 15 -113 58 -44
41 -53 46 -64 34 -18 -23 -24 -89 -10 -130 14 -42 26 -42 55 1 22 32 39 33 55
2 18 -34 -13 -77 -66 -91 -40 -11 -45 -15 -42 -38 2 -20 10 -27 43 -33 90 -19
116 -29 160 -63 49 -37 80 -41 98 -12 9 13 4 22 -21 43 -41 34 -41 46 0 34 65
-18 71 -12 28 31 -41 41 -52 67 -24 56 68 -26 82 -14 108 94 10 41 32 111 49
154 l31 80 28 -62 c16 -34 39 -106 53 -159 25 -96 45 -129 73 -118 8 3 25 8
40 12 l26 6 -23 -31 c-12 -18 -32 -38 -43 -47 -31 -21 -16 -29 32 -17 22 5 40
7 40 4 0 -3 -14 -20 -31 -38 -28 -29 -29 -32 -14 -48 24 -24 58 -20 86 10 34
37 66 51 142 64 64 11 67 13 67 40 0 23 -5 29 -32 34 -66 13 -106 91 -59 116
16 8 22 4 40 -25 23 -40 36 -44 51 -16 15 29 12 124 -4 146 -14 19 -16 18 -58
-27 -42 -45 -82 -68 -116 -68 -12 1 -5 10 20 31 38 31 84 96 75 105 -3 3 -22
-3 -44 -14 -113 -58 -213 -47 -213 23 0 62 50 106 89 79 29 -21 29 -49 0 -33
-25 13 -43 0 -37 -27 5 -29 53 -30 81 -2 18 18 26 40 31 89 11 94 37 146 82
165 62 26 121 4 138 -52 11 -36 -17 -58 -69 -55 -18 1 -18 2 3 17 26 18 29 39
6 48 -51 20 -84 -13 -84 -84 0 -25 7 -56 16 -68 37 -53 292 -9 377 66 11 10
17 30 17 57 0 55 17 103 42 116 10 6 38 16 61 23 23 8 49 17 58 20 10 5 16 2
16 -8 0 -9 6 -40 13 -71 17 -69 6 -94 -61 -134 -37 -24 -48 -36 -53 -65 -18
-93 66 -339 120 -352 29 -7 109 28 123 54 17 32 13 70 -7 81 -23 12 -42 -3
-42 -32 0 -16 -3 -17 -15 -7 -24 20 -28 50 -9 71 26 28 70 24 105 -10 23 -24
29 -38 29 -75 0 -52 -28 -91 -110 -151 -53 -39 -67 -72 -48 -113 15 -31 36
-35 52 -9 9 14 7 21 -6 31 -24 18 -22 26 5 26 52 0 63 -57 20 -102 -66 -69
-137 -3 -150 138 -6 66 -6 66 -24 43 -19 -26 -39 -85 -39 -120 -1 -23 -1 -23
-15 -5 -17 22 -20 72 -6 108 4 13 11 35 15 51 6 24 4 27 -19 27 -36 0 -102
-35 -121 -65 -20 -31 -15 -38 33 -40 28 0 39 -6 41 -18 11 -54 -72 -65 -120
-17 -29 29 -32 30 -54 15 l-23 -15 20 -47 c27 -64 33 -120 19 -173 -11 -41
-10 -46 10 -62 34 -28 47 -22 60 30 l12 47 23 -50 c19 -41 24 -45 24 -25 1 14
10 43 20 65 l19 40 7 -32 c14 -64 28 -67 156 -34 63 16 138 32 168 36 l54 7
-34 -47 c-19 -26 -71 -85 -116 -131 -46 -46 -83 -88 -83 -93 0 -5 12 -23 26
-40 l26 -31 -37 0 c-20 0 -45 5 -56 10 -27 15 -24 -3 8 -41 l28 -32 -35 7
c-63 14 -65 13 -65 -22 0 -31 4 -34 60 -57 45 -18 73 -39 111 -81 46 -52 52
-56 73 -45 17 10 20 17 14 34 -20 57 6 127 47 127 32 0 40 -20 19 -54 -23 -38
-23 -42 -3 -50 23 -9 120 37 134 63 15 30 9 36 -54 50 -38 8 -66 22 -86 43
-36 36 -33 45 8 24 37 -19 132 -32 132 -18 0 6 -15 20 -34 31 -50 31 -103 94
-111 132 -6 28 -4 36 19 56 16 13 40 23 58 23 54 0 88 -51 54 -79 -11 -9 -15
-6 -20 14 -4 16 -13 25 -27 25 -27 0 -34 -25 -16 -54 26 -39 60 -41 142 -6 82
34 122 37 165 15 30 -15 60 -61 60 -89 0 -30 -24 -67 -47 -72 -28 -7 -63 19
-63 47 0 16 4 17 25 9 20 -8 27 -6 32 6 14 37 -30 63 -82 50 -41 -10 -85 -55
-85 -86 0 -55 141 -215 230 -260 l43 -22 47 26 c71 39 100 35 163 -22 l53 -48
-54 -49 c-62 -56 -97 -62 -158 -26 -19 12 -45 21 -58 21 -51 0 -163 -98 -234
-204 -35 -52 -38 -63 -30 -88 26 -73 168 -95 168 -25 0 16 -5 19 -30 14 -25
-6 -30 -3 -30 13 0 11 11 27 25 36 23 15 27 15 50 0 31 -21 41 -58 25 -97 -30
-72 -105 -88 -210 -44 -33 14 -72 25 -88 25 -34 0 -78 -41 -69 -64 10 -26 44
-19 54 11 l10 28 12 -23 c27 -51 -18 -89 -83 -71 -90 25 -62 124 57 204 l52
35 -50 0 c-28 -1 -68 -7 -90 -15 -21 -8 -41 -13 -42 -11 -2 2 12 17 31 34 22
19 55 35 90 43 31 7 56 18 56 25 0 21 -68 73 -104 79 -51 10 -61 -1 -37 -40
17 -29 18 -35 5 -45 -22 -19 -60 -4 -74 29 -8 21 -9 39 -1 67 6 21 9 39 8 39
-36 27 -42 24 -97 -36 -43 -48 -67 -65 -110 -79 -47 -16 -55 -23 -58 -45 -5
-40 10 -49 53 -35 47 16 53 8 21 -27 -33 -35 -33 -45 0 -33 14 6 41 10 61 10
l35 0 -31 -29 c-17 -16 -31 -35 -31 -41 0 -7 37 -51 83 -99 46 -47 99 -106
117 -130 l34 -44 -60 7 c-32 4 -95 17 -139 28 -44 11 -97 23 -117 25 -39 5
-42 3 -63 -62 -6 -20 -6 -20 -17 0 -6 10 -17 37 -24 60 l-12 40 -20 -45 -19
-45 -12 43 c-9 30 -17 42 -31 42 -26 0 -53 -29 -45 -49 19 -48 17 -112 -5
-175 -19 -54 -21 -68 -10 -80 17 -22 29 -20 56 9 44 48 124 42 124 -10 0 -22
-4 -25 -39 -25 -22 0 -43 -5 -46 -11 -9 -13 30 -56 67 -75 24 -12 88 -20 88
-10 0 2 -7 23 -15 46 -19 53 -19 110 -1 135 12 16 14 13 20 -31 3 -27 16 -65
28 -84 l22 -35 8 64 c15 130 76 199 136 154 56 -42 54 -105 -4 -111 -28 -4
-28 -4 -10 17 22 24 15 51 -12 51 -24 0 -47 -50 -37 -79 3 -12 33 -41 65 -66
76 -58 100 -93 100 -143 0 -69 -63 -124 -115 -100 -33 15 -40 43 -19 76 l18
27 8 -33 c9 -33 25 -41 46 -20 24 24 14 65 -24 97 -30 27 -43 32 -77 29 -41
-3 -43 -4 -80 -78 -44 -88 -71 -204 -61 -266 5 -35 11 -45 35 -54 35 -15 89
-74 89 -98 0 -9 -6 -40 -14 -69 -8 -28 -11 -54 -8 -57 9 -10 -10 -5 -78 17
-55 19 -68 27 -82 57 -10 19 -18 56 -18 82 0 44 -3 50 -37 72 -60 39 -160 68
-254 73 -82 5 -87 4 -103 -18 -20 -30 -21 -107 0 -137 10 -14 25 -22 45 -22
40 0 50 27 18 51 l-24 19 32 0 c21 0 37 -7 46 -21 47 -66 -77 -133 -145 -79
-33 25 -55 81 -64 159 -8 75 -27 102 -74 104 -31 2 -35 -1 -35 -23 0 -21 4
-25 28 -23 33 2 37 -21 6 -38 -59 -31 -119 71 -72 123 25 27 109 24 179 -7 32
-14 59 -23 62 -21 7 7 -34 61 -73 95 l-36 31 31 0 c24 0 44 -12 87 -52 52 -50
56 -52 69 -33 19 26 18 125 -1 151 -15 19 -15 19 -33 -2 -9 -12 -22 -30 -28
-40 -10 -16 -13 -17 -28 -5 -38 32 -8 94 55 112 35 11 40 16 37 38 -3 24 -9
27 -72 38 -68 13 -142 51 -153 80 -8 20 -48 16 -68 -7 -17 -19 -16 -20 14 -46
17 -14 31 -29 31 -32 0 -4 -20 -6 -45 -4 l-44 4 34 -37 c19 -20 35 -40 35 -44
0 -4 -21 -7 -47 -7 l-47 1 -26 -95 c-25 -94 -66 -207 -80 -223 -9 -11 -62 123
-84 213 -28 111 -30 114 -81 106 -25 -3 -45 -2 -45 3 0 4 17 25 37 46 l37 38
-47 -5 c-26 -3 -47 -3 -47 -1 0 3 14 18 30 33 34 32 32 57 -6 66 -18 5 -33 -2
-61 -26 -44 -39 -82 -56 -148 -65 -27 -4 -53 -13 -57 -19 -16 -24 -8 -44 23
-50 34 -6 89 -56 89 -80 0 -15 -26 -46 -38 -46 -4 0 -18 16 -30 36 -22 34 -25
35 -40 20 -12 -12 -17 -34 -17 -81 0 -94 13 -100 79 -37 43 41 62 52 87 52
l33 0 -42 -36 c-42 -36 -81 -94 -63 -94 5 0 33 11 63 25 56 26 134 33 169 15
29 -16 26 -84 -6 -115 -28 -29 -47 -31 -69 -9 -25 24 -19 36 13 29 22 -5 30
-2 35 11 10 25 -17 48 -47 40 -37 -9 -55 -31 -62 -74 -18 -116 -28 -147 -60
-179 -26 -26 -41 -33 -73 -33 -50 0 -92 31 -92 69 0 35 17 51 52 51 33 0 36
-10 7 -28 -16 -11 -18 -16 -9 -28 7 -8 22 -14 35 -14 52 0 80 81 50 144 -17
36 -18 36 -79 36 -89 0 -190 -25 -260 -63 l-61 -34 -6 -66 c-7 -79 -23 -101
-88 -121 -25 -8 -53 -17 -61 -20 -12 -5 -19 8 -33 58 -21 80 -14 104 45 145
67 48 68 49 68 99 0 69 -26 167 -66 249 -34 71 -36 73 -72 73 -42 0 -95 -29
-112 -60 -14 -27 -6 -66 16 -74 23 -9 34 1 34 32 l1 27 20 -24 c26 -31 21 -63
-13 -79 -35 -17 -72 -2 -98 40 -41 68 -18 125 79 201 36 28 63 57 67 73 9 33
-10 74 -35 74 -25 0 -37 -31 -17 -46 23 -16 20 -24 -9 -24 -25 0 -45 25 -45
55 0 26 55 75 84 75 48 0 96 -93 96 -187 0 -24 4 -43 9 -43 15 0 51 88 51 125
0 36 13 47 24 19 10 -25 7 -94 -6 -136 -16 -53 -3 -64 48 -43 44 18 94 62 94
82 0 9 -14 13 -40 13 -27 0 -43 5 -47 15 -7 20 24 55 49 55 24 0 70 -24 87
-44 16 -19 21 -19 44 -2 17 13 17 16 2 52 -29 69 -36 120 -24 174 8 39 8 54
-1 65 -16 19 -60 20 -60 1 0 -8 -5 -27 -11 -43 l-10 -27 -21 44 -21 45 -8 -38
c-5 -21 -14 -48 -21 -60 -11 -21 -12 -21 -23 12 -19 56 -31 58 -152 29 -120
-30 -213 -44 -213 -33 0 12 104 136 164 195 31 30 56 60 56 66 0 7 -12 26 -26
43 l-26 31 34 0 c18 0 45 -7 61 -14 35 -19 34 -9 -5 38 l-32 39 27 -6 c15 -4
38 -10 51 -13 17 -4 25 -1 28 13 9 35 -8 54 -67 78 -45 18 -72 38 -108 79 -45
51 -50 54 -73 44 -17 -8 -23 -16 -18 -27 27 -62 5 -131 -41 -131 -33 0 -39 14
-20 49 21 42 19 51 -11 51 -36 0 -91 -28 -114 -57 -24 -31 -19 -40 28 -49 50
-9 104 -38 120 -63 15 -25 14 -25 -31 -6 -20 8 -58 15 -84 14 l-48 0 25 -17
c106 -72 159 -165 116 -201 -24 -20 -77 -31 -97 -20 -29 15 -43 47 -28 65 17
20 29 17 29 -7 0 -15 5 -20 22 -17 53 7 20 78 -36 78 -17 0 -58 -11 -91 -25
-112 -46 -193 -27 -214 51 -12 45 0 80 34 96 20 9 28 8 44 -6 10 -10 21 -26
24 -36 4 -16 0 -18 -29 -13 -36 6 -42 -3 -24 -38 23 -42 126 -15 155 42 15 29
15 32 -11 77 -40 68 -149 178 -205 206 l-48 23 -58 -29 c-71 -36 -91 -32 -158
30 l-50 47 53 48 c62 56 101 61 168 22 37 -22 46 -24 71 -13 54 23 123 80 171
141 71 89 85 120 70 152 -24 54 -117 84 -152 49 -31 -30 -17 -58 21 -43 33 12
37 8 22 -25 -17 -36 -55 -45 -82 -18 -38 39 -22 113 33 145 40 24 82 21 167
-13 41 -17 80 -30 87 -30 26 0 67 42 64 64 -4 29 -42 29 -46 -1 -4 -29 -18
-29 -32 -2 -17 30 11 69 50 69 64 0 99 -34 86 -86 -8 -32 -80 -111 -119 -131
-66 -34 30 -40 110 -7 33 14 34 14 23 -6 -15 -28 -47 -47 -105 -61 -27 -7 -54
-17 -59 -21 -15 -12 42 -66 91 -84 59 -23 75 -9 48 41 -23 44 -10 64 32 49 35
-12 51 -60 36 -108 -10 -31 -8 -35 14 -45 13 -6 25 -11 27 -11 1 0 18 21 37
46 35 47 92 87 141 98 36 8 53 39 38 67 -8 14 -17 18 -28 13 -9 -4 -30 -9 -47
-12 l-30 -5 33 38 c35 40 37 54 4 36 -12 -6 -38 -11 -58 -11 l-38 0 27 28 c15
15 27 35 27 43 0 8 -32 46 -71 84 -75 75 -155 172 -147 180 7 8 174 -23 249
-46 37 -10 74 -16 83 -13 9 3 21 24 28 46 l12 40 17 -34 c10 -18 18 -46 19
-63 0 -36 14 -24 33 29 l13 39 11 -29 c6 -16 14 -37 17 -46 7 -23 18 -23 46 0
22 18 22 22 11 67 -13 52 -9 82 19 161 19 51 19 52 0 69 -19 17 -21 16 -55
-14 -40 -35 -84 -41 -110 -15 -24 25 -15 49 20 50 49 1 55 3 55 18 0 36 -124
105 -147 82 -4 -4 -2 -27 5 -51 19 -71 14 -145 -9 -145 -5 0 -9 15 -9 33 0 37
-34 117 -50 117 -5 0 -10 -19 -10 -42 0 -141 -89 -225 -154 -147 -14 17 -26
37 -26 45 0 29 21 54 45 54 30 0 31 -7 8 -33 -17 -18 -17 -20 2 -33 18 -13 22
-13 38 7 35 44 21 79 -58 138 -93 70 -116 131 -75 198 21 35 55 49 95 39 35
-9 44 -51 16 -79 -21 -21 -21 -21 -21 -1 0 33 -21 47 -42 27 -25 -22 -23 -46
7 -82 29 -34 84 -56 116 -46 26 8 81 122 105 214 17 69 15 172 -4 179 -24 8
-76 48 -95 73 -19 26 -19 28 -1 96 l17 69 46 -14 c25 -7 57 -19 71 -25z"/>
<path d="M8105 4381 c-10 -46 2 -70 53 -102 25 -16 49 -29 52 -29 12 0 -6 121
-21 135 -8 8 -28 17 -46 21 -28 6 -31 4 -38 -25z"/>
<path d="M9922 4400 c-12 -5 -27 -21 -32 -35 -10 -28 -14 -115 -5 -115 9 0 58
32 83 54 13 11 22 31 22 47 0 57 -17 69 -68 49z"/>
<path d="M8260 4098 c0 -71 14 -118 53 -174 31 -45 128 -123 153 -124 16 0 8
111 -12 172 -18 56 -82 132 -135 158 -21 11 -43 20 -49 20 -5 0 -10 -23 -10
-52z"/>
<path d="M9757 4120 c-85 -54 -137 -154 -137 -267 0 -29 3 -53 7 -53 16 0 105
65 134 98 49 56 69 108 69 185 0 78 -5 81 -73 37z"/>
<path d="M9025 3960 c-10 -11 -15 -26 -11 -35 3 -9 -1 -29 -9 -45 -24 -47 -19
-113 11 -149 14 -17 30 -31 34 -31 15 0 51 59 57 93 3 20 -2 48 -12 72 -10 22
-17 50 -16 63 3 22 -14 52 -29 52 -4 0 -15 -9 -25 -20z"/>
<path d="M8539 3667 c-56 -37 -62 -61 -47 -177 9 -78 9 -108 0 -132 -14 -38
-13 -40 18 -25 31 15 37 63 20 160 -15 86 -9 110 37 137 48 28 67 22 150 -45
77 -63 103 -73 141 -55 l27 12 -48 18 c-26 10 -67 34 -90 53 -100 82 -148 94
-208 54z"/>
<path d="M9435 3679 c-11 -7 -48 -34 -82 -61 -35 -27 -79 -54 -99 -59 -29 -9
-33 -13 -23 -25 25 -31 63 -16 152 58 76 63 97 67 149 33 l41 -27 -8 -72 c-5
-39 -9 -96 -9 -126 -1 -48 2 -56 24 -67 31 -15 33 -13 19 27 -9 25 -9 52 0
109 18 118 15 137 -22 177 -26 29 -42 37 -77 40 -25 3 -54 -1 -65 -7z"/>
<path d="M8935 3605 c13 -73 48 -105 115 -105 64 0 95 30 106 102 l7 43 -26
-27 c-23 -25 -33 -28 -88 -28 -55 0 -67 4 -92 28 l-29 27 7 -40z"/>
<path d="M8602 3501 c5 -70 33 -114 97 -149 l41 -23 0 62 c0 72 -22 116 -74
148 -58 36 -69 30 -64 -38z"/>
<path d="M9430 3538 c-56 -38 -74 -71 -78 -144 l-4 -66 33 17 c76 39 109 88
109 165 0 58 -9 62 -60 28z"/>
<path d="M8870 3407 c0 -26 42 -79 73 -91 20 -8 66 -12 120 -10 99 3 115 11
148 76 l19 37 -41 -14 c-52 -19 -99 -19 -125 -1 -17 12 -22 12 -39 0 -24 -18
-76 -18 -120 0 -26 11 -35 12 -35 3z"/>
<path d="M8048 3403 c-26 -6 -20 -63 5 -63 6 0 29 -20 52 -44 44 -49 77 -62
130 -52 41 8 42 13 15 65 -20 41 -69 71 -114 71 -15 0 -37 6 -49 13 -12 8 -30
12 -39 10z"/>
<path d="M10007 3395 c-9 -8 -31 -15 -50 -15 -19 0 -49 -10 -68 -23 -34 -23
-77 -92 -64 -105 4 -4 32 -7 62 -7 54 0 57 2 97 48 23 26 48 47 54 47 12 0 39
47 31 54 -16 14 -49 15 -62 1z"/>
<path d="M8786 3305 c-13 -14 -33 -25 -44 -25 -23 0 -52 -25 -52 -44 0 -7 7
-21 15 -32 14 -18 14 -17 15 12 0 37 18 55 47 48 15 -4 22 0 26 15 6 24 45 29
65 9 19 -19 23 -4 6 20 -20 29 -50 28 -78 -3z"/>
<path d="M9232 3318 c-7 -7 -12 -19 -12 -27 0 -12 3 -12 12 -3 20 20 66 15 73
-8 4 -14 12 -19 23 -16 27 9 45 -9 45 -43 0 -24 3 -28 14 -20 16 14 17 51 1
67 -7 7 -23 12 -36 12 -14 0 -33 11 -44 25 -21 27 -56 33 -76 13z"/>
<path d="M8386 3281 c4 -27 2 -46 -6 -56 -7 -8 -20 -30 -29 -47 -10 -20 -28
-36 -50 -43 l-34 -11 32 -14 c68 -28 114 -11 147 52 28 54 15 101 -36 138
l-31 22 7 -41z"/>
<path d="M9665 3279 c-32 -36 -36 -46 -32 -76 8 -46 30 -79 66 -98 26 -13 35
-13 83 2 48 14 51 17 27 23 -40 12 -69 30 -69 44 0 7 -10 26 -22 41 -19 24
-20 32 -11 66 6 22 7 39 3 39 -4 0 -24 -19 -45 -41z"/>
<path d="M8592 3210 c-11 -53 -18 -64 -46 -81 -28 -16 -32 -23 -28 -49 4 -26
-3 -38 -42 -76 -25 -26 -46 -48 -46 -50 0 -10 88 -2 110 9 22 11 84 105 111
167 12 29 0 81 -29 118 l-18 23 -12 -61z"/>
<path d="M8988 3259 c-10 -5 -18 -17 -18 -26 0 -11 -6 -14 -26 -9 -23 6 -24 5
-13 -16 6 -13 25 -38 42 -55 25 -26 39 -33 70 -33 50 0 67 10 102 60 28 40 29
64 1 41 -12 -10 -17 -7 -28 16 -12 25 -19 28 -63 30 -28 2 -58 -2 -67 -8z"/>
<path d="M9462 3231 c-28 -50 -28 -99 1 -143 12 -18 31 -51 41 -72 11 -21 32
-44 47 -52 28 -14 109 -20 109 -7 0 3 -18 23 -40 43 -34 32 -40 43 -40 78 0
28 -4 42 -13 42 -25 0 -56 45 -67 98 -7 28 -13 52 -14 52 -1 0 -12 -17 -24
-39z"/>
<path d="M8730 3102 c0 -15 -5 -18 -23 -15 -18 4 -31 -4 -50 -27 -36 -42 -44
-76 -23 -99 20 -22 20 -31 1 -31 -8 0 -15 -4 -15 -10 0 -5 23 -10 51 -10 42 0
55 5 79 29 40 40 46 72 23 128 -20 49 -43 68 -43 35z"/>
<path d="M9325 3080 c-23 -52 -23 -88 0 -124 22 -33 52 -46 106 -46 37 0 53
13 27 23 -10 4 -10 7 0 18 18 19 15 57 -8 94 -23 37 -44 48 -71 40 -14 -5 -19
-1 -19 14 0 33 -15 24 -35 -19z"/>
<path d="M8882 3038 c2 -29 8 -61 12 -70 7 -16 3 -18 -32 -18 -51 0 -57 -9
-37 -56 19 -46 20 -44 -11 -44 -15 0 -42 -10 -62 -22 l-35 -21 29 -24 c16 -12
44 -26 62 -29 36 -7 37 -9 17 -44 -22 -39 -18 -47 30 -54 40 -6 44 -9 35 -26
-10 -19 -14 -110 -5 -110 17 0 66 33 85 57 16 19 24 24 27 15 3 -7 15 -25 27
-39 l23 -26 28 35 28 36 32 -33 c18 -18 42 -35 54 -38 17 -4 22 1 27 28 4 22
1 45 -9 63 l-15 30 44 7 c48 7 53 18 29 64 -14 29 -14 29 19 35 19 4 46 16 61
28 l28 22 -29 23 c-17 13 -43 23 -61 23 -38 0 -38 1 -17 41 22 43 12 59 -35
59 l-40 0 15 37 c10 22 13 49 9 70 -6 33 -6 33 -35 18 -16 -8 -40 -27 -53 -41
l-24 -26 -22 31 c-28 39 -45 39 -68 1 -20 -35 -28 -37 -43 -10 -6 11 -29 29
-51 41 l-41 20 4 -53z"/>
<path d="M8291 3006 c-13 -14 -58 -40 -100 -57 -101 -42 -128 -63 -142 -109
-24 -79 21 -139 135 -179 42 -15 81 -37 101 -57 32 -31 33 -32 39 -11 9 37
-19 64 -106 97 -102 39 -128 61 -128 110 0 54 22 75 113 110 107 42 132 63
118 103 -6 16 -9 16 -30 -7z"/>
<path d="M9770 3001 c0 -36 11 -45 111 -86 103 -43 119 -57 119 -107 0 -60
-13 -74 -102 -108 -112 -43 -128 -54 -128 -90 0 -32 14 -40 27 -16 11 19 67
51 135 76 36 13 68 34 89 57 28 33 31 41 26 87 -6 63 -36 92 -135 130 -40 15
-86 41 -103 57 -17 16 -33 29 -35 29 -2 0 -4 -13 -4 -29z"/>
<path d="M8487 2893 c-3 -5 -5 -45 -5 -91 0 -72 2 -84 20 -93 11 -6 27 -8 36
-4 14 5 12 8 -8 18 -28 14 -39 55 -18 68 10 6 10 11 0 21 -21 21 -14 56 16 72
l27 15 -32 1 c-17 0 -34 -3 -36 -7z"/>
<path d="M9573 2879 c30 -23 34 -41 12 -59 -14 -11 -14 -15 2 -32 20 -22 10
-46 -26 -64 -19 -10 -20 -12 -5 -18 21 -8 64 19 64 40 0 8 -5 24 -11 36 -8 14
-7 28 1 48 16 39 -1 70 -38 70 l-27 -1 28 -20z"/>
<path d="M7587 2865 c-21 -8 -51 -24 -68 -36 -28 -20 -29 -22 -14 -39 30 -34
116 -63 180 -63 63 1 152 29 194 62 l25 19 -65 33 c-52 26 -78 33 -139 36 -49
2 -88 -2 -113 -12z"/>
<path d="M10289 2857 c-30 -13 -66 -31 -79 -40 l-23 -16 77 -37 c65 -31 88
-37 144 -37 66 0 124 19 176 58 23 17 16 28 -41 62 -66 39 -176 43 -254 10z"/>
<path d="M7217 2832 l-27 -29 24 -26 c31 -34 53 -34 117 -1 50 25 51 26 30 40
-26 19 -86 44 -104 44 -7 0 -25 -13 -40 -28z"/>
<path d="M8240 2853 c-8 -3 -28 -15 -43 -25 -24 -17 -26 -22 -15 -36 24 -29
97 -54 137 -47 45 8 113 45 108 59 -2 6 -21 21 -43 33 -38 22 -108 29 -144 16z"/>
<path d="M9708 2840 c-20 -11 -39 -24 -42 -29 -8 -12 39 -45 87 -61 45 -14
106 -1 146 31 20 16 21 22 10 35 -38 46 -136 58 -201 24z"/>
<path d="M10764 2834 c-27 -14 -51 -27 -52 -29 -8 -7 98 -55 121 -55 13 0 34
11 46 24 19 20 21 28 12 45 -12 22 -41 41 -64 41 -8 0 -36 -12 -63 -26z"/>
<path d="M8620 2691 c0 -5 7 -12 16 -15 15 -6 15 -8 -1 -26 -20 -22 -16 -48
15 -99 18 -28 26 -32 50 -29 24 4 30 1 30 -14 0 -10 5 -18 10 -18 13 0 49 77
50 103 0 34 -31 79 -65 93 -38 16 -105 19 -105 5z"/>
<path d="M9365 2686 c-20 -8 -37 -28 -49 -53 -17 -39 -17 -41 4 -92 23 -51 40
-66 40 -33 0 13 8 17 32 17 57 0 100 91 62 130 -15 15 -15 17 5 22 11 3 18 9
15 14 -8 13 -75 10 -109 -5z"/>
<path d="M8442 2651 c-11 -6 -6 -14 17 -30 39 -28 64 -76 57 -106 -5 -18 -1
-24 19 -29 29 -7 52 -47 61 -106 l7 -43 18 24 c11 13 24 41 30 61 11 35 9 41
-37 124 -38 67 -56 90 -81 100 -37 16 -72 18 -91 5z"/>
<path d="M9565 2651 c-25 -11 -42 -31 -88 -108 -45 -74 -49 -123 -13 -171 l24
-33 13 58 c11 47 20 62 46 78 21 12 32 28 32 40 -2 44 3 56 42 93 33 32 37 41
24 46 -22 8 -55 7 -80 -3z"/>
<path d="M8298 2498 c-35 -12 -36 -28 -3 -28 27 0 65 -31 65 -54 0 -7 7 -20
16 -27 12 -10 15 -25 11 -56 -4 -38 -3 -41 13 -33 54 29 74 94 45 150 -29 56
-81 73 -147 48z"/>
<path d="M9671 2480 c-54 -55 -49 -133 13 -174 34 -22 36 -21 23 13 -8 22 -8
35 2 53 6 13 19 37 28 53 19 36 31 45 61 45 29 0 28 14 -3 28 -47 21 -91 15
-124 -18z"/>
<path d="M8997 2479 c-25 -15 -78 -90 -71 -101 3 -5 12 -4 20 3 8 6 15 10 17
8 1 -2 7 -13 13 -24 24 -44 130 -39 141 6 4 16 11 19 29 15 35 -9 29 8 -19 59
-35 36 -50 45 -78 45 -19 0 -42 -5 -52 -11z"/>
<path d="M8695 2390 c-9 -29 12 -60 40 -60 14 0 35 -11 47 -25 28 -33 75 -34
87 -2 12 30 8 32 -23 12 -21 -14 -29 -15 -41 -5 -8 7 -15 19 -15 27 0 10 -6
12 -20 8 -27 -9 -50 11 -50 41 0 29 -16 32 -25 4z"/>
<path d="M9372 2399 c3 -8 1 -25 -3 -38 -7 -18 -15 -22 -33 -19 -18 4 -27 -1
-35 -19 -12 -27 -28 -29 -59 -7 -18 12 -22 12 -22 2 0 -42 55 -50 90 -13 13
14 33 25 46 25 12 0 27 7 34 14 15 19 9 58 -9 64 -9 3 -12 0 -9 -9z"/>
<path d="M8151 2353 c-18 -9 -42 -31 -54 -48 -11 -18 -30 -36 -40 -41 -11 -5
-24 -19 -28 -31 -7 -19 -4 -24 17 -29 16 -4 31 -1 43 10 10 9 33 16 52 16 46
0 92 30 112 73 21 43 21 57 3 57 -7 0 -26 2 -42 5 -17 3 -43 -2 -63 -12z"/>
<path d="M9850 2361 c-28 -8 -29 -28 -3 -72 21 -35 63 -59 104 -59 18 0 40 -7
50 -16 21 -19 69 -12 69 10 0 18 -27 46 -43 46 -7 0 -19 13 -29 29 -29 52 -93
79 -148 62z"/>
<path d="M8911 2269 c-17 -17 -31 -34 -31 -39 0 -5 -3 -15 -6 -24 -6 -14 -2
-14 36 -1 54 19 90 19 117 0 19 -13 24 -13 51 2 30 17 66 14 135 -13 18 -6 18
-4 -2 34 -33 64 -51 72 -167 72 -101 0 -103 0 -133 -31z"/>
<path d="M8493 2250 c8 -22 8 -54 -1 -128 -14 -113 -9 -136 38 -175 23 -20 43
-27 74 -27 38 0 55 9 131 65 63 47 95 65 117 65 30 0 31 0 13 20 -26 29 -54
25 -105 -15 -25 -19 -63 -49 -84 -65 -46 -35 -69 -37 -113 -10 -40 24 -47 51
-34 126 22 116 12 174 -30 174 -15 0 -16 -4 -6 -30z"/>
<path d="M9565 2263 c-18 -17 -18 -24 1 -186 8 -64 -3 -85 -57 -107 -41 -17
-65 -8 -139 55 -68 59 -103 74 -128 58 -26 -16 -26 -33 1 -33 14 0 47 -16 73
-35 108 -78 138 -95 171 -95 47 0 90 24 109 63 15 28 16 43 5 137 -9 75 -10
113 -2 133 8 21 8 27 -4 27 -7 0 -21 -8 -30 -17z"/>
<path d="M8683 2243 c-53 -34 -83 -87 -83 -146 0 -25 4 -48 8 -51 15 -9 86 39
109 73 17 26 23 48 23 92 0 33 -4 59 -8 59 -4 0 -26 -12 -49 -27z"/>
<path d="M9350 2220 c0 -69 29 -123 83 -155 24 -14 47 -25 50 -25 14 0 7 112
-9 141 -13 27 -95 89 -116 89 -4 0 -8 -23 -8 -50z"/>
<path d="M8983 2091 c-19 -12 -35 -32 -38 -48 -19 -86 -19 -86 18 -49 20 20
34 24 83 24 50 0 64 -4 88 -27 l29 -26 -7 45 c-9 59 -41 91 -97 97 -33 3 -52
-1 -76 -16z"/>
<path d="M9027 1892 c-41 -48 -50 -107 -24 -159 9 -16 14 -39 11 -49 -3 -10 2
-28 10 -39 20 -27 50 -9 52 31 1 16 9 46 18 66 21 50 20 73 -6 119 -25 45 -41
53 -61 31z"/>
<path d="M8419 1782 c-100 -64 -159 -163 -159 -269 0 -64 11 -67 80 -23 83 53
120 121 129 237 4 46 4 83 1 83 -3 0 -26 -13 -51 -28z"/>
<path d="M9622 1733 c6 -89 30 -146 82 -201 30 -33 94 -72 117 -72 18 0 7 138
-15 183 -24 48 -90 115 -146 146 l-43 24 5 -80z"/>
<path d="M8164 1332 c-59 -43 -67 -57 -59 -98 6 -35 7 -36 42 -31 20 4 41 11
46 16 11 11 26 141 17 141 -4 0 -25 -13 -46 -28z"/>
<path d="M9882 1299 c4 -49 9 -66 27 -80 28 -23 67 -25 75 -3 19 49 -9 95 -78
131 l-29 15 5 -63z"/>
</g>
</svg>
