<?xml version="1.0" standalone="no"?>
<!DOCTYPE svg PUBLIC "-//W3C//DTD SVG 20010904//EN"
 "http://www.w3.org/TR/2001/REC-SVG-20010904/DTD/svg10.dtd">
<svg version="1.0" xmlns="http://www.w3.org/2000/svg"
 width="1087.000000pt" height="1280.000000pt" viewBox="0 0 1087.000000 1280.000000"
 preserveAspectRatio="xMidYMid meet">
<metadata>
Created by potrace 1.15, written by Peter Selinger 2001-2017
</metadata>
<g transform="translate(0.000000,1280.000000) scale(0.100000,-0.100000)"
fill="#000000" stroke="none">
<path d="M4540 12309 c-460 -25 -1010 -121 -1379 -241 -700 -227 -1380 -753
-1923 -1488 -401 -542 -686 -1149 -762 -1620 -9 -52 -23 -203 -31 -335 -9
-132 -20 -298 -26 -370 -5 -71 -12 -274 -15 -450 -13 -620 35 -1026 178 -1498
104 -347 203 -564 484 -1069 396 -709 500 -960 563 -1358 31 -192 41 -342 41
-618 0 -389 -14 -570 -55 -722 -19 -69 -37 -150 -41 -180 -5 -45 -384 -1826
-400 -1882 -5 -17 127 -18 2665 -18 l2671 0 0 366 0 366 38 71 c74 142 207
242 372 282 36 8 191 24 345 35 382 28 494 38 680 61 722 90 1118 258 1235
522 47 105 44 302 -6 438 -15 41 -38 106 -53 144 -22 61 -26 89 -29 225 -3
141 -2 160 18 214 31 82 142 242 250 361 49 55 97 116 106 135 23 50 14 151
-20 225 -14 32 -25 59 -24 60 109 65 151 104 190 178 19 35 23 58 23 142 0
110 -11 154 -71 280 -42 89 -69 209 -60 270 21 136 148 195 422 195 199 0 297
31 390 124 98 98 146 227 148 396 1 90 -1 99 -36 170 -20 42 -160 280 -310
530 -150 250 -304 511 -342 580 -79 143 -90 157 -254 337 -146 161 -176 215
-176 318 0 58 7 85 36 155 62 148 107 292 119 385 23 178 -3 435 -71 690 -16
61 -46 191 -66 290 -143 717 -325 1188 -639 1666 -108 163 -185 259 -314 393
-284 292 -596 510 -1033 720 -812 392 -1826 580 -2838 525z"/>
</g>
</svg>
