<?xml version="1.0" standalone="no"?>
<!DOCTYPE svg PUBLIC "-//W3C//DTD SVG 20010904//EN"
 "http://www.w3.org/TR/2001/REC-SVG-20010904/DTD/svg10.dtd">
<svg version="1.0" xmlns="http://www.w3.org/2000/svg"
 width="684.000000pt" height="1280.000000pt" viewBox="0 0 684.000000 1280.000000"
 preserveAspectRatio="xMidYMid meet">
<metadata>
Created by potrace 1.15, written by Peter Selinger 2001-2017
</metadata>
<g transform="translate(0.000000,1280.000000) scale(0.100000,-0.100000)"
fill="#000000" stroke="none">
<path d="M2844 11838 c-324 -529 -590 -965 -592 -970 -2 -4 181 -8 407 -8
l411 0 0 -3395 c0 -1867 -3 -3395 -7 -3395 -12 0 -416 334 -625 516 -222 193
-577 544 -680 674 -195 246 -292 439 -342 680 -33 161 -40 267 -40 599 l-1
333 85 25 c307 89 556 297 691 578 77 161 94 239 94 435 0 196 -17 275 -94
435 -328 687 -1289 841 -1839 295 -190 -189 -296 -422 -309 -685 -22 -447 264
-865 706 -1031 l86 -33 7 -343 c9 -473 36 -682 119 -933 189 -570 658 -1076
1902 -2055 l247 -195 -2 -324 -3 -324 -65 -22 c-396 -135 -695 -451 -797 -843
-31 -121 -41 -311 -24 -432 43 -291 183 -536 429 -751 l63 -55 -420 -12 c-632
-19 -1065 -47 -1255 -83 -180 -33 -228 -94 -111 -138 166 -62 617 -95 1670
-122 498 -13 1746 -7 2205 10 746 28 1108 61 1244 112 63 23 70 31 62 63 -11
43 -125 75 -356 100 -286 31 -808 55 -1248 59 l-283 2 38 30 c83 64 205 192
264 274 282 397 290 902 19 1307 -29 43 -98 124 -154 179 -141 141 -275 226
-465 295 l-76 28 -3 1425 c-2 1229 0 1426 12 1429 27 6 991 914 1252 1180 562
570 729 880 784 1453 6 66 13 135 16 152 l5 33 332 2 332 3 0 920 0 920 -977
3 -978 2 0 -925 0 -925 361 0 361 0 -7 -87 c-45 -584 -142 -721 -1317 -1835
-91 -87 -168 -158 -172 -158 -3 0 -6 1024 -6 2275 l0 2275 405 0 c240 0 405 4
405 9 0 5 -257 429 -572 943 -314 513 -579 945 -588 961 l-17 27 -589 -962z"/>
</g>
</svg>
