<?xml version="1.0" standalone="no"?>
<!DOCTYPE svg PUBLIC "-//W3C//DTD SVG 20010904//EN"
 "http://www.w3.org/TR/2001/REC-SVG-20010904/DTD/svg10.dtd">
<svg version="1.0" xmlns="http://www.w3.org/2000/svg"
 width="1280.000000pt" height="1280.000000pt" viewBox="0 0 1280.000000 1280.000000"
 preserveAspectRatio="xMidYMid meet">
<metadata>
Created by potrace 1.15, written by Peter Selinger 2001-2017
</metadata>
<g transform="translate(0.000000,1280.000000) scale(0.100000,-0.100000)"
fill="#000000" stroke="none">
<path d="M3300 11809 l-213 -221 559 -559 559 -559 -25 -17 c-61 -43 -205
-163 -312 -260 -278 -252 -546 -592 -737 -935 -164 -295 -293 -629 -366 -948
-78 -342 -95 -515 -95 -1002 l0 -378 3730 0 3730 0 0 378 c0 460 -16 641 -81
942 -179 829 -645 1576 -1319 2117 -47 38 -97 76 -110 86 l-25 17 559 559 559
559 -213 221 c-117 122 -216 221 -219 221 -3 0 -280 -277 -616 -616 l-610
-616 -106 50 c-293 140 -643 250 -954 301 -236 39 -319 45 -595 45 -276 0
-360 -6 -595 -45 -313 -51 -736 -188 -1005 -324 l-46 -24 -615 615 c-338 338
-617 614 -620 614 -3 0 -102 -99 -219 -221z m1665 -2770 c212 -65 365 -277
365 -503 0 -148 -45 -258 -148 -367 -210 -223 -554 -223 -764 0 -103 109 -148
219 -148 367 0 305 261 550 564 528 38 -3 97 -14 131 -25z m3200 0 c212 -65
365 -277 365 -503 0 -148 -45 -258 -148 -367 -210 -223 -554 -223 -764 0 -103
109 -148 219 -148 367 0 305 261 550 564 528 38 -3 97 -14 131 -25z"/>
<path d="M2670 5232 c0 -955 3 -1197 15 -1323 119 -1239 843 -2332 1940 -2927
332 -180 720 -317 1101 -387 429 -79 919 -79 1348 0 381 70 769 207 1101 387
1097 595 1821 1688 1940 2927 12 126 15 368 15 1323 l0 1168 -3730 0 -3730 0
0 -1168z"/>
</g>
</svg>
