<?xml version="1.0" standalone="no"?>
<!DOCTYPE svg PUBLIC "-//W3C//DTD SVG 20010904//EN"
 "http://www.w3.org/TR/2001/REC-SVG-20010904/DTD/svg10.dtd">
<svg version="1.0" xmlns="http://www.w3.org/2000/svg"
 width="1280.000000pt" height="1280.000000pt" viewBox="0 0 1280.000000 1280.000000"
 preserveAspectRatio="xMidYMid meet">
<metadata>
Created by potrace 1.15, written by Peter Selinger 2001-2017
</metadata>
<g transform="translate(0.000000,1280.000000) scale(0.100000,-0.100000)"
fill="#000000" stroke="none">
<path d="M734 11215 c4 -11 1 -22 -6 -27 -9 -6 -7 -8 7 -6 23 4 28 39 6 46
-10 3 -12 0 -7 -13z"/>
<path d="M2120 10580 c0 -13 5 -20 13 -17 6 2 12 10 12 17 0 7 -6 15 -12 18
-8 2 -13 -5 -13 -18z"/>
<path d="M6370 10353 c-8 -3 -25 -14 -38 -24 -24 -18 -38 -20 -279 -23 -83 -1
-113 -4 -113 -13 0 -7 -12 -13 -27 -14 -90 -2 -134 -6 -140 -12 -3 -4 -18 -7
-33 -7 -14 0 -31 -5 -37 -11 -5 -5 -27 -12 -48 -15 -22 -3 -45 -10 -52 -15 -7
-6 -19 -9 -28 -6 -8 4 -17 2 -20 -3 -3 -5 -12 -7 -19 -4 -8 3 -17 0 -21 -5 -3
-6 -11 -9 -16 -6 -12 8 -51 -20 -42 -29 4 -4 -1 -4 -10 0 -10 4 -25 0 -35 -8
-9 -8 -29 -15 -43 -16 -38 -2 -230 -88 -284 -127 -16 -12 -50 -32 -75 -46 -25
-13 -55 -34 -67 -46 -12 -13 -24 -19 -28 -14 -3 5 -24 -2 -48 -15 -23 -13 -49
-26 -57 -30 -17 -6 -127 -58 -178 -83 -18 -9 -40 -24 -49 -33 -9 -10 -24 -18
-33 -18 -9 0 -25 -9 -35 -20 -10 -11 -22 -17 -26 -14 -5 3 -9 1 -9 -5 0 -5
-15 -15 -34 -21 -19 -6 -55 -27 -80 -46 -24 -18 -50 -34 -55 -34 -6 0 -16 -9
-23 -20 -7 -11 -18 -20 -25 -20 -7 0 -18 -9 -25 -20 -7 -11 -20 -20 -28 -20
-8 0 -26 -12 -39 -25 -13 -14 -28 -25 -33 -25 -6 0 -17 -8 -25 -17 -8 -10 -11
-12 -7 -4 9 19 -11 6 -51 -31 -40 -37 -117 -99 -145 -118 -12 -8 -35 -26 -51
-40 -16 -14 -43 -36 -60 -50 -17 -14 -37 -31 -45 -37 -7 -7 -17 -13 -23 -13
-5 0 -18 -11 -29 -25 -11 -14 -24 -25 -28 -25 -5 0 -31 -23 -58 -50 -27 -28
-55 -50 -61 -50 -6 0 -49 -36 -95 -80 -46 -45 -92 -82 -101 -83 -10 -2 -27
-14 -39 -27 -11 -12 -20 -20 -20 -17 0 4 -14 -6 -32 -21 -66 -57 -108 -103
-108 -117 0 -8 -4 -15 -9 -15 -4 0 -25 -13 -45 -29 -21 -17 -44 -27 -52 -24
-8 3 -14 1 -14 -5 0 -6 5 -12 10 -14 6 -2 2 -13 -10 -26 -11 -12 -18 -22 -14
-22 3 0 1 -7 -7 -16 -7 -8 -21 -13 -31 -11 -10 3 -16 1 -12 -4 3 -5 -2 -9 -11
-9 -9 0 -13 -4 -10 -10 3 -5 -5 -15 -19 -22 -14 -6 -26 -17 -26 -23 0 -7 -9
-15 -21 -18 -16 -4 -19 -11 -14 -26 6 -20 1 -23 -30 -21 -16 1 -36 -32 -30
-50 5 -15 3 -18 -8 -14 -10 3 -15 -1 -14 -12 2 -13 -6 -19 -27 -21 -16 -1 -33
-8 -38 -15 -6 -10 -10 -10 -18 2 -8 13 -14 8 -12 -11 1 -4 -13 -6 -31 -6 -24
1 -32 -3 -31 -15 1 -11 -4 -15 -15 -11 -13 4 -13 3 -2 -5 7 -5 10 -15 7 -21
-4 -6 -3 -11 3 -11 5 0 11 5 13 12 3 9 6 9 12 -1 5 -8 1 -14 -13 -18 -12 -3
-21 -13 -21 -24 0 -21 -20 -25 -38 -7 -9 9 -12 8 -12 -5 0 -9 7 -17 16 -17 8
0 13 -4 9 -10 -3 -5 -12 -7 -20 -3 -18 6 -20 -8 -4 -24 8 -8 4 -11 -14 -10
-17 1 -22 6 -16 11 16 17 10 27 -11 16 -11 -6 -20 -15 -20 -20 0 -15 -46 -56
-58 -52 -7 2 -12 -1 -12 -8 0 -6 5 -8 10 -5 6 3 10 2 10 -4 0 -5 -5 -13 -10
-16 -8 -5 -7 -12 1 -22 16 -19 -7 -36 -32 -23 -11 6 -22 4 -35 -6 -18 -15 -18
-15 2 -9 15 4 24 -1 32 -20 11 -23 10 -25 -13 -25 -13 0 -26 4 -30 9 -6 12
-75 -26 -75 -41 0 -5 7 -2 16 6 20 20 38 21 30 1 -5 -13 -2 -13 19 1 22 15 23
14 18 -7 -3 -12 -14 -24 -25 -26 -18 -5 -24 -18 -10 -26 4 -2 1 -2 -5 -1 -7 2
-13 -1 -13 -5 0 -12 -30 -22 -42 -15 -6 4 -5 10 3 15 8 5 9 9 3 9 -6 0 -17 -7
-24 -15 -7 -9 -19 -14 -26 -11 -8 3 -11 0 -7 -10 3 -8 -1 -14 -8 -14 -11 0
-11 -3 1 -10 13 -9 13 -10 0 -10 -12 0 -12 -2 -2 -9 11 -6 10 -10 -4 -15 -15
-6 -16 -9 -4 -16 19 -12 8 -22 -14 -14 -10 4 -15 13 -11 22 4 12 2 12 -8 4 -8
-7 -16 -9 -19 -6 -3 2 -8 -2 -12 -11 -4 -13 -1 -15 13 -10 11 3 22 1 26 -5 4
-6 -4 -10 -19 -10 -37 0 -56 -10 -56 -30 0 -24 -26 -46 -33 -28 -4 8 -6 7 -6
-4 -1 -10 -6 -18 -12 -18 -5 0 -7 -5 -3 -12 5 -8 2 -9 -9 -5 -13 5 -17 1 -17
-16 0 -13 -6 -29 -12 -36 -11 -11 -9 -11 12 -2 25 12 25 12 4 -6 -23 -20 -24
-23 -25 -60 0 -16 -3 -22 -6 -15 -2 6 -13 12 -24 12 -12 0 -16 -5 -13 -14 4
-9 -6 -21 -26 -31 -17 -9 -28 -20 -25 -25 3 -5 1 -18 -4 -29 -8 -14 -8 -21 2
-24 6 -3 2 -6 -10 -6 -13 -1 -23 -6 -23 -12 0 -5 -5 -7 -12 -3 -6 4 -8 3 -5
-3 4 -6 -3 -21 -16 -35 -12 -13 -22 -36 -22 -51 1 -15 -7 -35 -17 -44 -10 -9
-18 -22 -18 -30 0 -7 -4 -13 -10 -13 -5 0 -16 -15 -25 -32 -18 -38 -57 -89
-100 -133 -16 -16 -48 -57 -70 -90 -22 -33 -42 -62 -45 -65 -3 -3 -17 -21 -30
-40 -13 -19 -27 -37 -30 -40 -3 -3 -17 -23 -31 -45 -14 -22 -43 -66 -64 -99
-22 -32 -44 -68 -51 -80 -51 -96 -79 -142 -86 -144 -5 -2 -19 -22 -31 -44 -12
-23 -26 -48 -32 -57 -5 -9 -25 -43 -44 -76 -19 -33 -42 -69 -52 -80 -28 -31
-59 -138 -52 -179 5 -33 7 -35 37 -29 17 3 36 12 42 19 6 8 16 14 23 14 6 0
11 7 11 16 0 11 5 14 16 10 11 -4 27 6 50 31 33 37 34 38 49 18 10 -12 12 -21
5 -23 -5 -2 -10 -8 -10 -13 0 -11 47 7 66 25 8 8 14 19 14 25 0 6 5 11 10 11
6 0 10 5 10 11 0 12 60 69 73 69 4 0 7 6 7 14 0 8 7 16 15 20 8 3 15 11 15 18
0 7 16 26 35 43 19 16 35 35 35 41 0 27 407 374 431 367 5 -2 25 17 46 42 20
25 41 45 46 45 4 0 22 13 40 30 18 16 35 30 40 30 4 0 7 7 7 15 0 15 11 19 38
16 10 -2 12 4 7 18 -5 18 -2 21 24 21 20 0 31 5 31 14 0 15 27 30 48 27 16 -2
16 16 0 23 -7 4 -3 4 9 2 16 -3 24 3 33 25 7 16 16 26 21 23 5 -3 12 2 15 10
3 9 11 16 16 16 5 0 27 18 48 40 22 23 41 39 44 38 3 -2 15 5 26 15 11 9 24
17 30 17 5 0 21 11 36 25 37 34 44 31 28 -12 -18 -53 -17 -60 9 -57 12 1 28 3
35 3 7 1 11 5 8 10 -3 4 5 6 18 4 51 -10 103 32 317 260 61 63 68 68 132 81
64 14 72 18 138 85 39 39 67 75 64 81 -3 5 0 10 8 10 8 0 20 6 26 14 7 8 24
17 39 21 14 3 44 15 67 24 22 10 94 30 160 45 66 15 132 31 147 35 32 10 38 6
38 -26 0 -14 -6 -23 -16 -23 -8 0 -13 -4 -9 -9 3 -5 15 -9 28 -7 25 3 69 25
50 26 -7 0 -13 5 -13 11 0 7 12 10 30 7 23 -4 38 3 65 28 29 26 48 33 110 43
104 15 108 15 96 -8 -9 -16 -6 -20 17 -24 30 -6 137 27 164 51 15 12 20 13 34
1 20 -17 51 -22 59 -9 3 5 15 6 28 1 12 -4 41 -11 65 -15 33 -5 42 -3 42 8 0
11 7 12 28 7 16 -5 39 -3 57 5 19 8 72 11 148 9 107 -2 152 -11 120 -22 -6 -2
-26 -26 -43 -54 -18 -27 -38 -49 -45 -49 -18 0 -26 -14 -20 -32 5 -13 95 -20
95 -6 0 3 15 6 34 6 39 0 79 26 95 60 6 13 16 20 21 17 6 -3 13 1 16 9 3 9 12
16 20 16 7 0 17 6 21 14 12 21 34 24 79 10 37 -11 134 -11 152 0 9 5 174 -12
181 -20 3 -2 -7 -16 -22 -30 -15 -14 -27 -29 -27 -34 0 -6 -3 -9 -7 -9 -20 3
-26 -2 -13 -11 12 -8 12 -10 -5 -10 -19 -1 -19 -1 -2 -11 9 -6 15 -14 12 -18
-2 -5 6 -11 20 -13 23 -5 25 -2 25 31 0 24 3 31 9 22 5 -8 16 -11 31 -6 19 6
21 5 11 -13 -14 -26 -14 -32 0 -32 5 0 7 5 3 11 -4 8 1 9 15 4 16 -5 31 1 57
24 19 17 44 31 54 31 50 0 284 -137 402 -234 20 -17 54 -44 74 -61 21 -16 51
-42 67 -57 17 -16 34 -28 38 -28 5 0 9 -8 9 -19 0 -30 29 -91 43 -88 7 1 13
-10 15 -25 2 -16 7 -28 11 -28 4 0 13 -16 20 -35 7 -19 16 -35 19 -35 4 0 9
-12 10 -26 1 -14 8 -38 16 -52 30 -55 56 -125 56 -153 0 -15 5 -31 10 -34 6
-3 10 -22 10 -41 0 -19 3 -34 8 -34 4 0 7 -37 8 -83 1 -123 6 -157 18 -150 6
4 5 -1 -3 -10 -10 -13 -11 -20 -2 -30 6 -8 8 -17 4 -20 -3 -4 0 -13 7 -22 7
-8 8 -15 3 -15 -5 0 -7 -15 -5 -32 11 -84 7 -244 -7 -267 -12 -22 -12 -26 5
-38 10 -7 13 -13 8 -13 -6 0 -15 5 -22 12 -9 9 -15 9 -24 0 -9 -9 -9 -12 1
-12 8 0 22 -10 33 -22 19 -23 19 -23 -9 -30 -15 -4 -32 -3 -37 2 -15 15 -22
12 -23 -10 -1 -12 14 -33 39 -54 22 -19 37 -40 33 -46 -4 -6 3 -26 14 -45 19
-33 20 -35 2 -35 -15 0 -20 -9 -23 -41 -2 -22 0 -43 4 -45 5 -3 5 -11 1 -17
-11 -17 -13 -31 -18 -136 -3 -52 -8 -99 -12 -104 -3 -5 -7 -78 -9 -161 -1 -83
-5 -182 -8 -219 -5 -51 -3 -66 5 -61 9 5 9 3 3 -7 -12 -19 -12 -172 1 -181 6
-5 6 -8 -2 -8 -8 0 -10 -20 -8 -64 3 -57 1 -68 -20 -90 -13 -14 -29 -26 -35
-26 -24 0 -7 -38 34 -77 24 -23 41 -45 38 -48 -4 -4 0 -5 8 -4 15 4 20 -2 20
-21 0 -5 -6 -7 -14 -4 -26 10 -6 -168 29 -248 4 -11 3 -18 -5 -18 -6 0 -8 -4
-5 -10 9 -14 -8 -13 -23 2 -7 7 -12 8 -12 2 0 -6 -27 -10 -62 -9 -35 0 -73 -3
-86 -7 -14 -5 -21 -4 -17 1 11 18 -14 21 -56 7 -28 -10 -49 -12 -65 -6 -13 5
-24 6 -24 2 0 -5 -20 -7 -45 -7 -25 1 -45 -2 -45 -7 0 -4 -5 -8 -11 -8 -5 0
-7 5 -3 12 11 17 -54 2 -74 -18 -15 -15 -16 -15 -22 2 -4 10 -9 13 -13 8 -3
-6 -67 -9 -151 -9 -86 1 -143 -2 -139 -8 3 -5 -4 -6 -16 -2 -13 4 -21 2 -21
-6 0 -8 -4 -8 -13 -1 -13 11 -81 11 -92 0 -4 -4 -29 -4 -56 -1 -39 5 -50 3
-55 -11 -3 -9 -11 -13 -17 -9 -21 13 -131 12 -153 -2 -13 -9 -26 -10 -37 -3
-17 9 -100 4 -119 -8 -6 -4 -43 -8 -82 -9 -39 -1 -85 -5 -103 -9 -18 -4 -56
-9 -86 -10 -30 -2 -60 -7 -67 -11 -7 -4 -62 -10 -124 -12 -61 -3 -136 -12
-166 -20 -30 -8 -82 -16 -115 -18 -33 -3 -71 -7 -85 -9 -14 -3 -33 -7 -42 -9
-10 -2 -21 -7 -25 -12 -4 -4 -2 -5 5 -1 6 4 12 2 12 -3 0 -12 -14 -14 -86 -11
-48 2 -53 -1 -102 -47 -49 -46 -64 -73 -43 -73 6 0 12 4 16 10 3 5 15 6 28 1
27 -10 149 -5 209 8 23 6 51 11 61 11 17 0 17 -1 1 -29 -20 -33 -12 -66 12
-57 13 5 14 4 5 -7 -8 -11 -6 -18 9 -32 20 -18 21 -18 15 1 -6 18 -6 18 10 -1
9 -12 11 -21 5 -23 -22 -8 -9 -19 16 -14 19 3 25 1 20 -7 -4 -6 -1 -11 7 -11
8 0 20 -7 27 -15 20 -24 30 -17 23 16 l-6 31 29 -15 c18 -10 29 -23 29 -37 0
-13 9 -28 19 -34 11 -6 34 -25 52 -43 19 -17 55 -41 81 -54 27 -13 54 -29 61
-36 7 -7 19 -13 26 -13 7 0 21 -8 32 -17 33 -31 108 -67 132 -65 12 1 25 -5
28 -13 4 -8 10 -13 14 -10 5 3 14 -1 22 -8 23 -23 104 -62 121 -59 4 1 7 -3 7
-9 0 -6 6 -9 14 -6 7 3 18 1 24 -5 27 -27 152 -88 152 -75 0 6 7 1 16 -11 8
-12 24 -22 34 -22 18 0 89 -28 100 -40 10 -11 266 -178 295 -193 17 -8 39 -24
50 -34 11 -10 36 -26 55 -37 19 -10 56 -36 82 -57 26 -22 51 -39 56 -39 5 0
15 -6 21 -13 6 -8 32 -25 58 -38 27 -13 53 -29 58 -35 6 -6 26 -20 45 -30 19
-11 63 -39 96 -64 180 -131 208 -150 226 -150 10 0 18 -7 18 -15 0 -8 18 -24
40 -35 22 -11 40 -18 40 -15 0 4 13 -3 29 -14 16 -12 34 -21 40 -21 6 0 11 -3
11 -7 0 -5 18 -19 40 -33 22 -13 40 -28 40 -32 0 -4 6 -8 14 -8 7 0 24 -8 37
-18 13 -11 36 -22 50 -25 14 -4 37 -17 50 -29 14 -13 28 -23 33 -24 11 -1 40
-23 79 -57 17 -15 37 -27 44 -27 7 0 13 -4 13 -10 0 -5 4 -10 10 -10 5 0 19
-8 29 -18 39 -35 50 -42 66 -42 9 0 13 -4 10 -10 -3 -6 1 -7 9 -4 15 6 22 -11
17 -39 -1 -5 8 -21 19 -37 11 -15 20 -33 20 -40 0 -39 87 -118 114 -103 6 3 8
3 4 -2 -4 -4 0 -14 10 -21 23 -18 35 -17 28 1 -3 9 0 15 10 15 8 0 12 4 9 10
-3 5 -4 10 -1 10 3 0 12 -12 19 -27 l14 -27 5 37 c2 20 0 37 -5 37 -5 0 -4 7
3 15 10 12 10 15 0 15 -10 0 -10 3 0 15 8 10 9 19 3 27 -6 7 -18 36 -27 65 -9
28 -24 54 -32 57 -7 3 -14 11 -14 17 0 6 -18 33 -41 60 -24 29 -35 49 -27 50
27 3 54 -4 93 -21 22 -10 60 -23 84 -30 24 -6 51 -15 60 -19 9 -4 43 -21 76
-37 33 -16 65 -28 72 -26 6 1 17 -6 25 -16 7 -11 18 -20 23 -20 14 -2 19 -42
6 -42 -6 0 -9 -10 -7 -22 3 -20 10 -23 52 -26 27 -1 54 -3 61 -4 23 -3 1 -25
-37 -38 -22 -7 -37 -16 -35 -20 3 -4 -4 -10 -15 -13 -11 -3 -20 -13 -20 -22 0
-12 -5 -15 -22 -10 -16 6 -20 4 -16 -7 5 -11 -1 -13 -23 -10 -20 3 -29 0 -29
-10 0 -15 -52 -58 -70 -58 -14 0 -13 -27 3 -33 9 -3 9 -7 0 -18 -17 -21 -3
-35 32 -35 17 1 36 -5 43 -12 8 -7 18 -10 23 -7 5 4 9 1 9 -6 0 -7 11 -2 25
11 14 13 24 29 21 36 -2 6 0 16 6 22 8 8 20 1 42 -24 29 -32 34 -34 59 -25 30
12 45 25 63 56 7 11 19 19 28 17 9 -2 16 4 16 11 0 8 7 17 15 21 8 3 15 1 15
-4 0 -6 -5 -10 -11 -10 -5 0 -8 -4 -4 -10 8 -13 35 -1 35 16 0 8 9 14 19 14
11 0 23 5 26 10 10 16 79 48 93 43 7 -3 23 4 35 14 12 11 30 23 40 26 9 4 22
18 27 32 6 15 14 23 20 20 5 -3 10 -1 10 4 0 6 9 11 20 11 11 0 20 5 20 10 0
6 6 10 13 8 26 -5 108 25 119 45 10 20 11 20 25 1 10 -13 14 -14 11 -4 -2 9 0
16 5 18 23 6 67 34 67 43 0 6 9 8 21 4 15 -5 22 -2 26 14 3 12 12 21 19 21 8
0 14 5 14 11 0 6 9 9 20 6 11 -3 23 0 27 5 4 7 1 8 -7 3 -9 -5 -11 -4 -6 3 11
18 26 14 26 -5 0 -13 3 -14 12 -5 8 8 8 15 -2 27 -7 9 -8 15 -2 15 6 0 13 -6
15 -12 4 -9 8 -10 14 -2 4 6 20 14 35 18 15 3 40 11 55 18 15 6 35 12 43 14 8
2 16 7 18 13 2 5 19 15 38 21 19 6 32 16 29 20 -3 5 -12 7 -20 3 -8 -3 -15 -1
-15 5 0 5 14 9 32 8 29 -2 73 19 116 54 6 6 12 8 12 4 0 -4 8 0 18 9 10 10 22
14 25 10 4 -3 7 -1 7 6 0 8 7 10 19 6 13 -4 24 1 35 17 9 12 16 19 16 14 0 -5
6 -3 13 3 8 6 17 7 21 3 4 -4 13 0 19 9 7 9 26 21 42 27 17 6 23 11 13 11 -10
1 -18 6 -18 12 0 6 7 8 16 5 25 -10 237 91 227 108 -3 6 -3 8 2 4 4 -4 17 -2
29 4 11 7 23 12 26 13 16 1 51 35 45 44 -3 6 -2 11 4 11 5 0 13 -5 16 -10 4
-7 16 -4 33 7 15 10 43 25 62 34 19 9 49 22 65 30 17 8 34 20 38 26 4 7 17 13
28 13 11 0 22 7 26 16 3 8 12 13 19 10 8 -3 11 0 7 10 -3 7 0 14 6 14 6 0 11
7 11 15 0 8 5 15 11 15 5 0 7 -5 4 -10 -8 -14 46 -2 60 13 7 7 6 8 -2 3 -7 -4
-13 -3 -13 2 0 12 30 26 51 23 8 -1 21 10 27 24 7 14 17 23 22 20 6 -3 10 -1
10 5 0 6 4 9 9 6 5 -3 12 1 15 10 4 11 14 15 31 12 17 -4 30 2 44 18 12 13 26
24 32 24 5 0 8 4 4 9 -3 5 -1 12 5 16 5 3 10 -2 10 -12 1 -15 5 -13 25 10 13
15 31 27 39 27 8 0 23 11 34 25 11 14 29 25 40 25 11 0 31 13 44 28 13 16 50
42 83 58 33 16 66 35 73 41 7 7 25 16 40 19 15 4 34 13 43 21 9 8 30 18 45 22
16 4 29 14 28 23 -1 10 6 13 23 10 17 -3 36 5 63 27 25 20 40 26 43 18 2 -8 9
-7 21 6 10 9 22 17 28 17 5 0 7 7 4 16 -5 13 -1 15 19 12 14 -3 29 0 33 6 8
13 63 40 74 38 4 -1 4 6 1 15 -4 11 -3 14 5 9 17 -10 52 3 52 20 0 8 10 14 23
14 12 0 28 9 35 20 7 11 18 17 27 14 21 -9 72 5 57 15 -20 12 -3 40 21 35 12
-2 31 3 44 11 12 8 29 15 38 15 15 0 19 14 16 57 -1 11 3 25 10 29 9 5 10 2 6
-9 -5 -12 -1 -17 12 -17 20 0 35 25 25 41 -3 5 -2 9 3 8 15 -4 43 13 43 25 0
6 9 17 20 24 28 17 29 92 1 92 -10 0 -22 -7 -25 -16 -3 -8 -10 -13 -16 -9 -11
7 -109 -41 -200 -99 -91 -57 -145 -87 -424 -230 -147 -75 -173 -86 -161 -66 3
6 15 10 25 10 10 0 20 3 22 8 3 6 35 31 151 116 20 15 37 25 37 22 0 -4 8 2
19 12 29 27 64 52 73 52 4 0 16 7 26 15 42 38 81 65 91 65 7 0 22 9 34 21 12
11 74 55 137 96 63 42 147 97 185 122 39 25 71 49 73 54 2 4 8 7 14 7 5 0 22
9 36 20 42 32 164 110 172 110 4 0 19 11 34 25 15 14 31 25 35 25 14 0 75 33
95 52 20 18 19 18 -2 19 -34 2 -40 3 -48 11 -12 13 -71 9 -86 -5 -21 -20 -110
-77 -121 -77 -6 0 -24 -10 -41 -23 -17 -12 -42 -28 -56 -35 -29 -14 -55 -30
-89 -54 -13 -10 -27 -16 -31 -13 -4 3 -22 -9 -38 -26 -21 -21 -43 -33 -66 -35
l-34 -3 15 44 c17 50 30 64 69 71 15 3 31 7 35 10 4 2 10 -2 12 -8 3 -8 6 -6
6 5 1 9 6 17 11 17 6 0 10 11 10 25 0 14 4 25 10 25 5 0 7 7 4 15 -4 8 -1 15
6 15 7 0 10 6 7 14 -3 8 1 20 9 27 8 6 12 14 10 16 -3 3 -1 15 3 27 5 11 5 31
0 44 -7 19 -12 21 -27 13 -13 -7 -22 -7 -29 0 -7 7 -20 8 -34 3 -13 -4 -28 -6
-34 -5 -15 5 -72 11 -165 15 -47 3 -104 9 -127 15 -23 6 -52 11 -65 10 -13 0
-36 2 -53 5 -16 3 -66 8 -110 11 -44 3 -93 8 -110 11 -16 4 -43 8 -60 10 -16
1 -46 6 -65 9 -19 3 -66 8 -105 10 -38 2 -72 4 -75 6 -3 1 -23 3 -45 5 -22 1
-65 4 -95 7 -34 3 -60 1 -69 -6 -11 -9 -13 -9 -8 0 5 8 -4 11 -30 10 -21 -1
-40 -5 -43 -9 -3 -4 -19 -1 -34 7 -22 12 -37 13 -64 5 -20 -5 -40 -6 -46 -2
-6 4 -27 7 -46 6 -19 0 -40 2 -45 7 -13 10 -136 6 -154 -5 -8 -5 -16 -4 -22 5
-9 15 -79 23 -79 9 0 -9 -19 -8 -37 3 -6 4 -13 1 -16 -5 -3 -10 -7 -10 -20 1
-12 10 -21 11 -30 3 -13 -11 -57 -6 -57 7 0 3 -46 6 -102 5 -96 -1 -105 1
-125 23 -27 29 -29 35 -6 26 11 -4 14 -3 9 5 -4 7 -2 12 4 12 21 0 -1 20 -23
21 -16 1 -17 3 -5 6 15 4 15 6 -3 24 -10 10 -23 19 -29 19 -16 0 -49 42 -43
56 3 9 -2 12 -16 9 -12 -2 -19 0 -16 5 3 4 0 10 -7 12 -8 3 -9 17 -1 56 6 29
7 55 2 57 -4 3 -3 19 1 37 5 17 7 35 3 41 -3 6 -7 87 -8 181 -2 117 -6 171
-14 174 -6 2 -11 8 -11 13 0 6 4 8 9 4 19 -11 23 17 5 30 -11 8 -14 15 -7 15
8 0 11 11 9 30 -2 16 -1 32 3 36 10 10 7 58 -4 67 -7 5 -7 10 0 15 13 9 13
125 0 134 -6 5 -5 8 4 8 9 0 10 4 4 13 -5 6 -8 46 -6 87 2 41 3 84 3 95 -2 27
-1 31 5 101 3 34 1 73 -4 87 -6 15 -7 29 -2 31 8 5 5 78 -4 104 -2 6 -1 12 4
12 5 0 9 19 9 43 2 159 13 430 18 472 4 27 7 98 8 158 1 60 5 107 10 107 6 0
5 5 -1 11 -8 8 -8 20 -3 35 6 14 6 26 0 29 -14 9 -1 57 19 73 10 9 32 12 58 9
52 -5 63 3 26 19 -26 11 -26 12 -5 13 12 1 22 5 22 10 0 13 -34 24 -38 12 -8
-23 -19 -10 -15 17 3 15 1 23 -4 17 -13 -16 -47 -11 -51 7 -3 13 3 16 28 13
18 -3 28 0 25 5 -4 6 -1 10 5 10 6 0 8 5 5 10 -3 6 -2 10 4 10 5 0 12 -6 14
-12 3 -8 6 -6 6 5 1 9 -4 17 -10 17 -5 0 -8 4 -5 8 8 13 -14 85 -30 102 -10
10 -14 10 -14 2 0 -7 -10 -12 -22 -11 -22 0 -22 1 -3 9 17 7 17 9 3 9 -10 1
-19 9 -20 19 0 9 -2 22 -3 27 -1 6 -5 47 -9 93 -5 45 -11 82 -15 82 -4 0 -7
19 -7 43 0 65 -14 147 -24 147 -5 0 -9 19 -9 43 0 41 -7 112 -11 112 -1 0 -3
14 -4 30 -1 17 -6 37 -11 45 -12 20 -14 50 -3 50 5 0 4 9 -2 21 -14 26 -19 50
-27 124 -3 33 -9 68 -14 77 -5 9 -9 28 -9 42 0 14 -4 26 -9 26 -5 0 -11 23
-13 52 -3 28 -12 56 -20 62 -8 6 -13 17 -10 25 3 9 0 11 -8 6 -9 -6 -11 -4 -4
6 14 23 15 51 3 65 -6 8 -8 14 -4 14 5 0 1 8 -8 18 -15 17 -17 21 -17 42 0 6
-7 10 -15 10 -17 0 -20 11 -6 26 6 5 5 20 -3 39 -14 30 -21 51 -26 70 -1 6 -7
19 -13 30 -6 11 -10 26 -9 33 3 13 -27 72 -41 83 -5 3 -8 9 -8 13 1 16 -13 36
-26 36 -8 0 -11 5 -8 10 3 6 -1 13 -9 16 -9 3 -14 10 -11 14 9 14 -17 59 -42
75 -13 9 -21 20 -18 26 4 5 -1 12 -10 15 -9 4 -23 20 -32 38 -23 44 -85 116
-100 116 -7 0 -13 6 -13 13 0 7 -20 32 -45 56 -25 24 -45 47 -45 52 0 5 -4 9
-8 9 -5 0 -38 28 -74 63 -80 76 -117 108 -187 158 -75 55 -225 147 -296 183
-33 16 -73 40 -90 52 -16 12 -42 26 -58 29 -15 4 -30 11 -33 16 -3 5 -16 9
-29 9 -13 0 -30 6 -37 13 -21 19 -56 37 -73 37 -8 0 -15 4 -15 10 0 5 -3 9 -7
8 -5 -2 -28 7 -53 19 -52 26 -172 71 -215 82 -16 4 -44 15 -61 24 -17 9 -47
18 -65 20 -19 2 -54 13 -79 24 -25 12 -61 24 -80 28 -19 4 -58 18 -86 31 -28
13 -85 28 -125 35 -41 6 -81 13 -89 16 -48 18 -162 38 -239 41 -24 2 -32 6
-28 16 4 10 0 12 -14 9 -10 -3 -19 0 -19 6 0 6 5 11 10 11 6 0 10 5 10 11 0 6
-7 9 -15 6 -8 -4 -17 -2 -20 3 -7 11 -22 12 -45 3z m115 -253 c3 -5 -1 -10
-10 -10 -9 0 -13 5 -10 10 3 6 8 10 10 10 2 0 7 -4 10 -10z m105 -125 c-7 -8
-17 -12 -22 -9 -6 4 -5 10 3 15 22 14 33 10 19 -6z m95 -25 c3 -5 1 -10 -4
-10 -6 0 -11 5 -11 10 0 6 2 10 4 10 3 0 8 -4 11 -10z m496 -138 c7 -19 5 -22
-14 -22 -25 0 -60 19 -39 21 6 1 17 3 22 4 6 1 13 3 18 4 4 1 0 6 -8 12 -12 8
-12 10 -1 7 8 -2 18 -14 22 -26z m-714 -14 c-3 -8 -6 -5 -6 6 -1 11 2 17 5 13
3 -3 4 -12 1 -19z m760 6 c-3 -3 -12 -4 -19 -1 -8 3 -5 6 6 6 11 1 17 -2 13
-5z m48 -4 c3 -5 1 -10 -4 -10 -6 0 -11 5 -11 10 0 6 2 10 4 10 3 0 8 -4 11
-10z m-2301 -15 c-3 -8 -15 -17 -26 -21 -16 -5 -18 -8 -7 -15 11 -7 9 -9 -7
-9 -36 0 -35 13 4 36 44 28 43 28 36 9z m27 -8 c-10 -9 -11 -8 -5 6 3 10 9 15
12 12 3 -3 0 -11 -7 -18z m2249 3 c0 -5 -2 -10 -4 -10 -3 0 -8 5 -11 10 -3 6
-1 10 4 10 6 0 11 -4 11 -10z m-36 -8 c3 -5 -9 -9 -26 -10 -24 -1 -28 2 -18 8
19 12 37 13 44 2z m66 -16 c0 -2 -7 -6 -15 -10 -8 -3 -15 -1 -15 4 0 6 7 10
15 10 8 0 15 -2 15 -4z m-2390 -40 c0 -7 -11 -22 -25 -32 -14 -10 -25 -25 -25
-33 0 -11 -3 -11 -15 -1 -8 7 -15 19 -15 27 0 8 -5 11 -12 7 -7 -4 -8 -3 -4 4
4 7 13 12 21 12 7 0 15 7 19 15 7 19 56 20 56 1z m2765 -6 c3 -5 1 -10 -4 -10
-6 0 -11 5 -11 10 0 6 2 10 4 10 3 0 8 -4 11 -10z m-965 -14 c0 -3 -4 -8 -10
-11 -5 -3 -10 -1 -10 4 0 6 5 11 10 11 6 0 10 -2 10 -4z m981 -19 c-10 -9 -11
-8 -5 6 3 10 9 15 12 12 3 -3 0 -11 -7 -18z m109 -39 c0 -5 -6 -8 -14 -8 -8 0
-23 -3 -33 -6 -15 -5 -15 -4 -3 5 11 8 12 11 2 11 -7 0 -10 5 -7 10 3 6 1 10
-5 10 -6 0 -9 4 -5 9 6 10 65 -18 65 -31z m-87 2 c-7 -25 -22 -36 -18 -13 2
10 4 21 4 26 1 4 5 7 10 7 5 0 7 -9 4 -20z m-2878 0 c-3 -5 -12 -7 -20 -3 -21
7 -19 13 6 13 11 0 18 -4 14 -10z m2035 -30 c0 -5 -2 -10 -4 -10 -3 0 -8 5
-11 10 -3 6 -1 10 4 10 6 0 11 -4 11 -10z m170 6 c0 -11 -19 -15 -25 -6 -3 5
1 10 9 10 9 0 16 -2 16 -4z m731 -29 c-10 -9 -11 -8 -5 6 3 10 9 15 12 12 3
-3 0 -11 -7 -18z m88 7 c23 15 32 -6 11 -24 -18 -16 -25 -17 -41 -7 -11 7 -15
13 -9 15 5 2 10 11 10 20 0 14 2 14 9 3 5 -7 14 -10 20 -7z m134 -63 c37 -22
95 -61 130 -88 56 -43 82 -67 195 -172 18 -17 38 -31 45 -31 8 0 8 -3 -1 -9
-11 -7 -11 -9 2 -14 9 -4 16 -11 16 -17 0 -11 -15 -1 -50 34 -11 11 -20 15
-20 8 0 -7 -7 -12 -15 -12 -8 0 -15 -6 -15 -14 0 -8 -5 -18 -12 -22 -8 -5 -9
0 -5 15 6 26 11 26 -90 -10 -34 -12 -60 -26 -57 -31 3 -4 1 -8 -5 -8 -5 0 -14
8 -20 17 -8 14 -12 15 -25 4 -14 -12 -16 -12 -10 3 4 11 1 16 -12 17 -11 0
-14 3 -7 6 18 7 -36 76 -54 69 -8 -3 -13 2 -13 12 0 10 -17 25 -41 36 -26 12
-38 23 -35 32 3 9 -1 14 -12 15 -14 0 -14 2 -2 6 17 7 40 29 40 38 0 4 -9 18
-20 32 -15 20 -20 22 -20 9 0 -10 -4 -15 -9 -12 -16 10 1 47 24 56 31 12 41
40 14 40 -17 0 -18 2 -7 15 7 8 15 14 18 15 3 0 36 -18 73 -39z m-3658 -33
c-22 -18 -52 -45 -67 -60 -15 -15 -28 -26 -28 -24 0 2 -21 -16 -47 -40 -52
-48 -100 -77 -114 -68 -5 3 -9 0 -9 -5 0 -6 -7 -11 -15 -11 -11 0 -14 -7 -9
-25 5 -21 3 -24 -11 -19 -13 5 -14 9 -3 15 10 7 9 9 -5 9 -14 0 -11 6 15 27
18 16 39 34 46 40 7 7 18 13 23 13 5 0 23 14 39 30 16 17 33 30 37 30 4 1 44
27 88 60 85 63 126 82 60 28z m3558 -73 c-3 -9 -8 -14 -10 -11 -3 3 -2 9 2 15
9 16 15 13 8 -4z m-743 -45 c8 -5 11 -10 5 -10 -5 0 -17 5 -25 10 -8 5 -10 10
-5 10 6 0 17 -5 25 -10z m-950 -84 c0 -3 -4 -8 -10 -11 -5 -3 -10 -1 -10 4 0
6 5 11 10 11 6 0 10 -2 10 -4z m1687 -2 c-3 -3 -12 -4 -19 -1 -8 3 -5 6 6 6
11 1 17 -2 13 -5z m-3807 -18 c0 -3 -4 -8 -10 -11 -5 -3 -10 -1 -10 4 0 6 5
11 10 11 6 0 10 -2 10 -4z m-87 -41 c-3 -13 -8 -24 -12 -23 -20 2 -31 -4 -31
-17 0 -9 -6 -12 -16 -8 -12 5 -9 12 17 39 39 40 48 42 42 9z m3785 13 c21 -21
13 -30 -38 -43 -26 -7 -38 -19 -33 -32 5 -13 1 -15 -20 -11 -15 3 -27 1 -27
-5 0 -6 -3 -7 -7 -4 -3 4 -14 0 -23 -8 -15 -13 -19 -13 -36 0 -13 11 -14 13
-3 9 10 -3 28 6 46 23 43 39 104 83 118 83 6 0 16 -5 23 -12z m-3753 -18 c-3
-5 -10 -10 -16 -10 -5 0 -9 5 -9 10 0 6 7 10 16 10 8 0 12 -4 9 -10z m3829
-77 c-17 -17 -25 -16 -18 2 4 11 -1 15 -17 16 -17 1 -19 3 -6 6 9 2 17 9 17
14 0 5 8 1 18 -8 14 -14 15 -21 6 -30z m390 31 c6 -15 4 -15 -11 -3 -10 7 -20
15 -22 16 -2 2 3 3 11 3 9 0 19 -7 22 -16z m119 -12 c4 9 6 9 6 1 1 -6 -3 -15
-9 -18 -5 -3 -10 -13 -10 -21 0 -8 4 -13 9 -9 16 9 23 -13 11 -32 -11 -17 -11
-17 -6 0 3 9 0 17 -6 17 -6 0 -19 7 -29 16 -14 13 -16 20 -6 35 8 12 15 15 23
8 8 -7 14 -6 17 3z m-4436 -22 c-1 -11 -4 -20 -8 -20 -10 0 -19 27 -12 34 12
12 22 5 20 -14z m4306 5 c3 -6 -5 -11 -18 -11 -13 0 -21 5 -18 11 2 7 10 12
18 12 8 0 16 -5 18 -12z m198 -7 c1 -7 0 -22 -1 -33 -2 -17 0 -17 15 -5 15 13
22 8 66 -39 27 -29 49 -57 49 -62 0 -5 7 -9 16 -9 8 0 12 -4 9 -10 -3 -5 3
-20 15 -32 15 -16 19 -30 15 -48 -4 -19 -3 -21 5 -10 9 13 11 13 20 0 14 -20
95 -164 96 -170 0 -3 8 -22 17 -43 23 -53 68 -178 73 -202 10 -50 58 -235 74
-285 10 -30 21 -86 25 -125 4 -38 11 -78 17 -88 5 -10 11 -37 13 -60 1 -23 4
-42 5 -42 2 0 8 -32 15 -95 20 -168 45 -304 57 -311 11 -7 11 -9 -1 -9 -11 0
-12 -10 -8 -45 l7 -45 -30 3 c-17 2 -33 7 -37 10 -10 11 -35 8 -28 -3 3 -5 -1
-10 -10 -10 -9 0 -13 -4 -10 -10 3 -6 -1 -7 -9 -4 -20 8 -21 24 -1 24 8 0 15
7 15 15 0 8 7 15 15 15 8 0 15 5 15 11 0 7 9 9 21 6 19 -5 18 -4 -4 17 -13 12
-26 28 -28 35 -2 6 -14 13 -27 14 -12 0 -22 5 -22 9 0 5 11 6 25 2 22 -5 25
-3 25 19 0 29 -18 46 -30 27 -5 -9 -9 -9 -14 -1 -4 6 0 14 8 17 20 8 20 15 1
40 -11 14 -14 15 -9 3 3 -10 0 -20 -7 -25 -8 -4 -10 -3 -5 5 4 6 0 14 -9 17
-14 6 -14 9 4 26 22 20 28 34 11 23 -6 -3 -13 2 -16 12 -3 10 -8 25 -10 33 -4
12 -7 12 -13 1 -6 -9 -11 -10 -15 -2 -4 6 2 16 13 23 18 11 18 14 5 40 -8 16
-12 33 -9 38 4 6 -2 7 -12 3 -16 -6 -16 -4 2 17 11 13 14 20 8 16 -9 -5 -13 0
-14 13 -1 12 -3 26 -4 31 -1 6 -3 14 -4 20 0 5 -10 14 -20 20 -16 8 -23 4 -41
-23 -18 -28 -20 -29 -14 -7 4 14 11 27 16 28 5 2 5 9 -1 16 -6 8 -6 17 1 26 8
12 9 12 4 -2 -3 -11 0 -18 8 -18 7 0 13 10 12 23 0 12 -7 22 -15 22 -8 0 -15
6 -17 13 -1 7 0 8 3 2 7 -15 23 -2 17 15 -3 8 -12 11 -22 7 -14 -5 -15 -3 -4
10 14 18 6 48 -14 48 -8 0 -11 6 -8 15 4 8 1 15 -5 15 -6 0 -11 9 -11 20 0 11
-6 20 -12 20 -8 1 -6 6 5 14 10 8 20 23 22 33 2 10 4 20 4 22 1 2 7 -2 15 -8
7 -6 21 -9 29 -5 22 8 9 37 -14 31 -14 -4 -19 0 -19 14 0 18 -3 17 -26 -8 -14
-15 -23 -23 -20 -16 3 6 3 13 -1 16 -5 2 -2 2 5 1 6 -2 12 1 12 5 0 5 -6 12
-12 14 -8 3 -5 6 6 6 15 1 16 4 6 16 -10 12 -8 16 14 25 14 5 26 15 26 22 0
10 -2 10 -9 -1 -5 -8 -11 -9 -15 -3 -3 5 1 15 9 22 20 16 20 41 0 34 -8 -4
-15 -2 -15 4 0 6 -3 17 -6 26 -4 11 0 16 12 17 17 1 17 2 2 6 -10 2 -18 9 -18
14 0 5 -6 9 -14 9 -8 0 -16 5 -18 12 -3 7 -9 8 -19 2 -8 -5 -18 -9 -23 -9 -5
0 -12 -9 -17 -20 -4 -11 -8 -15 -8 -9 -1 7 -8 14 -16 18 -21 7 -40 -31 -25
-49 9 -11 7 -12 -9 -8 -16 4 -19 9 -11 23 13 24 13 33 0 25 -5 -3 -10 0 -10 9
0 8 -13 20 -29 27 -31 14 -33 33 -3 22 16 -6 16 -6 0 11 -16 15 -23 36 -19 58
0 4 -14 12 -32 17 -21 6 -25 10 -12 10 17 1 18 3 5 14 -18 14 -21 67 -4 60 7
-2 27 8 45 24 19 16 46 35 61 42 15 8 29 20 32 28 4 10 1 11 -13 4 -17 -10
-17 -9 -3 24 10 21 23 35 33 35 10 0 20 4 23 8 3 5 -5 8 -17 7 -29 -3 -48 5
-41 16 3 5 10 7 15 4 5 -3 6 1 3 9 -3 8 -13 17 -22 21 -14 5 -14 7 -2 15 12 8
12 12 0 36 -8 14 -15 34 -15 43 0 13 -10 16 -50 16 -27 -1 -53 4 -57 10 -5 7
-14 6 -29 -3 -11 -8 -18 -9 -15 -3 3 5 1 11 -6 14 -7 2 -6 3 2 2 9 -1 21 4 28
11 7 7 19 11 27 8 25 -10 17 14 -16 46 -25 24 -28 30 -14 30 14 0 15 3 5 15
-9 10 -9 15 -1 15 6 0 12 -6 12 -12z m-1424 -4 c-3 -3 -12 -4 -19 -1 -8 3 -5
6 6 6 11 1 17 -2 13 -5z m758 -4 c3 -5 1 -10 -4 -10 -6 0 -11 5 -11 10 0 6 2
10 4 10 3 0 8 -4 11 -10z m-3905 -10 c0 -5 7 -10 16 -10 8 0 12 -5 9 -10 -4
-7 -13 -7 -26 0 -20 11 -26 30 -9 30 6 0 10 -4 10 -10z m3820 1 c0 -14 -29
-21 -36 -9 -4 6 -3 8 4 4 6 -3 13 -2 17 4 8 12 15 13 15 1z m-70 -11 c8 -5 12
-12 9 -15 -8 -8 -39 5 -39 16 0 11 11 11 30 -1z m-3783 -17 c-9 -2 -14 -9 -11
-15 4 -7 2 -8 -4 -4 -20 12 -13 26 11 25 17 -1 18 -2 4 -6z m4101 -15 c-3 -7
-22 -14 -44 -15 -32 -2 -36 -1 -21 8 10 6 25 8 33 5 8 -3 14 -1 14 4 0 6 5 10
11 10 6 0 9 -6 7 -12z m-4086 -20 c-7 -7 -12 -8 -12 -2 0 14 12 26 19 19 2 -3
-1 -11 -7 -17z m4278 12 c0 -5 -5 -10 -11 -10 -5 0 -7 5 -4 10 3 6 8 10 11 10
2 0 4 -4 4 -10z m-4350 -17 c0 -5 -4 -14 -9 -21 -7 -11 -9 -11 -14 1 -3 8 -3
18 0 21 9 8 23 7 23 -1z m30 -3 c0 -5 -4 -10 -10 -10 -5 0 -10 5 -10 10 0 6 5
10 10 10 6 0 10 -4 10 -10z m4163 -44 c-3 -4 -9 -2 -14 5 -7 12 -9 12 -9 0 0
-8 -2 -12 -5 -9 -3 3 -3 12 1 21 4 13 9 14 19 4 7 -7 11 -16 8 -21z m-4178 5
c-3 -6 -11 -11 -16 -11 -5 0 -4 6 3 14 14 16 24 13 13 -3z m-48 -18 c-3 -3
-11 -2 -17 2 -9 6 -9 10 1 16 14 8 27 -7 16 -18z m4793 -7 c0 -15 -24 -28 -34
-19 -12 12 -6 25 10 19 8 -3 12 -2 9 4 -3 6 -1 10 4 10 6 0 11 -6 11 -14z m5
-46 c-3 -5 -12 -7 -20 -3 -21 7 -19 13 6 13 11 0 18 -4 14 -10z m-572 -17 c3
-5 -8 -8 -25 -9 -20 -1 -25 2 -16 7 16 11 35 11 41 2z m-83 -13 c0 -5 -5 -10
-11 -10 -5 0 -7 5 -4 10 3 6 8 10 11 10 2 0 4 -4 4 -10z m-643 -16 c-3 -3 -12
-4 -19 -1 -8 3 -5 6 6 6 11 1 17 -2 13 -5z m1065 -49 c3 -14 2 -27 -1 -30 -4
-2 -8 10 -9 26 -3 36 4 38 10 4z m-578 -12 c4 -8 13 -13 21 -10 9 4 12 1 9 -7
-7 -18 -51 2 -57 26 -6 21 19 13 27 -9z m-4220 2 c-4 -8 -11 -15 -16 -15 -6 0
-5 6 2 15 7 8 14 15 16 15 2 0 1 -7 -2 -15z m4354 -20 c3 -3 -4 -4 -16 -2 -12
2 -24 6 -28 10 -4 3 4 4 16 2 12 -2 25 -7 28 -10z m229 -30 c0 -8 -4 -15 -9
-15 -4 0 -8 7 -8 15 0 8 4 15 8 15 5 0 9 -7 9 -15z m-4632 -14 c3 -5 2 -12 -3
-15 -5 -3 -9 1 -9 9 0 17 3 19 12 6z m4606 -18 c13 -16 12 -17 -3 -4 -10 7
-18 15 -18 17 0 8 8 3 21 -13z m-911 -24 c0 -6 -4 -7 -10 -4 -5 3 -10 11 -10
16 0 6 5 7 10 4 6 -3 10 -11 10 -16z m330 -39 c8 -5 11 -10 5 -10 -5 0 -17 5
-25 10 -8 5 -10 10 -5 10 6 0 17 -5 25 -10z m520 -14 c0 -3 -4 -8 -10 -11 -5
-3 -10 -1 -10 4 0 6 5 11 10 11 6 0 10 -2 10 -4z m-230 -90 c0 -3 -4 -8 -10
-11 -5 -3 -10 -1 -10 4 0 6 5 11 10 11 6 0 10 -2 10 -4z m480 -26 c0 -5 -5
-10 -11 -10 -5 0 -7 5 -4 10 3 6 8 10 11 10 2 0 4 -4 4 -10z m-470 -10 c0 -5
-2 -10 -4 -10 -3 0 -8 5 -11 10 -3 6 -1 10 4 10 6 0 11 -4 11 -10z m690 -14
c0 -3 -4 -8 -10 -11 -5 -3 -10 -1 -10 4 0 6 5 11 10 11 6 0 10 -2 10 -4z m-2
-60 c-1 -2 -15 -6 -30 -10 l-28 -6 23 23 c17 17 24 19 30 9 5 -7 7 -15 5 -16z
m-318 -56 c8 -5 11 -10 5 -10 -5 0 -17 5 -25 10 -8 5 -10 10 -5 10 6 0 17 -5
25 -10z m360 6 c0 -3 -4 -8 -10 -11 -5 -3 -10 -1 -10 4 0 6 5 11 10 11 6 0 10
-2 10 -4z m84 -77 c-8 -13 -44 9 -44 27 0 12 4 12 25 -2 14 -9 22 -20 19 -25z
m-194 21 c0 -5 -5 -10 -11 -10 -5 0 -7 5 -4 10 3 6 8 10 11 10 2 0 4 -4 4 -10z
m-4220 -20 c0 -5 -7 -10 -16 -10 -8 0 -12 5 -9 10 3 6 10 10 16 10 5 0 9 -4 9
-10z m73 -10 c6 -22 -18 -29 -27 -7 -2 6 -4 3 -4 -8 2 -39 -2 -56 -12 -50 -8
5 -7 12 2 22 11 13 8 13 -24 0 -30 -13 -37 -13 -42 -2 -3 9 0 12 10 8 8 -3 14
1 14 11 0 9 7 16 15 16 8 0 15 4 15 9 0 8 14 15 41 20 4 0 9 -8 12 -19z m4437
10 c0 -5 -2 -10 -4 -10 -3 0 -8 5 -11 10 -3 6 -1 10 4 10 6 0 11 -4 11 -10z
m-4654 -22 c-12 -7 -21 -7 -28 0 -6 6 0 10 18 10 23 0 24 -2 10 -10z m1364
-33 c11 -13 10 -14 -4 -9 -9 3 -16 10 -16 15 0 13 6 11 20 -6z m90 -6 c0 -5
-4 -9 -10 -9 -5 0 -10 7 -10 16 0 8 5 12 10 9 6 -3 10 -10 10 -16z m2310 -4
c14 -19 14 -19 -2 -6 -10 7 -18 18 -18 24 0 6 1 8 3 6 1 -2 9 -13 17 -24z
m560 21 c0 -9 -30 -14 -35 -6 -4 6 3 10 14 10 12 0 21 -2 21 -4z m-646 -21 c3
-8 1 -15 -4 -15 -6 0 -10 7 -10 15 0 8 2 15 4 15 2 0 6 -7 10 -15z m-3570 -11
c5 -14 4 -15 -9 -4 -17 14 -19 20 -6 20 5 0 12 -7 15 -16z m123 10 c-3 -3 -12
-4 -19 -1 -8 3 -5 6 6 6 11 1 17 -2 13 -5z m-507 -24 c0 -5 -2 -10 -4 -10 -3
0 -8 5 -11 10 -3 6 -1 10 4 10 6 0 11 -4 11 -10z m-30 -44 c0 -2 -8 -10 -17
-17 -16 -13 -17 -12 -4 4 13 16 21 21 21 13z m161 -25 c-20 -16 -31 -33 -27
-39 4 -7 3 -12 -3 -12 -5 0 -13 5 -17 11 -4 8 -9 7 -15 -2 -5 -8 -3 -17 4 -21
8 -5 6 -8 -5 -8 -10 0 -18 5 -18 11 0 5 -5 7 -11 3 -8 -4 -8 -1 -1 13 19 35
72 71 107 72 16 0 14 -5 -14 -28z m339 -58 c-19 -27 -27 -20 -11 10 7 13 11
27 10 33 -5 26 4 35 10 9 5 -20 2 -37 -9 -52z m3320 47 c0 -5 -4 -10 -10 -10
-5 0 -10 5 -10 10 0 6 5 10 10 10 6 0 10 -4 10 -10z m-2305 -20 c-3 -5 3 -13
12 -19 19 -11 15 -13 -32 -15 -11 -1 -21 -9 -23 -20 -3 -15 0 -17 14 -12 17 7
17 6 1 -12 -11 -12 -26 -17 -42 -14 l-24 4 21 17 c23 19 17 44 -7 34 -8 -3
-15 0 -15 7 0 9 10 11 30 7 21 -5 30 -3 30 6 0 17 21 38 32 31 4 -3 6 -9 3
-14z m92 11 c7 7 13 7 17 1 10 -16 -51 -33 -63 -18 -15 17 -2 27 19 16 11 -6
21 -5 27 1z m-1670 -27 c-47 -56 -68 -76 -73 -72 -5 6 78 98 88 98 5 0 -2 -12
-15 -26z m2208 6 c-3 -5 -12 -10 -18 -10 -7 0 -6 4 3 10 19 12 23 12 15 0z
m1389 -26 c5 -14 4 -15 -9 -4 -17 14 -19 20 -6 20 5 0 12 -7 15 -16z m-1364 2
c0 -3 -4 -8 -10 -11 -5 -3 -10 -1 -10 4 0 6 5 11 10 11 6 0 10 -2 10 -4z
m-1720 -15 c0 -9 -41 -23 -49 -16 -3 4 28 20 47 24 1 1 2 -3 2 -8z m3120 -1
c0 -5 -5 -10 -11 -10 -5 0 -7 5 -4 10 3 6 8 10 11 10 2 0 4 -4 4 -10z m-3124
-35 c-11 -8 -26 -15 -33 -15 -7 0 -13 -5 -13 -11 0 -5 -5 -7 -12 -3 -7 5 -9 0
-6 -14 4 -12 0 -23 -8 -26 -8 -3 -11 0 -7 10 7 19 -7 18 -22 -3 -12 -16 -35
-11 -35 8 0 6 5 7 10 4 6 -3 14 4 19 17 6 13 10 19 10 15 1 -4 11 -2 24 5 12
7 29 11 39 10 9 -2 19 2 23 8 3 5 12 10 18 10 7 0 3 -7 -7 -15z m1089 5 c-3
-5 -12 -10 -18 -10 -7 0 -6 4 3 10 19 12 23 12 15 0z m3475 -30 c0 -5 -7 -7
-15 -4 -8 4 -12 10 -9 15 6 11 24 2 24 -11z m-4750 0 c0 -5 -2 -10 -4 -10 -3
0 -8 5 -11 10 -3 6 -1 10 4 10 6 0 11 -4 11 -10z m-410 -4 c0 -2 -8 -10 -17
-17 -16 -13 -17 -12 -4 4 13 16 21 21 21 13z m352 -26 c-30 -29 -40 -25 -12 5
13 14 26 23 28 20 3 -3 -4 -14 -16 -25z m1278 15 c0 -8 -2 -15 -4 -15 -2 0 -6
7 -10 15 -3 8 -1 15 4 15 6 0 10 -7 10 -15z m-170 -15 c10 0 22 5 25 11 5 7
14 4 26 -7 17 -16 19 -16 19 -1 0 24 17 21 23 -3 3 -11 11 -20 17 -20 10 0 10
3 0 14 -10 13 -8 13 13 3 36 -17 24 -51 -15 -43 -24 5 -29 3 -24 -9 3 -8 0
-17 -6 -21 -7 -4 -8 -3 -4 4 5 8 0 12 -13 12 -11 0 -23 5 -26 10 -4 6 -12 7
-18 3 -7 -4 -25 -8 -42 -9 -16 -1 -37 -4 -45 -8 -11 -4 -16 -1 -17 13 -1 17
15 31 34 30 4 0 11 10 16 23 6 14 11 18 14 11 3 -7 13 -13 23 -13z m-1050 -5
c0 -8 -2 -15 -4 -15 -2 0 -6 7 -10 15 -3 8 -1 15 4 15 6 0 10 -7 10 -15z
m-1465 -13 c-3 -3 -11 0 -18 7 -9 10 -8 11 6 5 10 -3 15 -9 12 -12z m30 8 c3
-5 1 -10 -4 -10 -6 0 -11 5 -11 10 0 6 2 10 4 10 3 0 8 -4 11 -10z m-58 -42
c-3 -8 -6 -5 -6 6 -1 11 2 17 5 13 3 -3 4 -12 1 -19z m1463 2 c-24 -15 -36
-11 -14 4 10 8 21 12 24 10 2 -3 -2 -9 -10 -14z m1487 -7 c-3 -3 -11 -2 -17 2
-9 6 -9 10 1 16 14 8 27 -7 16 -18z m233 17 c0 -5 -4 -10 -10 -10 -5 0 -10 5
-10 10 0 6 5 10 10 10 6 0 10 -4 10 -10z m40 -11 c0 -6 -4 -7 -10 -4 -5 3 -10
11 -10 16 0 6 5 7 10 4 6 -3 10 -11 10 -16z m510 11 c0 -5 -2 -10 -4 -10 -3 0
-8 5 -11 10 -3 6 -1 10 4 10 6 0 11 -4 11 -10z m-2180 -20 c0 -13 -6 -16 -25
-12 -15 2 -25 0 -25 -7 0 -6 -4 -11 -9 -11 -5 0 -4 10 2 23 13 27 57 33 57 7z
m-220 0 c13 -8 13 -10 -2 -10 -9 0 -20 5 -23 10 -8 13 5 13 25 0z m1830 -10
c0 -5 -7 -10 -15 -10 -13 0 -38 -32 -32 -41 1 -2 0 -3 -2 -2 -2 2 -10 -2 -18
-8 -10 -9 -13 -8 -13 4 0 8 7 17 15 21 8 3 15 12 15 20 0 8 10 17 23 19 12 2
23 5 25 6 1 0 2 -3 2 -9z m1435 -10 c-3 -5 -10 -10 -16 -10 -5 0 -9 5 -9 10 0
6 7 10 16 10 8 0 12 -4 9 -10z m-3175 -4 c0 -2 -8 -10 -17 -17 -16 -13 -17
-12 -4 4 13 16 21 21 21 13z m1770 -16 c0 -5 -5 -10 -11 -10 -5 0 -7 5 -4 10
3 6 8 10 11 10 2 0 4 -4 4 -10z m2485 -8 c-3 -3 -11 0 -18 7 -9 10 -8 11 6 5
10 -3 15 -9 12 -12z m-1170 -22 c-3 -5 -12 -10 -18 -10 -7 0 -6 4 3 10 19 12
23 12 15 0z m855 -12 c0 -6 -6 -5 -15 2 -8 7 -15 14 -15 16 0 2 7 1 15 -2 8
-4 15 -11 15 -16z m925 2 c3 -5 1 -10 -4 -10 -6 0 -11 5 -11 10 0 6 2 10 4 10
3 0 8 -4 11 -10z m-5210 -10 c3 -5 -9 -19 -27 -30 -37 -23 -48 -25 -48 -9 0 5
4 8 8 5 4 -2 17 6 27 19 22 27 31 30 40 15z m5190 -26 c-16 -12 -18 -18 -7
-34 6 -10 8 -21 3 -24 -11 -7 -31 38 -23 51 6 9 28 21 42 22 3 0 -4 -6 -15
-15z m-51 -3 c3 -5 -1 -11 -9 -14 -9 -4 -12 -1 -8 9 6 16 10 17 17 5z m-2759
-20 c-3 -6 -14 -11 -23 -11 -13 0 -13 2 4 14 21 15 30 14 19 -3z m2835 -1 c0
-5 -5 -10 -11 -10 -5 0 -7 5 -4 10 3 6 8 10 11 10 2 0 4 -4 4 -10z m-63 -36
c-3 -3 -12 -4 -19 -1 -8 3 -5 6 6 6 11 1 17 -2 13 -5z m116 -35 c3 -10 -2 -19
-12 -22 -11 -3 -16 3 -16 18 0 26 22 29 28 4z m-5543 -18 c0 -5 -10 -13 -22
-17 -13 -4 -26 -11 -29 -17 -4 -6 -13 -5 -25 3 -16 10 -16 11 -1 6 9 -3 17 -2
17 2 0 5 12 13 28 19 15 6 28 11 30 12 1 1 2 -3 2 -8z m-420 -49 c0 -15 -35
-55 -102 -117 -24 -22 -23 -4 2 28 11 14 20 29 20 33 0 11 62 74 72 74 4 0 8
-8 8 -18z m309 -13 c-22 -14 -33 -10 -19 6 7 8 17 12 22 9 6 -4 5 -10 -3 -15z
m1858 15 c-3 -3 -12 -4 -19 -1 -8 3 -5 6 6 6 11 1 17 -2 13 -5z m3811 -35 c11
0 12 -2 4 -6 -15 -6 -42 14 -42 31 0 6 5 3 11 -6 5 -10 18 -18 27 -19z m-58
-22 c0 -5 -4 -5 -10 -2 -5 3 -10 14 -10 23 0 15 2 15 10 2 5 -8 10 -19 10 -23z
m-5660 1 c0 -5 -8 -8 -17 -6 -11 2 -17 -2 -15 -11 3 -12 0 -12 -12 -1 -13 10
-16 10 -16 0 0 -8 -3 -11 -6 -8 -3 4 -1 15 5 26 7 14 17 18 36 15 14 -3 25
-10 25 -15z m-956 -3 c-7 -18 -20 -19 -30 -3 -4 7 -3 8 4 4 7 -4 12 -2 12 3 0
6 4 11 10 11 5 0 7 -7 4 -15z m0 -34 c3 -5 -1 -12 -10 -15 -9 -4 -14 -13 -10
-21 7 -19 -8 -20 -23 -1 -9 11 -7 15 11 20 19 5 20 8 8 16 -13 8 -13 10 2 10
9 0 19 -4 22 -9z m6456 -21 c0 -23 -4 -24 -33 -8 -21 11 -21 11 -2 19 31 12
35 11 35 -11z m113 13 c-7 -2 -13 -12 -13 -21 0 -15 -2 -15 -10 -2 -9 15 4 30
25 29 6 0 4 -3 -2 -6z m112 -15 c5 4 5 1 1 -6 -6 -10 -11 -10 -22 -1 -8 6 -14
14 -14 16 0 3 6 0 13 -6 8 -6 18 -7 22 -3z m-295 -12 c0 -3 -4 -8 -10 -11 -5
-3 -10 -1 -10 4 0 6 5 11 10 11 6 0 10 -2 10 -4z m-1390 -16 c0 -5 -4 -10 -10
-10 -5 0 -10 5 -10 10 0 6 5 10 10 10 6 0 10 -4 10 -10z m-5035 -10 c3 -6 -1
-7 -9 -4 -18 7 -21 14 -7 14 6 0 13 -4 16 -10z m6135 0 c0 -5 -5 -10 -11 -10
-5 0 -7 5 -4 10 3 6 8 10 11 10 2 0 4 -4 4 -10z m615 -8 c-3 -3 -11 0 -18 7
-9 10 -8 11 6 5 10 -3 15 -9 12 -12z m-478 -8 c-3 -3 -12 -4 -19 -1 -8 3 -5 6
6 6 11 1 17 -2 13 -5z m93 -3 c0 -6 -4 -13 -10 -16 -5 -3 -10 1 -10 9 0 9 5
16 10 16 6 0 10 -4 10 -9z m82 -13 c-2 -10 -9 -18 -14 -18 -5 0 -6 5 -2 11 3
6 0 15 -7 20 -10 6 -8 8 7 7 15 -2 20 -7 16 -20z m-6482 -19 c0 -6 -4 -7 -10
-4 -5 3 -10 11 -10 16 0 6 5 7 10 4 6 -3 10 -11 10 -16z m1180 -3 c0 -3 -4 -8
-10 -11 -5 -3 -10 -1 -10 4 0 6 5 11 10 11 6 0 10 -2 10 -4z m5571 -17 c9 -5
19 -6 23 -4 3 3 4 2 1 -2 -7 -9 -45 -12 -45 -3 0 3 -12 11 -27 17 l-28 12 30
-6 c17 -3 37 -9 46 -14z m70 -9 c5 0 9 -7 9 -15 0 -15 -20 -22 -20 -7 0 4 -2
16 -4 27 -2 11 -1 14 1 8 3 -7 9 -13 14 -13z m-591 -20 c-8 -5 -17 -7 -19 -4
-3 3 1 9 9 14 8 5 17 7 19 4 3 -3 -1 -9 -9 -14z m474 12 c2 -4 -4 -9 -15 -9
-11 -1 -17 2 -14 8 7 11 22 12 29 1z m-6048 -24 c4 -7 3 -8 -4 -4 -7 4 -12 3
-12 -2 0 -5 -10 -12 -22 -15 -22 -6 -22 -6 2 13 30 23 27 23 36 8z m6104 2 c0
-5 -4 -10 -10 -10 -5 0 -10 5 -10 10 0 6 5 10 10 10 6 0 10 -4 10 -10z m-6386
-73 c-3 -9 -9 -15 -14 -12 -4 2 -24 -14 -44 -37 -54 -59 -53 -42 1 25 43 52
73 65 57 24z m456 -47 c-22 -22 -40 -45 -40 -50 0 -6 -11 -21 -25 -34 -13 -13
-22 -26 -18 -29 3 -4 -1 -7 -10 -7 -9 0 -17 -7 -17 -15 0 -8 -4 -15 -10 -15
-5 0 -10 -6 -10 -12 0 -7 -12 -18 -26 -25 -23 -11 -24 -10 -18 10 18 58 64
134 88 145 14 6 26 16 26 22 0 5 7 10 15 10 8 0 15 3 15 8 0 8 38 29 58 31 6
0 -6 -17 -28 -39z m6067 21 c-3 -12 0 -18 7 -15 7 3 12 -4 12 -16 0 -11 -7
-20 -16 -20 -11 0 -15 9 -14 28 1 36 3 42 10 42 4 0 4 -9 1 -19z m-6846 -68
c-11 -21 -71 -80 -71 -70 0 8 70 87 77 87 2 0 -1 -8 -6 -17z m-241 3 c0 -2 -7
-7 -16 -10 -8 -3 -12 -2 -9 4 6 10 25 14 25 6z m7360 -42 c0 -8 -19 -13 -24
-6 -3 5 1 9 9 9 8 0 15 -2 15 -3z m-2610 -64 c0 -5 -4 -11 -9 -14 -12 -7 -42
4 -37 13 7 10 46 11 46 1z m2230 -5 c0 -8 -4 -15 -10 -15 -5 0 -7 7 -4 15 4 8
8 15 10 15 2 0 4 -7 4 -15z m-6520 -3 c0 -9 -44 -32 -58 -32 -9 1 41 39 51 40
4 0 7 -4 7 -8z m-337 -47 c-3 -9 -8 -14 -10 -11 -3 3 -2 9 2 15 9 16 15 13 8
-4z m277 1 c0 -2 -7 -7 -16 -10 -8 -3 -12 -2 -9 4 6 10 25 14 25 6z m6180 -27
c0 -6 -4 -7 -10 -4 -5 3 -10 11 -10 16 0 6 5 7 10 4 6 -3 10 -11 10 -16z
m-1313 -14 c0 -8 -4 -15 -8 -15 -11 0 -20 16 -12 24 11 11 20 7 20 -9z m1687
0 c3 -8 1 -15 -4 -15 -6 0 -10 7 -10 15 0 8 2 15 4 15 2 0 6 -7 10 -15z m-214
-15 c6 -11 7 -20 2 -20 -6 0 -12 9 -15 20 -3 11 -3 20 -1 20 2 0 8 -9 14 -20z
m-6410 -20 c0 -5 -7 -10 -15 -10 -8 0 -15 5 -15 10 0 6 7 10 15 10 8 0 15 -4
15 -10z m6794 -6 c11 -27 7 -37 -9 -24 -16 14 -20 40 -6 40 5 0 12 -7 15 -16z
m-44 0 c0 -8 -19 -13 -24 -6 -3 5 1 9 9 9 8 0 15 -2 15 -3z m-70 -29 c33 -17
38 -30 15 -39 -9 -3 -15 0 -15 8 0 18 -27 40 -34 27 -3 -5 0 -12 6 -14 8 -4 7
-6 -4 -6 -9 -1 -23 2 -32 5 -12 5 -13 9 -3 20 16 17 32 17 67 -1z m-290 1 c0
-2 -7 -6 -15 -10 -8 -3 -15 -1 -15 4 0 6 7 10 15 10 8 0 15 -2 15 -4z m394
-39 c-7 -18 -24 -23 -24 -8 0 22 13 42 22 33 5 -5 6 -16 2 -25z m-7135 -16
c-13 -16 -28 -30 -32 -30 -5 -1 4 14 20 32 34 41 44 40 12 -2z m7076 -41 c-3
-5 -11 -10 -16 -10 -6 0 -7 5 -4 10 3 6 11 10 16 10 6 0 7 -4 4 -10z m-7125
-15 c-7 -9 -15 -13 -19 -10 -3 3 1 10 9 15 21 14 24 12 10 -5z m7180 -6 c0 -6
-4 -7 -10 -4 -5 3 -10 11 -10 16 0 6 5 7 10 4 6 -3 10 -11 10 -16z m-2271 -18
c1 6 9 3 15 -7 16 -22 68 -27 263 -27 121 0 163 -3 167 -12 5 -14 -62 -27 -79
-16 -12 8 -122 5 -147 -3 -10 -3 -25 -8 -34 -11 -8 -3 -12 -10 -8 -16 5 -8 3
-9 -7 -3 -8 5 -23 7 -34 6 -17 -2 -17 -1 -5 7 11 8 5 11 -25 11 -29 0 -36 -3
-25 -10 13 -8 12 -10 -2 -10 -10 0 -18 -4 -18 -10 0 -5 -6 -10 -13 -10 -9 0
-13 -11 -12 -30 1 -16 -2 -30 -7 -30 -4 0 -8 5 -8 10 0 6 -11 8 -25 4 -29 -7
-34 9 -7 26 16 11 16 11 0 6 -13 -4 -18 0 -18 13 0 10 -10 31 -22 47 -13 17
-16 24 -6 16 22 -18 38 -8 31 19 -4 14 -12 19 -24 16 -11 -3 -16 -1 -13 5 3 5
-2 16 -12 24 -11 8 0 6 26 -6 27 -11 46 -15 49 -9z m571 -52 c0 -6 -4 -7 -10
-4 -5 3 -10 11 -10 16 0 6 5 7 10 4 6 -3 10 -11 10 -16z m-44 4 c-10 -11 -36
-12 -36 -2 0 5 10 9 22 9 12 0 18 -3 14 -7z m269 -2 c3 -6 -4 -9 -15 -8 -11 1
-20 5 -20 9 0 11 28 10 35 -1z m-55 -27 c0 -2 -9 -4 -21 -4 -11 0 -18 4 -14
10 5 8 35 3 35 -6z m1520 2 c0 -3 -4 -8 -10 -11 -5 -3 -10 -1 -10 4 0 6 5 11
10 11 6 0 10 -2 10 -4z m-1570 -32 c0 -8 -4 -12 -10 -9 -5 3 -10 10 -10 16 0
5 5 9 10 9 6 0 10 -7 10 -16z m1580 -24 c0 -5 -4 -10 -10 -10 -5 0 -10 5 -10
10 0 6 5 10 10 10 6 0 10 -4 10 -10z m-37 -7 c-7 -2 -21 -2 -30 0 -10 3 -4 5
12 5 17 0 24 -2 18 -5z m-393 -27 c0 -2 -7 -7 -16 -10 -8 -3 -12 -2 -9 4 6 10
25 14 25 6z m131 -8 c1 -7 1 -16 0 -20 0 -5 4 -8 10 -8 5 0 7 -5 4 -10 -9 -15
-27 -1 -21 16 3 8 1 14 -4 14 -6 0 -10 -5 -10 -11 0 -5 -5 -7 -10 -4 -8 5 -7
11 1 21 14 17 29 18 30 2z m159 -3 c7 -9 8 -15 2 -15 -5 0 -12 7 -16 15 -3 8
-4 15 -2 15 2 0 9 -7 16 -15z m100 -20 c0 -19 -5 -35 -10 -35 -6 0 -8 11 -6
24 6 31 -3 39 -23 23 -14 -11 -14 -10 -2 6 23 29 41 21 41 -18z m-2212 0 c-3
-3 -9 2 -12 12 -6 14 -5 15 5 6 7 -7 10 -15 7 -18z m1673 -42 c13 -17 13 -17
-6 -3 -11 8 -22 16 -24 17 -2 2 0 3 6 3 6 0 17 -8 24 -17z m296 1 c-3 -3 -12
-4 -19 -1 -8 3 -5 6 6 6 11 1 17 -2 13 -5z m-1927 -28 c0 -3 -4 -8 -10 -11 -5
-3 -10 -1 -10 4 0 6 5 11 10 11 6 0 10 -2 10 -4z m1670 -10 c0 -3 -4 -8 -10
-11 -5 -3 -10 -1 -10 4 0 6 5 11 10 11 6 0 10 -2 10 -4z m-1680 -26 c10 0 22
5 25 10 3 6 12 10 18 9 9 0 9 -2 0 -6 -14 -5 2 -42 25 -56 9 -6 9 -13 1 -29
-8 -15 -14 -17 -22 -9 -18 18 -25 13 -32 -19 -6 -25 -9 -29 -21 -19 -7 6 -21
9 -29 5 -13 -4 -14 -2 -5 14 5 10 10 33 10 51 0 27 -2 30 -15 19 -13 -10 -12
-6 2 18 10 17 20 27 21 22 2 -6 12 -10 22 -10z m-116 -69 c-6 -6 -11 1 -18 29
l-7 25 15 -25 c8 -14 12 -27 10 -29z m6 -20 c0 -6 -4 -13 -10 -16 -5 -3 -10 1
-10 9 0 9 5 16 10 16 6 0 10 -4 10 -9z m-5177 -40 c-40 -42 -66 -77 -76 -98
-5 -12 -18 -25 -29 -28 -10 -4 -18 -13 -18 -21 0 -8 -4 -14 -9 -14 -5 0 -24
-22 -42 -50 -18 -27 -36 -50 -41 -50 -4 0 -8 -7 -8 -15 0 -8 -5 -15 -11 -15
-5 0 -8 -4 -5 -9 3 -5 -1 -11 -9 -15 -8 -3 -15 -1 -15 5 0 19 255 329 271 329
5 0 1 -9 -8 -19z m5374 13 c-3 -3 -12 -4 -19 -1 -8 3 -5 6 6 6 11 1 17 -2 13
-5z m-191 -42 c-10 -10 -29 15 -21 28 6 9 10 8 17 -4 6 -10 7 -20 4 -24z m4
-47 c0 -8 -4 -15 -10 -15 -5 0 -10 7 -10 15 0 8 5 15 10 15 6 0 10 -7 10 -15z
m2280 -5 c0 -5 -2 -10 -4 -10 -3 0 -8 5 -11 10 -3 6 -1 10 4 10 6 0 11 -4 11
-10z m-1580 -30 c0 -5 -2 -10 -4 -10 -3 0 -8 5 -11 10 -3 6 -1 10 4 10 6 0 11
-4 11 -10z m787 -12 c-3 -8 -6 -5 -6 6 -1 11 2 17 5 13 3 -3 4 -12 1 -19z
m-1477 -53 c0 -14 -4 -25 -10 -25 -5 0 -10 11 -10 25 0 14 5 25 10 25 6 0 10
-11 10 -25z m2290 4 c0 -6 -4 -7 -10 -4 -5 3 -10 11 -10 16 0 6 5 7 10 4 6 -3
10 -11 10 -16z m-2153 -45 c-1 -1 -14 -4 -28 -8 -19 -4 -29 -1 -32 8 -4 11 1
13 19 10 15 -3 24 0 24 8 0 9 3 9 10 -2 5 -8 8 -15 7 -16z m2135 12 c12 3 18
2 14 -4 -3 -5 -7 -64 -10 -131 -2 -67 -7 -125 -11 -129 -4 -4 -12 1 -19 11 -7
9 -18 17 -24 17 -6 0 -19 11 -30 25 -11 13 -21 22 -24 20 -2 -2 -4 5 -5 16 -1
11 2 17 8 14 5 -4 9 -1 9 4 0 6 -4 11 -9 11 -6 0 -6 12 0 32 6 23 5 34 -4 40
-9 6 -9 8 1 8 7 0 12 7 10 15 -2 8 6 26 17 39 15 18 24 21 38 14 10 -5 27 -6
39 -2z m-1887 -6 c-3 -5 -12 -10 -18 -10 -7 0 -6 4 3 10 19 12 23 12 15 0z
m1765 -44 c0 -3 -4 -8 -10 -11 -5 -3 -10 -1 -10 4 0 6 5 11 10 11 6 0 10 -2
10 -4z m-327 -19 c3 -8 -3 -14 -14 -14 -11 -1 -19 5 -19 13 0 18 26 19 33 1z
m201 4 c23 -9 9 -21 -20 -17 -10 2 -29 -8 -42 -21 -12 -13 -30 -23 -40 -21
-19 4 -30 38 -12 38 6 0 8 -5 4 -12 -5 -7 -3 -8 5 -4 7 5 10 14 7 21 -3 8 0
16 7 19 18 7 70 6 91 -3z m-1374 -11 c0 -5 -5 -10 -11 -10 -5 0 -7 5 -4 10 3
6 8 10 11 10 2 0 4 -4 4 -10z m1240 -11 c0 -5 -9 -9 -20 -9 -11 0 -20 4 -20 8
0 4 9 8 20 9 11 1 20 -2 20 -8z m-60 -19 c0 -5 -4 -10 -10 -10 -5 0 -10 5 -10
10 0 6 5 10 10 10 6 0 10 -4 10 -10z m-550 -10 c0 -5 -4 -10 -10 -10 -5 0 -10
5 -10 10 0 6 5 10 10 10 6 0 10 -4 10 -10z m360 -15 c0 -8 -4 -15 -8 -15 -5 0
-9 7 -9 15 0 8 4 15 9 15 4 0 8 -7 8 -15z m337 -1 c-3 -3 -12 -4 -19 -1 -8 3
-5 6 6 6 11 1 17 -2 13 -5z m-57 -44 c0 -5 -5 -10 -11 -10 -5 0 -7 5 -4 10 3
6 8 10 11 10 2 0 4 -4 4 -10z m-1390 -70 c0 -5 -5 -10 -11 -10 -5 0 -7 5 -4
10 3 6 8 10 11 10 2 0 4 -4 4 -10z m-750 -20 c0 -5 -5 -10 -11 -10 -5 0 -7 5
-4 10 3 6 8 10 11 10 2 0 4 -4 4 -10z m40 0 c0 -5 -2 -10 -4 -10 -3 0 -8 5
-11 10 -3 6 -1 10 4 10 6 0 11 -4 11 -10z m825 -30 c3 -5 -1 -10 -10 -10 -9 0
-13 5 -10 10 3 6 8 10 10 10 2 0 7 -4 10 -10z m283 -27 c-10 -2 -26 -2 -35 0
-10 3 -2 5 17 5 19 0 27 -2 18 -5z m1342 -3 c0 -5 -5 -10 -11 -10 -5 0 -7 5
-4 10 3 6 8 10 11 10 2 0 4 -4 4 -10z m-1738 -18 c8 -8 5 -9 -11 -5 -13 3 -21
1 -21 -7 0 -10 -3 -10 -14 -1 -11 9 -14 8 -12 -5 1 -12 -7 -17 -27 -18 -19 -1
-26 2 -23 11 3 7 1 13 -4 13 -6 0 -10 -5 -10 -11 0 -8 -4 -8 -14 0 -11 9 -16
9 -21 0 -5 -7 -24 -9 -56 -5 -27 4 -57 2 -67 -3 -9 -5 -38 -11 -64 -14 -25 -3
-51 -8 -57 -11 -5 -4 -15 2 -21 13 -16 31 10 39 134 40 60 1 115 5 123 9 20
12 152 7 165 -6z m198 2 c0 -8 -5 -12 -10 -9 -6 4 -8 11 -5 16 9 14 15 11 15
-7z m-65 -4 c3 -6 -1 -7 -9 -4 -18 7 -21 14 -7 14 6 0 13 -4 16 -10z m254 -4
c9 -10 8 -15 -2 -19 -8 -3 -13 3 -14 14 -2 23 1 24 16 5z m-339 0 c0 -3 -4 -8
-10 -11 -5 -3 -10 -1 -10 4 0 6 5 11 10 11 6 0 10 -2 10 -4z m1306 -65 c-4 -5
-2 -11 4 -13 6 -2 1 -9 -10 -16 -17 -11 -20 -10 -20 7 0 16 8 25 28 30 2 1 1
-3 -2 -8z m-1866 -10 c0 -5 -7 -11 -15 -15 -15 -5 -20 5 -8 17 9 10 23 9 23
-2z m1740 -20 c0 -4 -10 -7 -22 -5 -34 4 -35 5 -13 13 21 9 35 5 35 -8z m187
13 c-3 -3 -12 -4 -19 -1 -8 3 -5 6 6 6 11 1 17 -2 13 -5z m-7 -39 c0 -8 -2
-15 -4 -15 -2 0 -6 7 -10 15 -3 8 -1 15 4 15 6 0 10 -7 10 -15z m55 -3 c-9 -9
-35 -11 -35 -3 0 14 12 20 26 14 8 -3 12 -8 9 -11z m238 1 c-5 -13 -2 -15 15
-11 19 5 20 2 21 -53 0 -33 -3 -59 -7 -59 -9 0 -9 -56 0 -66 11 -11 -11 -34
-33 -34 -10 0 -21 -4 -24 -10 -3 -5 -14 -10 -23 -9 -14 0 -13 2 3 9 17 7 15 9
-12 9 -37 1 -40 7 -17 33 14 15 15 20 3 34 -12 14 -14 14 -26 -2 -7 -10 -13
-13 -13 -8 0 6 10 21 21 33 17 18 19 25 9 31 -7 4 -9 13 -6 19 4 6 3 11 -2 11
-6 0 -8 9 -5 20 3 11 10 20 15 20 5 0 6 5 2 11 -5 8 1 10 20 7 20 -4 31 0 39
13 15 23 29 25 20 2z m-318 -34 c-10 -15 -25 -10 -19 6 4 8 10 12 15 9 5 -3 7
-10 4 -15z m71 -16 c-3 -7 3 -17 12 -22 9 -6 12 -11 5 -11 -6 0 -18 7 -27 15
-15 15 -41 21 -32 7 2 -4 -5 -8 -16 -8 -20 0 -20 0 0 16 23 19 65 21 58 3z
m-121 -7 c-20 -14 -35 -12 -35 5 0 5 12 9 27 9 26 0 26 -1 8 -14z m-1415 -70
c0 -2 -7 -6 -15 -10 -8 -3 -15 -1 -15 4 0 6 7 10 15 10 8 0 15 -2 15 -4z
m-472 -128 c-3 -22 -28 -39 -28 -18 0 6 5 8 11 4 8 -4 9 0 4 15 -4 13 -2 21 5
21 6 0 10 -10 8 -22z m27 -48 c3 -5 1 -10 -4 -10 -6 0 -11 5 -11 10 0 6 2 10
4 10 3 0 8 -4 11 -10z m582 -66 c-3 -3 -12 -4 -19 -1 -8 3 -5 6 6 6 11 1 17
-2 13 -5z m-417 -29 c5 3 10 1 10 -5 0 -8 -9 -10 -26 -6 -20 5 -25 4 -21 -6 3
-8 -2 -14 -13 -14 -18 0 -17 9 5 32 7 8 14 9 22 2 7 -5 17 -7 23 -3z m325 6
c3 -5 1 -12 -4 -15 -5 -3 -11 1 -15 9 -6 16 9 21 19 6z m1425 -11 c0 -5 -5
-10 -11 -10 -5 0 -7 5 -4 10 3 6 8 10 11 10 2 0 4 -4 4 -10z m-1923 -56 c-3
-3 -12 -4 -19 -1 -8 3 -5 6 6 6 11 1 17 -2 13 -5z m2209 -236 c-3 -51 -8 -108
-11 -125 -2 -18 1 -35 7 -39 7 -4 7 -9 -1 -14 -7 -4 -15 -36 -19 -71 -6 -57
-10 -64 -30 -67 -13 -2 -30 2 -38 9 -12 10 -12 13 1 23 12 8 15 24 11 61 -3
38 0 53 13 62 10 8 12 15 6 20 -15 11 -13 42 4 52 11 7 11 15 1 46 -7 20 -18
39 -26 42 -11 4 -11 7 1 20 20 20 19 43 -2 43 -30 0 0 18 37 23 19 2 39 5 44
5 4 1 6 -40 2 -90z m-952 27 c3 -8 1 -15 -4 -15 -6 0 -10 7 -10 15 0 8 2 15 4
15 2 0 6 -7 10 -15z m846 -15 c0 -5 -5 -10 -11 -10 -5 0 -7 5 -4 10 3 6 8 10
11 10 2 0 4 -4 4 -10z m-1750 -54 c0 -11 -19 -15 -25 -6 -3 5 1 10 9 10 9 0
16 -2 16 -4z m-200 -16 c0 -10 192 -6 208 3 17 11 16 -17 -2 -32 -10 -8 -21
-8 -41 -1 -29 11 -69 4 -60 -10 3 -5 1 -11 -4 -15 -5 -3 -15 3 -21 12 -11 17
-11 17 -6 1 6 -21 -14 -24 -32 -6 -9 9 -13 8 -17 -4 -5 -12 -18 -14 -55 -9
-13 2 3 68 16 68 8 0 14 -3 14 -7z m1987 -22 c-15 -9 -19 -4 -11 16 5 14 9 15
15 5 5 -8 3 -17 -4 -21z m98 2 c3 -6 -1 -7 -9 -4 -18 7 -21 14 -7 14 6 0 13
-4 16 -10z m-2243 -86 c-9 -16 -10 -14 -9 8 1 15 6 23 11 18 4 -4 4 -16 -2
-26z m1893 -64 c-3 -5 -10 -10 -16 -10 -5 0 -9 5 -9 10 0 6 7 10 16 10 8 0 12
-4 9 -10z m220 -10 c3 -5 1 -10 -4 -10 -6 0 -11 5 -11 10 0 6 2 10 4 10 3 0 8
-4 11 -10z m-2155 -85 c0 -8 -2 -15 -4 -15 -2 0 -6 7 -10 15 -3 8 -1 15 4 15
6 0 10 -7 10 -15z m1620 5 c0 -5 -4 -10 -10 -10 -5 0 -10 5 -10 10 0 6 5 10
10 10 6 0 10 -4 10 -10z m690 6 c0 -3 -4 -8 -10 -11 -5 -3 -10 -1 -10 4 0 6 5
11 10 11 6 0 10 -2 10 -4z m-120 -80 c0 -3 -4 -8 -10 -11 -5 -3 -10 -1 -10 4
0 6 5 11 10 11 6 0 10 -2 10 -4z m433 -123 c-7 -2 -21 -2 -30 0 -10 3 -4 5 12
5 17 0 24 -2 18 -5z m-1893 -24 c0 -17 -3 -19 -13 -10 -8 6 -18 7 -22 3 -5 -4
-5 -1 -1 6 4 7 12 10 17 7 5 -4 9 -1 9 4 0 6 2 11 5 11 3 0 5 -10 5 -21z
m-320 4 c0 -1 -13 -8 -28 -15 -17 -9 -38 -12 -55 -7 -15 4 -25 4 -23 0 3 -4
-25 -8 -61 -9 -37 -2 -69 -5 -73 -7 -4 -3 -10 5 -13 16 -5 18 -2 21 24 17 16
-3 29 -1 29 3 0 4 45 6 100 5 55 0 100 -2 100 -3z m100 -10 c0 -3 -6 -3 -14 0
-8 3 -17 0 -19 -7 -3 -8 -17 -11 -37 -8 -23 3 -28 7 -19 13 8 5 21 6 31 3 9
-2 19 0 22 5 6 10 36 4 36 -6z m160 -4 c0 -5 -4 -9 -8 -9 -5 0 -9 7 -9 15 0 8
4 12 9 9 4 -3 8 -9 8 -15z m-100 1 c0 -5 -4 -10 -9 -10 -6 0 -13 5 -16 10 -3
6 1 10 9 10 9 0 16 -4 16 -10z m40 4 c0 -8 -19 -13 -24 -6 -3 5 1 9 9 9 8 0
15 -2 15 -3z m2025 -280 c-8 -6 -12 -13 -9 -17 3 -3 -5 -8 -18 -12 -13 -4 -36
-17 -51 -28 -19 -13 -50 -21 -90 -23 -33 -2 -69 -6 -79 -10 -12 -3 -18 0 -18
10 0 9 5 16 10 16 6 0 10 7 10 15 0 8 5 15 10 15 6 0 15 11 20 24 8 23 11 24
119 22 84 -1 108 -4 96 -12z m-1345 -58 c0 -3 -4 -8 -10 -11 -5 -3 -10 -1 -10
4 0 6 5 11 10 11 6 0 10 -2 10 -4z m-1020 -106 c-18 -12 -30 -13 -30 -2 0 4
10 9 22 9 18 2 20 0 8 -7z m45 0 c3 -5 2 -10 -4 -10 -5 0 -13 5 -16 10 -3 6
-2 10 4 10 5 0 13 -4 16 -10z m-85 -14 c0 -3 -4 -8 -10 -11 -5 -3 -10 -1 -10
4 0 6 5 11 10 11 6 0 10 -2 10 -4z m4220 -86 c0 -5 -2 -10 -4 -10 -3 0 -8 5
-11 10 -3 6 -1 10 4 10 6 0 11 -4 11 -10z m-5832 -24 c-7 -8 -15 -12 -17 -11
-5 6 10 25 20 25 5 0 4 -6 -3 -14z m142 4 c0 -5 -9 -10 -19 -10 -11 0 -22 -6
-24 -12 -4 -10 -6 -10 -6 0 -1 10 22 25 47 31 1 1 2 -3 2 -9z m70 0 c0 -5 -2
-10 -4 -10 -3 0 -8 5 -11 10 -3 6 -1 10 4 10 6 0 11 -4 11 -10z m5588 -14 c3
-4 -128 -119 -193 -171 -21 -16 -52 -42 -69 -56 -17 -15 -50 -37 -74 -49 -23
-12 -42 -26 -42 -31 0 -5 -22 -18 -50 -30 -27 -12 -55 -27 -61 -35 -6 -8 -15
-11 -20 -8 -5 3 -9 0 -9 -6 0 -6 -4 -9 -8 -6 -5 3 -21 -2 -36 -10 -35 -18 -46
-18 -21 -1 11 9 15 19 10 26 -5 10 -3 11 11 4 14 -7 24 -5 37 10 18 18 18 19
0 13 -10 -3 -25 -1 -33 5 -13 9 -12 10 2 5 10 -3 20 -1 24 5 3 6 12 8 20 5 19
-7 18 4 -3 21 -16 13 -15 13 6 3 18 -9 25 -9 31 0 4 7 19 13 34 13 14 0 24 3
21 6 -6 11 88 106 109 109 19 4 77 47 143 107 80 74 101 86 138 79 16 -3 31
-7 33 -8z m-5428 -26 c0 -11 -2 -20 -4 -20 -2 0 -6 9 -9 20 -3 11 -1 20 4 20
5 0 9 -9 9 -20z m-407 -4 c4 -10 1 -13 -8 -9 -8 3 -12 9 -9 14 7 12 11 11 17
-5z m47 -1 c0 -8 -4 -15 -10 -15 -5 0 -7 7 -4 15 4 8 8 15 10 15 2 0 4 -7 4
-15z m480 -5 c0 -5 -5 -10 -11 -10 -5 0 -7 5 -4 10 3 6 8 10 11 10 2 0 4 -4 4
-10z m425 0 c3 -5 1 -10 -4 -10 -6 0 -11 5 -11 10 0 6 2 10 4 10 3 0 8 -4 11
-10z m4575 6 c0 -9 -30 -14 -35 -6 -4 6 3 10 14 10 12 0 21 -2 21 -4z m-4455
-16 c3 -5 1 -10 -4 -10 -6 0 -11 5 -11 10 0 6 2 10 4 10 3 0 8 -4 11 -10z
m-1360 -20 c3 -5 2 -10 -4 -10 -5 0 -13 5 -16 10 -3 6 -2 10 4 10 5 0 13 -4
16 -10z m5790 0 c3 -5 -1 -10 -9 -10 -9 0 -16 5 -16 10 0 6 4 10 9 10 6 0 13
-4 16 -10z m-5825 -4 c0 -2 -7 -7 -16 -10 -8 -3 -12 -2 -9 4 6 10 25 14 25 6z
m5550 -20 c0 -3 -4 -8 -10 -11 -5 -3 -10 -1 -10 4 0 6 5 11 10 11 6 0 10 -2
10 -4z m66 -25 c27 5 33 -2 18 -19 -15 -18 -17 -17 -44 7 -18 17 -24 28 -16
33 6 4 16 1 22 -8 7 -8 16 -14 20 -13z m-5341 -11 c3 -5 1 -10 -4 -10 -6 0
-11 5 -11 10 0 6 2 10 4 10 3 0 8 -4 11 -10z m-282 -67 c-2 -7 5 -13 15 -14
11 0 12 -2 4 -6 -7 -3 -19 1 -27 7 -8 7 -30 16 -48 21 -29 7 -28 8 13 6 30 -1
44 -6 43 -14z m5510 -30 c-5 -12 -3 -14 8 -8 12 8 12 6 0 -8 -7 -9 -24 -17
-38 -17 l-24 0 23 24 c27 29 40 33 31 9z m-148 -31 c-16 -17 -34 -28 -40 -25
-7 2 -19 -2 -26 -9 -8 -7 -21 -13 -29 -13 -9 0 -14 -7 -12 -19 2 -10 -1 -15
-6 -12 -6 3 -21 2 -34 -3 -12 -4 -32 -5 -43 -1 -11 4 -31 3 -44 -2 -23 -8 -23
-8 -9 14 9 13 26 23 39 24 48 2 144 54 99 54 -5 0 -10 4 -10 8 0 4 32 9 72 11
l71 2 -28 -29z m81 2 c2 -10 -3 -14 -13 -10 -12 5 -14 1 -10 -16 5 -21 5 -21
-7 -6 -7 10 -15 15 -18 12 -4 -3 -9 -1 -13 5 -3 6 -1 11 5 11 6 0 18 7 27 15
17 17 26 14 29 -11z m567 -41 c-7 -2 -19 -2 -25 0 -7 3 -2 5 12 5 14 0 19 -2
13 -5z m-656 -25 c-3 -8 -6 -5 -6 6 -1 11 2 17 5 13 3 -3 4 -12 1 -19z m-252
2 c3 -5 -1 -10 -10 -10 -9 0 -13 5 -10 10 3 6 8 10 10 10 2 0 7 -4 10 -10z
m-45 -54 c0 -3 -4 -8 -10 -11 -5 -3 -10 -1 -10 4 0 6 5 11 10 11 6 0 10 -2 10
-4z m110 -17 c-7 -11 -14 -18 -17 -15 -3 3 0 12 7 21 18 21 23 19 10 -6z m-30
7 c0 -2 -7 -7 -16 -10 -8 -3 -12 -2 -9 4 6 10 25 14 25 6z m408 -61 c3 -11 0
-15 -7 -10 -7 4 -18 1 -26 -5 -9 -7 -15 -8 -15 -2 0 5 7 13 16 16 8 3 12 11 8
17 -4 7 -1 10 7 7 8 -3 16 -13 17 -23z m-93 -25 c3 -5 1 -10 -4 -10 -6 0 -11
5 -11 10 0 6 2 10 4 10 3 0 8 -4 11 -10z m-65 -80 c0 -5 -10 -10 -22 -10 -19
0 -20 2 -8 10 19 13 30 13 30 0z m-40 -50 c0 -5 -4 -10 -10 -10 -5 0 -10 5
-10 10 0 6 5 10 10 10 6 0 10 -4 10 -10z m630 0 c0 -5 -5 -10 -11 -10 -5 0 -7
5 -4 10 3 6 8 10 11 10 2 0 4 -4 4 -10z m-35 -50 c3 -5 1 -10 -4 -10 -6 0 -11
5 -11 10 0 6 2 10 4 10 3 0 8 -4 11 -10z m-678 -53 c-10 -7 -56 -40 -102 -74
-46 -35 -88 -63 -93 -63 -4 0 -36 -20 -70 -45 -34 -25 -65 -45 -68 -45 -4 0
-25 -15 -48 -34 -23 -18 -65 -44 -94 -56 -28 -12 -52 -26 -52 -30 0 -4 -13
-13 -30 -20 -16 -7 -30 -19 -30 -26 0 -8 -8 -14 -19 -14 -10 0 -24 -7 -31 -15
-7 -9 -15 -13 -17 -11 -3 2 -12 -2 -21 -9 -38 -31 -122 -86 -201 -132 -46 -26
-96 -60 -112 -75 -16 -16 -34 -28 -39 -28 -10 0 -60 -29 -70 -40 -3 -4 -18
-12 -35 -18 -16 -7 -46 -26 -65 -43 -41 -36 -70 -49 -108 -48 -15 0 -21 3 -12
6 18 6 50 44 50 58 0 6 -4 3 -10 -5 -5 -8 -12 -11 -16 -7 -4 3 -2 13 4 20 7 8
10 16 7 18 -2 3 6 11 18 18 20 13 21 12 9 -1 -10 -13 -9 -16 10 -21 12 -4 24
-4 27 -2 2 3 -1 5 -7 5 -7 0 -12 7 -12 15 0 8 5 15 10 15 6 0 10 -6 10 -12 0
-9 3 -8 10 2 6 9 5 17 -3 22 -7 4 -8 8 -3 8 5 0 3 7 -4 15 -11 13 -8 15 19 15
22 0 30 4 25 12 -4 7 -3 8 5 4 6 -4 28 6 49 22 20 16 51 33 69 36 22 5 30 12
26 22 -3 10 0 12 10 8 10 -3 22 4 32 20 10 14 24 26 31 26 8 0 14 7 14 16 0 9
5 12 12 8 8 -5 9 -2 4 11 -5 15 -4 16 8 6 11 -10 19 -9 35 5 11 10 32 19 47
21 26 4 90 33 154 70 19 11 53 31 76 44 22 13 39 29 37 35 -2 7 6 10 22 7 15
-3 25 -1 25 6 0 6 8 11 19 11 10 0 24 7 31 14 6 8 33 25 58 37 100 46 232 125
232 137 0 7 4 10 10 7 5 -3 27 3 49 15 31 15 39 24 34 38 -6 15 -5 15 11 3 15
-13 20 -12 39 7 12 12 28 22 37 21 12 0 11 -3 -3 -12z m8 -145 c-2 -3 -12 -1
-22 2 -15 6 -15 9 -3 16 13 8 35 -8 25 -18z m32 22 c-3 -3 -12 -4 -19 -1 -8 3
-5 6 6 6 11 1 17 -2 13 -5z m-57 -44 c0 -5 -2 -10 -4 -10 -3 0 -8 5 -11 10 -3
6 -1 10 4 10 6 0 11 -4 11 -10z m-3310 -200 c-20 -13 -50 -13 -50 0 0 6 15 10
33 10 24 0 28 -3 17 -10z m1350 -40 c0 -5 -5 -10 -11 -10 -5 0 -7 5 -4 10 3 6
8 10 11 10 2 0 4 -4 4 -10z m1670 -104 c0 -3 -4 -8 -10 -11 -5 -3 -10 -1 -10
4 0 6 5 11 10 11 6 0 10 -2 10 -4z m-740 -46 c0 -5 -8 -10 -19 -10 -10 0 -24
-7 -31 -15 -14 -17 -30 -20 -30 -5 0 6 7 10 16 10 9 0 12 5 8 12 -4 7 -3 8 4
4 7 -4 12 -2 12 3 0 6 9 11 20 11 11 0 20 -4 20 -10z m-583 -476 c-3 -3 -12
-4 -19 -1 -8 3 -5 6 6 6 11 1 17 -2 13 -5z m-67 -13 c0 -7 -224 -121 -238
-121 -5 0 -15 -7 -22 -15 -7 -8 -19 -15 -27 -15 -7 0 -23 -9 -35 -20 -12 -11
-30 -20 -41 -20 -16 0 -17 2 -3 15 8 8 19 15 25 15 5 0 12 9 16 19 4 12 12 18
21 14 8 -3 14 1 14 10 0 8 -6 18 -12 20 -7 3 -4 6 8 6 11 1 26 -5 33 -11 11
-11 12 -10 6 1 -5 9 -3 12 6 9 16 -5 50 22 43 34 -3 5 -2 8 3 7 27 -5 52 3 57
19 3 10 17 19 29 20 13 1 34 5 46 10 25 9 71 11 71 3z m-1183 -17 c-3 -3 -12
-4 -19 -1 -8 3 -5 6 6 6 11 1 17 -2 13 -5z m-224 -24 c-3 -11 -9 -17 -15 -14
-5 3 -4 12 3 20 16 19 18 18 12 -6z m167 10 c0 -5 -2 -10 -4 -10 -3 0 -8 5
-11 10 -3 6 -1 10 4 10 6 0 11 -4 11 -10z m60 -104 c0 -3 -4 -8 -10 -11 -5 -3
-10 -1 -10 4 0 6 5 11 10 11 6 0 10 -2 10 -4z m-16 -51 c-4 -8 -8 -15 -10 -15
-2 0 -4 7 -4 15 0 8 4 15 10 15 5 0 7 -7 4 -15z m1261 5 c-3 -5 -11 -10 -16
-10 -6 0 -7 5 -4 10 3 6 11 10 16 10 6 0 7 -4 4 -10z m-1170 -20 c-3 -5 -11
-10 -16 -10 -6 0 -7 5 -4 10 3 6 11 10 16 10 6 0 7 -4 4 -10z m-39 -25 c12 -9
14 -14 6 -15 -7 0 -20 7 -28 15 -20 19 -4 20 22 0z m44 -5 c0 -5 -4 -10 -10
-10 -5 0 -10 5 -10 10 0 6 5 10 10 10 6 0 10 -4 10 -10z m-36 -35 c3 -8 1 -15
-4 -15 -6 0 -10 7 -10 15 0 8 2 15 4 15 2 0 6 -7 10 -15z m25 -54 c7 -5 12
-13 10 -18 -2 -5 -12 -1 -21 9 -19 19 -13 24 11 9z m57 -38 c-7 -7 -26 7 -26
19 0 6 6 6 15 -2 9 -7 13 -15 11 -17z m414 -98 c0 -8 -4 -15 -10 -15 -5 0 -10
7 -10 15 0 8 5 15 10 15 6 0 10 -7 10 -15z m-116 -46 c-3 -6 -12 -8 -20 -5 -8
3 -14 1 -14 -4 0 -6 -6 -10 -14 -10 -8 0 -16 -7 -20 -15 -3 -8 -10 -15 -16
-15 -6 0 -9 4 -6 9 4 5 0 11 -6 14 -16 5 -4 20 20 22 9 1 28 7 42 12 27 12 44
7 34 -8z m-8 -56 c-15 -8 -30 -12 -33 -10 -2 3 5 8 16 12 12 3 21 11 21 16 0
6 5 7 11 3 8 -4 2 -12 -15 -21z"/>
<path d="M5050 8000 c0 -14 25 -18 37 -5 9 10 6 13 -13 13 -13 0 -24 -4 -24
-8z"/>
<path d="M6715 6780 c3 -5 8 -10 11 -10 2 0 4 5 4 10 0 6 -5 10 -11 10 -5 0
-7 -4 -4 -10z"/>
<path d="M8645 6130 c-3 -5 -1 -10 4 -10 6 0 11 5 11 10 0 6 -2 10 -4 10 -3 0
-8 -4 -11 -10z"/>
<path d="M8854 4939 c0 -11 6 -19 13 -19 7 0 13 6 13 14 0 8 -6 16 -13 19 -8
3 -13 -3 -13 -14z"/>
<path d="M8910 2469 c0 -5 5 -7 10 -4 6 3 10 8 10 11 0 2 -4 4 -10 4 -5 0 -10
-5 -10 -11z"/>
<path d="M2425 7950 c3 -5 8 -10 11 -10 2 0 4 5 4 10 0 6 -5 10 -11 10 -5 0
-7 -4 -4 -10z"/>
<path d="M9300 7150 c0 -5 7 -10 16 -10 8 0 12 5 9 10 -3 6 -10 10 -16 10 -5
0 -9 -4 -9 -10z"/>
<path d="M1250 5984 c0 -8 5 -12 10 -9 6 3 10 10 10 16 0 5 -4 9 -10 9 -5 0
-10 -7 -10 -16z"/>
<path d="M4990 4514 c0 -8 5 -12 10 -9 6 3 10 10 10 16 0 5 -4 9 -10 9 -5 0
-10 -7 -10 -16z"/>
<path d="M2348 4273 c7 -3 16 -2 19 1 4 3 -2 6 -13 5 -11 0 -14 -3 -6 -6z"/>
<path d="M3915 3501 c-10 -17 12 -21 25 -6 10 12 10 15 -3 15 -9 0 -18 -4 -22
-9z"/>
</g>
</svg>
