<?xml version="1.0" standalone="no"?>
<!DOCTYPE svg PUBLIC "-//W3C//DTD SVG 20010904//EN"
 "http://www.w3.org/TR/2001/REC-SVG-20010904/DTD/svg10.dtd">
<svg version="1.0" xmlns="http://www.w3.org/2000/svg"
 width="1280.000000pt" height="807.000000pt" viewBox="0 0 1280.000000 807.000000"
 preserveAspectRatio="xMidYMid meet">
<metadata>
Created by potrace 1.15, written by Peter Selinger 2001-2017
</metadata>
<g transform="translate(0.000000,807.000000) scale(0.100000,-0.100000)"
fill="#000000" stroke="none">
<path d="M0 7705 l0 -365 365 0 365 0 0 365 0 365 -365 0 -365 0 0 -365z"/>
<path d="M870 7705 l0 -365 370 0 370 0 0 365 0 365 -370 0 -370 0 0 -365z"/>
<path d="M1750 7705 l0 -365 365 0 365 0 0 365 0 365 -365 0 -365 0 0 -365z"/>
<path d="M2620 7705 l0 -365 365 0 365 0 0 365 0 365 -365 0 -365 0 0 -365z"/>
<path d="M3490 7705 l0 -365 365 0 365 0 0 365 0 365 -365 0 -365 0 0 -365z"/>
<path d="M12003 7269 c-10 -10 -13 -128 -13 -521 l0 -508 -350 0 -350 0 2 167
3 167 45 8 c70 12 149 58 227 132 83 78 116 126 107 151 -6 14 -14 16 -48 9
-73 -15 -129 -8 -236 30 -58 21 -116 38 -130 39 l-25 2 -3 -352 -2 -353 -355
0 c-309 0 -355 -2 -355 -15 0 -13 46 -15 355 -15 l355 0 0 -190 0 -190 -27 7
c-48 14 -119 5 -185 -21 -62 -25 -72 -26 -281 -26 -186 0 -217 -2 -217 -15 0
-13 28 -15 196 -15 l196 0 -47 -45 c-106 -104 -111 -228 -11 -333 118 -126
328 -97 408 57 27 51 28 60 28 187 l0 134 143 0 142 0 28 -35 c15 -19 49 -47
75 -62 40 -24 58 -28 122 -28 89 1 139 22 192 85 l35 40 376 0 c328 0 377 2
377 15 0 13 -48 15 -371 15 -350 0 -371 1 -363 18 4 9 10 104 12 210 l4 192
359 0 c312 0 359 2 359 15 0 13 -47 15 -360 15 l-360 0 2 332 3 332 43 8 c70
12 161 67 237 143 77 78 101 115 91 141 -5 14 -13 15 -44 8 -87 -19 -135 -9
-362 72 -8 3 -21 -1 -27 -7z m135 -103 c40 -14 92 -28 117 -32 25 -3 47 -10
50 -14 8 -12 -79 -86 -132 -113 -26 -14 -63 -28 -80 -32 l-33 -7 0 111 c0 61
1 111 3 111 2 0 36 -11 75 -24z m-724 -340 c48 -14 99 -26 112 -26 35 0 30
-14 -23 -59 -55 -47 -134 -89 -178 -93 l-30 -3 -3 109 c-2 100 -1 108 15 103
10 -2 58 -16 107 -31z m576 -641 c0 -14 -1 -25 -3 -25 -1 0 -17 4 -35 10 -105
30 -323 -86 -384 -204 -21 -41 -27 -111 -14 -154 7 -22 6 -22 -128 -22 l-136
0 0 210 0 210 350 0 350 0 0 -25z"/>
<path d="M7082 5594 l-22 -15 0 -1020 0 -1019 -695 0 -695 0 0 333 0 332 75
12 c202 33 430 189 621 428 69 86 81 127 46 158 -24 22 -43 21 -120 -3 -35
-11 -83 -20 -105 -20 -82 0 -356 79 -509 146 -85 38 -115 35 -137 -13 -8 -17
-11 -225 -11 -698 l0 -675 -702 0 c-390 0 -709 -4 -717 -9 -8 -5 -11 -16 -8
-25 6 -14 75 -16 717 -16 l710 0 0 -385 c0 -212 -2 -385 -5 -385 -4 0 -20 8
-38 17 -55 30 -182 22 -297 -16 -52 -18 -115 -43 -139 -57 l-44 -24 -441 0
c-242 0 -447 -4 -455 -9 -8 -5 -11 -16 -8 -25 6 -14 49 -16 414 -16 l408 0
-40 -32 c-78 -62 -162 -158 -196 -225 -104 -205 7 -493 235 -607 204 -102 429
-65 591 98 131 132 155 216 155 544 l0 222 279 0 279 0 21 -33 c38 -61 137
-146 213 -182 162 -77 344 -64 498 35 52 34 135 119 153 158 l10 22 759 0 759
0 -3 23 -3 22 -741 3 -740 2 17 68 c15 58 18 117 18 425 l1 357 725 0 c705 0
725 1 725 19 0 10 -7 22 -16 25 -9 3 -335 6 -725 6 l-709 0 0 660 0 660 23 4
c12 3 40 8 62 11 115 17 264 91 386 191 129 105 289 294 289 341 0 64 -41 82
-118 53 -72 -28 -167 -26 -286 5 -121 32 -262 79 -345 116 -73 33 -88 35 -119
13z m362 -239 c68 -19 155 -40 194 -47 l72 -12 -42 -44 c-135 -138 -340 -252
-455 -252 l-23 0 0 220 0 219 66 -25 c36 -13 121 -40 188 -59z m-1664 -611
c145 -49 323 -94 373 -94 l42 -1 -88 -84 c-125 -121 -263 -197 -399 -220 l-38
-6 0 221 c0 121 1 220 3 220 1 0 49 -16 107 -36z m1278 -1316 c2 -32 1 -58 -1
-58 -2 0 -19 8 -38 18 -52 26 -213 23 -299 -7 -158 -55 -281 -132 -396 -246
-151 -150 -184 -273 -128 -472 l6 -23 -266 0 -266 0 0 425 0 425 693 -2 692
-3 3 -57z"/>
<path d="M12002 4618 c-9 -9 -12 -138 -12 -520 l0 -508 -350 0 -350 0 2 167 3
167 45 8 c72 12 148 56 226 131 84 79 117 127 108 152 -6 14 -14 16 -48 9 -73
-15 -129 -8 -236 30 -58 21 -116 38 -130 39 l-25 2 -3 -352 -2 -353 -355 0
c-309 0 -355 -2 -355 -15 0 -13 46 -15 355 -15 l355 0 0 -190 0 -190 -27 7
c-48 14 -117 6 -183 -21 -61 -25 -70 -26 -282 -26 -187 0 -218 -2 -218 -15 0
-13 28 -15 196 -15 l196 0 -47 -45 c-106 -104 -111 -228 -11 -333 119 -128
332 -97 410 59 24 49 26 62 26 186 l0 133 142 0 141 0 35 -40 c53 -63 103 -85
192 -85 89 0 139 22 192 85 l35 40 376 0 c328 0 377 2 377 15 0 13 -48 15
-371 15 -350 0 -371 1 -363 18 4 9 10 104 12 210 l4 192 359 0 c312 0 359 2
359 15 0 13 -47 15 -360 15 l-360 0 2 332 3 332 43 8 c73 12 161 67 245 151
113 116 117 158 10 136 -54 -11 -66 -10 -153 15 -52 15 -114 36 -138 46 -52
23 -54 24 -70 8z m170 -112 c46 -14 96 -27 112 -31 l29 -6 -38 -39 c-41 -42
-131 -94 -182 -105 l-33 -7 0 112 c0 95 2 111 15 106 8 -3 52 -16 97 -30z
m-758 -330 c48 -14 99 -26 112 -26 35 0 30 -14 -23 -59 -55 -47 -134 -89 -178
-93 l-30 -3 -3 109 c-2 100 -1 108 15 103 10 -2 58 -16 107 -31z m576 -642 c0
-22 -3 -24 -22 -18 -115 37 -319 -64 -395 -194 -27 -46 -34 -111 -19 -160 7
-22 6 -22 -128 -22 l-136 0 0 210 0 210 350 0 350 0 0 -26z"/>
<path d="M12003 1969 c-10 -10 -13 -127 -13 -516 l0 -503 -350 0 -350 0 2 162
3 162 45 8 c24 4 69 20 99 34 59 29 188 146 222 201 19 31 20 36 6 50 -12 13
-23 13 -69 3 -48 -11 -63 -10 -133 9 -44 12 -108 34 -143 47 -35 14 -70 23
-77 20 -13 -5 -15 -58 -15 -351 l0 -345 -359 0 c-285 0 -361 -3 -370 -13 -27
-34 5 -37 371 -37 l358 0 0 -185 0 -185 -27 7 c-43 12 -105 6 -169 -16 -52
-19 -82 -21 -290 -21 -180 0 -234 -3 -243 -13 -25 -31 9 -37 207 -37 l194 0
-42 -42 c-59 -59 -84 -118 -77 -179 30 -251 369 -312 481 -87 24 48 26 62 26
180 l0 128 145 0 146 0 32 -37 c96 -109 272 -109 376 1 l35 36 383 0 c343 0
384 2 390 16 3 9 0 20 -8 25 -8 5 -179 9 -380 9 l-367 0 9 38 c5 20 9 110 9
199 l0 163 368 2 c359 3 367 3 367 23 0 20 -8 20 -368 23 l-367 2 2 327 3 327
43 8 c72 12 161 67 244 150 111 111 118 163 19 137 -59 -15 -116 -5 -246 43
-44 16 -87 31 -95 34 -8 3 -21 -1 -27 -7z m196 -120 c57 -16 105 -30 108 -32
2 -2 -17 -22 -41 -45 -48 -44 -122 -85 -173 -97 l-33 -7 0 112 c0 103 1 112
18 105 9 -4 64 -20 121 -36z m-819 -315 c41 -14 96 -28 123 -31 26 -3 47 -9
47 -14 0 -15 -95 -90 -145 -114 -27 -13 -63 -25 -80 -27 l-30 -3 -3 108 c-1
59 1 107 5 107 4 0 42 -12 83 -26z m610 -651 c0 -16 -11 -18 -83 -18 -73 0
-90 -4 -148 -32 -149 -74 -229 -184 -210 -289 l8 -44 -133 0 -134 0 0 200 0
200 350 0 c327 0 350 -1 350 -17z"/>
</g>
</svg>
