<?xml version="1.0" standalone="no"?>
<!DOCTYPE svg PUBLIC "-//W3C//DTD SVG 20010904//EN"
 "http://www.w3.org/TR/2001/REC-SVG-20010904/DTD/svg10.dtd">
<svg version="1.0" xmlns="http://www.w3.org/2000/svg"
 width="1109.000000pt" height="1280.000000pt" viewBox="0 0 1109.000000 1280.000000"
 preserveAspectRatio="xMidYMid meet">
<metadata>
Created by potrace 1.15, written by Peter Selinger 2001-2017
</metadata>
<g transform="translate(0.000000,1280.000000) scale(0.100000,-0.100000)"
fill="#000000" stroke="none">
<path d="M2774 11201 l-2769 -1598 0 -3203 0 -3203 990 -571 c545 -314 1788
-1032 2764 -1595 976 -564 1780 -1024 1786 -1024 6 0 810 460 1786 1024 976
563 2220 1281 2764 1595 l990 571 0 3203 0 3203 -2735 1579 c-1504 868 -2751
1588 -2771 1598 l-36 19 -2769 -1598z m4912 -201 c1165 -673 2298 -1326 2517
-1452 l397 -230 0 -2918 0 -2917 -442 -256 c-244 -140 -1068 -616 -1833 -1057
-764 -442 -1702 -982 -2083 -1202 -381 -220 -699 -398 -706 -395 -13 5 -440
252 -3724 2146 l-1322 764 0 2917 0 2918 443 256 c243 140 1378 795 2522 1456
1144 660 2087 1199 2096 1197 9 -3 969 -555 2135 -1227z"/>
<path d="M5823 8458 c-24 -4 -59 -14 -78 -24 -43 -20 -110 -94 -124 -137 -6
-18 -178 -844 -382 -1837 -251 -1217 -372 -1825 -372 -1865 0 -70 18 -117 64
-170 64 -73 178 -103 280 -75 46 13 124 81 149 130 30 58 773 3682 768 3745
-7 87 -63 171 -139 211 -42 21 -115 31 -166 22z"/>
<path d="M3755 8034 c-46 -14 -103 -69 -777 -742 -502 -501 -734 -739 -747
-767 -30 -64 -35 -125 -16 -192 16 -58 19 -60 743 -787 784 -785 773 -776 877
-776 69 0 117 15 167 53 95 72 131 215 81 317 -16 32 -196 218 -633 655 l-610
610 614 615 c677 679 652 649 650 775 -3 174 -176 293 -349 239z"/>
<path d="M7174 8039 c-59 -17 -126 -71 -158 -128 -24 -45 -30 -66 -30 -120 -1
-124 -14 -109 659 -781 l605 -605 -619 -620 c-616 -616 -620 -620 -636 -678
-49 -170 74 -336 250 -337 115 0 92 -20 887 776 724 727 727 729 743 787 19
67 14 128 -16 192 -13 28 -245 266 -747 767 -705 704 -729 727 -781 742 -60
18 -109 19 -157 5z"/>
</g>
</svg>
