<?xml version="1.0" standalone="no"?>
<!DOCTYPE svg PUBLIC "-//W3C//DTD SVG 20010904//EN"
 "http://www.w3.org/TR/2001/REC-SVG-20010904/DTD/svg10.dtd">
<svg version="1.0" xmlns="http://www.w3.org/2000/svg"
 width="984.000000pt" height="1280.000000pt" viewBox="0 0 984.000000 1280.000000"
 preserveAspectRatio="xMidYMid meet">
<metadata>
Created by potrace 1.15, written by Peter Selinger 2001-2017
</metadata>
<g transform="translate(0.000000,1280.000000) scale(0.100000,-0.100000)"
fill="#000000" stroke="none">
<path d="M5616 12244 c-3 -9 -6 -44 -6 -78 l0 -63 -50 -34 c-83 -56 -78 -82
22 -112 l57 -18 21 -63 c19 -58 34 -76 60 -76 5 0 26 25 47 55 l38 55 66 0
c100 0 113 26 52 105 -36 48 -36 48 -23 94 33 118 24 130 -72 99 l-66 -21 -50
36 c-53 40 -86 47 -96 21z"/>
<path d="M833 12159 c-7 -7 -9 -25 -6 -42 5 -27 1 -35 -33 -63 -43 -37 -40
-49 18 -68 23 -8 35 -20 43 -46 15 -45 35 -48 63 -10 19 25 30 30 63 30 50 0
59 19 29 61 -21 28 -22 35 -10 71 15 51 2 62 -50 43 -34 -12 -39 -11 -66 11
-34 27 -36 28 -51 13z"/>
<path d="M8211 11695 c-76 -73 -80 -74 -190 -49 -131 30 -156 0 -101 -120 49
-107 49 -114 -4 -204 -25 -43 -46 -86 -46 -95 0 -8 11 -24 24 -35 21 -16 33
-18 83 -11 138 20 134 21 215 -64 40 -43 78 -77 84 -77 33 0 56 37 70 115 8
44 18 89 23 100 5 12 40 33 91 55 141 60 143 100 11 171 -91 48 -95 55 -106
174 -11 127 -53 138 -154 40z"/>
<path d="M3910 11375 c-7 -8 -10 -29 -8 -46 4 -25 -1 -35 -29 -56 -18 -14 -33
-31 -33 -38 0 -7 19 -20 42 -27 34 -12 44 -20 50 -47 12 -46 35 -50 65 -12 20
25 32 31 64 31 50 0 58 18 28 59 -20 27 -21 35 -11 68 16 52 3 66 -47 48 -31
-11 -40 -10 -56 2 -40 30 -52 33 -65 18z"/>
<path d="M2090 10730 c0 -33 -6 -44 -35 -67 -19 -15 -35 -33 -35 -40 0 -6 19
-18 42 -25 32 -11 44 -21 52 -46 19 -54 31 -58 61 -18 23 31 33 36 67 36 49 0
57 19 28 61 -20 27 -21 35 -12 67 15 48 4 59 -45 44 -33 -10 -41 -9 -65 8 -43
31 -58 26 -58 -20z"/>
<path d="M4635 10700 c-480 -75 -807 -502 -790 -1035 11 -355 136 -683 510
-1335 86 -151 174 -309 195 -350 l38 -75 -25 -19 c-31 -23 -28 -52 17 -157
l33 -77 -53 -91 -53 -92 23 -31 23 -31 -81 -201 c-44 -111 -453 -1117 -907
-2236 -455 -1119 -885 -2178 -956 -2353 -71 -176 -129 -332 -129 -347 0 -15 8
-37 18 -49 17 -22 270 -131 303 -131 33 0 76 53 105 128 15 40 31 75 34 77 4
3 58 -16 120 -41 70 -28 124 -44 143 -42 37 4 64 38 92 121 19 56 19 57 -1 84
-14 18 -57 42 -135 74 -63 26 -114 51 -114 56 0 4 6 25 14 46 11 32 17 38 35
34 11 -2 205 -79 430 -171 225 -91 411 -164 414 -162 2 3 -1 21 -8 41 -21 63
-8 70 55 29 30 -20 57 -35 58 -33 10 12 67 167 67 180 0 35 -42 59 -230 135
-107 43 -197 79 -199 81 -3 2 39 114 94 248 l98 244 36 -15 c20 -9 114 -47
208 -85 220 -88 211 -89 270 56 35 86 40 122 21 148 -7 9 -123 62 -257 117
-134 55 -245 101 -247 102 -1 2 9 30 22 62 28 70 30 107 7 128 -10 8 -93 45
-185 82 l-166 68 88 216 c48 120 126 312 173 427 228 565 1027 2531 1089 2680
38 94 83 202 99 241 29 69 31 71 87 94 61 24 102 55 102 76 0 17 123 56 475
149 340 90 529 148 689 209 537 208 849 506 951 910 33 130 35 300 5 426 -82
342 -389 633 -755 716 -96 21 -273 24 -360 5 -161 -35 -293 -107 -420 -232
l-80 -78 -1 127 c-1 146 -22 240 -80 357 -117 239 -359 418 -649 481 -86 19
-279 26 -360 14z"/>
<path d="M7670 9938 c0 -37 -5 -47 -36 -71 -19 -16 -33 -34 -31 -40 2 -7 21
-17 42 -23 33 -9 41 -17 53 -52 7 -23 18 -42 22 -42 5 0 22 16 37 35 24 30 34
35 71 35 49 0 54 14 21 59 -19 26 -20 33 -9 66 16 49 4 61 -44 45 -32 -10 -40
-9 -70 9 -48 30 -56 27 -56 -21z"/>
<path d="M9132 9843 c-7 -3 -28 -36 -47 -73 -37 -73 -33 -71 -140 -85 -92 -12
-99 -47 -25 -120 55 -54 60 -75 39 -164 -20 -88 10 -107 100 -61 33 16 69 30
80 30 11 0 49 -15 83 -34 50 -27 68 -32 87 -25 23 9 23 12 17 80 -4 39 -10 78
-13 85 -3 9 18 37 56 74 88 84 82 105 -36 129 l-78 16 -32 64 c-47 92 -55 99
-91 84z"/>
<path d="M3083 9129 l-67 -82 -100 7 c-85 5 -102 4 -118 -10 -29 -27 -21 -61
32 -138 28 -40 50 -81 50 -92 -1 -10 -14 -53 -30 -94 -36 -91 -37 -115 -6
-135 22 -15 30 -14 112 9 49 15 94 26 100 26 7 0 46 -27 87 -60 120 -96 157
-79 157 70 0 47 4 91 9 98 4 8 44 37 87 65 67 44 79 57 82 83 4 39 -3 44 -110
84 -96 36 -95 34 -124 153 -31 127 -66 131 -161 16z"/>
<path d="M1056 7522 c-3 -5 -8 -29 -12 -53 -8 -53 -17 -65 -66 -90 -55 -28
-51 -55 12 -81 38 -16 52 -27 56 -47 18 -77 21 -86 39 -90 12 -2 32 11 55 36
35 39 38 40 87 33 27 -3 55 -4 61 -2 19 6 14 36 -12 83 l-25 43 20 37 c22 44
25 78 6 85 -8 3 -35 0 -62 -6 -48 -11 -49 -10 -85 25 -35 34 -63 44 -74 27z"/>
<path d="M8710 7296 c0 -39 -4 -47 -30 -62 -51 -31 -47 -51 14 -71 20 -6 33
-19 40 -41 19 -54 31 -58 62 -18 25 31 35 36 72 36 49 0 54 15 22 61 -19 25
-20 33 -9 69 7 22 9 43 5 47 -4 4 -25 2 -48 -4 -37 -10 -46 -9 -69 8 -45 32
-59 25 -59 -25z"/>
<path d="M6434 6860 c-23 -9 -33 -31 -64 -140 -12 -41 -29 -83 -37 -92 -8 -9
-59 -31 -112 -49 -105 -34 -123 -49 -119 -94 3 -25 18 -40 92 -91 49 -34 92
-68 97 -75 5 -8 9 -62 9 -121 0 -95 3 -111 20 -128 33 -33 61 -24 150 45 52
40 93 65 108 65 14 0 68 -14 120 -30 89 -29 96 -30 119 -15 13 9 27 24 30 33
4 9 -10 65 -30 124 -43 123 -46 108 39 226 30 41 54 85 54 98 0 13 -12 32 -27
44 -26 20 -35 21 -124 15 -64 -5 -104 -3 -117 4 -12 6 -49 49 -83 96 -34 47
-65 85 -69 85 -5 0 -14 2 -22 4 -7 3 -22 1 -34 -4z"/>
<path d="M2792 6448 c-7 -7 -12 -40 -12 -79 l0 -66 -52 -39 c-76 -57 -74 -80
12 -109 64 -21 65 -22 85 -76 11 -30 24 -60 28 -67 16 -25 45 -11 83 41 l39
52 65 3 c100 5 110 23 55 95 -40 52 -41 61 -18 134 16 50 16 55 0 70 -15 16
-20 16 -70 0 -73 -23 -82 -22 -137 18 -52 38 -60 41 -78 23z"/>
<path d="M8210 5430 c-6 -11 -10 -46 -9 -77 2 -51 0 -58 -27 -80 -80 -65 -86
-72 -76 -90 6 -9 38 -27 73 -38 l63 -21 21 -65 c18 -53 26 -64 46 -67 19 -2
32 9 62 53 l38 55 69 0 c60 0 71 3 80 21 10 17 5 29 -31 76 l-42 56 21 66 c19
58 20 67 7 80 -13 13 -21 13 -62 2 -89 -25 -95 -25 -145 13 -53 41 -73 44 -88
16z"/>
<path d="M816 4977 c-10 -7 -31 -57 -47 -112 -16 -55 -37 -107 -47 -116 -9 -9
-61 -31 -115 -49 -76 -25 -101 -37 -109 -55 -19 -42 -3 -69 74 -120 123 -80
118 -72 118 -197 0 -102 1 -110 25 -133 37 -38 50 -33 150 45 96 75 91 74 198
40 109 -35 138 -37 160 -12 23 26 21 48 -13 145 -16 47 -30 96 -30 109 0 13
27 61 60 107 100 140 82 173 -91 171 -57 -1 -111 1 -119 4 -8 4 -40 41 -70 82
-75 104 -103 121 -144 91z"/>
<path d="M5667 4433 c-4 -3 -7 -22 -7 -42 0 -28 -7 -42 -32 -62 -37 -31 -33
-54 12 -64 25 -6 35 -16 50 -51 11 -24 23 -44 28 -44 6 0 22 16 36 35 23 29
33 35 66 35 51 0 57 13 27 54 -23 29 -24 36 -14 74 6 23 8 44 4 48 -4 4 -25 2
-47 -5 -36 -11 -44 -10 -69 9 -31 21 -43 24 -54 13z"/>
<path d="M6722 3632 l-74 -66 -83 17 c-125 26 -141 23 -158 -25 -3 -9 11 -52
34 -98 21 -45 39 -89 39 -98 0 -10 -20 -52 -45 -94 -49 -84 -54 -108 -28 -133
14 -15 29 -16 91 -11 41 4 88 10 103 13 25 5 36 -3 100 -71 55 -59 78 -76 99
-76 15 0 32 6 38 13 6 6 18 55 29 107 l18 95 98 48 98 48 -3 37 c-3 35 -7 39
-87 83 -46 26 -87 52 -91 59 -4 7 -11 51 -15 99 -12 145 -49 158 -163 53z"/>
<path d="M2090 3081 c0 -33 -7 -46 -36 -74 -40 -38 -39 -52 5 -62 35 -7 47
-20 56 -58 11 -42 26 -44 60 -4 27 32 38 37 74 37 48 0 53 15 20 59 -19 26
-20 33 -9 66 16 49 4 60 -48 44 -37 -11 -43 -10 -68 10 -40 32 -54 27 -54 -18z"/>
<path d="M8251 2539 l-54 -61 -82 7 c-69 5 -85 4 -99 -10 -23 -23 -21 -30 24
-101 22 -35 40 -71 40 -81 0 -10 -11 -42 -25 -71 -29 -62 -31 -94 -9 -112 12
-11 28 -10 87 3 40 10 77 17 84 17 6 0 38 -22 70 -50 58 -50 92 -61 110 -37 6
6 13 46 16 87 7 83 12 90 101 142 83 49 75 78 -35 124 l-74 31 -20 84 c-19 81
-21 84 -50 87 -26 2 -38 -6 -84 -59z"/>
<path d="M5132 1498 c-6 -7 -16 -47 -24 -88 l-13 -75 -75 -40 c-68 -36 -75
-43 -75 -70 0 -27 7 -34 70 -67 75 -39 79 -45 90 -141 6 -55 24 -87 49 -87 6
0 42 26 78 59 l66 58 73 -13 c123 -24 139 -4 83 109 l-37 74 36 66 c59 105 47
134 -50 123 -32 -4 -67 -9 -80 -12 -19 -5 -34 5 -79 55 -57 61 -90 75 -112 49z"/>
<path d="M1591 1421 c-7 -5 -24 -48 -37 -97 -13 -48 -32 -96 -41 -105 -10 -9
-53 -29 -95 -44 -88 -31 -101 -42 -96 -82 2 -23 18 -38 82 -80 43 -28 83 -57
87 -65 5 -7 9 -54 9 -104 0 -75 3 -94 18 -107 32 -29 61 -20 136 43 40 33 79
60 87 60 8 0 54 -11 103 -26 82 -23 90 -24 112 -9 32 20 30 47 -6 135 -16 40
-30 82 -30 94 0 12 23 54 50 95 84 124 65 155 -91 145 l-96 -7 -59 74 c-32 41
-63 77 -69 81 -14 10 -47 10 -64 -1z"/>
</g>
</svg>
