<?xml version="1.0" standalone="no"?>
<!DOCTYPE svg PUBLIC "-//W3C//DTD SVG 20010904//EN"
 "http://www.w3.org/TR/2001/REC-SVG-20010904/DTD/svg10.dtd">
<svg version="1.0" xmlns="http://www.w3.org/2000/svg"
 width="1280.000000pt" height="1280.000000pt" viewBox="0 0 1280.000000 1280.000000"
 preserveAspectRatio="xMidYMid meet">
<metadata>
Created by potrace 1.15, written by Peter Selinger 2001-2017
</metadata>
<g transform="translate(0.000000,1280.000000) scale(0.100000,-0.100000)"
fill="#000000" stroke="none">
<path d="M6195 12274 c-22 -2 -107 -14 -190 -25 -950 -133 -1789 -736 -2221
-1598 -356 -710 -413 -1531 -157 -2281 216 -634 654 -1189 1216 -1542 53 -34
97 -64 97 -67 0 -4 -30 -15 -67 -24 -38 -10 -138 -41 -223 -69 -1620 -531
-2926 -1798 -3499 -3397 -166 -461 -250 -845 -313 -1421 -17 -149 -16 -797 0
-940 6 -58 19 -169 28 -247 l17 -143 5502 0 5502 0 17 119 c46 330 60 831 31
1184 -26 327 -80 648 -161 956 -210 811 -592 1547 -1142 2201 -136 162 -502
526 -662 660 -587 489 -1246 847 -1962 1065 -71 22 -128 42 -128 46 0 4 9 10
20 14 35 11 283 181 390 268 129 105 334 310 435 437 337 422 544 897 626
1440 33 215 33 610 0 830 -48 319 -134 596 -276 885 -153 314 -307 527 -565
785 -258 258 -471 412 -785 565 -415 204 -797 295 -1260 300 -126 2 -248 1
-270 -1z"/>
</g>
</svg>
