<?xml version="1.0" standalone="no"?>
<!DOCTYPE svg PUBLIC "-//W3C//DTD SVG 20010904//EN"
 "http://www.w3.org/TR/2001/REC-SVG-20010904/DTD/svg10.dtd">
<svg version="1.0" xmlns="http://www.w3.org/2000/svg"
 width="1280.000000pt" height="1280.000000pt" viewBox="0 0 1280.000000 1280.000000"
 preserveAspectRatio="xMidYMid meet">
<metadata>
Created by potrace 1.15, written by Peter Selinger 2001-2017
</metadata>
<g transform="translate(0.000000,1280.000000) scale(0.100000,-0.100000)"
fill="#000000" stroke="none">
<path d="M6550 10084 c-338 -23 -605 -74 -890 -170 -672 -228 -1257 -678
-1655 -1274 -90 -134 -207 -343 -251 -447 -18 -43 -32 -62 -41 -59 -22 9 -182
34 -291 47 -140 15 -544 6 -682 -15 -280 -45 -540 -126 -785 -245 -279 -135
-487 -279 -704 -487 -455 -436 -735 -983 -828 -1619 -24 -168 -24 -562 1 -730
79 -544 292 -1015 642 -1424 445 -520 1087 -861 1760 -934 94 -10 552 -12
2212 -9 l2092 4 0 1059 0 1059 -495 0 c-272 0 -495 3 -495 6 0 4 64 86 142
183 237 293 821 1013 1003 1236 94 116 297 366 451 556 l280 345 19 -25 c11
-14 98 -123 194 -241 904 -1111 1655 -2040 1659 -2051 2 -5 -192 -9 -492 -9
l-496 0 0 -1060 0 -1060 640 0 c381 0 680 4 738 11 1030 111 1882 890 2086
1904 39 192 49 323 43 547 -9 377 -90 696 -259 1027 -110 215 -247 404 -426
585 -268 273 -575 466 -932 588 -240 82 -441 117 -717 125 l-193 6 -9 36 c-87
337 -134 468 -261 726 -164 333 -356 602 -615 860 -258 258 -526 451 -850 610
-452 223 -869 326 -1370 339 -93 2 -195 2 -225 0z"/>
</g>
</svg>
