<?xml version="1.0" standalone="no"?>
<!DOCTYPE svg PUBLIC "-//W3C//DTD SVG 20010904//EN"
 "http://www.w3.org/TR/2001/REC-SVG-20010904/DTD/svg10.dtd">
<svg version="1.0" xmlns="http://www.w3.org/2000/svg"
 width="1280.000000pt" height="1280.000000pt" viewBox="0 0 1280.000000 1280.000000"
 preserveAspectRatio="xMidYMid meet">
<metadata>
Created by potrace 1.15, written by Peter Selinger 2001-2017
</metadata>
<g transform="translate(0.000000,1280.000000) scale(0.100000,-0.100000)"
fill="#000000" stroke="none">
<path d="M9853 12659 c-54 -62 -168 -191 -253 -288 -86 -97 -189 -215 -230
-262 -72 -83 -400 -456 -566 -644 -220 -249 -224 -254 -224 -300 0 -29 8 -54
28 -82 15 -23 124 -126 242 -229 248 -218 882 -773 1345 -1179 176 -154 414
-363 529 -464 248 -218 301 -247 368 -203 14 9 109 112 210 227 232 265 368
420 627 714 113 128 224 254 246 280 22 25 89 102 150 171 61 69 119 136 128
150 45 65 3 134 -178 290 -27 23 -209 183 -404 354 -195 171 -429 376 -521
456 -91 80 -274 240 -405 355 -682 599 -841 737 -868 750 -17 8 -52 15 -78 15
l-48 0 -98 -111z"/>
<path d="M8224 10831 c-32 -38 -214 -244 -404 -457 -190 -213 -381 -429 -425
-479 -44 -49 -94 -106 -111 -125 -59 -66 -219 -246 -436 -490 -381 -431 -798
-902 -903 -1020 -56 -63 -192 -216 -301 -340 -288 -324 -703 -792 -1059 -1194
-171 -192 -332 -375 -360 -406 -27 -32 -97 -111 -155 -175 -58 -65 -145 -164
-195 -220 -49 -56 -191 -216 -315 -356 -124 -139 -351 -395 -504 -568 -153
-174 -300 -339 -325 -366 -25 -28 -91 -102 -146 -165 -55 -62 -143 -162 -195
-220 -52 -58 -194 -218 -315 -355 -121 -137 -273 -308 -337 -379 -65 -72 -117
-138 -117 -146 1 -15 351 -330 367 -330 9 0 198 208 832 916 68 76 181 202
250 279 195 217 562 626 691 770 372 415 992 1106 1104 1230 153 170 241 268
287 321 24 26 86 95 138 154 52 58 210 233 350 390 249 277 623 694 805 896
195 217 613 684 904 1008 64 72 157 175 206 230 50 56 192 214 315 351 494
550 668 744 752 838 48 53 88 101 88 105 0 4 -44 46 -97 92 -53 47 -146 129
-206 183 -60 53 -112 97 -116 97 -5 0 -35 -31 -67 -69z"/>
<path d="M8935 9968 c-93 -105 -296 -331 -449 -502 -154 -171 -352 -392 -440
-491 -89 -99 -186 -207 -216 -240 -30 -34 -109 -122 -175 -195 -66 -74 -220
-245 -341 -380 -121 -135 -317 -353 -435 -485 -732 -816 -738 -823 -975 -1086
-82 -91 -239 -266 -349 -390 -110 -123 -303 -339 -430 -480 -126 -140 -343
-381 -481 -535 -481 -536 -718 -800 -833 -928 -64 -72 -157 -175 -206 -230
-183 -204 -354 -394 -475 -531 -69 -76 -152 -169 -185 -205 -33 -36 -114 -126
-180 -200 -66 -74 -174 -195 -240 -268 -66 -73 -121 -137 -123 -142 -3 -7 242
-228 691 -624 l69 -60 46 50 c26 27 115 126 197 219 83 92 238 266 345 385
107 119 310 344 450 501 140 156 394 439 564 629 171 190 362 404 427 475 64
72 219 245 345 385 126 141 344 383 484 540 311 347 499 557 965 1075 197 220
411 458 475 529 277 310 318 356 390 436 42 47 180 200 305 340 126 140 342
381 481 535 138 154 354 395 480 535 539 602 679 758 721 802 23 26 43 51 43
57 0 9 -86 86 -589 531 -84 74 -160 136 -169 137 -11 2 -80 -69 -187 -189z"/>
<path d="M10220 9057 c-56 -64 -324 -363 -880 -982 -360 -401 -628 -700 -650
-725 -27 -31 -164 -183 -220 -245 -30 -33 -127 -141 -215 -240 -88 -98 -205
-229 -260 -290 -55 -61 -217 -241 -360 -400 -244 -273 -383 -427 -919 -1025
-121 -135 -261 -290 -311 -346 -49 -55 -142 -158 -206 -230 -64 -71 -219 -244
-345 -384 -126 -141 -326 -364 -444 -495 -118 -132 -313 -350 -434 -485 -347
-386 -649 -722 -795 -885 -74 -82 -150 -168 -170 -190 -40 -44 -246 -274 -358
-399 -40 -45 -73 -88 -73 -96 0 -13 129 -131 458 -419 l73 -64 26 24 c14 13
109 119 212 235 102 115 341 385 531 599 190 213 368 414 395 445 28 32 97
111 155 175 58 65 143 162 190 215 47 53 328 370 625 704 297 335 581 654 630
711 50 56 124 140 164 186 218 246 487 549 660 744 107 121 229 258 270 304
42 46 96 107 121 136 59 68 175 200 265 300 39 44 126 141 191 215 326 367
693 782 824 930 80 90 170 192 200 225 30 34 118 133 195 220 77 88 163 185
191 215 28 30 172 192 320 360 148 168 324 367 392 443 68 76 122 142 120 147
-7 21 -480 430 -495 430 -10 -1 -43 -29 -73 -63z"/>
<path d="M1255 2948 c-3 -7 -32 -121 -66 -253 -102 -405 -227 -897 -296 -1165
-36 -140 -68 -271 -73 -290 -4 -19 -45 -179 -90 -355 -45 -176 -86 -336 -90
-355 -4 -19 -33 -133 -64 -253 -31 -120 -56 -225 -56 -233 0 -16 31 -19 58 -5
9 5 186 50 392 101 707 172 1200 294 1260 310 19 5 157 39 305 75 149 36 313
77 365 90 52 13 262 65 465 115 424 103 417 102 422 116 3 9 -414 364 -439
373 -5 2 -26 -12 -46 -31 -21 -19 -53 -41 -72 -49 -71 -29 -269 -11 -379 33
-289 117 -510 264 -763 506 -276 266 -459 562 -475 774 -5 60 -2 74 22 124 28
56 28 58 9 73 -11 9 -99 82 -196 164 -97 81 -179 147 -182 147 -4 0 -9 -6 -11
-12z"/>
</g>
</svg>
