<?xml version="1.0" standalone="no"?>
<!DOCTYPE svg PUBLIC "-//W3C//DTD SVG 20010904//EN"
 "http://www.w3.org/TR/2001/REC-SVG-20010904/DTD/svg10.dtd">
<svg version="1.0" xmlns="http://www.w3.org/2000/svg"
 width="1280.000000pt" height="1280.000000pt" viewBox="0 0 1280.000000 1280.000000"
 preserveAspectRatio="xMidYMid meet">
<metadata>
Created by potrace 1.15, written by Peter Selinger 2001-2017
</metadata>
<g transform="translate(0.000000,1280.000000) scale(0.100000,-0.100000)"
fill="#000000" stroke="none">
<path d="M4460 12604 c-25 -2 -101 -8 -170 -14 -727 -60 -1469 -321 -2085
-733 -846 -566 -1471 -1393 -1783 -2357 -229 -706 -276 -1512 -131 -2245 134
-676 436 -1339 853 -1874 189 -243 525 -596 719 -757 645 -532 1449 -844 2382
-924 177 -15 624 -12 818 5 618 54 1202 216 1727 479 91 46 175 89 188 97 21
13 84 -48 1980 -1942 1254 -1254 1980 -1973 2022 -2001 142 -99 259 -140 400
-139 156 0 303 58 477 187 106 79 454 428 536 539 196 263 244 497 148 733
-65 161 9 84 -2073 2167 -1071 1073 -1948 1954 -1948 1958 0 4 26 54 59 110
325 565 526 1213 580 1880 6 70 11 229 11 352 0 245 -11 405 -41 620 -179
1271 -880 2391 -1946 3106 -608 408 -1288 654 -2033 734 -137 15 -593 27 -690
19z m425 -1515 c700 -52 1346 -342 1834 -822 264 -260 431 -489 586 -802 146
-295 229 -556 280 -885 26 -162 32 -567 10 -750 -77 -676 -364 -1271 -844
-1751 -452 -452 -996 -727 -1645 -831 -123 -20 -178 -23 -431 -23 -255 0 -307
3 -434 23 -452 73 -830 220 -1201 467 -1133 756 -1596 2194 -1118 3475 311
834 998 1491 1844 1763 372 120 741 165 1119 136z"/>
</g>
</svg>
