<?xml version="1.0" standalone="no"?>
<!DOCTYPE svg PUBLIC "-//W3C//DTD SVG 20010904//EN"
 "http://www.w3.org/TR/2001/REC-SVG-20010904/DTD/svg10.dtd">
<svg version="1.0" xmlns="http://www.w3.org/2000/svg"
 width="1280.000000pt" height="1280.000000pt" viewBox="0 0 1280.000000 1280.000000"
 preserveAspectRatio="xMidYMid meet">
<metadata>
Created by potrace 1.15, written by Peter Selinger 2001-2017
</metadata>
<g transform="translate(0.000000,1280.000000) scale(0.100000,-0.100000)"
fill="#000000" stroke="none">
<path d="M6190 12434 c-304 -44 -510 -144 -570 -277 -18 -39 -20 -70 -20 -467
0 -467 -4 -509 -60 -627 -39 -84 -119 -163 -197 -194 -54 -22 -77 -24 -348
-29 -259 -6 -296 -9 -346 -27 -153 -57 -240 -164 -257 -315 l-7 -63 -59 -7
c-121 -15 -242 -100 -292 -205 -46 -99 -48 -265 -3 -371 31 -73 66 -118 122
-156 104 -71 -52 -66 2229 -66 1481 0 2072 3 2110 11 134 29 249 111 297 214
47 101 38 263 -23 383 -50 99 -158 178 -259 189 -86 9 -84 8 -96 74 -26 151
-110 260 -239 310 -53 21 -79 23 -357 29 -280 6 -304 8 -356 29 -108 44 -199
134 -231 229 -8 26 -14 179 -17 517 l-6 480 -29 55 c-102 194 -374 301 -756
299 -74 -1 -178 -7 -230 -15z m293 -400 c178 -46 281 -143 312 -293 38 -179
-53 -385 -201 -459 -148 -74 -380 -34 -502 88 -118 119 -137 322 -44 493 77
143 263 216 435 171z"/>
<path d="M2615 10833 c-92 -19 -229 -71 -302 -114 -73 -43 -198 -168 -241
-241 -40 -67 -77 -174 -92 -261 -7 -43 -10 -1452 -8 -4632 l3 -4570 22 -80
c29 -103 110 -265 166 -334 93 -111 199 -180 352 -228 l90 -28 3720 -3 c2769
-2 3739 0 3795 8 169 26 349 105 465 205 107 91 186 223 228 379 l22 81 0
4565 0 4565 -22 82 c-47 175 -114 295 -223 403 -80 79 -153 123 -262 161 -136
46 -194 49 -861 48 -521 0 -616 -3 -587 -13 133 -49 253 -142 303 -234 44 -81
49 -143 45 -597 -4 -401 -5 -423 -26 -485 -44 -132 -139 -230 -262 -273 l-65
-22 -2445 -3 c-1804 -2 -2461 0 -2505 8 -142 28 -252 105 -308 219 l-32 66 -3
484 c-2 315 1 501 8 535 32 153 131 264 269 299 50 13 27 14 -300 20 -564 11
-863 8 -944 -10z m568 -400 c10 -17 -6 -395 -17 -398 -6 -1 -40 -8 -75 -15
-121 -22 -222 -95 -269 -191 -55 -113 -52 149 -52 -4235 0 -2872 3 -4068 11
-4110 28 -153 132 -266 290 -315 59 -18 156 -19 3355 -19 l3293 0 58 22 c111
41 200 154 238 303 13 52 15 520 15 4146 0 3947 -1 4089 -18 4147 -45 141
-153 233 -315 266 l-62 13 0 194 0 194 245 -1 c227 0 249 -2 300 -22 113 -44
185 -122 232 -253 l23 -64 0 -4515 0 -4515 -23 -56 c-44 -110 -107 -172 -223
-221 l-54 -23 -3740 0 -3740 0 -62 29 c-106 49 -187 155 -213 281 -7 34 -9
1490 -8 4566 l3 4516 35 68 c55 109 161 181 300 205 58 10 467 12 473 3z
m4086 -2424 c135 -21 246 -105 304 -226 29 -62 32 -76 32 -168 0 -81 -4 -111
-23 -157 -27 -67 -93 -144 -159 -186 -104 -66 -4 -63 -1654 -60 l-1494 3 -67
32 c-93 44 -151 100 -196 191 -35 72 -37 81 -37 171 1 76 5 108 24 154 47 120
185 228 313 247 84 12 2881 12 2957 -1z m1452 -1647 c140 -73 131 -275 -16
-343 -39 -18 -124 -19 -2311 -19 l-2271 0 -44 23 c-117 62 -145 218 -55 306
66 64 -106 60 2377 61 l2267 0 53 -28z m4 -801 c45 -20 92 -70 101 -107 4 -14
4 -49 2 -79 -6 -67 -41 -122 -101 -156 l-42 -24 -2254 -3 c-1488 -1 -2266 1
-2291 8 -149 40 -208 221 -105 325 20 19 50 39 68 44 19 6 925 9 2307 10 2187
1 2277 0 2315 -18z m27 -813 c53 -32 84 -76 94 -135 12 -77 -35 -167 -106
-203 -39 -20 -62 -20 -2325 -20 -2263 0 -2286 0 -2325 20 -99 50 -137 183 -79
277 22 36 75 72 123 84 17 4 1053 6 2301 6 l2270 -2 47 -27z m-19 -802 c76
-38 111 -122 93 -221 -9 -45 -59 -103 -111 -126 -38 -18 -136 -19 -2316 -19
l-2276 0 -44 23 c-79 42 -122 131 -105 220 9 47 71 115 121 132 34 12 383 14
2320 12 2214 -2 2281 -3 2318 -21z"/>
</g>
</svg>
