<?xml version="1.0" standalone="no"?>
<!DOCTYPE svg PUBLIC "-//W3C//DTD SVG 20010904//EN"
 "http://www.w3.org/TR/2001/REC-SVG-20010904/DTD/svg10.dtd">
<svg version="1.0" xmlns="http://www.w3.org/2000/svg"
 width="1280.000000pt" height="1280.000000pt" viewBox="0 0 1280.000000 1280.000000"
 preserveAspectRatio="xMidYMid meet">
<metadata>
Created by potrace 1.15, written by Peter Selinger 2001-2017
</metadata>
<g transform="translate(0.000000,1280.000000) scale(0.100000,-0.100000)"
fill="#000000" stroke="none">
<path d="M3595 11843 c-1101 -44 -2090 -583 -2707 -1475 -536 -774 -724 -1756
-532 -2778 203 -1080 813 -2206 1793 -3305 967 -1086 2270 -2130 3964 -3176
l289 -178 56 38 c32 21 145 92 252 158 3291 2024 5277 4248 5714 6399 109 537
113 1106 10 1595 -165 789 -581 1469 -1205 1973 -108 87 -367 260 -489 326
-696 377 -1443 501 -2228 369 -929 -155 -1647 -639 -2068 -1390 l-48 -87 -54
97 c-65 115 -182 288 -265 391 -83 102 -283 301 -387 384 -480 383 -1099 604
-1840 656 -80 5 -154 9 -165 8 -11 -1 -51 -3 -90 -5z"/>
</g>
</svg>
