<?xml version="1.0" standalone="no"?>
<!DOCTYPE svg PUBLIC "-//W3C//DTD SVG 20010904//EN"
 "http://www.w3.org/TR/2001/REC-SVG-20010904/DTD/svg10.dtd">
<svg version="1.0" xmlns="http://www.w3.org/2000/svg"
 width="1280.000000pt" height="1154.000000pt" viewBox="0 0 1280.000000 1154.000000"
 preserveAspectRatio="xMidYMid meet">
<metadata>
Created by potrace 1.15, written by Peter Selinger 2001-2017
</metadata>
<g transform="translate(0.000000,1154.000000) scale(0.100000,-0.100000)"
fill="#000000" stroke="none">
<path d="M11835 11526 c-103 -24 -166 -59 -310 -176 -395 -319 -531 -424 -564
-433 -20 -6 -202 -11 -416 -13 -488 -3 -580 -11 -714 -58 -60 -22 -64 -21 -85
19 -50 92 -175 179 -294 204 -288 60 -662 -111 -794 -364 -11 -22 -33 -55 -49
-75 -118 -146 -129 -494 -23 -702 15 -29 44 -97 64 -150 39 -102 90 -179 140
-213 35 -23 35 -25 -22 -140 -127 -255 -293 -430 -733 -772 -266 -207 -1674
-1320 -4388 -3468 l-418 -331 -77 15 c-52 10 -143 15 -282 15 -219 0 -269 -7
-438 -60 -94 -30 -102 -27 -102 35 0 27 -38 95 -179 320 -171 275 -285 472
-309 536 -43 116 -68 248 -77 415 -4 58 -8 112 -11 120 -3 12 9 15 59 17 35 1
99 13 143 27 229 73 367 256 367 486 0 100 -21 188 -68 285 -19 39 -42 93 -51
120 -24 75 -78 167 -134 228 -32 35 -85 119 -146 233 -158 292 -235 406 -345
510 -111 104 -279 195 -365 196 -47 1 -171 -57 -255 -120 -57 -41 -175 -159
-230 -227 -17 -22 -110 -159 -206 -304 -146 -220 -190 -279 -268 -357 -107
-107 -144 -156 -190 -257 -46 -102 -60 -167 -60 -287 0 -116 17 -182 65 -260
15 -25 31 -61 35 -80 28 -135 140 -254 274 -290 l44 -11 -7 -47 c-60 -417 -76
-614 -82 -1012 -4 -314 -6 -341 -29 -430 -41 -158 -56 -276 -62 -470 -8 -280
29 -513 117 -746 23 -60 46 -127 52 -149 33 -124 50 -175 71 -206 43 -64 43
-82 -7 -167 -48 -82 -79 -155 -91 -212 -4 -19 -24 -62 -45 -95 -77 -119 -127
-254 -155 -420 -9 -49 -22 -230 -30 -401 -11 -243 -19 -335 -36 -415 -42 -193
-28 -328 50 -499 22 -47 50 -112 62 -145 84 -220 290 -422 560 -549 265 -125
414 -137 584 -48 27 15 52 28 55 29 3 2 5 -17 5 -42 0 -31 7 -51 20 -65 63
-62 377 -87 545 -42 169 45 369 163 543 321 36 33 90 75 120 94 29 19 71 55
92 79 l39 45 72 -33 c74 -35 231 -84 267 -84 11 0 95 -18 186 -39 454 -108
854 -175 1201 -200 234 -18 1016 -25 1195 -12 326 24 640 68 1282 176 l442 75
101 50 c57 28 210 84 353 131 276 89 405 147 499 223 34 27 63 46 65 40 2 -5
21 -37 44 -71 85 -130 241 -236 399 -269 173 -37 373 2 511 97 111 77 315 289
496 514 89 110 193 236 232 280 79 88 111 144 200 353 94 219 115 302 116 452
0 116 -2 129 -28 185 -15 33 -34 66 -41 75 -7 8 -17 33 -21 54 -11 63 -59 148
-110 195 -60 56 -133 88 -251 112 -52 11 -125 31 -162 45 -190 71 -592 169
-1012 246 -372 68 -503 60 -716 -42 -180 -87 -274 -202 -274 -334 0 -63 24
-133 59 -171 10 -11 22 -30 25 -41 6 -19 2 -22 -41 -27 -247 -32 -710 -32
-928 -2 -60 9 -168 22 -240 31 -433 50 -882 157 -1435 340 -74 24 -141 48
-148 53 -10 6 140 152 520 508 293 275 594 553 668 618 696 611 1658 1554
3372 3306 79 80 187 178 241 218 193 144 469 297 722 400 72 29 142 58 156 65
23 11 40 6 181 -60 86 -40 183 -82 217 -94 71 -24 157 -26 208 -5 l36 15 44
-44 c128 -130 321 -163 496 -83 404 186 613 591 543 1057 -18 115 -60 254 -90
295 -12 17 -30 57 -40 90 -27 89 -43 119 -75 138 -17 10 -31 28 -34 46 -5 21
-32 51 -97 107 -50 43 -89 81 -88 85 2 4 57 57 124 117 369 335 539 612 561
912 9 137 -21 275 -65 299 -13 7 -22 31 -31 77 -16 86 -33 118 -71 134 -29 12
-104 10 -141 -5 -13 -5 -20 4 -33 41 -25 74 -60 127 -126 188 -66 60 -110 87
-200 118 -72 25 -216 32 -295 14z"/>
</g>
</svg>
