<?xml version="1.0" standalone="no"?>
<!DOCTYPE svg PUBLIC "-//W3C//DTD SVG 20010904//EN"
 "http://www.w3.org/TR/2001/REC-SVG-20010904/DTD/svg10.dtd">
<svg version="1.0" xmlns="http://www.w3.org/2000/svg"
 width="781.000000pt" height="1280.000000pt" viewBox="0 0 781.000000 1280.000000"
 preserveAspectRatio="xMidYMid meet">
<metadata>
Created by potrace 1.15, written by Peter Selinger 2001-2017
</metadata>
<g transform="translate(0.000000,1280.000000) scale(0.100000,-0.100000)"
fill="#000000" stroke="none">
<path d="M3867 12785 c-181 -37 -327 -117 -447 -241 -175 -182 -250 -412 -250
-764 0 -173 13 -310 56 -570 34 -207 66 -351 184 -820 54 -217 110 -447 125
-510 111 -495 138 -969 75 -1330 l-11 -66 -132 -39 c-325 -95 -528 -170 -719
-265 -172 -85 -282 -155 -328 -207 -95 -109 -190 -373 -190 -534 0 -69 39
-164 143 -346 57 -100 110 -203 117 -229 25 -89 -9 -161 -164 -344 -174 -205
-221 -303 -214 -451 7 -148 68 -248 308 -504 61 -66 132 -148 156 -181 l44
-61 -46 -103 c-73 -166 -169 -353 -214 -419 -155 -229 -369 -421 -837 -748
-188 -132 -255 -165 -434 -213 -340 -90 -407 -115 -511 -186 -232 -158 -471
-575 -548 -954 -27 -133 -37 -365 -21 -525 59 -610 275 -1089 658 -1455 172
-165 307 -255 566 -380 638 -306 1076 -400 1398 -300 210 65 370 238 599 650
50 91 115 206 143 255 137 244 284 419 402 481 120 63 218 79 570 94 485 21
628 67 839 269 89 86 150 168 210 279 38 72 43 77 76 80 169 13 522 92 710
157 342 119 708 411 929 740 111 165 125 202 129 326 5 124 -19 238 -74 357
l-34 74 55 50 c63 57 104 133 137 253 20 72 22 104 22 320 0 229 -9 326 -40
443 -5 16 -2 22 10 22 35 0 96 42 155 106 151 166 295 580 333 964 24 238 -25
381 -220 640 l-79 104 15 36 c43 100 55 336 28 520 -44 286 -251 671 -650
1204 -216 288 -350 416 -505 478 -96 39 -382 29 -795 -28 l-49 -7 7 129 c8
153 33 328 82 560 19 93 48 232 64 309 119 575 120 873 4 1267 -90 307 -254
626 -442 859 -124 154 -440 436 -623 555 -122 80 -260 146 -374 180 -113 32
-293 41 -398 19z"/>
</g>
</svg>
