<?xml version="1.0" standalone="no"?>
<!DOCTYPE svg PUBLIC "-//W3C//DTD SVG 20010904//EN"
 "http://www.w3.org/TR/2001/REC-SVG-20010904/DTD/svg10.dtd">
<svg version="1.0" xmlns="http://www.w3.org/2000/svg"
 width="1101.000000pt" height="1280.000000pt" viewBox="0 0 1101.000000 1280.000000"
 preserveAspectRatio="xMidYMid meet">
<metadata>
Created by potrace 1.15, written by Peter Selinger 2001-2017
</metadata>
<g transform="translate(0.000000,1280.000000) scale(0.100000,-0.100000)"
fill="#000000" stroke="none">
<path d="M5150 12789 c-750 -84 -1393 -493 -1779 -1133 l-64 -106 -71 0 c-84
0 -267 -22 -381 -45 -924 -189 -1652 -932 -1829 -1865 -44 -233 -47 -575 -7
-805 17 -102 67 -308 86 -357 4 -10 -21 -32 -78 -70 -171 -114 -370 -297 -504
-463 -504 -625 -654 -1446 -403 -2207 276 -836 1004 -1450 1880 -1583 58 -9
182 -18 275 -22 385 -13 753 69 1113 248 137 68 166 79 176 68 7 -8 42 -50 78
-94 241 -294 601 -547 978 -689 l115 -43 -2 -174 c-12 -867 -269 -1696 -730
-2357 -126 -180 -227 -299 -417 -487 -164 -163 -258 -272 -311 -364 -15 -26
18 1 435 364 429 373 456 395 477 395 20 0 16 -15 -17 -66 -72 -115 -110 -316
-131 -711 -6 -112 -9 -207 -6 -209 2 -2 36 53 76 123 233 409 482 693 744 849
78 47 221 103 232 92 3 -2 10 -49 15 -104 36 -335 -91 -644 -311 -760 -38 -20
-69 -41 -69 -47 0 -16 148 -2 206 20 193 74 429 340 671 756 36 62 62 103 59
92 -63 -180 -57 -369 15 -539 39 -91 124 -218 189 -281 l51 -50 -8 40 c-4 22
-7 105 -7 185 1 121 6 161 27 242 43 163 128 309 244 420 64 60 181 141 251
172 47 21 62 15 62 -30 0 -41 64 -148 128 -216 140 -148 394 -279 722 -371
240 -67 272 -71 184 -24 -374 202 -649 592 -810 1150 -151 524 -202 1280 -132
1975 9 96 14 116 32 128 12 9 62 41 111 73 203 129 426 337 577 538 42 55 80
109 85 118 9 15 17 12 77 -24 932 -571 2151 -408 2910 390 612 644 808 1580
504 2414 -170 468 -508 892 -924 1159 l-91 58 8 37 c44 186 54 563 20 786 -80
531 -319 994 -706 1363 -407 389 -944 619 -1492 639 l-152 6 -41 86 c-331 689
-993 1175 -1765 1296 -121 19 -458 27 -575 14z m800 -8174 c170 -130 365 -187
563 -165 73 9 176 33 231 56 49 20 -85 -116 -254 -258 -131 -109 -298 -204
-422 -238 -120 -33 -124 -32 -163 54 -129 283 -169 547 -100 652 l15 24 37
-41 c21 -23 62 -60 93 -84z m-603 -97 c27 -51 23 -180 -11 -302 -27 -100 -91
-273 -107 -290 -15 -17 -129 12 -213 54 -45 22 -117 67 -161 100 -92 69 -245
207 -274 248 l-20 29 82 -25 c105 -31 252 -35 342 -8 98 29 195 86 270 158 39
37 71 68 72 68 1 0 10 -15 20 -32z"/>
</g>
</svg>
