<?xml version="1.0" standalone="no"?>
<!DOCTYPE svg PUBLIC "-//W3C//DTD SVG 20010904//EN"
 "http://www.w3.org/TR/2001/REC-SVG-20010904/DTD/svg10.dtd">
<svg version="1.0" xmlns="http://www.w3.org/2000/svg"
 width="1280.000000pt" height="904.000000pt" viewBox="0 0 1280.000000 904.000000"
 preserveAspectRatio="xMidYMid meet">
<metadata>
Created by potrace 1.15, written by Peter Selinger 2001-2017
</metadata>
<g transform="translate(0.000000,904.000000) scale(0.100000,-0.100000)"
fill="#000000" stroke="none">
<path d="M4632 6920 c-32 -13 -48 -53 -34 -85 22 -49 97 -53 121 -6 15 28 14
46 -6 69 -22 25 -51 33 -81 22z"/>
<path d="M7735 6920 c-52 -20 -59 -79 -14 -113 22 -15 33 -17 55 -10 60 20 64
96 7 122 -13 6 -25 11 -26 10 -1 0 -11 -4 -22 -9z"/>
<path d="M2416 6905 c-10 -27 11 -44 62 -48 35 -2 29 -4 -25 -5 -39 -1 -75 -6
-78 -12 -3 -5 -21 -10 -39 -10 -41 0 -65 -24 -49 -48 8 -13 33 -19 114 -24
626 -44 1153 -266 1529 -647 255 -258 399 -552 432 -883 11 -112 11 -121 -10
-187 -20 -61 -21 -75 -11 -118 11 -44 28 -64 221 -252 209 -205 280 -286 323
-372 25 -49 41 -137 28 -154 -4 -6 -31 -21 -60 -34 -29 -13 -65 -37 -80 -53
-15 -16 -42 -36 -59 -43 -52 -22 -113 -83 -124 -126 -14 -50 -7 -77 49 -181
52 -98 51 -110 -12 -141 -44 -22 -46 -39 -12 -89 14 -20 25 -41 25 -46 0 -4
-16 -24 -36 -43 -49 -46 -84 -122 -84 -181 0 -39 11 -68 56 -155 l56 -107 -7
-68 c-3 -38 -11 -83 -17 -101 -18 -51 -67 -117 -87 -117 -11 0 -28 -15 -40
-35 -20 -34 -33 -43 -96 -62 -23 -6 -30 -14 -30 -33 0 -27 -12 -26 225 -22 25
1 81 0 125 0 114 -2 143 11 240 106 77 75 85 86 105 154 17 56 21 91 19 155
-4 77 -7 88 -48 157 -55 92 -64 155 -32 217 11 23 33 51 48 63 54 42 66 90 34
132 l-19 24 32 27 c56 44 53 99 -10 206 -72 122 -56 165 83 227 166 72 203
112 203 218 0 131 -62 221 -346 502 -146 145 -225 230 -230 249 -4 17 0 48 10
80 43 136 3 401 -97 645 -35 86 -130 249 -194 332 -231 302 -705 628 -1118
771 -266 91 -507 136 -781 144 -166 5 -181 4 -188 -12z m201 -61 c-3 -3 -12
-4 -19 -1 -8 3 -5 6 6 6 11 1 17 -2 13 -5z"/>
<path d="M5420 6904 c-46 -19 -68 -49 -76 -101 -6 -39 -9 -43 -35 -43 -22 0
-32 -7 -41 -25 -14 -32 4 -55 43 -55 l29 0 0 -99 0 -98 -30 -6 c-25 -6 -30
-11 -30 -36 0 -42 23 -51 134 -51 73 0 98 4 110 16 35 34 12 74 -41 74 l-33 0
0 99 0 100 53 3 52 3 0 35 0 35 -52 3 c-51 3 -53 4 -53 32 0 19 7 33 19 40 26
13 31 13 31 -4 0 -24 29 -46 60 -46 42 0 67 39 50 79 -22 55 -115 77 -190 45z"/>
<path d="M10092 6905 c-445 -58 -780 -182 -1142 -422 -210 -140 -289 -203
-425 -345 -260 -269 -406 -590 -430 -944 -7 -90 -5 -108 14 -159 18 -47 20
-64 11 -89 -6 -20 -87 -107 -218 -236 -258 -253 -340 -365 -357 -483 -17 -114
34 -180 186 -243 103 -42 143 -79 142 -127 -1 -19 -21 -72 -47 -121 -25 -48
-46 -98 -46 -111 0 -35 20 -72 47 -91 23 -14 24 -17 9 -39 -28 -43 -20 -82 25
-128 92 -94 99 -160 31 -274 -59 -100 -67 -135 -54 -237 14 -110 47 -174 129
-253 101 -96 114 -100 343 -94 19 1 80 -1 136 -5 87 -5 102 -4 107 10 11 27
-3 44 -46 55 -48 13 -83 39 -89 67 -2 10 -12 20 -23 22 -57 11 -105 104 -113
217 l-5 81 54 100 c47 87 54 106 53 154 -1 66 -29 127 -85 185 l-38 40 29 43
c16 24 26 50 23 58 -3 8 -23 24 -44 35 -51 26 -50 43 6 152 56 109 59 154 15
215 -16 23 -49 51 -72 63 -24 12 -60 37 -82 56 -21 20 -63 46 -92 59 -52 23
-54 25 -54 61 0 118 67 212 338 478 126 124 219 224 228 244 18 44 18 86 -2
145 -30 88 -7 302 52 482 32 99 112 258 182 364 63 94 230 272 337 360 229
188 557 348 879 431 126 32 351 67 484 75 103 6 124 10 132 25 13 24 -12 49
-50 49 -16 0 -32 5 -35 10 -3 6 -41 11 -83 12 -75 1 -75 1 -22 7 50 6 55 8 55
31 l0 25 -145 2 c-80 0 -191 -5 -248 -12z"/>
<path d="M7322 6863 c-6 -2 -15 -22 -18 -44 -8 -45 -18 -56 -59 -61 -27 -3
-30 -7 -30 -38 0 -32 3 -35 33 -38 l32 -3 0 -96 c0 -140 31 -189 119 -187 87
3 158 107 99 148 -27 19 -53 7 -62 -29 -4 -16 -13 -25 -26 -25 -19 0 -20 7
-20 94 l0 95 46 3 c88 6 88 70 0 76 l-46 3 0 43 c0 57 -23 77 -68 59z"/>
<path d="M4630 6770 c-14 -4 -39 -8 -57 -9 -64 -2 -66 -81 -3 -81 l30 0 0
-100 0 -100 -30 0 c-51 0 -63 -65 -14 -84 26 -10 194 -7 215 4 21 12 25 50 7
68 -7 7 -25 12 -40 12 l-28 0 0 138 c0 165 -6 176 -80 152z"/>
<path d="M4925 6766 c-22 -6 -46 -15 -52 -19 -17 -11 -16 -42 1 -56 11 -9 16
-41 18 -111 3 -85 1 -100 -14 -109 -24 -15 -23 -58 1 -71 11 -5 43 -10 71 -10
28 0 60 5 71 10 25 14 25 56 -1 72 -17 11 -20 24 -20 90 0 70 2 78 26 97 44
35 54 20 54 -84 0 -70 -4 -96 -15 -105 -21 -18 -19 -57 4 -70 22 -11 93 -13
129 -4 32 9 41 53 14 74 -18 15 -21 30 -24 124 l-3 108 -34 30 c-30 27 -39 29
-90 27 -31 -2 -65 1 -76 7 -14 7 -33 7 -60 0z"/>
<path d="M6091 6766 c-60 -13 -83 -35 -65 -63 6 -10 24 -20 40 -23 l29 -5 3
-98 3 -97 -29 0 c-34 0 -52 -16 -52 -47 0 -33 29 -43 130 -43 106 0 130 9 130
49 0 30 -14 41 -56 41 -22 0 -24 4 -24 52 0 37 7 63 25 95 14 23 29 43 33 43
4 0 15 -9 25 -20 20 -24 45 -25 75 -4 51 35 6 114 -65 114 -21 0 -50 -6 -65
-14 -25 -13 -27 -13 -30 7 -4 27 -30 30 -107 13z"/>
<path d="M6470 6770 c-8 -5 -25 -10 -37 -10 -27 0 -40 -38 -24 -68 14 -26 15
-222 1 -222 -18 0 -11 -59 8 -68 9 -5 92 -10 184 -10 137 -1 171 2 183 14 19
19 19 35 0 60 -10 14 -14 48 -15 126 0 100 -2 108 -26 137 -20 24 -34 31 -63
31 -20 0 -42 -5 -49 -12 -8 -8 -15 -8 -24 -1 -7 6 -31 13 -53 15 -22 3 -47 8
-55 11 -8 4 -22 2 -30 -3z m79 -199 c1 -53 -2 -92 -9 -96 -7 -4 -10 25 -10 89
0 53 4 96 9 96 4 0 9 -40 10 -89z m108 -48 c-2 -27 -3 -5 -3 47 0 52 1 74 3
48 2 -27 2 -69 0 -95z"/>
<path d="M7705 6768 c-62 -12 -79 -21 -83 -42 -5 -25 17 -46 49 -46 l29 0 0
-100 0 -100 -30 0 c-44 0 -64 -44 -34 -74 12 -12 37 -16 107 -16 114 0 136 6
143 36 8 32 -11 54 -47 54 l-29 0 0 131 c0 72 -5 139 -10 150 -12 21 -19 21
-95 7z"/>
<path d="M8437 6773 c-4 -3 -24 -9 -44 -12 -34 -6 -38 -10 -41 -39 -2 -22 2
-34 12 -38 22 -8 24 -199 2 -207 -23 -9 -26 -47 -5 -68 21 -21 106 -27 140 -9
23 13 26 65 4 78 -13 7 -15 25 -13 92 3 78 5 85 28 97 40 20 50 2 50 -93 0
-71 -3 -87 -20 -104 -22 -22 -25 -37 -11 -59 12 -19 121 -27 150 -12 26 14 28
55 4 73 -15 11 -18 29 -18 108 -1 144 -37 189 -142 177 -32 -3 -51 -1 -60 9
-16 15 -26 17 -36 7z"/>
<path d="M5735 6741 c-40 -24 -61 -49 -80 -94 -54 -131 64 -278 200 -247 80
18 145 123 130 211 -8 47 -54 113 -94 134 -41 21 -119 19 -156 -4z m115 -81
c54 -54 29 -180 -36 -180 -46 0 -71 50 -61 123 6 42 35 77 63 77 8 0 23 -9 34
-20z"/>
<path d="M6880 6743 c-60 -31 -79 -117 -29 -130 20 -5 19 -7 -5 -32 -49 -51
-52 -102 -9 -146 36 -36 91 -48 148 -34 34 9 53 9 71 1 33 -16 69 0 89 37 20
39 19 57 -4 73 -15 11 -19 29 -22 100 -4 80 -6 90 -32 115 -24 24 -36 28 -100
31 -55 2 -80 -1 -107 -15z m130 -76 c0 -12 -69 -42 -77 -34 -1 2 0 13 4 25 4
17 13 22 39 22 22 0 34 -5 34 -13z m0 -137 c0 -24 -6 -33 -27 -41 -61 -23 -86
17 -31 51 46 28 58 25 58 -10z"/>
<path d="M8061 6743 c-52 -26 -91 -95 -91 -160 0 -123 95 -208 204 -183 53 12
86 38 113 90 42 79 27 165 -41 229 -31 30 -44 35 -93 38 -41 3 -68 -1 -92 -14z
m118 -89 c26 -33 29 -118 5 -152 -22 -31 -69 -30 -90 3 -25 39 -22 120 7 151
29 31 52 30 78 -2z"/>
<path d="M6095 6111 c-6 -5 -23 -11 -40 -13 -26 -3 -30 -8 -33 -35 -2 -24 2
-34 17 -43 20 -10 21 -19 21 -183 0 -161 -1 -173 -20 -185 -26 -16 -26 -58 -1
-72 11 -5 43 -10 71 -10 28 0 60 5 71 10 25 14 25 56 -1 72 -17 11 -20 24 -20
80 0 36 3 74 6 83 7 18 58 47 68 38 3 -4 6 -48 6 -98 0 -70 -4 -96 -15 -105
-21 -18 -19 -57 4 -70 22 -11 93 -13 129 -4 33 9 41 53 14 75 -20 15 -22 27
-22 108 0 149 -33 191 -140 178 l-49 -6 -3 92 c-3 90 -4 92 -28 95 -14 2 -30
-1 -35 -7z"/>
<path d="M6885 5949 c-11 -4 -32 -8 -47 -8 -35 -1 -49 -42 -24 -70 22 -25 23
-202 1 -221 -21 -18 -19 -57 4 -70 11 -5 44 -10 75 -10 79 0 110 36 66 80 -16
16 -20 33 -20 94 0 68 2 76 26 95 44 35 54 20 54 -85 0 -75 -3 -96 -15 -100
-22 -9 -19 -61 4 -74 34 -18 119 -12 140 9 21 21 18 59 -5 68 -10 4 -14 28
-14 94 0 146 -25 183 -124 185 -34 0 -70 6 -81 11 -11 6 -29 7 -40 2z"/>
<path d="M4965 5917 c-46 -25 -85 -92 -85 -145 0 -133 90 -218 205 -192 52 11
119 82 112 119 -3 14 0 32 5 41 14 22 2 98 -21 136 -39 63 -142 83 -216 41z
m123 -84 c14 -23 14 -23 -37 -23 -54 0 -62 8 -35 35 22 21 53 16 72 -12z m30
-125 c-2 -6 -16 -21 -31 -32 -22 -16 -31 -18 -51 -8 -14 6 -30 20 -36 32 -10
19 -8 20 55 20 47 0 65 -4 63 -12z"/>
<path d="M5274 5925 c-11 -27 1 -59 23 -65 12 -3 35 -25 51 -50 l29 -45 -36
-52 c-20 -29 -43 -53 -51 -53 -40 0 -55 -61 -21 -80 28 -15 114 -12 136 4 16
11 21 11 33 0 14 -14 98 -19 139 -8 12 3 25 15 28 25 8 23 -11 59 -30 59 -9 0
-31 25 -51 55 l-35 56 28 44 c15 25 36 45 45 45 25 0 41 35 28 60 -10 18 -21
19 -161 19 -119 0 -151 -2 -155 -14z m158 -277 c-6 -6 -15 -9 -18 -5 -4 3 -4
14 0 23 5 13 9 15 18 6 9 -9 9 -15 0 -24z"/>
<path d="M5755 5926 c-57 -25 -105 -103 -105 -171 0 -112 101 -199 204 -175
68 15 145 111 116 145 -21 26 -58 18 -75 -15 -28 -55 -101 -63 -124 -14 -27
60 3 159 48 159 19 0 25 -6 26 -24 2 -32 41 -63 69 -55 68 20 59 111 -14 149
-36 18 -105 19 -145 1z"/>
<path d="M6520 5933 c-83 -27 -114 -107 -54 -141 13 -7 11 -14 -15 -41 -80
-86 15 -200 142 -171 21 4 41 10 43 13 3 3 17 -1 30 -8 14 -7 34 -10 45 -8 50
13 80 105 39 118 -18 6 -20 15 -20 85 0 94 -12 124 -55 145 -31 14 -122 19
-155 8z m100 -87 c0 -8 -10 -18 -22 -21 -57 -16 -56 -17 -50 10 4 21 10 25 38
25 23 0 34 -5 34 -14z m0 -136 c0 -40 -43 -63 -78 -42 -19 13 -3 42 32 58 43
19 46 18 46 -16z"/>
<path d="M7283 5920 c-45 -27 -66 -73 -59 -124 3 -22 6 -50 6 -61 -2 -62 -7
-92 -18 -112 -40 -71 36 -143 153 -143 97 0 165 46 165 113 0 45 -43 97 -81
97 -22 0 -21 1 9 33 20 20 35 48 39 70 3 21 9 37 14 37 15 0 39 32 39 53 0 46
-13 51 -127 54 -92 2 -113 0 -140 -17z m109 -86 c15 -32 0 -59 -32 -59 -13 0
-28 8 -33 17 -15 23 6 68 33 68 12 0 25 -10 32 -26z m28 -244 c11 -7 9 -11
-12 -20 -45 -21 -135 7 -98 30 14 9 87 2 110 -10z"/>
<path d="M7675 5916 c-48 -29 -73 -69 -81 -128 -24 -177 163 -283 280 -158 30
32 37 47 33 68 -3 14 0 33 5 42 14 22 2 98 -21 136 -39 64 -143 83 -216 40z
m123 -83 c14 -23 14 -23 -37 -23 -56 0 -60 4 -34 32 21 24 51 20 71 -9z m30
-125 c-2 -6 -16 -21 -31 -32 -22 -16 -31 -18 -51 -8 -14 6 -30 20 -36 32 -10
19 -8 20 55 20 47 0 65 -4 63 -12z"/>
<path d="M3966 5380 c-57 -18 -106 -85 -106 -147 0 -41 40 -103 80 -125 45
-24 115 -20 158 11 39 27 67 97 58 146 -9 47 -59 102 -104 115 -42 11 -47 11
-86 0z"/>
<path d="M8713 5290 c-81 -49 -90 -160 -19 -230 46 -43 122 -53 174 -21 92 58
96 196 7 251 -43 26 -119 27 -162 0z"/>
</g>
</svg>
