<?xml version="1.0" standalone="no"?>
<!DOCTYPE svg PUBLIC "-//W3C//DTD SVG 20010904//EN"
 "http://www.w3.org/TR/2001/REC-SVG-20010904/DTD/svg10.dtd">
<svg version="1.0" xmlns="http://www.w3.org/2000/svg"
 width="1280.000000pt" height="1199.000000pt" viewBox="0 0 1280.000000 1199.000000"
 preserveAspectRatio="xMidYMid meet">
<metadata>
Created by potrace 1.15, written by Peter Selinger 2001-2017
</metadata>
<g transform="translate(0.000000,1199.000000) scale(0.100000,-0.100000)"
fill="#000000" stroke="none">
<path d="M6376 11948 c-3 -24 -22 -239 -41 -478 -74 -919 -116 -1177 -208
-1277 -11 -13 -24 -23 -29 -23 -5 0 -43 33 -86 73 -111 104 -159 141 -251 196
-337 203 -835 262 -1401 165 -265 -45 -502 -109 -1112 -298 -307 -96 -472
-142 -658 -186 -284 -66 -633 -110 -717 -88 -40 10 -46 9 -68 -12 -13 -12 -27
-34 -30 -49 -5 -23 35 -468 50 -558 l6 -33 279 0 c154 0 280 -2 280 -5 0 -4
-1051 -2741 -1924 -5010 l-143 -370 -161 -3 c-102 -1 -162 -6 -162 -13 0 -5
22 -42 49 -82 191 -283 548 -560 1031 -801 182 -91 331 -147 515 -194 517
-134 1108 -117 1635 46 318 99 612 268 935 537 107 89 349 313 455 419 l85 86
-162 0 -161 0 -10 28 c-49 136 -282 786 -397 1107 -79 220 -198 552 -264 738
-119 332 -247 688 -480 1340 -343 956 -421 1174 -551 1537 -78 217 -161 450
-185 518 l-44 122 1886 0 1886 0 -7 -192 c-4 -106 -20 -582 -36 -1058 -99
-2894 -116 -3391 -161 -4670 -17 -487 -31 -986 -32 -1110 -1 -223 -1 -227 36
-415 61 -306 62 -466 1 -587 -71 -141 -306 -345 -589 -513 -511 -302 -1401
-602 -2347 -791 -19 -4 -28 -12 -28 -25 0 -19 53 -19 3340 -19 3287 0 3340 0
3340 19 0 13 -9 21 -27 25 -1112 222 -2070 573 -2568 941 -164 121 -305 264
-353 360 -58 115 -59 252 -3 537 65 329 63 296 41 926 -11 312 -33 965 -50
1452 -17 487 -39 1142 -50 1455 -30 878 -79 2301 -103 3015 l-22 645 1939 3
c1067 1 1941 0 1944 -3 3 -3 -460 -1215 -1029 -2695 l-1034 -2689 -161 -3
-161 -3 68 -95 c192 -267 446 -475 871 -714 170 -95 269 -141 431 -200 371
-134 788 -189 1194 -155 259 21 546 79 763 154 298 104 634 314 955 598 168
149 415 389 415 403 0 11 -31 14 -173 14 l-173 0 -106 298 c-59 163 -170 475
-248 692 -129 358 -247 689 -601 1678 -65 182 -173 483 -239 667 -66 184 -174
487 -241 673 -66 185 -175 488 -241 672 -228 636 -248 694 -248 702 0 4 99 8
220 8 l219 0 5 33 c16 97 56 540 50 561 -3 13 -16 34 -29 46 -22 20 -28 22
-66 12 -33 -8 -68 -6 -178 13 -295 51 -478 96 -1026 250 -657 185 -898 244
-1170 289 -283 47 -437 59 -700 53 -258 -5 -386 -21 -533 -63 -204 -59 -330
-134 -499 -296 -61 -60 -115 -108 -120 -108 -14 0 -48 40 -67 77 -30 59 -66
204 -86 346 -30 215 -47 400 -105 1117 -21 266 -23 280 -45 280 -13 0 -19 -11
-24 -42z m-3913 -2713 c19 -55 122 -341 227 -635 106 -294 245 -685 311 -867
65 -183 173 -484 239 -668 66 -184 174 -487 241 -672 66 -186 175 -489 241
-673 214 -598 354 -988 481 -1345 69 -192 129 -358 132 -367 7 -17 -92 -18
-1979 -18 -1427 0 -1986 3 -1986 11 0 7 1725 4502 2041 5318 5 13 11 22 13 20
2 -2 20 -49 39 -104z m8084 -27 c17 -51 95 -271 173 -488 78 -217 207 -577
287 -800 80 -223 199 -556 265 -740 66 -184 185 -517 265 -740 80 -223 198
-553 263 -735 566 -1581 610 -1704 610 -1710 0 -3 -887 -5 -1971 -5 -1873 0
-1971 1 -1966 18 2 9 354 926 781 2037 428 1111 884 2298 1014 2637 130 340
239 618 242 618 3 0 20 -42 37 -92z"/>
</g>
</svg>
