<?xml version="1.0" standalone="no"?>
<!DOCTYPE svg PUBLIC "-//W3C//DTD SVG 20010904//EN"
 "http://www.w3.org/TR/2001/REC-SVG-20010904/DTD/svg10.dtd">
<svg version="1.0" xmlns="http://www.w3.org/2000/svg"
 width="1280.000000pt" height="1280.000000pt" viewBox="0 0 1280.000000 1280.000000"
 preserveAspectRatio="xMidYMid meet">
<metadata>
Created by potrace 1.15, written by Peter Selinger 2001-2017
</metadata>
<g transform="translate(0.000000,1280.000000) scale(0.100000,-0.100000)"
fill="#000000" stroke="none">
<path d="M6145 12794 c-216 -13 -391 -28 -530 -45 -995 -122 -1927 -467 -2760
-1022 -907 -604 -1648 -1433 -2146 -2402 -395 -769 -615 -1549 -690 -2450 -17
-193 -17 -757 0 -950 75 -901 295 -1681 690 -2450 610 -1188 1578 -2156 2766
-2766 769 -395 1549 -615 2450 -690 193 -17 757 -17 950 0 901 75 1681 295
2450 690 1187 610 2156 1579 2766 2766 395 769 615 1549 690 2450 17 193 17
757 0 950 -75 901 -295 1681 -690 2450 -610 1188 -1578 2156 -2766 2766 -753
387 -1531 610 -2390 684 -164 15 -666 27 -790 19z m739 -779 c1098 -94 2121
-499 3001 -1188 401 -314 804 -738 1106 -1162 598 -840 944 -1793 1030 -2840
16 -193 16 -657 0 -850 -114 -1385 -693 -2628 -1672 -3591 -960 -942 -2172
-1494 -3524 -1605 -193 -16 -657 -16 -850 0 -1352 111 -2561 661 -3523 1605
-979 960 -1561 2210 -1673 3591 -15 193 -15 657 0 850 112 1384 693 2629 1678
3596 872 856 1985 1403 3183 1563 416 55 832 66 1244 31z"/>
<path d="M5060 10738 c-55 -15 -679 -379 -716 -418 -85 -87 -103 -206 -47
-315 67 -129 1153 -2002 1181 -2035 57 -68 178 -105 267 -81 46 12 662 365
715 409 71 59 108 190 78 277 -8 22 -276 495 -596 1050 -471 817 -591 1018
-628 1052 -68 64 -164 87 -254 61z"/>
<path d="M3945 9869 c-444 -268 -654 -492 -755 -805 -51 -159 -63 -256 -62
-489 2 -581 148 -1249 437 -2005 660 -1719 1900 -3438 3021 -4187 344 -229
566 -316 844 -330 257 -12 511 63 877 260 113 61 151 86 147 97 -6 17 -1182
2058 -1197 2077 -7 10 -18 8 -47 -7 -131 -67 -310 -98 -455 -80 -282 37 -555
190 -841 475 -264 262 -461 538 -645 905 -404 805 -456 1555 -134 1933 33 39
144 132 166 139 8 3 -217 401 -590 1049 -332 574 -606 1047 -610 1051 -3 4
-73 -33 -156 -83z"/>
<path d="M8220 5330 c-55 -7 -46 -3 -413 -214 -164 -94 -314 -186 -333 -204
-76 -74 -104 -192 -66 -287 32 -82 1166 -2037 1203 -2075 82 -84 203 -104 314
-51 86 41 614 347 655 380 56 45 90 120 90 201 0 37 -7 83 -15 103 -33 80
-1170 2035 -1203 2069 -61 64 -141 91 -232 78z"/>
</g>
</svg>
