<?xml version="1.0" standalone="no"?>
<!DOCTYPE svg PUBLIC "-//W3C//DTD SVG 20010904//EN"
 "http://www.w3.org/TR/2001/REC-SVG-20010904/DTD/svg10.dtd">
<svg version="1.0" xmlns="http://www.w3.org/2000/svg"
 width="1043.000000pt" height="1280.000000pt" viewBox="0 0 1043.000000 1280.000000"
 preserveAspectRatio="xMidYMid meet">
<metadata>
Created by potrace 1.15, written by Peter Selinger 2001-2017
</metadata>
<g transform="translate(0.000000,1280.000000) scale(0.100000,-0.100000)"
fill="#000000" stroke="none">
<path d="M0 6400 l0 -6400 5215 0 5215 0 0 6400 0 6400 -5215 0 -5215 0 0
-6400z m7552 6375 c-256 -47 -619 -180 -876 -321 -130 -71 -358 -224 -461
-307 -356 -290 -710 -787 -871 -1222 -51 -140 -99 -338 -118 -485 -14 -113
-41 -589 -34 -594 12 -9 431 15 503 28 378 69 660 201 985 461 369 296 679
710 873 1165 146 345 202 617 214 1043 l6 247 1324 0 1323 0 0 -4690 0 -4690
-52 24 c-89 39 -367 209 -480 293 -387 290 -664 613 -864 1008 -161 319 -242
600 -273 946 -14 148 -14 555 -1 712 44 510 257 1002 612 1413 144 167 297
303 572 508 86 64 156 122 156 128 0 30 -228 295 -383 444 -414 400 -918 646
-1562 763 -231 41 -287 46 -565 46 -445 0 -580 -29 -1405 -302 -728 -241 -790
-257 -939 -250 -120 5 -147 13 -556 157 -896 316 -1191 379 -1671 358 -555
-25 -1112 -237 -1620 -615 -494 -367 -915 -973 -1146 -1648 -48 -141 -100
-336 -132 -490 -34 -171 -51 -289 -90 -615 -5 -44 -9 1269 -10 3213 l-1 3287
3808 -1 c3193 -1 3795 -3 3734 -14z m-7512 -7560 c108 -900 317 -1653 695
-2500 57 -128 225 -457 305 -595 251 -440 698 -1064 1005 -1404 155 -171 354
-343 537 -463 155 -102 390 -207 519 -232 26 -5 -605 -9 -1523 -10 l-1568 -1
1 2713 c1 1535 5 2684 10 2647 5 -36 13 -105 19 -155z m10380 -3540 l0 -1665
-1377 1 c-1198 1 -1368 3 -1302 14 103 19 290 77 399 124 368 159 722 493
1165 1101 444 609 710 1092 1001 1817 60 150 110 273 112 273 1 0 2 -749 2
-1665z m-4762 -1185 c243 -22 443 -70 812 -195 613 -208 766 -249 1024 -274
45 -5 -830 -9 -1944 -9 l-2025 -1 110 28 c210 54 392 111 740 229 370 125 525
171 667 197 173 32 427 42 616 25z"/>
</g>
</svg>
