<?xml version="1.0" standalone="no"?>
<!DOCTYPE svg PUBLIC "-//W3C//DTD SVG 20010904//EN"
 "http://www.w3.org/TR/2001/REC-SVG-20010904/DTD/svg10.dtd">
<svg version="1.0" xmlns="http://www.w3.org/2000/svg"
 width="1280.000000pt" height="908.000000pt" viewBox="0 0 1280.000000 908.000000"
 preserveAspectRatio="xMidYMid meet">
<metadata>
Created by potrace 1.15, written by Peter Selinger 2001-2017
</metadata>
<g transform="translate(0.000000,908.000000) scale(0.100000,-0.100000)"
fill="#000000" stroke="none">
<path d="M6407 9066 c-138 -51 -214 -209 -158 -331 23 -52 66 -102 102 -121
24 -12 29 -21 29 -54 l0 -39 -55 -11 c-30 -6 -65 -20 -77 -31 -23 -19 -23 -19
-3 -34 10 -8 34 -21 52 -27 l33 -12 0 -71 c0 -68 -2 -72 -30 -93 -29 -22 -30
-24 -30 -111 l0 -89 -132 67 c-239 120 -379 155 -628 155 -151 0 -186 -3 -258
-22 -95 -26 -215 -73 -417 -162 -172 -77 -223 -92 -301 -92 -104 -1 -206 41
-367 150 -91 62 -103 67 -150 66 -57 0 -150 -37 -187 -74 -17 -17 -24 -19 -36
-9 -8 6 -14 18 -14 25 0 21 -32 17 -86 -12 -68 -35 -104 -72 -104 -104 0 -35
68 -140 110 -170 l33 -24 23 30 c13 16 24 32 24 35 0 4 8 10 17 13 21 9 116
-82 145 -139 39 -75 20 -195 -30 -195 -20 0 -75 54 -85 83 -7 20 -34 22 -88 5
-71 -21 -75 -33 -34 -129 25 -59 47 -95 76 -121 33 -30 40 -42 37 -67 -2 -23
-328 -471 -1193 -1646 l-1190 -1614 -311 -1 c-233 0 -314 -3 -325 -12 -14 -12
-14 -37 -3 -218 7 -113 13 -226 13 -252 1 -42 7 -53 62 -117 33 -39 59 -75 57
-80 -1 -5 -154 -214 -338 -464 l-335 -455 -85 -22 c-47 -12 -91 -22 -97 -23
-27 -1 -10 -28 62 -97 348 -338 1039 -637 1775 -769 618 -111 1360 -120 2020
-25 709 102 1381 334 1836 636 126 83 307 239 293 252 -3 3 -18 2 -34 -2 -16
-5 -48 -4 -71 1 l-41 10 -997 2436 c-1058 2587 -1025 2501 -962 2501 33 0 98
42 123 79 54 80 57 229 8 368 -16 45 -26 85 -22 89 9 10 67 -10 237 -80 275
-113 371 -120 660 -46 270 68 345 81 495 87 162 6 274 -9 409 -56 129 -45 280
-124 368 -193 35 -28 37 -32 40 -96 3 -65 4 -68 41 -91 l37 -25 -32 -33 c-31
-32 -31 -33 -12 -55 30 -35 46 -48 87 -67 l38 -18 -38 -16 c-21 -8 -53 -30
-72 -49 l-34 -33 188 -3 c103 -1 190 0 193 2 8 9 -59 60 -107 82 l-46 21 32 7
c18 4 54 27 80 51 l48 43 -34 35 -33 35 37 18 c40 19 55 46 55 102 0 32 4 39
28 49 15 6 56 24 92 39 157 65 305 95 475 95 213 0 351 -37 670 -179 275 -122
290 -127 425 -125 84 0 147 8 235 27 323 72 319 72 261 -21 -54 -87 -78 -158
-83 -249 -5 -67 -2 -88 15 -126 20 -46 89 -108 119 -108 14 0 19 -76 5 -82 -5
-1 -95 -253 -201 -558 -107 -305 -272 -780 -368 -1055 -96 -275 -214 -612
-262 -750 l-86 -250 -290 -8 c-160 -5 -294 -12 -298 -16 -4 -4 -1 -115 7 -246
l14 -238 89 -91 c48 -50 113 -117 142 -148 l55 -57 -190 -545 -189 -545 -75
-16 c-41 -10 -94 -25 -118 -36 l-43 -18 30 -45 c89 -129 388 -341 686 -486
461 -225 956 -355 1560 -412 185 -17 813 -17 1000 0 389 36 753 104 1070 199
488 146 934 371 1205 606 53 47 124 127 117 133 -2 2 -18 0 -35 -5 -18 -5 -32
-6 -32 -1 0 5 -19 15 -42 22 -40 14 -68 47 -460 558 -294 383 -415 547 -408
555 6 7 13 32 16 56 7 54 3 59 -86 88 -36 12 -70 25 -76 29 -6 4 -561 725
-1234 1602 -673 877 -1252 1632 -1287 1677 l-63 82 27 13 c28 14 136 165 130
183 -5 15 -79 63 -108 70 -20 5 -29 1 -42 -18 -21 -33 -81 -69 -100 -61 -46
17 -41 122 9 196 32 45 139 122 160 114 9 -3 23 -24 31 -46 9 -22 21 -40 26
-40 44 0 177 127 177 168 0 26 -34 72 -80 108 -58 46 -77 50 -99 23 l-18 -22
-47 47 c-98 98 -168 108 -313 42 -165 -73 -196 -81 -318 -81 -133 0 -127 -3
-407 182 -282 187 -397 238 -598 268 -209 32 -439 10 -652 -63 -62 -21 -121
-42 -132 -47 -17 -8 -18 -3 -11 87 4 53 4 105 1 116 -4 11 -26 33 -50 48 l-43
27 -2 69 -2 69 46 20 c49 22 67 45 44 60 -8 5 -40 17 -71 26 -57 16 -58 17
-58 53 0 32 6 41 38 63 98 69 133 204 81 309 -57 112 -195 174 -302 134z
m-1571 -4222 l972 -2377 -57 6 c-31 4 -136 14 -233 24 -143 13 -179 20 -183
33 -3 8 -20 24 -39 34 -29 15 -34 23 -34 55 0 20 -1 108 -2 196 -2 247 -3 239
23 250 16 7 25 23 31 56 5 26 6 53 3 61 -3 9 -499 212 -1139 468 l-1133 452
-749 -7 -749 -6 39 54 c126 176 2270 3077 2274 3077 3 0 442 -1070 976 -2376z
m4464 1683 c135 -177 685 -895 1223 -1596 537 -701 976 -1276 974 -1278 -2 -2
-91 28 -198 66 -107 38 -486 174 -844 301 -357 127 -675 240 -705 251 -54 20
-63 20 -540 9 -835 -20 -1082 -25 -1084 -22 -2 1 62 188 141 415 374 1071 465
1331 600 1722 128 369 163 454 183 454 3 0 115 -145 250 -322z m-7959 -3582
l292 -340 -114 -7 c-63 -4 -235 -14 -384 -23 -250 -15 -612 -46 -713 -61 l-43
-6 308 416 307 417 27 -28 c15 -15 159 -181 320 -368z m10808 -133 c200 -260
361 -475 359 -476 -4 -3 -391 36 -397 40 -2 2 -4 60 -6 129 l-2 126 26 12 c19
9 28 23 33 52 4 22 5 47 2 56 -3 10 -61 37 -158 74 -90 34 -153 62 -150 69 6
16 -7 31 -40 48 -26 14 -29 20 -33 79 -6 97 -5 276 2 267 1 -2 165 -216 364
-476z m-4382 331 c8 -51 14 -58 296 -368 159 -174 287 -318 285 -320 -2 -1
-106 -10 -233 -19 -257 -18 -624 -54 -637 -62 -4 -3 -8 -1 -8 4 0 5 63 190
140 410 77 220 140 406 141 414 1 22 8 -4 16 -59z"/>
<path d="M6300 4304 l0 -2836 -85 -90 c-47 -49 -85 -98 -85 -108 0 -10 25 -46
55 -79 l56 -59 -63 -6 c-35 -3 -140 -10 -234 -15 -378 -24 -749 -94 -889 -169
-49 -27 -50 -28 -53 -78 l-3 -52 -41 -6 c-72 -12 -136 -54 -165 -110 -21 -40
-19 -420 1 -451 18 -28 115 -78 198 -104 306 -93 998 -150 1688 -137 817 14
1349 96 1481 228 l29 30 0 201 c0 181 -2 205 -20 243 -26 53 -86 93 -151 101
l-49 6 0 43 c0 53 -20 76 -94 109 -156 72 -572 135 -983 151 -101 4 -183 8
-183 10 0 1 29 30 65 65 36 34 65 70 65 80 0 17 -144 159 -161 159 -5 0 -9
1173 -9 2855 l0 2855 -185 0 -185 0 0 -2836z"/>
</g>
</svg>
