<?xml version="1.0" standalone="no"?>
<!DOCTYPE svg PUBLIC "-//W3C//DTD SVG 20010904//EN"
 "http://www.w3.org/TR/2001/REC-SVG-20010904/DTD/svg10.dtd">
<svg version="1.0" xmlns="http://www.w3.org/2000/svg"
 width="1280.000000pt" height="1114.000000pt" viewBox="0 0 1280.000000 1114.000000"
 preserveAspectRatio="xMidYMid meet">
<metadata>
Created by potrace 1.15, written by Peter Selinger 2001-2017
</metadata>
<g transform="translate(0.000000,1114.000000) scale(0.100000,-0.100000)"
fill="#000000" stroke="none">
<path d="M4740 11129 c-103 -13 -209 -39 -293 -71 -422 -162 -805 -598 -1066
-1213 -56 -134 -99 -325 -145 -645 -39 -274 -47 -373 -53 -702 -7 -358 1 -474
58 -863 55 -373 69 -481 70 -539 1 -28 5 4 10 72 12 198 46 348 167 757 28 94
62 217 77 275 35 138 141 456 206 617 159 394 334 689 513 869 255 255 464
322 726 235 239 -81 448 -247 985 -787 254 -255 395 -356 555 -399 81 -22 297
-31 357 -15 131 35 223 140 287 330 55 166 56 333 1 495 -143 427 -455 799
-930 1110 -548 359 -1095 529 -1525 474z"/>
<path d="M8913 10686 c-332 -64 -629 -275 -790 -564 -58 -104 -120 -269 -142
-379 -95 -466 123 -993 515 -1246 545 -352 1261 -146 1557 448 186 374 192
719 18 1091 -153 326 -424 552 -763 634 -109 27 -298 34 -395 16z"/>
<path d="M12734 8613 c-17 -3 -22 -16 -33 -79 -21 -125 -93 -308 -228 -579
-211 -422 -397 -681 -704 -980 -347 -338 -586 -525 -830 -650 -166 -85 -264
-90 -404 -21 -122 60 -255 189 -367 352 -47 70 -120 250 -221 549 -133 392
-192 524 -299 666 -155 205 -383 298 -538 219 -90 -46 -214 -187 -275 -315
-99 -206 -129 -494 -80 -754 75 -391 259 -802 509 -1136 180 -241 520 -551
701 -639 276 -135 619 -132 932 7 307 136 572 323 839 591 385 387 610 763
870 1452 93 248 160 503 185 710 10 79 10 142 1 295 -7 107 -12 222 -12 257 0
64 0 64 -46 55z"/>
<path d="M4165 6534 c-11 -2 -40 -10 -65 -16 -72 -17 -179 -78 -231 -130 -91
-91 -162 -278 -175 -463 -12 -163 28 -371 97 -509 59 -119 132 -210 323 -403
156 -159 168 -174 154 -190 -8 -10 -102 -124 -208 -253 -335 -406 -756 -889
-1125 -1290 -578 -628 -812 -887 -1151 -1275 -186 -213 -619 -716 -718 -835
-112 -133 -223 -255 -511 -559 -306 -323 -566 -611 -552 -611 4 0 42 11 87 26
160 50 626 346 1738 1103 304 207 652 440 775 519 576 371 1486 971 1681 1110
294 208 611 455 659 512 50 59 178 170 398 345 118 95 239 193 268 219 46 41
54 45 74 34 184 -98 361 -223 487 -344 l87 -84 10 -93 10 -92 -63 -96 c-83
-127 -232 -269 -385 -367 -63 -41 -242 -147 -399 -236 -157 -89 -431 -248
-610 -352 -485 -284 -836 -471 -1250 -665 -140 -65 -239 -120 -304 -167 -47
-35 -48 -36 -25 -45 13 -5 98 -12 189 -14 277 -8 993 70 1265 138 44 11 157
45 250 74 94 30 310 95 480 145 726 214 1071 352 1361 545 420 281 712 633
841 1014 23 68 25 86 20 176 -14 248 -109 453 -387 829 -286 388 -415 531
-905 1010 -390 380 -557 528 -819 726 -274 207 -364 258 -735 424 -258 116
-332 137 -491 141 -69 2 -134 2 -145 -1z"/>
</g>
</svg>
