<?xml version="1.0" standalone="no"?>
<!DOCTYPE svg PUBLIC "-//W3C//DTD SVG 20010904//EN"
 "http://www.w3.org/TR/2001/REC-SVG-20010904/DTD/svg10.dtd">
<svg version="1.0" xmlns="http://www.w3.org/2000/svg"
 width="1280.000000pt" height="640.000000pt" viewBox="0 0 1280.000000 640.000000"
 preserveAspectRatio="xMidYMid meet">
<metadata>
Created by potrace 1.15, written by Peter Selinger 2001-2017
</metadata>
<g transform="translate(0.000000,640.000000) scale(0.100000,-0.100000)"
fill="#000000" stroke="none">
<path d="M2570 5799 c-542 -59 -1064 -273 -1480 -606 -115 -92 -320 -297 -412
-413 -292 -366 -480 -814 -533 -1266 -90 -769 188 -1528 762 -2085 806 -780
2035 -1004 3093 -562 587 245 1083 698 1358 1240 l57 113 358 0 358 0 -3 214
c-2 118 -1 213 2 211 29 -17 576 -225 594 -225 30 0 31 2 181 225 71 105 131
194 135 198 5 6 159 -216 261 -374 3 -5 25 -12 50 -15 l45 -6 164 178 c90 99
171 187 180 197 16 17 31 5 289 -223 l273 -240 119 0 118 0 308 245 c169 135
310 245 314 245 3 0 99 -100 211 -223 l205 -222 54 4 c49 3 65 11 181 92 69
49 132 89 140 89 7 0 90 -30 183 -66 l170 -65 170 6 170 6 120 127 c65 70 160
169 210 219 l90 93 155 -200 155 -200 102 0 101 0 516 668 516 667 -3 195 -2
195 -3595 3 -3596 2 -33 68 c-200 407 -534 782 -921 1036 -346 227 -731 373
-1160 442 -124 19 -595 28 -730 13z m-812 -1890 c195 -51 356 -187 447 -374
99 -203 99 -405 0 -610 -53 -112 -114 -189 -202 -255 -140 -106 -259 -145
-443 -144 -109 0 -135 4 -205 28 -317 108 -512 393 -492 716 30 452 455 756
895 639z"/>
</g>
</svg>
