<?xml version="1.0" standalone="no"?>
<!DOCTYPE svg PUBLIC "-//W3C//DTD SVG 20010904//EN"
 "http://www.w3.org/TR/2001/REC-SVG-20010904/DTD/svg10.dtd">
<svg version="1.0" xmlns="http://www.w3.org/2000/svg"
 width="1280.000000pt" height="1280.000000pt" viewBox="0 0 1280.000000 1280.000000"
 preserveAspectRatio="xMidYMid meet">
<metadata>
Created by potrace 1.15, written by Peter Selinger 2001-2017
</metadata>
<g transform="translate(0.000000,1280.000000) scale(0.100000,-0.100000)"
fill="#000000" stroke="none">
<path d="M6110 12794 c-230 -15 -367 -27 -505 -45 -2298 -283 -4281 -1819
-5151 -3987 -235 -584 -376 -1193 -436 -1872 -16 -189 -16 -791 0 -980 47
-533 137 -993 288 -1462 662 -2058 2346 -3665 4429 -4227 562 -151 1057 -216
1665 -216 349 0 498 9 795 46 2561 315 4706 2183 5385 4687 150 555 215 1054
215 1662 0 349 -9 498 -46 795 -226 1838 -1264 3506 -2824 4540 -901 597
-1882 940 -2975 1041 -154 14 -718 26 -840 18z m660 -1014 c394 -36 754 -147
1049 -324 349 -209 567 -483 659 -825 22 -85 25 -116 26 -271 0 -153 -4 -198
-31 -360 -29 -168 -99 -590 -218 -1315 -24 -148 -74 -450 -110 -670 -36 -220
-86 -521 -110 -670 -211 -1289 -202 -1241 -266 -1389 -107 -248 -286 -453
-519 -592 l-75 -44 -8 92 c-13 153 -22 157 -23 11 -1 -161 -20 -248 -84 -381
-50 -104 -88 -161 -164 -241 -99 -103 -216 -178 -363 -231 l-63 -23 0 -1624
c0 -1615 0 -1624 -21 -1685 -38 -114 -110 -192 -201 -217 -30 -9 -118 -11
-288 -9 l-245 3 -46 27 c-92 54 -151 149 -169 273 -6 45 -10 703 -10 1844 l0
1775 -39 76 c-22 42 -52 116 -67 165 -24 80 -27 107 -28 240 -1 117 3 165 18
219 65 241 210 437 414 559 249 150 568 168 828 48 94 -43 88 -29 -8 20 -165
84 -295 114 -488 113 -124 -1 -160 -5 -245 -28 -373 -101 -649 -371 -749 -733
-14 -48 -27 -105 -31 -125 l-6 -37 -57 26 c-261 115 -488 336 -613 598 -95
199 -124 327 -123 545 0 145 4 183 72 590 62 366 198 1195 258 1565 9 55 18
101 19 103 1 1 274 -27 606 -63 332 -36 730 -79 884 -95 154 -17 359 -39 455
-50 429 -46 408 -45 431 -24 76 69 61 224 -23 238 -18 3 -181 21 -363 41 -181
19 -539 57 -795 85 -256 27 -618 66 -805 86 -187 20 -342 38 -344 40 -4 3 17
146 22 150 1 2 144 -13 317 -31 516 -56 1219 -132 1638 -177 283 -31 398 -39
409 -32 55 35 79 132 48 197 -9 19 -24 38 -33 42 -16 6 -188 26 -1252 140
-975 105 -1085 117 -1086 119 -4 3 34 207 39 212 4 4 95 -3 204 -14 271 -29
1037 -112 1633 -177 478 -52 496 -53 520 -36 32 23 60 77 60 119 0 46 -25 100
-52 112 -13 6 -401 51 -863 100 -1344 145 -1455 157 -1460 161 -5 6 26 192 34
201 3 4 456 -42 1006 -101 1428 -155 1340 -146 1368 -134 69 32 77 212 10 237
-16 6 -794 92 -1998 221 -187 20 -342 38 -344 40 -8 8 51 321 75 397 96 303
306 540 622 701 170 87 367 147 592 181 179 27 383 32 570 16z"/>
<path d="M7131 5584 c0 -11 3 -14 6 -6 3 7 2 16 -1 19 -3 4 -6 -2 -5 -13z"/>
</g>
</svg>
