<?xml version="1.0" standalone="no"?>
<!DOCTYPE svg PUBLIC "-//W3C//DTD SVG 20010904//EN"
 "http://www.w3.org/TR/2001/REC-SVG-20010904/DTD/svg10.dtd">
<svg version="1.0" xmlns="http://www.w3.org/2000/svg"
 width="686.000000pt" height="1280.000000pt" viewBox="0 0 686.000000 1280.000000"
 preserveAspectRatio="xMidYMid meet">
<metadata>
Created by potrace 1.15, written by Peter Selinger 2001-2017
</metadata>
<g transform="translate(0.000000,1280.000000) scale(0.100000,-0.100000)"
fill="#000000" stroke="none">
<path d="M3360 7863 l0 -4932 -43 18 c-119 51 -366 113 -540 136 -136 17 -423
20 -547 5 -444 -55 -857 -231 -1250 -533 -131 -101 -371 -339 -478 -475 -329
-415 -517 -884 -499 -1242 10 -194 61 -329 166 -443 175 -189 455 -313 843
-374 175 -27 527 -25 718 6 434 68 806 221 1124 461 494 371 800 950 881 1660
14 119 15 572 15 3813 0 2022 2 3677 6 3677 17 0 331 -146 519 -241 367 -185
660 -371 960 -608 149 -117 465 -431 574 -570 360 -456 556 -936 633 -1546 19
-155 16 -657 -5 -835 -94 -775 -327 -1525 -769 -2474 -38 -81 -68 -150 -66
-151 6 -6 257 337 373 510 503 750 781 1457 867 2200 19 163 16 608 -5 770
-90 685 -346 1290 -803 1895 -93 124 -224 279 -388 460 -882 974 -1573 2086
-2197 3540 l-88 205 -1 -4932z"/>
</g>
</svg>
