<?xml version="1.0" standalone="no"?>
<!DOCTYPE svg PUBLIC "-//W3C//DTD SVG 20010904//EN"
 "http://www.w3.org/TR/2001/REC-SVG-20010904/DTD/svg10.dtd">
<svg version="1.0" xmlns="http://www.w3.org/2000/svg"
 width="1174.000000pt" height="1280.000000pt" viewBox="0 0 1174.000000 1280.000000"
 preserveAspectRatio="xMidYMid meet">
<metadata>
Created by potrace 1.15, written by Peter Selinger 2001-2017
</metadata>
<g transform="translate(0.000000,1280.000000) scale(0.100000,-0.100000)"
fill="#000000" stroke="none">
<path d="M7140 12781 c-46 -24 -52 -42 -140 -391 -339 -1343 -809 -2592 -1258
-3345 -121 -204 -306 -469 -323 -463 -11 4 -211 246 -321 389 -106 139 -251
340 -383 533 -69 100 -96 131 -123 143 -50 21 -94 10 -132 -34 l-32 -36 7
-296 c9 -388 -16 -997 -51 -1221 -3 -19 -7 -50 -10 -69 l-5 -34 -227 6 c-301
7 -511 39 -882 132 -770 194 -1824 635 -2795 1170 -332 183 -316 175 -345 175
-65 0 -127 -74 -116 -138 7 -48 24 -64 235 -224 1155 -880 2116 -1747 2666
-2405 69 -81 125 -151 125 -154 0 -15 -544 -210 -851 -304 -133 -40 -159 -60
-166 -127 -9 -92 32 -122 197 -148 387 -59 780 -176 1111 -332 l109 -51 0 -62
c0 -78 -32 -269 -66 -395 -130 -480 -501 -1126 -956 -1661 -147 -173 -143
-167 -143 -221 0 -38 5 -52 29 -77 16 -17 45 -34 63 -37 37 -7 41 -6 298 101
533 222 1147 425 1530 505 55 12 108 24 118 26 16 5 17 -7 17 -148 -1 -694
-154 -1978 -387 -3232 -44 -239 -45 -249 -29 -282 47 -100 182 -93 220 11 8
22 36 119 62 215 173 649 445 1431 699 2010 196 445 486 965 673 1208 l17 22
100 -75 c395 -298 972 -892 1424 -1462 92 -117 112 -133 167 -133 34 0 51 6
74 27 42 38 51 85 33 170 -42 201 -85 522 -108 803 -20 241 -20 688 -1 882 15
139 52 383 62 399 7 12 329 -75 538 -145 807 -270 1789 -761 2840 -1420 181
-113 207 -122 266 -91 63 32 78 132 28 180 -13 13 -178 139 -368 282 -1042
781 -1918 1539 -2428 2101 l-83 91 58 29 c657 332 1801 676 3176 957 169 35
318 70 332 79 65 42 70 132 11 184 l-33 29 -444 6 c-1463 20 -2617 226 -3301
590 l-96 51 15 31 c32 62 139 223 218 330 131 177 228 288 419 482 l179 182 0
46 c0 57 -26 95 -79 114 -38 13 -45 12 -239 -53 -391 -131 -909 -271 -1116
-301 l-46 -7 -36 149 c-56 228 -89 444 -119 783 -17 196 -17 1078 0 1350 49
776 130 1476 258 2243 41 247 43 270 30 302 -16 39 -68 75 -106 75 -14 0 -41
-8 -60 -19z"/>
</g>
</svg>
