<?xml version="1.0" standalone="no"?>
<!DOCTYPE svg PUBLIC "-//W3C//DTD SVG 20010904//EN"
 "http://www.w3.org/TR/2001/REC-SVG-20010904/DTD/svg10.dtd">
<svg version="1.0" xmlns="http://www.w3.org/2000/svg"
 width="1280.000000pt" height="1017.000000pt" viewBox="0 0 1280.000000 1017.000000"
 preserveAspectRatio="xMidYMid meet">
<metadata>
Created by potrace 1.15, written by Peter Selinger 2001-2017
</metadata>
<g transform="translate(0.000000,1017.000000) scale(0.100000,-0.100000)"
fill="#000000" stroke="none">
<path d="M4988 10160 c-123 -15 -217 -51 -334 -125 -27 -18 -97 -47 -155 -64
-136 -42 -379 -163 -498 -248 -222 -159 -411 -379 -505 -585 -30 -68 -72 -212
-81 -283 -5 -42 -14 -58 -52 -97 l-46 -47 7 -358 c10 -489 27 -623 113 -853
49 -132 194 -417 266 -525 119 -178 455 -624 691 -920 44 -55 206 -227 360
-383 316 -318 308 -307 419 -587 78 -195 107 -301 107 -390 0 -119 -36 -282
-103 -471 -87 -243 -128 -360 -178 -519 l-55 -170 -39 -7 c-22 -5 -112 -19
-200 -34 -499 -80 -1632 -326 -2550 -554 -500 -124 -647 -158 -1055 -241 -376
-76 -525 -99 -735 -109 -104 -5 -207 -14 -227 -20 -144 -42 -169 -202 -97
-617 24 -141 69 -319 101 -403 23 -59 27 -88 37 -315 20 -435 65 -630 184
-797 121 -169 310 -264 762 -385 l180 -48 220 1 c276 0 615 35 1175 119 1005
152 2709 496 3670 741 660 168 884 209 2415 444 875 134 1366 225 1790 331
496 124 939 291 1045 394 35 34 119 80 380 210 272 135 344 176 385 215 36 34
336 257 413 305 1 1 -117 440 -263 974 -222 812 -273 986 -308 1057 -23 46
-47 84 -54 84 -7 0 -891 -175 -1965 -390 -2852 -568 -2822 -563 -2835 -553 -6
4 -141 150 -299 323 -157 173 -299 329 -315 345 -28 29 -30 41 -114 585 l-85
555 42 210 41 210 89 127 c48 69 88 133 88 142 0 8 -22 87 -48 175 l-49 160
46 83 c39 69 68 153 174 508 l128 425 -1 403 c0 363 -2 414 -20 501 -139 683
-805 1328 -1505 1456 -103 19 -450 29 -557 15z"/>
</g>
</svg>
