<?xml version="1.0" standalone="no"?>
<!DOCTYPE svg PUBLIC "-//W3C//DTD SVG 20010904//EN"
 "http://www.w3.org/TR/2001/REC-SVG-20010904/DTD/svg10.dtd">
<svg version="1.0" xmlns="http://www.w3.org/2000/svg"
 width="1242.000000pt" height="1280.000000pt" viewBox="0 0 1242.000000 1280.000000"
 preserveAspectRatio="xMidYMid meet">
<metadata>
Created by potrace 1.15, written by Peter Selinger 2001-2017
</metadata>
<g transform="translate(0.000000,1280.000000) scale(0.100000,-0.100000)"
fill="#000000" stroke="none">
<path d="M6208 12791 c-1 -4 -156 -124 -343 -266 -187 -142 -346 -262 -353
-268 -8 -6 -31 -4 -70 6 -31 9 -198 55 -370 102 -173 48 -316 85 -318 83 -2
-3 23 -85 56 -183 33 -98 58 -180 57 -182 -2 -2 -110 24 -240 57 -131 33 -244
60 -252 60 -8 0 -101 -80 -205 -177 -105 -98 -194 -179 -199 -181 -4 -1 -32
70 -60 159 -51 156 -53 161 -71 143 -12 -13 -396 -493 -466 -582 -3 -4 -823
17 -876 22 -31 3 -38 1 -38 -14 0 -15 -41 -152 -222 -749 -18 -56 -37 -105
-42 -107 -52 -18 -694 -258 -703 -263 -7 -3 54 -53 147 -121 88 -63 160 -118
160 -121 0 -3 -114 -51 -252 -106 l-253 -101 -51 -256 c-28 -141 -52 -258 -55
-260 -2 -2 -62 38 -134 90 -71 52 -132 94 -135 94 -3 0 -14 -172 -23 -382 -12
-272 -21 -386 -30 -394 -25 -24 -717 -494 -727 -494 -13 0 -13 -1 6 -46 9 -21
77 -213 151 -427 l134 -389 -82 -126 c-46 -70 -141 -214 -211 -319 -70 -106
-128 -195 -128 -198 0 -2 90 -6 200 -7 l200 -3 -141 -225 c-78 -124 -144 -232
-146 -240 -2 -8 46 -120 106 -249 61 -129 111 -236 111 -238 0 -2 -74 -3 -165
-1 -91 2 -165 0 -165 -4 0 -4 95 -151 210 -327 188 -285 210 -321 200 -342 -5
-13 -68 -190 -140 -394 -72 -203 -137 -384 -144 -401 -13 -29 -13 -32 3 -40
10 -5 178 -120 373 -256 l355 -248 7 -127 c13 -257 26 -539 26 -592 0 -41 3
-52 14 -48 7 3 82 55 165 116 138 101 151 109 155 88 3 -12 13 -134 22 -272 9
-137 17 -251 18 -251 0 -1 98 -55 216 -120 118 -64 223 -123 233 -130 16 -10
4 -22 -117 -110 -74 -53 -133 -100 -131 -104 2 -3 164 -66 359 -140 l355 -133
15 -46 c39 -119 236 -795 236 -808 0 -13 24 -14 173 -9 94 3 300 8 457 11
l285 6 229 -291 c127 -160 235 -295 242 -301 10 -8 27 34 74 180 33 105 62
191 64 191 2 0 83 -94 181 -210 97 -116 182 -210 188 -210 7 0 113 14 237 30
124 16 237 30 252 30 l27 0 -54 -160 c-29 -88 -52 -160 -49 -160 5 0 145 38
474 129 140 39 260 71 267 71 11 0 699 -521 713 -540 3 -4 160 112 350 257
190 146 354 269 366 275 16 7 48 2 135 -22 259 -72 619 -170 623 -170 2 0 -24
86 -59 190 -51 153 -60 190 -47 186 9 -3 127 -33 261 -66 l244 -60 121 114
c246 230 277 259 280 255 2 -2 27 -75 55 -161 29 -87 55 -158 57 -158 2 0 110
134 240 298 130 163 238 299 240 301 3 3 876 -19 898 -22 4 -1 10 5 11 13 2
13 139 473 231 775 l24 80 360 135 c198 74 359 138 357 142 -1 4 -71 56 -156
117 -141 102 -151 111 -130 120 13 5 121 48 240 95 l216 87 54 274 54 275 143
-105 c102 -75 142 -99 143 -87 18 483 36 765 49 772 8 5 172 117 365 249 192
133 353 242 358 244 4 1 -60 195 -142 431 l-149 430 209 317 c115 175 209 320
209 323 0 3 -88 6 -196 6 -164 0 -195 2 -191 14 3 8 67 112 142 232 l136 218
-115 245 -116 246 175 3 174 2 -215 326 -215 326 151 426 c83 235 147 428 143
429 -4 2 -172 117 -373 256 l-365 252 -12 280 c-7 154 -16 328 -20 387 l-8
108 -162 -120 c-90 -66 -163 -118 -164 -117 0 1 -10 125 -22 276 l-22 275
-232 125 c-128 69 -232 128 -233 132 0 3 61 50 136 104 l135 100 -28 12 c-15
7 -163 63 -328 123 -165 61 -316 117 -335 124 -39 15 -25 -26 -213 606 l-82
275 -165 -6 c-91 -4 -294 -10 -451 -13 l-286 -7 -243 302 c-200 248 -245 299
-252 283 -4 -10 -31 -95 -61 -187 l-53 -168 -167 200 c-163 194 -168 200 -200
195 -96 -15 -492 -62 -495 -59 -2 1 20 73 48 160 29 86 50 158 48 160 -2 2
-165 -41 -363 -96 -198 -54 -367 -99 -375 -99 -12 0 -371 270 -672 506 -31 24
-58 40 -60 35z"/>
</g>
</svg>
