<?xml version="1.0" standalone="no"?>
<!DOCTYPE svg PUBLIC "-//W3C//DTD SVG 20010904//EN"
 "http://www.w3.org/TR/2001/REC-SVG-20010904/DTD/svg10.dtd">
<svg version="1.0" xmlns="http://www.w3.org/2000/svg"
 width="1280.000000pt" height="1121.000000pt" viewBox="0 0 1280.000000 1121.000000"
 preserveAspectRatio="xMidYMid meet">
<metadata>
Created by potrace 1.15, written by Peter Selinger 2001-2017
</metadata>
<g transform="translate(0.000000,1121.000000) scale(0.100000,-0.100000)"
fill="#000000" stroke="none">
<path d="M6265 11200 c-69 -15 -151 -49 -215 -91 -74 -47 -190 -163 -241 -240
-75 -111 -5724 -9897 -5752 -9963 -54 -128 -69 -281 -42 -411 23 -110 68 -189
154 -276 91 -90 194 -147 339 -187 l97 -27 5750 -3 c3982 -2 5775 1 5831 8
118 15 188 36 280 81 141 69 246 185 304 334 20 51 24 79 24 180 1 126 -15
198 -68 319 -28 63 -5709 9843 -5774 9941 -62 91 -183 213 -252 252 -126 72
-318 109 -435 83z"/>
</g>
</svg>
