<?xml version="1.0" standalone="no"?>
<!DOCTYPE svg PUBLIC "-//W3C//DTD SVG 20010904//EN"
 "http://www.w3.org/TR/2001/REC-SVG-20010904/DTD/svg10.dtd">
<svg version="1.0" xmlns="http://www.w3.org/2000/svg"
 width="907.000000pt" height="1280.000000pt" viewBox="0 0 907.000000 1280.000000"
 preserveAspectRatio="xMidYMid meet">
<metadata>
Created by potrace 1.15, written by Peter Selinger 2001-2017
</metadata>
<g transform="translate(0.000000,1280.000000) scale(0.100000,-0.100000)"
fill="#000000" stroke="none">
<path d="M2421 12792 l-144 -3 6 -5008 c6 -4537 5 -5010 -9 -5015 -9 -3 -33
-6 -54 -6 -55 0 -193 -26 -295 -55 -282 -82 -597 -253 -905 -491 -138 -107
-436 -400 -546 -539 -365 -459 -535 -928 -450 -1242 48 -180 185 -305 382
-349 102 -22 321 -15 449 14 609 141 1309 664 1723 1291 87 131 219 383 251
478 54 161 52 -46 44 3972 l-6 3708 1794 6 c987 4 2247 7 2802 7 l1007 0 0
-3429 0 -3428 -82 -8 c-310 -27 -747 -221 -1111 -494 -165 -123 -257 -204
-402 -353 -333 -341 -566 -716 -652 -1047 -33 -129 -42 -309 -19 -404 46 -195
167 -319 366 -373 97 -26 313 -24 446 4 607 130 1325 659 1739 1281 86 129
238 420 264 506 12 38 26 101 32 140 11 79 14 9719 2 10423 l-6 424 -3241 -4
c-1783 -1 -3306 -4 -3385 -6z m6047 -2084 l-3 -323 -2797 -3 -2798 -2 0 325 0
325 2800 0 2800 0 -2 -322z"/>
</g>
</svg>
