<?xml version="1.0" standalone="no"?>
<!DOCTYPE svg PUBLIC "-//W3C//DTD SVG 20010904//EN"
 "http://www.w3.org/TR/2001/REC-SVG-20010904/DTD/svg10.dtd">
<svg version="1.0" xmlns="http://www.w3.org/2000/svg"
 width="1228.000000pt" height="1280.000000pt" viewBox="0 0 1228.000000 1280.000000"
 preserveAspectRatio="xMidYMid meet">
<metadata>
Created by potrace 1.15, written by Peter Selinger 2001-2017
</metadata>
<g transform="translate(0.000000,1280.000000) scale(0.100000,-0.100000)"
fill="#000000" stroke="none">
<path d="M11070 12784 c-63 -7 -486 -54 -940 -104 -454 -49 -863 -94 -910
-100 -47 -5 -249 -28 -450 -50 -201 -21 -570 -62 -820 -89 -250 -28 -826 -91
-1280 -141 -454 -49 -863 -94 -910 -100 -47 -5 -249 -28 -450 -50 -201 -21
-570 -62 -820 -89 -421 -47 -1599 -176 -2475 -272 -938 -103 -1146 -127 -1149
-130 -2 -2 6 -98 19 -214 13 -115 33 -300 45 -410 11 -110 52 -483 91 -830 38
-346 78 -715 90 -820 11 -104 27 -248 35 -320 37 -332 69 -624 144 -1305 44
-404 85 -773 90 -820 6 -47 51 -456 100 -910 50 -454 101 -924 115 -1045 13
-121 54 -492 90 -825 37 -333 90 -816 119 -1075 29 -258 51 -471 50 -473 -1
-2 -34 -10 -74 -18 -470 -98 -1066 -561 -1426 -1109 -320 -488 -431 -954 -294
-1239 135 -283 502 -322 955 -101 248 121 462 280 700 519 222 223 391 451
520 700 100 192 188 417 204 523 13 87 14 263 2 329 -10 54 -12 66 -141 1244
-50 454 -113 1030 -141 1280 -27 250 -68 619 -90 820 -22 201 -48 444 -59 540
-11 96 -38 339 -59 540 -73 662 -221 2012 -240 2185 -11 94 -18 171 -18 172 3
2 257 30 1287 143 454 49 863 94 910 100 47 6 456 51 910 100 454 50 926 102
1049 115 123 14 225 24 226 23 1 -2 23 -199 49 -438 26 -239 70 -637 97 -885
27 -247 67 -612 89 -810 22 -198 80 -731 130 -1185 49 -454 94 -863 100 -910
5 -47 46 -416 90 -820 44 -404 94 -856 110 -1004 22 -199 27 -272 19 -277 -7
-4 -30 -10 -53 -13 -84 -13 -245 -71 -371 -135 -498 -253 -968 -733 -1229
-1258 -124 -248 -175 -422 -183 -628 -8 -205 26 -326 121 -432 87 -97 196
-137 371 -137 226 1 459 83 734 261 548 354 966 893 1183 1523 26 76 41 279
29 378 -6 42 -15 113 -21 157 -5 44 -28 244 -50 445 -85 786 -220 2019 -230
2100 -5 47 -46 416 -90 820 -44 404 -103 940 -131 1190 -27 250 -72 655 -99
900 -27 245 -67 617 -91 828 -23 210 -40 385 -37 387 2 3 375 45 829 95 453
50 1028 113 1277 140 248 28 658 73 910 100 251 28 659 73 906 100 248 27 451
48 453 47 3 -4 15 -111 183 -1642 22 -198 62 -565 89 -815 28 -250 87 -786
131 -1190 44 -404 85 -773 90 -820 13 -108 187 -1703 196 -1792 5 -53 4 -68
-7 -71 -8 -2 -54 -14 -102 -25 -185 -45 -413 -156 -621 -305 -489 -348 -902
-891 -1055 -1390 -113 -365 -63 -667 132 -801 282 -195 806 -41 1317 387 425
355 768 859 911 1337 29 96 36 288 16 426 -9 60 -44 359 -77 664 -33 305 -69
634 -80 730 -11 96 -37 339 -59 540 -22 201 -63 572 -91 825 -28 253 -68 622
-90 820 -22 198 -80 731 -130 1185 -161 1466 -170 1552 -195 1780 -13 124 -56
513 -95 865 -39 352 -77 701 -85 775 -54 510 -137 1259 -141 1278 -5 25 2 25
-154 6z m-217 -1531 c22 -150 59 -545 51 -552 -5 -4 -142 -22 -304 -40 -274
-29 -1330 -145 -2380 -261 -1323 -145 -1680 -183 -1684 -179 -3 2 -19 134 -36
293 -25 221 -29 290 -20 296 7 4 42 10 79 14 36 4 228 24 426 46 778 85 2033
223 2465 271 250 27 619 68 820 89 201 22 394 44 430 49 36 5 84 9 106 10 40
1 42 0 47 -36z m-4885 -795 c17 -161 28 -295 24 -298 -4 -4 -205 -28 -447 -54
-242 -26 -641 -70 -887 -97 -247 -27 -649 -71 -895 -98 -1738 -191 -2134 -233
-2140 -227 -8 8 -73 579 -67 586 3 2 323 39 712 82 389 42 912 100 1162 127
250 28 824 91 1275 140 451 50 894 99 985 110 91 10 183 19 206 20 l40 1 32
-292z"/>
</g>
</svg>
