<?xml version="1.0" standalone="no"?>
<!DOCTYPE svg PUBLIC "-//W3C//DTD SVG 20010904//EN"
 "http://www.w3.org/TR/2001/REC-SVG-20010904/DTD/svg10.dtd">
<svg version="1.0" xmlns="http://www.w3.org/2000/svg"
 width="677.000000pt" height="1280.000000pt" viewBox="0 0 677.000000 1280.000000"
 preserveAspectRatio="xMidYMid meet">
<metadata>
Created by potrace 1.15, written by Peter Selinger 2001-2017
</metadata>
<g transform="translate(0.000000,1280.000000) scale(0.100000,-0.100000)"
fill="#000000" stroke="none">
<path d="M1315 12790 c-296 -26 -626 -103 -903 -210 -71 -27 -82 -35 -77 -51
8 -23 8 -23 -40 1 -190 97 -332 -157 -284 -507 6 -43 44 -229 84 -413 41 -184
106 -480 144 -657 140 -638 376 -1717 461 -2103 38 -173 110 -502 160 -730 50
-228 122 -557 160 -730 38 -173 110 -502 160 -730 50 -228 122 -557 160 -730
78 -355 161 -734 449 -2051 111 -503 201 -920 201 -926 0 -5 -29 -18 -64 -27
-147 -40 -398 -184 -596 -343 -108 -86 -325 -301 -422 -419 -312 -379 -545
-838 -634 -1254 -26 -120 -27 -427 -1 -520 138 -508 696 -517 1317 -22 489
391 894 1003 1051 1589 50 185 59 232 59 318 0 109 -17 246 -40 330 -17 60
-106 463 -450 2035 -38 173 -105 480 -149 683 -45 202 -117 530 -160 730 -44
199 -147 670 -230 1047 -82 377 -223 1016 -311 1420 -145 659 -232 1057 -391
1785 -28 127 -51 240 -51 252 0 12 16 57 36 99 109 231 293 385 544 456 111
32 314 32 426 0 202 -58 385 -178 557 -367 93 -102 143 -169 284 -386 305
-466 386 -577 561 -769 669 -730 1561 -1175 2594 -1292 129 -14 714 -16 794
-2 l48 9 -178 84 c-670 316 -1336 726 -1824 1125 -161 131 -456 423 -561 556
-151 189 -288 408 -374 595 -57 125 -106 244 -226 553 -167 429 -269 640 -404
832 -282 401 -701 643 -1260 726 -121 18 -482 26 -620 14z"/>
</g>
</svg>
