<?xml version="1.0" standalone="no"?>
<!DOCTYPE svg PUBLIC "-//W3C//DTD SVG 20010904//EN"
 "http://www.w3.org/TR/2001/REC-SVG-20010904/DTD/svg10.dtd">
<svg version="1.0" xmlns="http://www.w3.org/2000/svg"
 width="1046.000000pt" height="1280.000000pt" viewBox="0 0 1046.000000 1280.000000"
 preserveAspectRatio="xMidYMid meet">
<metadata>
Created by potrace 1.15, written by Peter Selinger 2001-2017
</metadata>
<g transform="translate(0.000000,1280.000000) scale(0.100000,-0.100000)"
fill="#000000" stroke="none">
<path d="M3566 12753 c-70 -37 -97 -58 -133 -102 -83 -105 -143 -260 -179
-460 -8 -48 -24 -124 -34 -171 -10 -47 -23 -123 -29 -170 -17 -132 -41 -493
-41 -616 0 -109 0 -111 28 -131 15 -11 41 -23 57 -27 93 -22 115 -25 164 -26
53 0 53 0 46 -27 -9 -38 -20 -49 -97 -100 -49 -32 -72 -55 -84 -83 -12 -27
-27 -42 -53 -53 -44 -17 -157 -102 -176 -131 -44 -67 -85 -277 -85 -431 0 -38
-6 -180 -15 -315 -41 -670 -44 -807 -20 -887 22 -74 43 -96 101 -102 69 -8 70
-30 3 -89 -135 -118 -155 -142 -182 -227 -45 -137 -56 -218 -57 -405 -1 -125
4 -221 19 -334 19 -143 24 -164 52 -208 44 -68 109 -122 182 -149 51 -20 81
-24 167 -24 128 0 169 17 272 114 147 138 277 400 308 622 7 46 17 95 23 107
7 14 11 85 12 175 0 178 -12 215 -81 251 -54 29 -235 28 -387 -2 -138 -28
-217 -29 -217 -4 0 54 93 108 266 153 221 58 369 74 408 44 23 -17 82 -20 91
-5 11 19 -6 49 -39 70 -30 18 -50 20 -178 20 -79 0 -194 -7 -254 -15 -60 -9
-119 -13 -131 -10 -43 10 -27 40 45 83 105 64 111 65 257 56 229 -13 258 -6
284 77 7 24 40 116 72 204 61 171 149 494 149 551 0 19 7 45 15 58 12 19 16
62 18 212 2 179 1 193 -23 259 -25 71 -85 145 -153 190 -42 27 -274 26 -472
-3 -201 -30 -223 -29 -231 4 -8 30 -3 34 76 66 58 24 43 23 460 15 49 -1 87 2
89 8 12 27 -189 85 -299 85 -50 0 -65 12 -51 38 17 31 82 45 196 40 91 -3 107
-7 175 -40 41 -20 89 -39 107 -43 31 -6 33 -4 88 79 31 47 67 116 80 153 13
38 37 104 53 149 36 95 84 325 108 509 33 262 1 664 -61 771 -33 55 -172 204
-191 204 -8 0 -43 16 -80 35 l-66 35 -141 0 -142 -1 -89 -46z"/>
<path d="M6487 11949 c-83 -23 -175 -66 -242 -111 -103 -69 -255 -289 -363
-523 -36 -77 -70 -147 -77 -155 -6 -8 -20 -44 -29 -80 -23 -84 -209 -649 -296
-900 -40 -115 -70 -219 -74 -255 -5 -56 -9 -64 -61 -120 -82 -87 -157 -248
-254 -540 -43 -132 -113 -338 -155 -458 -81 -233 -93 -299 -58 -329 25 -22 46
-27 185 -43 69 -7 135 -18 146 -25 27 -14 29 -60 2 -60 -22 0 -69 -35 -60 -45
4 -3 36 -11 73 -17 58 -10 66 -14 66 -33 0 -30 -21 -35 -150 -35 -126 -1 -164
-14 -256 -95 -60 -53 -154 -186 -154 -218 0 -8 -11 -62 -24 -119 -34 -141 -49
-313 -37 -408 18 -136 39 -227 70 -302 40 -94 51 -110 116 -158 52 -38 58 -40
127 -40 64 0 84 5 148 36 177 84 296 187 404 349 111 166 236 459 236 553 0
37 -6 48 -67 109 -38 37 -90 84 -118 103 -30 21 -51 44 -53 58 -3 19 1 22 33
22 41 0 81 -18 144 -67 24 -18 52 -33 63 -33 23 0 71 24 115 58 89 67 293 407
346 577 8 28 52 186 97 353 l82 304 -27 28 c-14 15 -48 39 -73 53 -81 44 -392
157 -516 187 -65 16 -129 36 -142 45 -32 21 -40 59 -20 90 17 26 30 29 129 25
40 -1 52 3 72 24 36 39 93 49 237 43 106 -5 133 -10 155 -26 16 -11 66 -31
113 -45 47 -13 105 -32 129 -40 66 -24 93 -21 127 17 27 28 33 48 53 157 26
147 63 279 91 327 11 19 20 41 20 50 0 9 52 145 114 302 123 306 207 545 259
731 27 98 31 132 32 230 0 115 0 117 -39 194 -64 130 -179 227 -310 262 -76
20 -246 17 -329 -7z"/>
<path d="M744 11792 c-206 -71 -313 -353 -314 -823 0 -231 13 -267 110 -313
39 -18 64 -21 192 -21 158 -1 175 -6 164 -48 -7 -27 -30 -38 -126 -56 -81 -15
-139 -16 -188 -1 -53 17 -62 7 -54 -54 7 -60 18 -83 46 -101 28 -18 24 -19
142 50 40 24 66 14 62 -22 -2 -22 -14 -34 -55 -56 -110 -59 -139 -141 -164
-469 -21 -267 15 -493 111 -683 120 -240 213 -334 331 -335 25 0 83 11 130 25
83 25 128 26 156 3 32 -25 -56 -92 -137 -104 -62 -9 -136 -51 -161 -90 -18
-30 -19 -39 -9 -121 29 -241 100 -666 121 -720 6 -15 24 -77 40 -136 32 -118
79 -230 110 -263 11 -12 52 -36 91 -54 97 -45 181 -47 253 -7 78 43 162 122
185 175 54 122 63 182 68 452 2 143 -1 296 -7 349 -13 120 -100 492 -117 507
-8 6 -14 24 -14 40 0 17 -20 63 -46 108 -55 94 -61 130 -39 216 19 73 16 131
-15 345 -33 221 -85 395 -206 691 -73 180 -77 195 -90 314 -7 69 -14 184 -14
255 -1 209 -35 600 -57 665 -78 220 -306 349 -499 282z"/>
<path d="M8925 10540 c-3 -5 -28 -10 -54 -10 -115 0 -320 -99 -427 -207 -49
-49 -185 -232 -279 -378 -43 -66 -95 -142 -116 -170 -86 -114 -263 -456 -309
-595 -14 -41 -41 -97 -61 -125 -68 -93 -159 -265 -159 -298 0 -7 52 -24 121
-41 172 -41 329 -123 329 -172 0 -14 -7 -16 -50 -10 -28 4 -87 20 -131 36 -83
31 -119 37 -119 20 0 -5 27 -39 60 -76 46 -50 60 -73 60 -96 l0 -31 -52 6
c-36 4 -95 27 -185 72 -73 36 -143 65 -156 65 -37 0 -63 -33 -318 -395 -183
-261 -301 -441 -353 -538 -67 -125 -67 -121 3 -157 54 -27 61 -34 61 -60 0
-43 -50 -55 -156 -36 -53 9 -83 10 -91 4 -7 -6 -13 -31 -13 -57 0 -46 -1 -46
-49 -69 -91 -41 -186 -164 -382 -492 -121 -201 -144 -251 -159 -342 -31 -195
107 -378 298 -395 72 -7 227 14 242 32 6 8 23 16 38 20 33 7 140 86 224 166
35 32 67 59 71 59 15 0 128 92 189 154 97 98 123 177 93 279 -10 34 -27 71
-36 82 -34 39 -77 140 -81 193 -5 48 -10 58 -65 115 -111 116 -118 147 -33
147 65 0 107 -18 183 -79 34 -26 85 -60 112 -74 28 -14 82 -55 122 -91 46 -43
79 -66 95 -66 57 1 253 176 351 313 130 184 278 446 309 548 10 35 8 41 -32
105 -79 126 -110 214 -75 214 21 0 80 -55 106 -98 38 -64 59 -83 80 -71 28 15
24 67 -10 120 -15 24 -56 75 -90 113 -64 72 -74 103 -32 98 28 -3 130 -63 178
-105 33 -29 74 -44 144 -54 32 -4 38 -1 71 39 44 54 78 116 78 143 0 12 4 25
9 31 5 5 21 47 36 94 15 47 47 123 71 170 23 47 66 137 95 200 156 347 170
369 251 396 68 22 115 67 187 179 157 242 265 507 277 677 11 169 -32 286
-146 390 -74 69 -128 97 -182 98 -21 0 -38 5 -38 10 0 6 -22 10 -49 10 -28 0
-53 -4 -56 -10z"/>
<path d="M2230 7029 c-19 -5 -100 -14 -180 -18 -178 -11 -359 -44 -419 -77
-24 -13 -49 -24 -57 -24 -7 0 -61 -38 -120 -85 -58 -47 -138 -104 -178 -127
-108 -63 -273 -185 -347 -258 -129 -129 -195 -227 -317 -474 -128 -259 -150
-314 -162 -403 -5 -36 -25 -98 -48 -150 -84 -184 -99 -256 -148 -718 -24 -231
-49 -421 -54 -423 -6 -2 -10 -34 -10 -72 0 -99 -25 -325 -75 -675 -24 -170
-49 -350 -55 -400 -6 -49 -22 -147 -35 -218 -35 -180 -33 -313 11 -672 16
-135 19 -145 120 -363 55 -121 166 -272 270 -371 108 -102 332 -258 417 -290
32 -11 75 -29 95 -40 91 -46 452 -142 599 -160 63 -7 66 -7 146 36 45 24 96
53 113 64 25 15 61 21 170 28 77 5 213 15 304 22 109 8 180 9 205 3 37 -9 40
-12 37 -39 -5 -42 -15 -50 -87 -76 -57 -20 -126 -69 -125 -88 1 -3 44 -26 97
-51 53 -25 123 -62 156 -83 103 -67 291 -167 315 -167 30 0 29 20 -13 191 -19
79 -35 161 -35 182 0 130 73 463 126 577 126 270 260 515 302 554 20 17 22 17
51 0 17 -10 31 -22 31 -27 0 -16 -23 -53 -103 -161 -89 -121 -147 -225 -147
-262 0 -14 -9 -37 -20 -52 -27 -36 -66 -197 -80 -326 -25 -226 33 -544 137
-750 128 -255 464 -489 771 -536 37 -6 76 -14 87 -19 23 -11 260 -31 356 -31
37 0 103 7 146 15 299 57 515 207 919 636 148 158 185 192 242 222 149 79 318
222 436 369 73 91 206 335 206 378 0 15 7 34 16 41 15 12 16 33 11 164 -6 170
-9 182 -111 405 -55 121 -61 141 -59 195 3 121 101 335 209 455 92 102 119
163 118 262 -1 43 -6 83 -11 90 -6 7 -14 29 -18 48 -11 54 -65 148 -118 207
l-49 53 17 92 c11 57 19 170 22 293 6 229 -8 361 -59 560 -17 66 -33 130 -35
142 -3 14 9 42 37 83 52 76 103 187 120 257 16 69 19 335 4 354 -6 8 -14 33
-17 56 -3 24 -18 64 -34 89 -15 25 -43 71 -61 102 -74 125 -286 349 -444 468
-124 93 -274 168 -338 169 -44 0 -45 -1 -48 -35 -2 -19 4 -60 13 -90 9 -30 15
-71 13 -90 -3 -31 -7 -35 -33 -37 -26 -3 -35 4 -68 52 -87 126 -437 407 -629
505 -102 53 -119 65 -140 102 -27 49 -93 103 -146 118 -102 29 -185 33 -354
16 -92 -9 -186 -16 -210 -16 -24 0 -62 -7 -85 -15 -32 -11 -96 -15 -255 -16
-117 -1 -222 2 -233 7 -35 13 -149 85 -182 115 -48 41 -198 114 -300 145 -48
14 -99 32 -113 39 -14 8 -46 18 -72 24 -57 13 -359 13 -408 0z"/>
<path d="M9147 3044 c-82 -19 -167 -44 -190 -55 -115 -58 -217 -130 -296 -210
-87 -86 -171 -146 -191 -134 -6 3 -17 21 -24 39 -17 41 -54 53 -96 31 -16 -8
-55 -47 -86 -86 -31 -39 -77 -84 -102 -100 -53 -34 -130 -65 -139 -56 -3 4 0
20 7 36 33 82 -28 109 -100 45 -21 -20 -65 -74 -96 -120 -31 -47 -64 -89 -73
-94 -11 -5 -88 2 -206 20 -105 16 -210 29 -235 30 -25 0 -146 -12 -270 -26
l-225 -26 -52 -40 c-119 -91 -232 -258 -253 -376 -5 -26 -15 -65 -24 -87 -30
-78 -12 -285 33 -378 18 -37 31 -49 79 -70 81 -36 136 -28 259 34 134 68 256
104 478 138 72 12 188 32 260 46 71 14 141 25 155 25 15 0 59 16 98 35 77 37
99 63 179 210 38 70 66 92 75 58 3 -10 -6 -108 -20 -219 -25 -201 -25 -247 2
-257 8 -3 36 1 63 9 26 8 68 19 93 24 46 9 545 -8 880 -31 189 -13 157 -16
425 41 215 46 331 83 441 140 134 70 233 140 301 214 116 127 169 272 160 436
-14 260 -119 425 -371 585 -104 66 -137 81 -275 124 -299 95 -415 103 -664 45z"/>
</g>
</svg>
